<?xml version="1.0" encoding="utf-8"?>
<!-- Generator: Adobe Illustrator 22.1.0, SVG Export Plug-In . SVG Version: 6.00 Build 0)  -->
<svg version="1.1" id="Слой_1" xmlns="http://www.w3.org/2000/svg" xmlns:xlink="http://www.w3.org/1999/xlink" x="0px" y="0px"
	 viewBox="0 0 503.5 502.5" style="enable-background:new 0 0 503.5 502.5;" xml:space="preserve">
<style type="text/css">
	.st0{fill:#010101;}
</style>
<g id="_x23_010101ff">
	<path class="st0" d="M18.2,0.3c6.6-1.2,13.3,1.4,18,6.1c71.9,71.4,143.6,143,215.6,214.4c70.1-69.9,140-140,210.1-210
		c3.8-3.9,7.8-8.2,13.2-9.8c12.3-4.2,26.8,5.9,27.4,18.8c0.4,5.3-1.5,10.6-5.2,14.4c-71.8,72.2-143.7,144.4-215.5,216.6
		c71.7,72,143.7,143.7,215.5,215.6c4.1,4,6.5,9.7,6.3,15.4c-0.2,10.8-9.9,20.5-20.7,20.7c-5.8,0.2-11.4-2.2-15.4-6.3
		c-71.9-71.8-143.6-143.8-215.6-215.5c-71.6,71.7-143,143.7-214.5,215.5c-3.8,3.8-9,6.3-14.5,6.3c-11.2,0.3-21.4-9.6-21.7-20.8
		c-0.2-5.7,2.3-11.3,6.3-15.4c71.4-71.9,143-143.7,214.4-215.6c-69.9-69.8-140-139.3-210-209.1C7.1,37,1.6,32.2,0.4,25.3
		C-2.1,13.9,6.9,2,18.2,0.3z"/>
</g>
</svg>
