<?xml version="1.0" encoding="utf-8"?>
<!-- Generator: Adobe Illustrator 22.1.0, SVG Export Plug-In . SVG Version: 6.00 Build 0)  -->
<svg version="1.1" id="Слой_1" xmlns="http://www.w3.org/2000/svg" xmlns:xlink="http://www.w3.org/1999/xlink" x="0px" y="0px"
	 viewBox="0 0 511.6 318" style="enable-background:new 0 0 511.6 318;" xml:space="preserve">
<style type="text/css">
	.st0{fill:#231F20;}
</style>
<g id="_x23_231f20ff">
	<path class="st0" d="M48.5,1c2.7-1.2,5.7-0.9,8.5-1c120.7,0.1,241.4,0,362,0c4.3-0.3,8.3,2.5,10.2,6.3
		c10.9,26.3,22.3,52.4,33.3,78.7c0.9,2,1.7,4.2,3.7,5.3c10.4,6.9,20.9,13.8,31.4,20.7c8.9,6.5,14.3,17.6,13.9,28.6
		c-0.1,42.3,0,84.7,0,127c0.3,5.7-4.7,10.8-10.4,10.8c-10.3,0.2-20.5-0.2-30.8,0.2c-4.7,17.7-18.9,32.5-36.3,38.1
		c-8.8,2.9-18.5,3.1-27.4,0.5c-18.1-5.2-33-20.3-37.9-38.5c-59.1-0.1-118.2-0.2-177.2,0c-4.6,16.9-17.7,31-34.1,37.2
		c-9.9,3.8-21.2,4.1-31.3,0.8c-17.4-5.6-31.4-20.4-36.3-38c-7.3-0.1-14.5,0.1-21.8-0.1c-5.5,0.1-10.6-4.6-10.6-10.1
		c-0.2-10.9,0.1-21.8-0.1-32.7c-4.2,0.1-9,0-12-3.5c-4.6-4.8-2.4-11.9-2.9-17.8c0.5-5.8-1.5-12.4,2.3-17.4
		c3.8-5.1,12.3-5.4,16.4-0.5c4.4,4.9,2.1,11.9,2.8,17.8c92.3-0.2,184.5,0,276.8-0.1c0-63.9-0.1-127.8,0-191.7
		c-29.2-0.3-58.4,0-87.6-0.1c-63.1,0-126.2-0.1-189.3,0c-0.5,5.3,1.1,11.2-1.6,16.1c-2.8,5-9.8,6.7-14.7,3.6c-3.3-2-5.2-5.8-5.1-9.6
		c0-7,0-14,0-21.1C42.4,6.5,44.9,2.6,48.5,1 M362.1,21.4c-0.1,21.3-0.1,42.7,0,64.1c17.3,0.2,34.7-0.1,52.1,0.1
		c6.1,0.2,10.8,6.6,9.5,12.5c-0.8,4.9-5.5,8.8-10.5,8.7c-17,0.1-34,0-51,0c-0.3,35.5-0.2,71,0,106.4c42.7-0.1,85.3,0,128,0
		c0.2-25.3,0-50.5,0.1-75.8c0.2-3.2-0.9-6.6-3.8-8.3c-12-8.1-24.1-15.9-36.1-23.9c-2-1.3-3.7-3.2-4.5-5.4
		c-10.7-25.3-21.5-50.5-32.1-75.8c-0.5-1.1-0.9-3-2.6-2.7C394.8,21.4,378.4,21.3,362.1,21.4 M78.8,234.6c0,7.2-0.2,14.5,0.2,21.7
		c3.4,0,6.8,0,10.2,0c2-7.8,5.4-15.2,10.2-21.8C92.4,234.7,85.6,234.5,78.8,234.6 M136.5,234.9c-6.9,0.7-13.7,3.5-18.5,8.5
		c-6.3,6.3-8.8,15.5-8.1,24.1c-0.1,10.1,5.3,20.1,14.2,25.1c12.3,6.6,29.3,5.4,39.4-4.7c7.7-7.8,9.5-19.6,7.5-30
		c-1.4-7.6-6-14.5-12.6-18.6C151.9,235.2,144,234.1,136.5,234.9 M182.1,234.5c4.8,6.5,8.3,13.9,10.2,21.7c58.6,0,117.1,0,175.7,0
		c1.9-7.8,5.4-15.2,10.2-21.7C312.8,234.5,247.4,234.6,182.1,234.5 M415.4,234.9c-7.1,0.6-14.2,3.7-19,9c-5.9,6.3-8.4,15.2-7.7,23.7
		c0,9.3,4.6,18.8,12.5,24c12.6,8,31.3,7,41.7-4.2c5.1-5.6,7.7-13.2,7.6-20.7c0.5-8.6-2.3-17.6-8.6-23.6
		C434.9,236.1,424.8,233.8,415.4,234.9 M461,234.6c4.7,6.4,8.1,13.7,10.1,21.4c6.4,0,12.7,0.1,19.1,0c0.2-7.1,0.1-14.3,0-21.4
		C480.5,234.5,470.7,234.6,461,234.6z"/>
	<path class="st0" d="M0.1,75.5c-0.9-5.7,4.3-11.2,10-11.1c14.7-0.1,29.4-0.1,44.1,0c5.3-0.3,10.1,4.1,10.7,9.3
		c0.9,5.8-3.8,11.8-9.8,12c-11.3,0.3-22.6,0-34,0.1c-0.1,7-0.1,14,0,21c9,0.1,18-0.1,26.9,0.1c5.2,0.1,10,4.5,10.2,9.8
		c0.7,5.8-4.4,11.4-10.2,11.5c-9,0.2-18-0.1-26.9,0.1c-0.1,10.8,0.1,21.7-0.1,32.5c-0.3,5.1-4.8,9.6-9.9,9.8
		c-5.5,0.5-11.3-4.1-11-9.8C0.1,132.2,0.1,103.8,0.1,75.5z"/>
	<path class="st0" d="M78.4,74.6c0-5.2,4.5-9.9,9.7-10.1c4.7-0.2,9.4,0,14-0.1c9.4,0.2,19.3-1.2,28,3.3
		c12.2,5.2,18.8,19.1,17.9,31.9c-0.8,10.8-6.3,21.6-16,27c-1.4,0.6-0.1,2,0.3,2.8c4.9,8.3,9.9,16.7,14.8,25.1
		c3.3,5.2,0.7,12.8-4.9,15.1c-4.8,2.2-10.9,0.1-13.5-4.5c-6.6-11.2-13.1-22.3-19.6-33.5c-3.1,0-6.2,0-9.3,0
		c-0.2,9.6,0.1,19.3-0.1,28.9c-0.2,5.4-5.1,10-10.5,9.9c-5.5,0.2-10.6-4.5-10.7-10C78.2,131.8,78.3,103.2,78.4,74.6 M99.8,85.7
		c0,8.2-0.4,16.4,0.2,24.5c5.9-0.1,11.8,0.1,17.7-0.4c3-0.3,5.2-2.6,7-4.8c2.8-3.4,2.3-8.1,1.8-12.1c-1.4-4.2-5.7-7.9-10.3-7.4
		C110.7,85.6,105.2,85.7,99.8,85.7z"/>
	<path class="st0" d="M174.1,68.5c2.3-3.1,6.2-4.5,10-4.2c13,0.1,26.1-0.1,39.1,0.1c6.6,0.4,11.2,8,8.9,14.1
		c-1.5,4.1-5.5,7.1-9.9,7.2c-9.6,0-19.3,0-28.9,0c0.1,7,0,14,0,21c7.9,0.1,15.8-0.1,23.7,0.1c5.8,0.2,10.4,6.1,9.6,11.8
		c-0.4,4.9-4.7,9.2-9.6,9.4c-7.9,0.2-15.8-0.1-23.7,0.2c0.2,7-0.1,14,0.1,21c9.3-0.1,18.5,0,27.8-0.1c4.8-0.3,9.7,2.8,11,7.6
		c2.2,6.5-3.2,13.9-10.1,13.7c-13,0.1-26.1,0-39.1,0c-3.9,0.2-7.7-1.9-9.6-5.3c-2.1-3.5-1.4-7.7-1.5-11.6c0-24,0-48,0-72
		C172,77.2,171.1,72.2,174.1,68.5z"/>
	<path class="st0" d="M257.3,74.5c0-5.6,5.2-10.4,10.7-10.1c13,0,26.1,0,39.1,0c5.6-0.2,10.7,4.6,10.8,10.2
		c0.4,5.9-4.9,11.3-10.8,11.1c-9.5,0.1-19,0-28.4,0.1c-0.2,7-0.1,14-0.1,21c7.8,0.1,15.6-0.1,23.4,0.1c5.8,0.2,10.6,6,9.8,11.7
		c-0.4,5.1-4.9,9.4-10,9.6c-7.7,0.1-15.5-0.1-23.2,0.1c0,6.8-0.2,13.6,0,20.3l0.6,0.6c9.6,0.4,19.2-0.1,28.8,0.2
		c5.6,0.2,10.2,5.7,9.8,11.3c-0.2,5.5-5.3,10.2-10.8,10c-13.3,0-26.6,0.1-39.9-0.1c-5.6-0.2-10.2-5.3-9.9-10.9
		C257.3,131.2,257.2,102.8,257.3,74.5z"/>
</g>
</svg>
