<?xml version="1.0" encoding="utf-8"?>
<!-- Generator: Adobe Illustrator 22.1.0, SVG Export Plug-In . SVG Version: 6.00 Build 0)  -->
<svg version="1.1" id="Слой_1" xmlns="http://www.w3.org/2000/svg" xmlns:xlink="http://www.w3.org/1999/xlink" x="0px" y="0px"
	 viewBox="0 0 335.8 175.9" style="enable-background:new 0 0 335.8 175.9;" xml:space="preserve">
<path d="M335.8,5.8c0.5,6.3-6.6,10.4-10.9,14.8c-46.5,46.5-93,93.1-139.5,139.8c-2.9,3-6,6-9.5,8.6c-3.5,2.6-7.1,5.6-11.8,6.7
	c-3.5,0.8-7.1-0.7-9.9-2.4c-5.9-3.6-11.1-7.9-15.2-12.9c-42.5-46.5-85.2-93-127.7-139.5c-3.8-4-9.1-7.3-11-12.3
	c-1-2.4,0.4-5.1,3.2-6.2C8.9,0.2,15.2,0.1,21.2,0c97,0,194,0,291.1,0c6,0,12.1,0.1,17.9,1.6C332.6,2.3,335.2,3.6,335.8,5.8z"/>
</svg>
