<?xml version="1.0" encoding="utf-8"?>
<!-- Generator: Adobe Illustrator 22.1.0, SVG Export Plug-In . SVG Version: 6.00 Build 0)  -->
<svg version="1.1" id="Слой_1" xmlns="http://www.w3.org/2000/svg" xmlns:xlink="http://www.w3.org/1999/xlink" x="0px" y="0px"
	 viewBox="0 0 479.3 444.1" style="enable-background:new 0 0 479.3 444.1;" xml:space="preserve">
<style type="text/css">
	.st0{fill:#010101;}
</style>
<g id="_x23_010101ff">
	<path class="st0" d="M145.9,0.2c6.9-0.4,13.8-0.1,20.5,1.6c14.2,4,26.5,13,36.7,23.6C214.6,37.8,224,52,231.5,67.2
		c1.7,2.7,2.6,6.9,6.2,7.6c2.9,0.9,6.6-0.2,7.7-3.2c11.2-22.2,24.8-44.2,45.2-58.8c7.5-5.3,15.9-9.5,24.9-11.6
		c15.9-2.9,33.1-0.5,47,8c15.3,8.9,25.5,25.3,28.2,42.7c1.5,10.9,1.4,22.5-3.1,32.7c-3,7.2-7.6,13.6-13,19.2c-3.3,3.5-7.8,6-10.4,10
		c-2.3,4.4,2.1,9,6.5,8.8c29.3,0.3,58.7,0.1,88,0.2c4.5,0.1,9.2-0.6,13.5,0.8c4.4,1.8,7.3,6.5,7.1,11.2c0,23.1,0,46.1,0,69.2
		c0.1,4.2-2,8.5-5.8,10.5c-2.6,1.6-5.7,1.6-8.4,2.8c-2.6,1.5-3.4,4.7-3.4,7.5c-0.1,69.4-0.1,138.7-0.1,208.1c0.5,6-5.1,11.6-11,11.2
		c-141,0-282,0-423.1,0c-5.5-0.3-10.5-5.7-10-11.3c0-69.7,0.1-139.4-0.1-209.1c-0.1-3.2-1.8-6.8-5.4-7.1c-5.6-0.6-11.9-4.6-12-10.8
		C-0.1,182,0,158.2,0.1,134.5c-0.4-6.3,5.3-12,11.5-11.7c32-0.1,64.1,0.1,96.1-0.2c3.6,0.2,7.9-1.9,8.1-6c0.1-3.2-2.5-5.3-4.7-7.2
		c-10.7-8.6-19.5-20.3-22.3-34c-2.1-11.9-1.2-24.3,2.9-35.7c5.6-16,18.5-29.2,34.3-35.2C132.4,2,139.1,0.7,145.9,0.2 M145.9,23.3
		c-4.2,0.3-8.3,0.9-12.4,2c-8,2.1-15.5,7.3-18.6,15.2c-4.8,12.4-5.9,27-0.3,39.3c6.4,12.9,19.2,20.8,31.9,26.5
		c20.3,8.7,42.2,12.7,64.1,15.1c3.4,0.3,6.9,0.9,10.2,0.2c3.3-0.6,5.6-4.4,4.5-7.6c-4.8-20.3-12.7-40-24.3-57.4
		c-5.7-8.1-11.8-16.2-19.9-22.1C171.4,26.3,158.5,22.2,145.9,23.3 M324.1,23.3c-13.4,1.3-25.3,9-34.4,18.6
		C271.4,62,260.1,87.6,254,113.9c-1.3,4,2.4,8.1,6.5,7.9c14.2-0.5,28.3-3,42.2-6c13.7-3.1,27.2-7.4,39.5-14.3
		c7.1-4.3,14.3-9.1,19-16.1c6.2-8,7.9-18.6,7-28.4c-0.8-9.2-3-19.1-10.1-25.5C348.6,23.8,335.7,22.8,324.1,23.3 M29.9,146.1
		c-3.5,0.1-6.7,3.1-6.5,6.7c-0.3,10.4,0,20.7-0.1,31.1c-0.1,2.6,0.3,5.4,2,7.4c1.5,1.3,3.5,1.5,5.4,1.6c69.7,0,139.4,0,209.1,0
		c6.3-0.2,12,5.6,11.5,11.9c0.2,6.1-5.5,11.5-11.6,11.3c-63.3,0.1-126.7-0.1-190,0.1c-2.4,0-5,0.2-6.8,1.9c-2.3,2.7-2.1,6.5-2,9.8
		c0.1,60-0.2,120,0,179.9c0.1,3.2-0.4,6.6,0.8,9.7c1.4,2.5,4.2,3.6,7,3.5c74.7,0,149.5,0,224.2-0.1c1.8-0.1,4-0.2,5.4-1.5
		c3.3-2.4,2.3-7,2.5-10.5c0.1-82.7,0-165.3,0-248c-0.1-3.9,0.5-8.1-1-11.8c-1.4-2.4-4.3-3.2-6.9-3.1
		C191.8,146,110.8,145.8,29.9,146.1 M309.9,146.1c-3.5,0.1-6.1,3.3-6,6.7c-0.1,11.3-0.1,22.5,0,33.8c0.1,4,3.9,6.8,7.7,6.3
		c46.1,0,92.1,0.1,138.2-0.1c3.9,0.2,6.2-3.5,6.2-7c0-9.6,0-19.3,0-28.9c-0.1-2.5,0.1-5.2-1-7.5c-1.5-2.5-4.6-3.5-7.4-3.4
		c-42.7,0-85.4-0.1-128.1-0.1C316.4,146,313.1,145.7,309.9,146.1 M310.1,216.3c-4,0.1-6.3,3.9-6.2,7.5c-0.1,63.3-0.1,126.7-0.1,190
		c-0.1,3.6,2.8,7.1,6.6,7.1c40.4,0.1,80.9,0.1,121.4-0.1c3.7,0.1,6.9-3.2,6.7-6.9c0-62,0.2-124.1,0.1-186.1c0-3.3,0.2-7.1-2-9.9
		c-2.5-2.1-5.9-1.9-9-1.9C388.4,216.3,349.2,215.8,310.1,216.3z"/>
</g>
</svg>
