<?xml version="1.0" encoding="UTF-8" ?>
<!DOCTYPE svg PUBLIC "-//W3C//DTD SVG 1.1//EN" "http://www.w3.org/Graphics/SVG/1.1/DTD/svg11.dtd">
<svg width="512pt" height="512pt" viewBox="0 0 512 512" version="1.1" xmlns="http://www.w3.org/2000/svg">
<g id="#333333ff">
<path fill="#333333" opacity="1.00" d=" M 32.59 0.00 L 110.39 0.00 C 117.41 1.07 124.33 3.59 129.81 8.20 C 138.44 15.07 143.50 26.00 143.35 37.02 C 143.37 60.01 143.36 82.99 143.35 105.98 C 143.51 115.36 140.07 124.76 133.61 131.60 C 126.87 138.99 116.99 143.33 106.98 143.33 C 84.32 143.42 61.67 143.31 39.01 143.38 C 32.62 143.46 26.10 142.52 20.36 139.56 C 9.13 134.15 1.53 122.69 0.00 110.42 L 0.00 32.60 C 1.38 24.24 4.97 16.07 11.24 10.22 C 16.98 4.53 24.71 1.34 32.59 0.00 Z" />
<path fill="#333333" opacity="1.00" d=" M 217.57 0.00 L 294.42 0.00 C 302.17 1.08 309.79 4.07 315.58 9.43 C 323.32 16.31 327.78 26.59 327.68 36.94 C 327.71 57.62 327.66 78.31 327.70 99.00 C 327.68 103.73 327.90 108.50 327.10 113.19 C 325.19 124.16 317.96 134.03 308.08 139.17 C 302.25 142.33 295.56 143.49 288.99 143.37 C 266.00 143.30 243.01 143.44 220.02 143.31 C 204.79 143.23 190.54 132.43 186.08 117.92 C 184.24 112.48 184.25 106.67 184.29 101.00 C 184.35 79.64 184.28 58.29 184.32 36.94 C 184.24 26.83 188.46 16.78 195.90 9.91 C 201.76 4.28 209.59 1.10 217.57 0.00 Z" />
<path fill="#333333" opacity="1.00" d=" M 401.58 0.00 L 479.40 0.00 C 487.52 1.36 495.48 4.74 501.26 10.74 C 507.26 16.52 510.63 24.48 512.00 32.59 L 512.00 110.39 C 510.61 121.22 504.66 131.47 495.41 137.40 C 489.39 141.40 482.18 143.36 474.98 143.35 C 453.99 143.39 432.99 143.32 412.00 143.38 C 405.82 143.40 399.48 143.53 393.58 141.45 C 379.41 136.88 368.94 122.92 368.71 108.00 C 368.56 84.34 368.66 60.68 368.66 37.02 C 368.49 26.24 373.33 15.54 381.64 8.66 C 387.20 3.78 394.34 1.12 401.58 0.00 Z" />
<path fill="#333333" opacity="1.00" d=" M 12.44 193.44 C 19.11 187.49 28.02 184.28 36.94 184.32 C 59.29 184.28 81.65 184.35 104.01 184.29 C 109.48 184.24 115.05 184.75 120.14 186.88 C 133.57 191.99 143.21 205.61 143.31 220.02 C 143.42 243.67 143.35 267.32 143.34 290.98 C 143.38 300.29 139.76 309.56 133.28 316.26 C 126.32 323.66 116.20 327.87 106.06 327.69 C 83.02 327.68 59.98 327.70 36.94 327.68 C 26.59 327.78 16.31 323.32 9.43 315.58 C 4.07 309.79 1.08 302.17 0.00 294.43 L 0.00 217.57 C 1.20 208.41 5.36 199.51 12.44 193.44 Z" />
<path fill="#333333" opacity="1.00" d=" M 216.43 184.61 C 219.27 184.29 222.14 184.29 225.01 184.30 C 247.36 184.37 269.72 184.24 292.08 184.36 C 306.81 184.55 320.75 194.64 325.51 208.58 C 327.26 213.17 327.73 218.12 327.70 223.00 C 327.64 246.02 327.76 269.05 327.64 292.07 C 327.44 306.80 317.36 320.74 303.41 325.51 C 298.82 327.24 293.88 327.74 289.01 327.71 C 265.98 327.63 242.95 327.77 219.93 327.64 C 205.20 327.45 191.25 317.37 186.49 303.42 C 184.74 298.83 184.25 293.88 184.30 289.00 C 184.39 265.66 184.18 242.30 184.40 218.96 C 184.96 201.74 199.30 186.40 216.43 184.61 Z" />
<path fill="#333333" opacity="1.00" d=" M 379.72 194.72 C 386.61 187.91 396.27 184.17 405.94 184.32 C 428.98 184.31 452.02 184.30 475.06 184.32 C 484.93 184.25 494.76 188.25 501.61 195.39 C 507.52 201.31 510.87 209.36 512.00 217.57 L 512.00 294.42 C 510.89 302.40 507.73 310.24 502.10 316.11 C 495.23 323.54 485.17 327.75 475.06 327.68 C 452.70 327.72 430.33 327.65 407.97 327.71 C 402.25 327.77 396.42 327.15 391.14 324.83 C 380.77 320.55 372.60 311.26 369.85 300.37 C 368.42 295.04 368.61 289.47 368.63 284.00 C 368.67 263.01 368.60 242.02 368.66 221.03 C 368.59 211.22 372.64 201.50 379.72 194.72 Z" />
<path fill="#333333" opacity="1.00" d=" M 8.19 382.19 C 15.07 373.57 26.00 368.48 37.02 368.66 C 60.68 368.66 84.34 368.56 107.99 368.71 C 126.64 368.83 143.17 385.35 143.29 404.00 C 143.45 427.66 143.33 451.33 143.35 474.99 C 143.49 485.76 138.67 496.46 130.36 503.34 C 124.79 508.22 117.65 510.90 110.40 512.00 L 32.60 512.00 C 24.24 510.61 16.07 507.05 10.24 500.75 C 4.52 495.03 1.34 487.29 0.00 479.41 L 0.00 401.59 C 1.09 394.59 3.59 387.66 8.19 382.19 Z" />
<path fill="#333333" opacity="1.00" d=" M 187.17 391.14 C 192.48 378.08 205.87 368.77 220.02 368.69 C 242.68 368.55 265.34 368.71 288.00 368.62 C 293.16 368.56 298.40 368.96 303.29 370.73 C 314.18 374.51 322.93 383.78 326.16 394.84 C 327.96 400.71 327.70 406.93 327.70 413.00 C 327.65 433.69 327.72 454.38 327.68 475.06 C 327.75 485.17 323.54 495.23 316.11 502.10 C 310.24 507.72 302.41 510.89 294.43 512.00 L 217.58 512.00 C 209.37 510.88 201.31 507.52 195.39 501.61 C 188.25 494.76 184.25 484.93 184.32 475.07 C 184.29 452.36 184.33 429.65 184.30 406.95 C 184.27 401.56 185.00 396.10 187.17 391.14 Z" />
<path fill="#333333" opacity="1.00" d=" M 384.83 374.85 C 391.02 370.62 398.55 368.59 406.02 368.64 C 429.01 368.65 452.00 368.62 474.98 368.65 C 486.00 368.49 496.93 373.56 503.80 382.19 C 508.41 387.67 510.92 394.59 512.00 401.60 L 512.00 479.40 C 510.64 487.52 507.26 495.47 501.27 501.26 C 495.48 507.26 487.52 510.63 479.40 512.00 L 401.61 512.00 C 390.54 510.59 380.08 504.39 374.21 494.80 C 370.24 488.64 368.54 481.26 368.63 473.98 C 368.67 450.99 368.59 428.00 368.67 405.01 C 368.63 393.09 374.90 381.44 384.83 374.85 Z" />
</g>
</svg>
