<?xml version="1.0" encoding="utf-8"?>
<!-- Generator: Adobe Illustrator 22.1.0, SVG Export Plug-In . SVG Version: 6.00 Build 0)  -->
<svg version="1.1" id="Слой_1" xmlns="http://www.w3.org/2000/svg" xmlns:xlink="http://www.w3.org/1999/xlink" x="0px" y="0px"
	 viewBox="0 0 512.1 512.1" style="enable-background:new 0 0 512.1 512.1;" xml:space="preserve">
<g id="_x23_1c7eefff">
	<path d="M78.5,0.7C82.6,0.1,86.8,0,91,0c14.7,0,29.3,0,44,0c19.9,0.3,39.5,7.5,54.8,20.2c15.9,13,27.2,31.6,31.1,51.8
		c2.3,10.8,1.6,22,1.7,33c0,10.7,0.1,21.4-0.1,32c-0.7,20.5-9,40.6-22.7,55.8c-13.5,15.1-32.1,25.4-52.1,28.6
		c-9.5,1.7-19.2,1-28.8,1.2c-10.7-0.1-21.4,0.1-32.1-0.1c-19.9-0.4-39.6-7.9-54.8-20.7c-19.3-16-31.4-40.5-31.9-65.8
		c-0.1-15.7,0-31.4,0-47C0,70.5,6,52,17,37C31.3,17.1,54,3.4,78.5,0.7 M80.4,45.4C60.8,49.1,45.2,67.1,44.6,87
		c-0.2,16-0.2,32,0,47.9c0.3,17.2,11.8,33.4,27.7,39.8C77.9,177,84,178,90,178c13.3,0,26.7,0,40,0c6.5,0.2,13.1-0.5,19.2-2.9
		c16.5-6,28.5-22.5,28.8-40.1c0.1-15.4,0-30.8,0-46.1c0-12-5.1-23.9-13.9-32.1c-8-7.7-19-12.2-30.2-12.3c-13.7-0.1-27.3,0-41-0.1
		C88.8,44.5,84.5,44.6,80.4,45.4z"/>
	<path d="M367.5,0.7C374.3-0.2,381.2,0,388,0c12,0,24,0,36,0c18.2,0.2,36.3,6.2,51,16.9c19.5,14,32.9,36.1,36.1,59.9
		c1.2,8,0.8,16.1,0.9,24.2c0,11.3,0,22.7,0,34c-0.3,21-8.4,41.9-22.5,57.5c-11.9,13.5-28,23.2-45.5,27.5c-14.1,3.7-28.7,2.3-43,2.6
		c-15.5-0.3-31.3,1.3-46.4-3.3c-28.5-7.8-52.3-30.7-61.1-58.9c-3.1-9.5-4.3-19.5-4.2-29.4c0.1-14.7-0.1-29.4,0.1-44.1
		c0.3-17.8,6.3-35.3,16.7-49.8C320.4,17.3,343.1,3.6,367.5,0.7 M369.4,45.5C350,49.2,334.5,67.2,334,87c-0.2,15.3,0,30.7-0.1,46
		c-0.1,6.5,1.3,13.1,4,19.1c6.8,15,22.4,25.6,39,26c12.7,0.1,25.4,0,38,0c6.3,0,12.7,0.3,18.8-1.3c15.6-3.8,28.5-16.8,32.3-32.4
		c1.8-6.6,1.3-13.6,1.4-20.4c-0.1-12.3,0.1-24.7-0.1-37c-0.6-17.7-12.9-34.1-29.5-39.9c-10.9-4-22.6-2.2-33.9-2.6
		C392.5,44.9,380.8,43.6,369.4,45.5z"/>
	<path d="M82.5,289.7c16.5-0.6,33-0.1,49.5-0.3c18.6-0.3,37.3,5.4,52.4,16.1c24,16.5,38.8,45.3,38.2,74.5
		c-0.1,14.7,0.1,29.4-0.1,44.1c-0.2,18.8-6.6,37.5-18,52.5c-16,21.3-41.8,34.8-68.5,35.4c-15.7,0.1-31.4,0-47,0
		c-19.3,0-38.5-6.5-53.8-18.2C13.1,477.1-0.4,449.7,0,422c0-14.7,0-29.3,0-44c0-17.8,5.7-35.5,15.9-50.1
		C30.9,306,56,291.4,82.5,289.7 M84.4,334.2c-18.8,1.7-35.3,16.7-38.9,35.2c-1.8,11.1-0.6,22.4-1,33.6c0.5,11.9-1.6,24.3,2.9,35.6
		c6,16.3,22.2,28.2,39.6,28.8c11.7,0.2,23.3,0,35,0.1c8.2-0.1,16.6,0.6,24.6-2c17.5-5.2,30.9-22.1,31.4-40.4
		c0.2-15.4,0-30.7,0.1-46.1c0.2-10.2-3.4-20.4-9.8-28.3c-8.4-10.6-21.8-17.1-35.3-16.8C116.8,334.1,100.6,333.6,84.4,334.2z"/>
	<path d="M371.5,289.7c11.5-0.6,23-0.1,34.5-0.3c12.1,0.1,24.5-0.7,36.4,2.2c31.4,6.8,57.8,31.9,66.2,62.8
		c4.6,15.1,3.1,31.1,3.3,46.6c-0.3,14.7,1.2,29.8-2.8,44.1c-7.8,31.1-33.6,56.7-64.8,64.2c-13.8,3.7-28.2,2.4-42.4,2.6
		c-16.1-0.3-32.7,1.4-48.4-3.6c-30.6-8.7-55.3-34.9-62-66c-2.8-11.3-2.1-22.9-2.2-34.4c0.1-10.7-0.1-21.4,0.1-32.1
		c0.5-22.5,10.1-44.6,26.1-60.4C330.4,300.6,350.6,291.3,371.5,289.7 M370.4,334.6c-15.9,2.8-29.6,14.9-34.4,30.4
		c-2.7,7.7-2,16-2.1,24c0,12-0.1,24,0.1,36.1c0.5,17,12,32.9,27.8,39.1c6,2.5,12.7,3.4,19.2,3.3c14.3-0.1,28.6,0.1,43,0
		c12.8-0.2,25.2-6.3,33.3-16.2c6.6-7.9,10.2-18,10.2-28.3c0-14.7,0-29.3,0-44c0.1-11.7-4.5-23.4-12.8-31.7
		c-7.9-8.2-19.2-13.2-30.6-13.3c-13.4-0.1-26.7,0-40.1,0C379.5,334,374.9,333.8,370.4,334.6z"/>
</g>
</svg>
