<?xml version="1.0" encoding="UTF-8" ?>
<!DOCTYPE svg PUBLIC "-//W3C//DTD SVG 1.1//EN" "http://www.w3.org/Graphics/SVG/1.1/DTD/svg11.dtd">
<svg width="512pt" height="456pt" viewBox="0 0 512 456" version="1.1" xmlns="http://www.w3.org/2000/svg">
<g id="#333333ff">
<path fill="#333333" opacity="1.00" d=" M 56.56 0.00 L 66.34 0.00 C 81.47 2.06 96.09 9.20 105.83 21.16 C 116.63 33.94 121.49 51.48 118.81 67.99 C 116.55 83.00 108.15 96.93 95.98 105.99 C 83.76 115.26 67.78 119.34 52.60 117.19 C 39.14 115.42 26.44 108.69 17.30 98.67 C 6.70 87.28 1.03 71.51 1.90 55.98 C 2.51 40.28 9.94 25.07 21.76 14.74 C 31.33 6.14 43.81 1.21 56.56 0.00 Z" />
<path fill="#333333" opacity="1.00" d=" M 213.44 8.62 C 215.95 8.35 218.47 8.25 221.00 8.22 C 300.67 8.24 380.35 8.21 460.02 8.23 C 470.80 8.12 481.65 11.28 490.40 17.64 C 501.38 25.38 509.08 37.67 511.05 50.97 C 513.77 66.97 508.02 84.09 496.26 95.26 C 486.73 104.63 473.38 109.80 460.04 109.54 C 382.69 109.57 305.35 109.54 228.00 109.56 C 221.46 109.53 214.84 109.83 208.42 108.35 C 193.56 105.22 180.43 94.93 173.82 81.26 C 166.89 67.49 166.89 50.49 173.73 36.69 C 181.07 21.42 196.56 10.36 213.44 8.62 Z" />
<path fill="#333333" opacity="1.00" d=" M 53.44 168.69 C 66.45 167.05 80.03 169.89 91.21 176.77 C 104.63 184.79 114.57 198.41 118.09 213.65 C 121.23 226.95 119.66 241.35 113.49 253.57 C 107.16 266.30 96.09 276.62 82.89 281.92 C 67.56 288.21 49.56 287.62 34.70 280.26 C 21.91 274.04 11.55 263.01 6.14 249.86 C 0.32 235.94 0.15 219.73 5.71 205.69 C 13.30 185.89 32.33 171.02 53.44 168.69 Z" />
<path fill="#333333" opacity="1.00" d=" M 209.38 177.58 C 215.84 176.33 222.45 176.59 229.00 176.59 C 306.00 176.59 382.99 176.57 459.99 176.60 C 473.06 176.39 486.19 181.26 495.66 190.31 C 504.27 198.28 509.90 209.36 511.31 221.00 C 513.42 236.91 507.31 253.62 495.45 264.42 C 485.97 273.31 472.97 278.09 460.02 277.95 C 384.34 277.98 308.67 277.94 233.00 277.96 C 225.60 277.84 218.13 278.38 210.79 277.16 C 196.58 274.90 183.64 266.08 176.13 253.83 C 168.27 241.28 166.48 225.21 171.19 211.19 C 176.72 194.25 191.85 180.88 209.38 177.58 Z" />
<path fill="#333333" opacity="1.00" d=" M 51.74 335.92 C 69.81 333.08 89.00 339.11 102.16 351.81 C 113.44 362.39 120.37 377.46 120.93 392.92 C 121.79 409.17 115.57 425.58 104.31 437.30 C 94.42 447.90 80.58 454.02 66.35 456.00 L 53.78 456.00 C 46.40 454.33 38.91 452.57 32.26 448.85 C 14.51 439.56 2.16 420.93 0.53 400.96 C -0.94 385.07 4.23 368.71 14.62 356.59 C 23.97 345.55 37.38 337.93 51.74 335.92 Z" />
<path fill="#333333" opacity="1.00" d=" M 213.35 345.30 C 216.22 344.97 219.12 344.98 222.01 344.96 C 301.68 344.98 381.35 344.94 461.02 344.98 C 474.63 344.87 488.14 350.62 497.52 360.48 C 508.55 371.77 513.76 388.45 510.98 404.00 C 508.36 420.71 496.62 435.56 481.06 442.12 C 474.14 445.21 466.52 446.35 458.99 446.26 C 379.66 446.26 300.34 446.27 221.01 446.25 C 209.81 446.52 198.48 443.23 189.45 436.54 C 177.43 427.91 169.58 413.75 168.72 398.96 C 167.65 384.51 173.27 369.76 183.61 359.62 C 191.56 351.70 202.22 346.62 213.35 345.30 Z" />
</g>
</svg>
