<?xml version="1.0" encoding="utf-8"?>
<!-- Generator: Adobe Illustrator 22.1.0, SVG Export Plug-In . SVG Version: 6.00 Build 0)  -->
<svg version="1.1" id="Слой_1" xmlns="http://www.w3.org/2000/svg" xmlns:xlink="http://www.w3.org/1999/xlink" x="0px" y="0px"
	 viewBox="0 0 779.2 625.7" style="enable-background:new 0 0 779.2 625.7;" xml:space="preserve">
<style type="text/css">
	.st0{fill:#FFFFFF;}
</style>
<g id="_x23_643821ff">
	<path class="st0" d="M314.2,3.7C445.7-10,581.6,14.3,698.6,76.5c1,0.6,2.8,1.2,2.3,2.7c-4.4,30.8-2.2,62.5,5.6,92.6
		c3.1,13.2,8.2,26.4,7.1,40.2c-0.3,1.6,0.1,3.9-1.6,4.9c-5.8,4-12.1,7.2-18.1,10.8c-11.9-11.9-22.2-26.8-23.8-43.9
		c10.9,9.4,14.9,23.8,22.6,35.4c2.5-10.7,2.1-23.4-5.8-31.9c-11.2-11.4-25.7-18.9-40.4-24.7c-14.2-5.5-28.8-10-43.3-14.7
		c-142.6-45.6-299.7-45.1-441.8,2.3c-18.5,6.3-37.4,11.8-54.4,21.6c-7.8,4.6-15.2,10-21.2,16.8c-7,8.5-7.3,20.3-5.4,30.6
		c7.8-9.1,10.3-21.6,18.6-30.4c2.9-3.2,6.6-5.5,10.6-7c-2.1,9.6-4.6,19.3-9.8,27.8c-5.1,7.7-11.9,14.3-19.6,19.4
		c-13.4,8.9-28.7,14.4-42.5,22.5c-12.9,7.5-23.9,18-33.7,29.2c-1.2,1.4-2.5,2.7-3.8,3.9c0.3-1.6,0.7-3.1,1.2-4.6
		c8.2-23.1,14.4-47,18.5-71.3c0.4-1.9-0.2-3.9-0.7-5.7c-3.5-11.3-9.3-21.9-16.7-31.1c-2.4-2.2-3.2-6.4-1.3-9
		c18.2-13.7,35.3-29.6,56.5-38.8c4.4,29-2.2,58-3.8,86.9c-0.4,3.6,0.3,7.7,3.3,10c4.3,3.5,9.9,4.6,15.1,5.9
		c-4.3-5.5-12.1-9.3-12.6-17c0.4-16.7,6.4-32.6,10-48.8c2.4-11.3,4.5-22.6,5.2-34.2c1.2-17,0-34-2.4-50.8
		C147.2,36.6,230,12.5,314.2,3.7 M344.9,24.8c0,3.6,0.1,7.2,0.3,10.8c1.6,0,3.2,0,4.8-0.1c0,12.1,0.5,24.2,0.4,36.3
		c-1.5,0.3-3.1,0.6-4.6,0.9c0,3.5,0,7.1,0.1,10.6c9.9-0.7,19.8-1.2,29.7-1.2c0.1-3.7,0.1-7.3,0-11c-1.5-0.1-3-0.2-4.6-0.3
		c-0.1-12.1-0.1-24.1,0-36.2c5.4-0.1,10.8-0.4,16.2-0.1c2-0.3,2,2.1,2.6,3.4c3.9,0.1,7.8,0.1,11.7,0.1c0-4.8,0.2-9.7-0.2-14.5
		C382.4,23.3,363.6,23.5,344.9,24.8 M406,24c-0.1,3.5-0.2,7-0.3,10.5c1.5,0.1,2.9,0.1,4.4,0.2c0.3,15.8-0.3,31.6-0.3,47.3
		c6.8,0.8,13.6,0.9,20.5,1.4C438.8,72.6,447,61.5,456,51c-0.3,11.7-0.4,23.3-0.8,34.9c6.8,0.6,13.5,1.6,20.2,2.6
		c1.3-15.7,1.3-31.5,1.9-47.3c1.6,0.1,3.2,0.2,4.8,0.3c0.1-3.5,0.3-7,0.3-10.4c-8.4-1.2-16.8-2.5-25.3-3.3
		c-8.9,10.3-16.9,21.4-25.9,31.7c-0.2-7.7,0.4-15.3,0.3-23c1.6,0,3.1,0.1,4.7,0.1c0.1-3.7,0-7.4-0.1-11
		C426.1,24.9,416.1,24.3,406,24 M282.2,32c-0.1,3.9,0,7.8,0,11.8c1.5-0.2,3-0.3,4.6-0.5c0.4,15.6,1.2,31.2,1.7,46.8
		c16.4-2.2,32.7-4.6,49.2-5.8c0.1-3.7,0.1-7.4,0.1-11.1c-9.8,0.7-19.5,1.8-29.3,2.8c-0.1-4.3-0.4-8.6-0.4-13
		c6.6-0.9,13.2-1.6,19.9-2.2c0-3.6,0-7.3,0-10.9c-6.5,0.1-12.9,1.3-19.4,1.8c-1.7-3.7-0.5-8.4-0.9-12.5c9.8-1.2,19.6-2.2,29.5-2.9
		c0.4-3.7,0.3-7.4,0.2-11.1C318.8,26.3,300.5,29.1,282.2,32 M485.9,32.1c-0.1,3.8-0.2,7.5-0.4,11.3c1.5,0.4,3,0.8,4.6,1.2
		c-0.3,15.7-1.4,31.4-1.5,47.1c6.6,1.1,13.2,2.6,19.9,3.7c0.2-7.4,0.4-14.9,1-22.3c9.2,1.6,18.5,4.6,27.9,3.3c4.1-0.7,9-2.9,9.8-7.5
		c0.9-5.4,1.5-11.8-2.1-16.4c-5.8-7.8-15.5-11-24.5-13.4C509,36.3,497.4,34.2,485.9,32.1 M247.2,39.2c0.1,3.9,0.4,7.8,0.8,11.7
		c1.6-0.3,3.2-0.4,4.8-0.7c0.1,4.1,0.4,8.3,0.3,12.4c-6.1,1.2-12.3,2.4-18.3,4.1c-0.9-4.1-1-8.4-1-12.5c1.5-0.5,3-0.9,4.5-1.4
		c0.1-3.5-0.1-7.1-0.4-10.6c-9.8,2.5-19.5,5.1-29.1,8c0.1,3.5,0.3,7.1,0.6,10.6c1.6-0.3,3.1-0.6,4.7-0.8c0.8,11.9,1.4,23.8,2,35.7
		c-1.5,0.5-3,0.9-4.5,1.4c0.3,3.5,0.4,7,0.7,10.5c9.6-2.6,19.1-5.5,28.8-7.8c0.2-3.5,0-7.1-0.2-10.6c-1.6,0.3-3.2,0.6-4.7,0.9
		c-0.4-4.3-0.7-8.5-0.9-12.8c6.1-1.5,12.1-3.1,18.2-4.2c0.1,4.3,0.3,8.5,0.4,12.8c-1.5,0.3-3,0.6-4.4,0.9c-0.4,3.5,0.1,7,0.1,10.5
		c9.9-1.1,19.5-4.2,29.4-5.5c0-3.5-0.2-7-0.3-10.5c-1.6,0.1-3.1,0.2-4.7,0.3c-0.4-12.1-1-24.1-1.2-36.2c1.4-0.2,2.8-0.5,4.3-0.7
		c0.4-3.7-0.1-7.3-0.1-11C267,34.7,257.2,37.3,247.2,39.2 M553.3,47.4c-0.3,3.5-0.6,6.9-1.1,10.4c1.5,0.6,3,1.3,4.5,1.9
		c-1.4,15.5-2.1,31-3,46.6c6.5,1.9,13,3.9,19.4,6c9.1-8.5,17.7-17.6,26.8-26.1c-0.7,11.6-1.9,23.2-2.4,34.8
		c6.4,2.2,12.5,5.3,19.1,7.3c1.2-15.4,2.6-30.8,3.7-46.2c1.6,0.6,3.2,1.2,4.7,1.8c0.3-3.6,0.6-7.1,0.7-10.7
		c-6.8-2.7-13.5-5.6-20.3-8.3c-1.4-0.4-3.3-1.4-4.6-0.1c-8.6,7.8-16.6,16.3-25.3,24c0.1-7.6,1-15.1,1.5-22.6c1.6,0.3,3.1,0.7,4.7,1
		c0.3-3.4,0.5-6.9,0.8-10.3C573,53.2,563.2,50.2,553.3,47.4 M170.4,62.3c-8.5,3.9-16.2,10.5-19.3,19.6c-2.6,7.1-0.6,14.6-0.4,21.9
		c0.4,6,1.5,13.2,7.3,16.4c6.7,3.7,14.6,1.4,21.4-0.9c10.1-3,19.2-8.3,27.8-14.3c-1.7-2.4-3.3-4.8-5.1-7.2
		c-6.8,3.9-13.7,7.7-21.3,9.9c-2.4,0.7-5.5,0.8-7.1-1.5c-3.1-4.4-2.7-10.1-3.3-15.2c-0.4-5.9-1.2-12.8,3-17.6
		c3.7-3.6,9-5.8,14.2-5.1c2,0.1,2.4,2.4,3.3,3.8c3.7-1.1,7.3-2.4,10.9-3.5c0.5-5.1,0.6-10.3,0.6-15.4
		C191.5,54.2,180.6,57.6,170.4,62.3 M99,114c11.6-2.4,22.9-6.1,34.1-9.9c0.1-3,0.3-6,0.3-9.1C121.5,100.6,110,106.8,99,114
		 M636.5,97.3c1.1,2.9,1.1,6.7,3.5,8.9c10.8,5.5,22.8,8.1,34.4,11.6C662.5,109.7,649.8,102.7,636.5,97.3z"/>
	<path class="st0" d="M510.5,47.9c5.5,0.9,11.8,1.5,15.7,6c2.3,2.8,2.7,8.3-1,10.1c-4.9,1.7-10-0.4-14.9-1.3
		C510,57.8,510.4,52.9,510.5,47.9z"/>
	<path class="st0" d="M715.8,129c23.4,9.8,44.3,25,63,42c0,15.7-10.9,29.3-9.8,45.1c2.6,23.3,9.6,45.9,10.1,69.4
		c-8.3-10.8-18.2-20.3-29.6-27.8c-14.6-9.9-30.9-16.9-47.1-23.7c5.2-6,12.9-9.8,16.7-17c2.3-4.2,1.3-9.1,0.9-13.7
		C717.3,178.7,712.9,153.8,715.8,129z"/>
	<path class="st0" d="M277.5,153.3c12.1-6.2,24.9-12,38.7-12.9c12.3-1,24.8,3.5,33.7,12c7.1,6.8,12.3,15.2,18.1,23
		c10.3,14,22.7,26.3,32.2,40.8c2.7,3.2-0.9,6.9-2.1,10c-9.9-15.9-19.4-32.8-34.7-44.3c-8.6-6.5-19.4-11.4-30.4-9.2
		c0.6-4,1-9.1-2.5-11.9c-2.9-2.3-6.2-5.2-10.3-4.7c-5.1,0.7-10.4,4.5-10.6,10.1c-0.8,4.8,2.3,8.7,5.6,11.7c-1.6,0.3-3.2,0.5-4.8,0.8
		c-2,8.2-6.1,15.7-9,23.6c-2.4,5.5-3.9,11.7-7.4,16.7c-9,3.5-18.8,3-28.2,3.8c-1.5-4.5-2.5-9.1-3.9-13.7c-1.2-4.1-5.9-6-7.1-10
		c0.6-11,2.9-22.2,8.4-31.8C266.6,161.4,271.4,156.3,277.5,153.3 M274.3,177.2c-5.2,3-8.6,8.2-12,12.9c7.9-3.9,15.2-8.6,22.9-12.9
		C281.9,175.4,277.6,175.3,274.3,177.2z"/>
	<path class="st0" d="M313.9,174.3c-5.4-4.1-2.8-14.8,4.3-15c1.7-0.1,3.4,0.1,5.1,0.3c-0.9,2.4-1.9,4.9-2.9,7.3
		c3.3,1,6.6,2.1,9.8,3.1C327.8,176.3,319.1,178.4,313.9,174.3z"/>
	<path class="st0" d="M139.1,197c0.8-9.2,2.8-18.8,8.8-26c-4.5,27.7-8,57,1.4,84.2c10.8,34.3,33.9,63.8,62.2,85.6
		c5.8,4.3,11.7,9.1,14.9,15.8c-3.7-1.7-7-4.1-10.3-6.4c-23.3-16.4-43.4-37.6-57.5-62.5c-10.9-19.1-18.1-40.5-20-62.6
		C137.7,215.7,138.3,206.3,139.1,197z"/>
	<path class="st0" d="M633.3,172.8c7.6,8.9,8,21.2,8.8,32.2c2.6,35.3-9.5,70.5-30,98.9c-12.6,17.5-28.2,32.8-45.9,45.1
		c-5.5,3.7-11,7.5-17.1,10.3c3.8-5.9,9.3-10.3,14.8-14.5c25.1-18.2,46.4-42.2,59.7-70.3c8.1-17,12.8-35.6,14-54.4
		C638.4,204.1,634.7,188.5,633.3,172.8z"/>
	<path class="st0" d="M123.2,183c1.1-4.6,6.3-5.8,9.8-8.1c-6.6,32.8-5.4,68,8.6,98.7c13.2,31,36.6,56.5,62.8,77.2
		c5.2,4.3,11,8,16.2,12.4c-4.5,0.2-8.9,0.3-13.4,0.3c-0.1,3.3,0.2,6.6,0.6,9.9c8,1.2,15.9,3.1,23.8,4.8c-3.5-5-8.1-9-11.5-14
		c10.3,2.7,20.1,7.2,30,11c-3.8-7.9-8.5-15.2-12.2-23.1c13.8,9.8,27.8,19.4,43.4,26c-3.6,12.3-12.2,24.2-8.9,37.5
		c9.3,2.2,18.2-2,27.1-3.9c-1.5,3.3-2.6,6.9-5.2,9.6c-6.6,6.1-13.5,11.8-19.5,18.5c3.8,3.1,7.4,6.4,11.2,9.5
		c-4.2,7.4-8.4,14.7-12.8,22c-0.6-7.1-0.5-14.2-1-21.3c-5.5,6.7-9.8,14.3-15.3,21c-1.7-7.9-2.2-15.9-3.2-23.9
		c-5.5,7.7-10.5,15.7-16.4,23.1c0.1-4.6,0.4-9.2,0.2-13.8c-3.9,4.5-6.8,9.9-10.3,14.7c1.6-14.5,5.4-28.8,5.9-43.4
		c-9.7,16.3-12.9,35.8-23.9,51.5c-0.8-4-1.2-8.1-1.5-12.2c-3.4,5.2-6,10.9-9.8,15.9c-2.8-4.8-1.5-10.9-3-16.1
		c-3.6,6.4-5.9,13.5-9.6,19.8c-3-9-5.5-18-8.4-27c-3.6,3.7-6.6,7.9-9.8,11.9c-5.9,0-11.9,0.1-17.8-0.1c3.4-4.9,7.6-9.2,11-14
		c-7.8,2.4-15.5,5.4-23.3,7.8c3.1-3.8,6.8-7,9.6-11c-7.5,0.3-14.9,2-22.3,2.5c5.2-4.9,12.3-7.2,17.2-12.5
		c-7.9-0.4-15.8,0.9-23.7,0.6c9.7-7.7,22.3-10.4,34.4-11.8c-7-5-14.4-9.5-21.2-14.8c7.9,0.2,15.7,1.4,23.5,1.5
		c-1.3-3.9-2.7-7.8-4.1-11.7c5,1.1,9.9,2.5,14.8,3.8c-4.1-4.2-8.9-7.7-12.9-12c9-0.4,18-0.1,27-0.2c-2.3-3.7-5-7.1-7.3-10.8
		c13,3.9,25.6,9,38.4,13.3c-5.9-6.2-12.6-11.7-18.2-18.2c7.9,2.1,15.4,5.5,23.2,8.1c-5.9-6.8-12.7-13-18.4-20.1
		c3.1,0.3,6.3,0.7,9.4,1c-24.8-18.3-47.6-40-63.8-66.4c-14.3-22.7-22.7-48.9-24.6-75.6C116.9,214.9,118.3,198.5,123.2,183z"/>
	<path class="st0" d="M648.1,176.4c6.9,1.9,11.1,8.7,12.1,15.4c2.1,13.9,3.6,28.1,2.3,42.2c-3.1,37.4-20.5,72.5-45,100.4
		c-8.4,9.3-17.3,18.5-27.4,25.9c-8.2-0.5-16.4-1.1-24.6-1.6c12.2-9.2,24.2-18.7,34.7-29.7c14.7-15.2,27.4-32.5,36.4-51.7
		c7.4-15.6,11.8-32.5,14-49.7C652.5,210.6,649.8,193.4,648.1,176.4z"/>
	<path class="st0" d="M303.8,200.7c7.7-14.2,26-21.6,41.3-16.5c6,1.9,10.9,6.2,15.3,10.5c12.4,12,20.2,27.7,27.6,43.1
		c-19.2,14.4-35.2,32.7-48.5,52.6c-17,25.4-29.7,53.3-41.4,81.4c-22.6-13.6-40.9-34.2-51.3-58.4c-5.3-12.7-8.9-26.5-8.4-40.4
		c-0.7-19.2,5.2-38,13.7-55c1.8-3.5,3.6-7.1,6-10.3c5.6,4.6,5.6,12.5,7.6,19c9.6-0.1,19.5-0.1,28.6-3.6
		C298.4,216,300.2,207.9,303.8,200.7z"/>
	<path class="st0" d="M440.1,204.9c8.3-6.1,17.9-10.6,28.2-11.8c23.4-1.9,48.5,6.7,63.4,25.4c4.4,5.3,6.8,11.7,10.3,17.6
		c4,6.9,8.1,14,10.2,21.7l-0.3,0.7c-7.4,3.8-15.5,6-23.2,9.1c-3,2.6-5,6.1-7.7,8.9c-3-2.5-5.7-5.5-7.4-9c-5.1-9.9-5.2-21.4-9.5-31.6
		c-1.6-4.4-5.7-7.1-9.4-9.5c-10.4-2.1-21.8-4.6-31.9,0c-8.9,4.6-14.6,13.1-20.8,20.6c10.6,5.2,21.2,10.5,31.1,17
		c-7.9,4.4-16.3,7.7-24.1,12.3c11.2,1.1,24.7,0.6,32.7,10c7.7,10.4,8.7,24.1,7.3,36.6c-2.4,16.8-8.4,33.3-18.6,47.1
		c-9.7,13.2-21.9,24.3-34.8,34.3c-17.9,9.9-37,17.5-56.4,23.7c-8.3,2.9-17,4.7-25.3,7.5c-3.5,5.8-6.2,12-9.6,17.8
		c2.5-0.7,5.1-1,7.7-1.1c12.7-0.7,25.4-0.8,38.1-2.4c8.5-1,16.7-3.4,25-5.3c40.8-10.6,76.5-36.5,102.8-69c6.5-7,16.9-6.2,25.5-8
		c2.2,2,4.6,4.4,7.8,4.5c8.2,0.8,16.1-3.8,24.4-1.9c-8.8,6.2-18.7,10.6-27.4,16.9c13.5-3.1,26.4-8.1,40-10.9
		c-5.9,4.9-11.8,9.7-17.7,14.6c11.2-2.1,22.5-3.5,33.9-4.4c-6.6,4.5-13.9,8-20.4,12.6c18.4,0.9,38,0.4,54.6,9.5
		c-19.2,1.6-38.9,3.8-57.7-1.6c1.3,1.6,2.6,3.4,4.7,4c15.9,4.3,31.8,9,46.7,16.3c4.6,2.4,9.4,4.7,13.5,8
		c-10.5,0.4-21.1-0.8-31.4-2.8c6.5,6.1,13.4,12,18.6,19.3c-14.2-3.7-27.4-10-40.8-15.8c6.7,10.8,12.9,22.2,16.3,34.6
		c-6.3-4.7-11.6-10.6-17.7-15.5c2,5.6,4.2,11.1,5.7,16.8c-15.1-11.3-27.3-25.9-40.1-39.5c4.8,11.8,11.8,22.4,18.2,33.3
		c-11.7-6.8-22.6-15-34.4-21.7c1.4,6.6,3.8,13,5.2,19.6c-8-7.9-14.8-16.9-22.2-25.3c1.4,6.5,3.9,12.8,5.4,19.3
		c-11.8-8.2-21.3-19-31.4-29.2c3.4,8.2,8,15.8,11.4,24c-10.6-5.1-20.2-12.1-30.6-17.5c2.6,6.7,8.2,11.9,14.5,15.2
		c11.8,6.3,25.6,8.1,37.1,15.2c-1,2.2-2,4.4-2.9,6.6c-3.5,0.8-7,1.4-10.5,1.8c8.8,3.1,17.5,6.8,25.2,12c-4.9,0.2-9.7,0.1-14.6,0.6
		c11.5,6.3,23.4,13.2,31.1,24.1c-7.1-1.1-14-3.7-21.2-4.3c2.7,4.5,7.6,6.9,11.8,9.8c9.1,5.6,16.8,13.2,24.7,20.2
		c-10.1-3.3-19.8-7.5-29.8-11c7.4,7.7,15.6,14.7,22.1,23.2c-16.3-5.7-30.1-16.5-43.3-27.3c5.3,12.7,10.7,25.3,14.2,38.6
		c-3.6-2.7-6.6-6.2-9.8-9.3c0.5,5.7,0.9,11.3,1.3,17c-4.6-7.2-6.3-15.7-9.5-23.6c-0.7,11.3-0.3,22.6-2.1,33.8
		c-2.5-3.7-3.8-8-5.3-12.2c-2.4-7.5-4.4-15.3-5.4-23.2c-1.1,10.8-1.4,21.6-2.9,32.3c-6.3-9.7-8.4-21.3-10.9-32.4
		c-1.5,7.8-3.5,15.4-5.4,23.1c-4.7-16.4-6.1-33.5-8.9-50.2c-3.4,10.9-5,22.3-8.7,33.2c-3.1-10.3-2.9-21.1-3.1-31.7
		c-1.4,9-2.7,17.9-4.8,26.8c-5-14.2-5.3-29.4-7-44.2c-5.3,7.6-8.9,16.2-15.1,23.1c-3.1-1.7-4-5.3-5.4-8.3c-3.3-9.2-5.8-18.6-8.2-28
		c-2.3,1-4.7,2.1-7,3.2c-0.6-6-0.8-12-1.4-18c-1.1,5.4-2,10.9-2.9,16.4c-4.3-1.5-7.8-4.8-12-6.6c4.8,8,10.4,15.5,14.9,23.7
		c-7.1-2.4-13.7-5.9-20.7-8.4c2.9,4,6,7.8,8.8,11.9c-1.8,1.2-4.6,1.4-5.7,3.2c4.2,8.6,9.6,16.7,13.1,25.6
		c-6.4-3.8-12.2-8.6-18.5-12.6c2.1,3.4,4.5,6.6,6.6,10c-2.4,1.6-4.8,3.2-7.3,4.5c1.7-0.3,3.4-0.6,5.1-0.9
		c2.3,10.6,5.9,20.9,8.1,31.5c-4.9-4.5-8.7-10.1-13.5-14.7c3.1,11.7,6.6,23.3,8.1,35.4c-10.5-14.8-19.2-31-31.9-44.1
		c4.4,10.4,9.5,20.5,12.8,31.3c5,15.1,8.3,30.9,9,46.9c-6.7-10.6-11.8-22-17.5-33.2c1,11.3,2.3,22.6,1.8,34
		c-10.3-14-11.5-32.1-14.1-48.7c-4.3,13-8.4,26.2-14,38.7c-1.7,3.8-3.4,7.6-5.9,10.9c-0.2-8.5,0.9-16.9,1.2-25.3
		c-5.5,4.5-10.4,9.8-16.3,13.9c7-21.4,21.4-39,34.2-57.2c-15.2,17.4-29.6,36-48.3,49.9c7.3-23.7,24.8-42.2,41.4-59.9
		c3.3-4,8.1-7.1,9.6-12.3c1.2-4.2,1.4-8.6,2-12.9c-11.8,17-23.4,34.2-36.9,49.9c-8.3,9.4-16.9,18.9-27,26.4
		c3.9-9.8,9.9-18.5,15.3-27.4c-6.4,2.8-12.2,6.7-18.8,9.2c4.7-7.6,10.8-14.3,15.8-21.8c-5,1.3-9.8,3.1-14.8,4.2
		c7.1-8.8,15.4-16.7,22.4-25.6c-7.6,4.5-14.5,10.1-22.1,14.5c14.8-31.8,29.4-63.6,44.2-95.4c-21.6,41-41.2,82.9-61.1,124.7
		c-2.6,4.3-3.8,11.2-9.7,12c-10.7-1.7-17.4-11.2-23.3-19.5c-9.2,0-18.9,0.2-27.1-4.5c5.4-10.2,11.7-19.8,17.3-29.9
		c11.3-19.6,22.6-39.2,34.7-58.3c1.9-3,3.8-6.1,6.1-8.9c-0.8,6.7-2.2,13.4-2.8,20.2c14.8-8.2,23.4-23.4,32.7-36.9
		c-1.3,8.4-3,16.8-3.7,25.3c11.8-4.7,20.2-14.9,27.2-25.1c4-6,8.2-12,12-18.1c-13.7,1.3-27.4,4.5-41.2,3.1c-6-0.6-11.9-2.4-17.1-5.3
		c5.8-5.6,11.7-11,17.6-16.4c9.6-7.8,21.9-12.3,29.8-22.1c3.1-3.8,4.8-8.5,5.3-13.3c2-17.6,6.4-34.7,10.4-51.9
		c-14.6,11.3-22.2,28.6-30.4,44.6c-6.9,13.5-15.3,27.1-28.7,35.1c-1.8-1.1-3.6-2.3-5.4-3.6c0.3-2.4,0.4-4.8,1.6-6.9
		c17.2-33.3,33.5-67.2,55.1-98c14.6-20.9,31.8-40.3,52.4-55.6C411.4,234.4,423.5,217.1,440.1,204.9 M503.9,209.8
		c-4.9,1.4-7.8,7.1-6.7,11.9c1.3,1.5,3,2.4,4.7,3.5c-2.5-3.4-2.7-8.2-0.1-11.6c2-2.3,5.4-1.4,8.1-1.6c-0.7,2.6-1.8,5.1-2.9,7.7
		c2,0.9,4.8,0.8,6.3,2.5c-0.9,4-5.6,5-9.1,4.4c2,0.7,4,1.6,6.1,2c2.3-0.4,4.5-1.6,6.4-3.1c2.1-1.8,1.8-4.8,1.5-7.3
		C517,211.9,509.8,208,503.9,209.8 M533.1,241.7c5.1,5.1,10,10.4,15.2,15.4c-3.2-7.5-6.7-14.8-10.2-22.2
		C536.2,237.1,534.6,239.3,533.1,241.7 M504.6,405.4c-2,0.4-2.6,2.8-2.5,4.6c0.2,4.5,5.2,9.1,9.7,7.1
		C515.7,412.4,510.4,404.3,504.6,405.4 M360.5,505.2c-4.4,2.2-8.1,8.4-5.1,12.9c5.4,1.4,10-4.2,10.8-9
		C366.7,506,363.2,503.1,360.5,505.2z"/>
	<path class="st0" d="M461.2,230c5.1-3.9,11.9-4,18-3.8c11.8-0.1,22.9,8.1,26.6,19.2c2.6,7.6,1.2,15.6,1.1,23.5
		c14.7,7.7,23.2,24,23.9,40.2c0.7,15.7-3.2,31.5-10,45.6c-7.8,16-19.1,30-31.9,42.1c-27.9,27.2-65.3,43.8-103.8,48.9
		c19-9,37.5-20.3,50.7-37.1c1.9-2.4,3.5-5.1,6-6.9c12.2-9.7,23.8-20.4,33-33.1c10.3-14.1,16.1-31.2,18.4-48.5
		c1.3-12-0.5-25.2-8.1-34.9c-8.2-8.9-21.2-8.4-32.3-9.6c7.9-4.4,16.3-7.7,24-12.3c-9.7-6.4-20.1-11.5-30.6-16.4
		C450.9,241,455.5,234.9,461.2,230z"/>
</g>
</svg>
