<?xml version="1.0" encoding="utf-8"?>
<!-- Generator: Adobe Illustrator 22.1.0, SVG Export Plug-In . SVG Version: 6.00 Build 0)  -->
<svg version="1.1" id="Layer_1" xmlns="http://www.w3.org/2000/svg" xmlns:xlink="http://www.w3.org/1999/xlink" x="0px" y="0px"
	 viewBox="0 0 264.1 239.3" style="enable-background:new 0 0 264.1 239.3;" xml:space="preserve">
<style type="text/css">
	.st0{fill:#18252B;}
	.st1{fill:#F73131;}
	.st2{fill:#495968;}
	.st3{fill:#FFFFFF;}
	.st4{fill:none;}
	.st5{fill:#215129;}
	.st6{fill:#843B12;}
	.st7{fill:#1F232E;}
	.st8{fill:#FE5953;}
	.st9{fill:#813907;}
</style>
<g>
	<g>
		<path class="st0" d="M121.2,90.4c-0.3-0.2-0.7-0.3-1.1-0.5c0.9,0.5,1.9,1.1,2.7,1.7C122.3,91.1,121.7,90.6,121.2,90.4z"/>
		<path class="st0" d="M101.6,98.9c0,0.1-0.1,0.3-0.1,0.4C101.6,99.1,101.6,99,101.6,98.9z"/>
		<path class="st0" d="M89.4,105c0,0,1.1,0.6,5.6,0.3c5.3-0.4,5.2-1,6.3-5.1v0c0.1-1.1,0.7-5.5,4.3-8.6c0,0,0,0,0,0
			c-0.8,0.6-1.5,1.3-2.2,2.1c-3.8,4.3-2.8,8.8-2.8,8.8c-7,3.5-10.6,1.9-10.6,1.9l0.2-6.3l-2.8,0.7c0,0-0.1,0.2-0.3,0.4
			c0.4,0.1,1,0.2,1.7,0.4C89.1,103.9,89.4,105,89.4,105z"/>
		<path class="st1" d="M109.9,91c-0.8,0.2-1.6,0.5-2.3,0.9C108.5,91.9,109.3,91.5,109.9,91z"/>
		<path class="st2" d="M107.2,90.4c-1.4-0.3-2.4-1.6-2.2-3.1c0.1-1.6,1.5-2.8,3-2.6c1.5,0.1,2.6,1.5,2.5,3.1c0,0.5-0.2,0.9-0.5,1.3
			c0.5-0.1,1-0.3,1.5-0.4c0.1-0.3,0.1-0.6,0.2-0.9c0.2-2.4-1.6-4.5-4.1-4.7c-2.4-0.2-4.6,1.6-4.8,4c-0.2,2,1,3.7,2.8,4.4
			c0,0,0.1-0.1,0.1-0.1C106.1,91.1,106.6,90.8,107.2,90.4z"/>
		<path class="st2" d="M105.5,91.6C105.5,91.6,105.6,91.6,105.5,91.6c0.1,0,0.1-0.1,0.1-0.1C105.6,91.6,105.6,91.6,105.5,91.6z"/>
		<path class="st0" d="M110.5,87.9c0.1-1.6-1-3-2.5-3.1c-1.5-0.1-2.8,1.1-3,2.6c-0.1,1.5,0.9,2.8,2.2,3.1c0.8-0.5,1.7-0.9,2.8-1.3
			C110.2,88.8,110.4,88.3,110.5,87.9z"/>
		<path class="st3" d="M101.2,100.5c0.1-0.4,0.2-0.8,0.3-1.2c-0.1,0.3-0.2,0.7-0.3,1C101.2,100.4,101.2,100.5,101.2,100.5z"/>
	</g>
	<g>
		<path class="st4" d="M89.4,105c0,0,1.1,0.6,5.6,0.3c5.3-0.4,5.2-1,6.3-5.1c0,0,0,0,0,0v0l0,0c0,0.1,0,0.2,0,0.2
			c0.1-0.4,0.2-0.8,0.3-1.2c0-0.1,0.1-0.3,0.1-0.4c1-3.1,3.2-5.5,6-6.9c0.9-0.1,1.7-0.4,2.3-0.9c3.1-0.8,6.4-0.5,9.2,1.4
			c7.1,4.8,11.5,15.6,12.2,17.2c0.9-0.6,1.4-0.8,1.4-0.8l1.8-2.3c-1.7-3.4-6-10.7-11.7-14.9c-0.6-0.6-1.2-1-1.6-1.2
			c-0.3-0.2-0.7-0.3-1.1-0.5c-2.3-1.1-4.7-1.7-7.2-1.4c-0.5,0.1-1,0.2-1.4,0.3c0.1-0.3,0.1-0.6,0.2-0.9c0.2-2.4-1.6-4.5-4.1-4.7
			c-2.4-0.2-4.6,1.6-4.8,4c-0.2,2,1,3.7,2.8,4.4c-0.8,0.6-1.5,1.3-2.2,2.1c-3.8,4.3-2.8,8.8-2.8,8.8c-7,3.5-10.6,1.9-10.6,1.9
			l0.2-6.3l-2.8,0.7c0,0-0.1,0.2-0.3,0.4c0.4,0.1,1,0.2,1.7,0.4C89.1,103.9,89.4,105,89.4,105z"/>
		<path class="st1" d="M131.3,109.7c-0.7-1.7-5.2-12.4-12.2-17.2c-2.8-1.9-6.1-2.2-9.2-1.4c-0.7,0.5-1.5,0.8-2.3,0.9
			c-2.7,1.4-5,3.8-6,6.9c0,0.1-0.1,0.3-0.1,0.4c-0.1,0.4-0.2,0.8-0.3,1.2c0,0,0-0.1,0-0.2c-1.1,4-1,4.6-6.3,5.1
			c-4.4,0.3-5.6-0.3-5.6-0.3s-0.3-1.1-0.7-5.4c-0.7-0.2-1.3-0.3-1.7-0.4c-1.8,2.7-10.7,17.2-4.7,33.2c5.5,14.8,15.5,20.7,18.7,22.3
			C113.5,123,127,112.4,131.3,109.7z"/>
		<polygon class="st1" points="101.3,100.3 101.3,100.3 101.3,100.3 		"/>
		<path class="st0" d="M90.1,98.1l-0.2,6.3c0,0,3.6,1.7,10.6-1.9c0,0-0.9-4.5,2.8-8.8c0.7-0.8,1.4-1.5,2.2-2.1
			c-1.8-0.7-2.9-2.5-2.8-4.4c0.2-2.4,2.4-4.2,4.8-4c2.4,0.2,4.3,2.3,4.1,4.7c0,0.3-0.1,0.6-0.2,0.9c0.5-0.1,0.9-0.2,1.4-0.3
			c2.5-0.3,5,0.3,7.2,1.4c0.4,0.1,0.8,0.3,1.1,0.5c0.5,0.2,1,0.7,1.6,1.2c5.7,4.2,9.9,11.5,11.7,14.9l1.8-2.4l-12.9-15.7
			c-3-4.7-5.3-8.3-11.7-10.4c-6.8-2.2-18.2,3.6-21.1,6.2c-1.4,1.3-2.1,3.1-2.3,5.3c-0.9,0.9-1.7,2.2-2,3.7c-0.8,3.5,0.2,5.9,0.2,5.9
			s0.2,0,0.5,0.1c0.2-0.3,0.3-0.4,0.3-0.4L90.1,98.1z"/>
	</g>
	<g>
		<path class="st2" d="M172,108.8c2.1,0.1,3.8-1.5,4-3.6c0.2-2.2-1.4-4.1-3.6-4.2c-2.2-0.2-4.1,1.4-4.2,3.6c0,0.4,0,0.9,0.1,1.3
			C169.7,106.6,171,107.6,172,108.8z"/>
		<path class="st1" d="M179.5,141.1c0,0.1,0,0.1,0,0.2C179.4,141.3,179.5,141.2,179.5,141.1z"/>
		<path class="st1" d="M179.1,142.7c0.1-0.2,0.1-0.4,0.1-0.6C179.2,142.3,179.1,142.5,179.1,142.7z"/>
		<path class="st1" d="M178.2,126.5c-0.2,0.4-0.7,0.2-1.3-0.3c-3.9,2.4-7.5-8.9-7.5-8.9s-12.8-1.7-18.1-3.1c-0.1,0.3-0.1,0.7-0.1,1
			c-0.5,6.4,4.1,12,10.4,12.7c2.2,2.3,4.1,6.2,2.2,12.4c-4.5,15-15.6,21.6-23.8,26.4c5.5-1.5,10.1-3.2,10.1-3.2
			c-7.6,14.6-23.8,17.3-23.8,17.3c12.6-1.4,24.2-4.9,34.3-12.7c7.2-5.6,14.1-13.3,17.4-21.8c0.4-1.1,0.8-2.3,1.2-3.6
			C180.8,135.7,180,130.3,178.2,126.5z"/>
		<path class="st1" d="M156.7,106.3c0.2-0.1,0.4-0.3,0.7-0.4C157.2,106,157,106.1,156.7,106.3z"/>
		<path class="st1" d="M176.9,126.3c0.6,0.4,1.1,0.6,1.3,0.3c-0.5-1-1.1-1.9-1.7-2.7c-2.2-2.7-5-3.8-5-3.8c0.8-2.2,1.3-6.5-0.9-10.1
			c-3.1-4.9-9-5.6-13.8-3.7c-2.8,1.7-4.8,4.6-5.4,8c5.3,1.4,18.1,3.1,18.1,3.1S173,128.7,176.9,126.3z"/>
		<path class="st1" d="M168.3,105.8c-1-0.5-2.1-0.9-3.2-1.1C166.2,104.9,167.3,105.3,168.3,105.8L168.3,105.8z"/>
		<path class="st3" d="M179.4,141.3c-0.1,0.3-0.1,0.5-0.2,0.8C179.3,141.9,179.4,141.6,179.4,141.3z"/>
		<path class="st3" d="M179,142.8c0,0,0-0.1,0-0.1C179.1,142.7,179.1,142.8,179,142.8C179,142.8,179,142.8,179,142.8z"/>
		<path class="st3" d="M156.6,106.3C156.7,106.3,156.7,106.3,156.6,106.3C156.7,106.3,156.7,106.3,156.6,106.3
			C156.7,106.3,156.7,106.3,156.6,106.3z"/>
		<path class="st3" d="M157.4,105.9c0,0,0.1,0,0.1-0.1C157.5,105.8,157.5,105.9,157.4,105.9z"/>
		<path class="st0" d="M183.2,107.4C183.1,107.4,183.1,107.4,183.2,107.4c0.1-2.8-0.8-4.1-2.5-5.6c-2.2-2-8.2-6.9-16.7-7.6
			c-9-0.7-15.1,4.8-19.9,9.7c-3.8,3.9-11.9,12.5-11.9,12.5c7.1-2.6,16-2.5,18-2.4c0.3,0.1,0.7,0.2,1.2,0.4c0.6-3.4,2.6-6.3,5.4-8
			c0,0,0,0,0,0c0,0,0.1,0,0.1-0.1c0.2-0.1,0.4-0.3,0.7-0.4c0,0,0.1,0,0.1-0.1c0.7-0.3,1.4-0.6,2.1-0.8c0.2,0,0.3-0.1,0.5-0.1
			c0.2,0,0.3-0.1,0.5-0.1c0.2,0,0.4-0.1,0.6-0.1c0.1,0,0.3,0,0.4-0.1c0.2,0,0.5,0,0.7,0c0.1,0,0.2,0,0.3,0c0.4,0,0.7,0,1.1,0
			c0.4,0,0.8,0.1,1.2,0.2c1.1,0.2,2.2,0.6,3.2,1.1c-0.1-0.4-0.2-0.8-0.1-1.3c0.2-2.2,2.1-3.8,4.2-3.6c2.2,0.2,3.8,2.1,3.6,4.2
			c-0.2,2.1-1.9,3.6-4,3.6c1.9,2.3,2.9,5.3,2.7,8.5c0,0,0,0.1,0,0.1c-0.1,0.9,0,0.6,0,0.6c1.7,1.3,3.6,3.4,4.5,5
			c0.1,0.1,0.1,0.3,0.2,0.4c0.4-1.1,0.8-2.4,1.2-3.8c1.6,0,6.5-2.3,7.8-3.6C188.2,116.1,187.7,109.8,183.2,107.4z"/>
		<polygon class="st3" points="168.5,106.5 168.5,106.5 168.5,106.5 		"/>
	</g>
	<g>
		<path class="st4" d="M102.8,161.9c-0.5,0-1.5,0-2.5-0.1c-0.1,0-0.1,0.1-0.2,0.1c0.5,0.2,1.2,0.5,2.1,0.9
			C102.4,162.5,102.6,162.2,102.8,161.9z"/>
		<path class="st4" d="M101.2,161.1c0.7,0.2,1.2,0.4,1.7,0.7c1.8-2.3,4.3-4.8,6.4-6.7c-2.5,1.7-5.8,3.7-8.3,5.2
			c0.2,0.5,0.3,0.7,0.3,0.7S101.3,161,101.2,161.1z"/>
		<path class="st4" d="M96.1,151.7c0.3,0.4,0.6,0.8,0.9,1.2c1.6-1.6,3.6-3.5,5.6-5.3C100.2,149.2,97.9,150.7,96.1,151.7z"/>
		<path class="st4" d="M111.2,169.4c0.2,0.1,0.4,0.3,0.6,0.4c2-2.3,3.8-4.4,5-5.9C115.5,165.4,113.3,167.4,111.2,169.4z"/>
		<path class="st4" d="M171.9,165.6c0,0,2.4,3,4.7,6.9c-1.3-2.3-2.2-4.7-2.2-6.8L171.9,165.6z"/>
		<path class="st4" d="M175.4,200.2C175.4,200.2,175.4,200.1,175.4,200.2C175.4,200.1,175.4,200.2,175.4,200.2
			C175.4,200.2,175.4,200.2,175.4,200.2z"/>
		<path class="st4" d="M123.2,204c1.9-1.7,3.4-3,4-3.6l0-0.5c0-1-0.1-2.1-0.1-3.2C125.9,199.5,124.6,201.9,123.2,204z"/>
		<path class="st5" d="M206.5,174.2c2.5,0.9,12.6,2,12.6,2c-4-4.2-15.5-7.5-23.2-9.3c10.4,1.4,21.3-0.1,21.3-0.1
			c-5.7-2.7-14.7-3.1-20.3-2.9c4.9-1.3,9.4-4.2,9.4-4.2c-3.5-0.3-9.3,0.7-13.4,1.6c3.7-1.8,7.5-4.7,7.5-4.7
			c-4.1-0.5-18.7,6.1-14.5,3.7c4.2-2.4,11.2-6,11.2-6c-4.7,0-9.3,0.9-13.4,2.1c3.3-1.5,5.2-2.8,5.2-2.8c-3.4-0.1-7,0.4-10.3,1
			c-23.3,29.6-52.9,27.4-55.3,27.2c-1.3,0.1-2.1,0.1-2.1,0.1l-12.5,26.3c0,0,4.3-4.9,6.6-7.6c0,0.2-0.1,0.5-0.1,0.7
			c-2.2,2.7-7.5,9.1-7.5,9.1l-2.1,4.5c0,0,5.5-3.7,8.5-6.3c0,0.1,0,0.3,0,0.4c-2.9,3.1-5.9,6.5-8.9,9.7c0,0,3-0.9,6.9-3.5
			c-2.7,3-5.1,6.1-6.7,8.9c0,0,4.6-1.9,9-6.3c-2.1,2.4-6.4,7.6-7.5,12.4c0,0,17.7-17.3,20.5-27c0,2.3-0.1,4.4-0.3,6.4
			c-3.8,3.7-15.4,15.4-16.6,23.2c0,0,11.8-10.1,16.2-18.3c0,0.3,0,0.6,0,0.9c0,0.1,0,0.2,0,0.3c-1.8,2.2-10.7,13.2-11.6,19.5
			c0,0,2.6-2.3,5.6-5.7c-0.7,3-1.1,6.4-0.8,9.9c0,0,4.5-9.9,6.6-17.9c0.1,5,1.1,11.4,4.7,17.9c0,0,0-6.1-0.8-13
			c1.6,4.1,3.7,8.4,5.8,11.6c0,0-0.2-14.5-8.1-26.5c0,0,0,0,0-0.1c1.2,1.2,9.9,9.8,11.2,18.4c0,0,0.9-10.5-5-18.5
			c2.1,2.6,6.5,8.2,7,9.9c0.7,2.2,0.4-6.4-6-14.1c0,0,4.1,3.5,5.9,6.8c0,0-1.1-4.2-4.9-10.2c3.7,3.6,6.9,6.3,6.9,6.3
			c0.2-2.1-6.4-12.5-6.4-12.5c1.8,2.3,4.8,3.9,4.8,3.9c-0.8-1.7-3.1-4.5-5.2-6.9c5.4,3.9,8.3,4.4,8.3,4.4c-0.8-1.9-2.8-5.4-5.1-7.9
			c0-0.1,0-0.2,0.1-0.2c1,0.7,1.8,1.1,2.4,1.4c0.5,0.8,1,1.5,1.7,2.4c0,0,0.4-6.3,0.7-10.2c-0.1,6.8,1.5,11.3,1.5,11.3
			s0.7-1.4,1.2-4.3c0.6,3.9,1.6,8,3.3,12c0,0,0-2-0.1-5c0.8,2.8,1.8,5.7,3.3,8.7c0,0,0.3-3.5,0.4-8.5c0.6,3.2,1.5,6.2,2.5,8.9
			c0,0,0.4-5.1-0.2-12.1c0.1,0.2,0.2,0.4,0.3,0.6c0.5,5.2,1.3,11.5,2.2,18.6c0,0,1-5.8,1.2-13c0.1,0.1,0.1,0.2,0.2,0.3
			c0.3,4.1,0.6,8.4,0.9,12.7c0,0,2.5-5.9,3-13.8c0.2,0.5,0.4,1,0.6,1.5c0.5,5.7,1.3,11.8,2.8,16.3c0,0,1.5-4.4,1-10.3
			c0.4,3.1,1.5,9.6,4.3,13.9c0,0,0.3-6,0.2-12.7c1,5.5,2.4,11,4.2,13.8c0,0,0.5-6.4-0.1-13.4c1.1,4.1,2.6,8.2,4.3,10.6
			c0,0-0.5-4.2-1.8-9.4c1.4,2.8,2.9,5.3,4.2,6.7c0,0-1.8-8.2-5.4-14.8c3.7,3.6,9,7.8,15.9,10.3c0,0-4.6-4.6-10.1-9.2
			c4,2,8.5,3.9,12.2,5c0,0-13-12.4-26-15.9c-0.2-0.4-0.5-0.7-0.8-1.1c0.2,0-3.4-3.7-3.2-3.7c2,1.1,18.2,11.6,24.3,11.7
			c0,0-6.2-7.3-14.4-9.2c0,0,0,0,0,0c2.9,0.5,8.7,1.7,10.1,2.5c1.8,1-3.8-4.4-12.3-5.8c0,0,4.5-0.1,7.6,1.1c0,0-0.6-1.1-2.6-2.3
			c0.4-0.2,3.4-0.4,2.8-0.8c-3.6-2-7.1-2.5-11.2-4.3c-4.6-1.9-5.8-4.6-6-6.5c5,4.4,9.6,6.5,9.6,6.5c-0.4-2.3-2.1-5.1-4.1-7.7
			l1.5,0.2c4,6.1,9.2,9.1,9.2,9.1c-0.4-3-1.9-6.3-3.5-9.1c3.5,5.9,9.1,11.3,9.1,11.3c-1-1.9-2.7-8.1-1.2-6.6c1.4,1.5,12,8.1,12,8.1
			c-4.1-3.5-8.8-14.6-8.8-14.6c2.9,5.8,15.4,16.5,15.4,16.5c-1.1-3.3-3.8-7.4-6.2-10.7c4.1,4.7,9.2,9.9,9.2,9.9
			c-0.9-6.7-4.6-11-6.9-13c4.8,3.1,15.2,6.4,15.2,6.4C212.6,176.9,207.8,174.7,206.5,174.2z M127.2,200.5c-0.6,0.5-2.1,1.8-4,3.6
			c1.4-2.1,2.8-4.5,3.9-7.2c0.1,1.1,0.1,2.1,0.1,3.2L127.2,200.5z M175.4,200.2C175.4,200.2,175.4,200.2,175.4,200.2
			C175.4,200.2,175.4,200.1,175.4,200.2C175.4,200.1,175.4,200.2,175.4,200.2z M171.9,165.6l2.5,0.1c0,2.1,0.9,4.5,2.2,6.8
			C174.3,168.6,171.9,165.6,171.9,165.6z"/>
		<path class="st5" d="M89.4,145.5C89.4,145.5,89.4,145.5,89.4,145.5C89.4,145.5,89.4,145.5,89.4,145.5
			C89.4,145.5,89.4,145.5,89.4,145.5z"/>
		<path class="st5" d="M101.1,181.3c0.1-0.1,0.1-0.2,0.2-0.2c-0.1,0.1-0.2,0.2-0.3,0.3C101,181.4,101,181.3,101.1,181.3z"/>
	</g>
	<g>
		<path class="st4" d="M174.7,156.9c-12.6,5.4-27.1,8.5-42.6,8.5c-14.3,0-27.7-2.6-39.5-7.2c0.5,0.9,0.8,1.9,0.8,2.7
			c11.7,4.3,24.8,6.7,38.7,6.7c15.5,0,30.2-3,42.9-8.3C174.7,158.5,174.7,157.7,174.7,156.9z"/>
		<path class="st4" d="M38.7,85.6c0.3-0.1,0.6-0.3,0.9-0.4C39.2,85.3,39,85.4,38.7,85.6C38.7,85.5,38.7,85.6,38.7,85.6z"/>
		<path class="st6" d="M217.8,101.2c0-4.4-0.6-8.8-1.8-12.9c-0.6-0.1-1.1-0.2-1.7-0.4c1.3,4.3,1.9,8.7,1.9,13.3
			c0,18.9-11.3,35.9-29.2,47.4l-0.6,2.3C205.6,139.1,217.8,121.2,217.8,101.2z"/>
		<path class="st6" d="M48,101.2c0-4.7,0.7-9.3,2-13.7c-0.6,0.1-1.1,0.2-1.7,0.3c-1.2,4.3-1.9,8.8-1.9,13.4
			c0,19.5,11.7,37,30.1,48.8c-0.3-0.8-0.5-1.6-0.4-2.2C58.9,136.4,48,119.7,48,101.2z"/>
		<path class="st6" d="M242.9,72.5c-0.1,0.8-0.2,1.5-0.4,2.3c-1.1,13.3,3.2,24.1,1.3,27.9c-2.1,4.2-7.4,2.2-7.4,2.2s3.8,0,5.4-2.8
			c1.2-2.1-0.2-7.8-1.1-10.7c-0.1-0.3-0.2-0.6-0.3-1c-0.1-0.5-0.2-0.8-0.2-0.8c-0.4-0.8-0.6-1.7-0.7-2.6c-2-7.8-4-20.1-1.6-31.7
			c-24.9-14.1-64-26.7-107.7-26.7c-42.9,0-81.1,12.3-106.5,26c2.6,11.7,0.5,24.4-1.5,32.4c-0.1,1-0.3,1.9-0.7,2.6
			c0,0-0.1,0.3-0.2,0.8c-0.1,0.3-0.2,0.7-0.3,1c-0.8,2.9-2.2,8.7-1.1,10.7c1.6,2.8,5.4,2.8,5.4,2.8s-5.3,2-7.4-2.2
			c-1.9-3.8,2.4-14.6,1.3-27.9c-0.2-1.3-0.4-2.6-0.6-3.8C7.4,75.9,0,85,0,85l6.7,13.8L0,126c3.1-5.2,5.8-9.3,21.6-16.7
			c12.9-6,14.6-15.1,14.7-18.3c-2.6,0.9-4.3,1.6-4.3,1.6l-2.5,6.8c0,0-2.1,5.1-3.2,0.6c-0.4-1.4,0-2.8,0.8-5c1.4-3.8,6.1-7,11.4-9.6
			c0,0,0,0,0-0.1c0.3-0.1,0.6-0.2,0.8-0.3c4-1.9,8.2-3.4,11.7-4.5c22.4-7.8,49.7-13.3,79.2-13.3c29.2,0,56.4,5.3,78.6,13
			c7.9,2.2,23,7.4,25.8,14.8c0.8,2.3,1.2,3.6,0.8,5c-1.2,4.5-3.2-0.6-3.2-0.6l-2.5-6.8c0,0-0.9-0.4-2.4-1
			c0.3,3.5,2.5,12.2,14.8,17.9c15.9,7.4,18.8,11.4,21.8,16.7V86.9C264.1,86.9,255.5,77.7,242.9,72.5z"/>
		<path class="st6" d="M219.4,89.1c0.9,3.9,1.4,7.9,1.4,12c0,19.7-11.5,37.4-29.6,49.6c2.4-0.2,5.5-0.2,8.7,0.6
			c15.4-12.4,24.9-29,24.9-47.3c0-4.7-0.6-9.3-1.8-13.8C221.8,89.8,220.7,89.4,219.4,89.1z"/>
		<path class="st6" d="M70.1,152.4c0.4-0.1,3-0.4,5.4-0.2C55.9,140,43.4,121.6,43.4,101c0-4.3,0.6-8.5,1.6-12.6
			c-1.2,0.3-2.3,0.6-3.4,0.9c-1.3,4.7-2.1,9.6-2.1,14.5c0,21,12.4,39.8,32,52.5C71.5,156.4,69.1,152.8,70.1,152.4z"/>
	</g>
	<g>
		<path class="st3" d="M57.7,64.1c1.7-0.5,3.4-1,5.2-1.5c0-0.7,0-1.4,0-2c1.5-0.4,3.1-0.8,4.6-1.2c0,1.1,0,2.2,0,3.2
			c0,0.4-0.1,0.9-0.4,1.4c-0.2,0.5-0.6,0.9-0.9,1.4c-0.4,0.4-0.8,0.8-1.2,1.1c-0.5,0.3-0.9,0.5-1.3,0.7c-2.6,0.7-5.2,1.5-7.8,2.3
			c-0.5,0.1-0.9,0.2-1.3,0.1c-0.4-0.1-0.8-0.2-1.1-0.4c-0.3-0.2-0.6-0.5-0.8-0.9c-0.2-0.3-0.3-0.7-0.3-1.2c0-4.8,0-9.5,0-14.3
			c0-0.4,0.1-0.9,0.3-1.4c0.2-0.5,0.5-0.9,0.8-1.4c0.3-0.4,0.7-0.8,1.1-1.2c0.4-0.3,0.9-0.6,1.3-0.7c1.6-0.5,3.2-1,4.8-1.4
			c0.7,0.6,1.5,1.2,2.2,1.9c0-0.8,0-1.7,0-2.5c1.4-0.4,2.8-0.8,4.2-1.1c0,2.1,0,4.3,0,6.4c-1.4,0.4-2.8,0.7-4.2,1.1
			c0-0.6,0-1.1,0-1.7c-1.7,0.5-3.5,1-5.2,1.5C57.7,56.2,57.7,60.2,57.7,64.1z"/>
		<path class="st3" d="M80.7,58.5c0,1.5,0,3.1,0,4.6c-3,0.6-6,1.2-8.9,2c0-1.5,0-3.1,0-4.6c0.6-0.1,1.2-0.3,1.7-0.4c0-4,0-8,0-12.1
			c-0.6,0.1-1.2,0.3-1.7,0.4c0-1.5,0-3.1,0-4.6c3-0.7,5.9-1.4,8.9-2c0,1.5,0,3.1,0,4.6c-0.5,0.1-1.1,0.2-1.6,0.3c0,1.2,0,2.4,0,3.6
			c2.1-0.4,4.1-0.8,6.2-1.2c0-1.2,0-2.4,0-3.6c-0.6,0.1-1.2,0.2-1.9,0.3c0-1.5,0-3.1,0-4.6c3.1-0.6,6.2-1.1,9.3-1.6
			c0,1.5,0,3.1,0,4.6c-0.6,0.1-1.3,0.2-1.9,0.3c0,4,0,8,0,12.1c0.6-0.1,1.3-0.2,1.9-0.3c0,1.5,0,3.1,0,4.6c-3.1,0.5-6.2,1-9.3,1.6
			c0-1.5,0-3.1,0-4.6c0.6-0.1,1.2-0.2,1.9-0.3c0-1.4,0-2.9,0-4.3c-2.1,0.4-4.1,0.8-6.2,1.2c0,1.4,0,2.9,0,4.3
			C79.6,58.7,80.2,58.6,80.7,58.5z"/>
		<path class="st3" d="M97.4,55.7c0.5-0.1,1-0.1,1.6-0.2c0-4,0-8,0-12.1c-0.5,0.1-1,0.1-1.6,0.2c0-1.5,0-3.1,0-4.6
			c5.6-0.7,11.3-1.3,17-1.6c0,2.4,0,4.8,0,7.2c-1.6,0.1-3.2,0.2-4.8,0.3c0-0.9,0-1.7,0-2.6c-1.7,0.1-3.4,0.3-5,0.5
			c0,1.1,0,2.3,0,3.4c1.9-0.2,3.9-0.4,5.8-0.5c0,1.4,0,2.8,0,4.2c-2,0.2-3.9,0.3-5.8,0.5c0,1.5,0,2.9,0,4.4c1.9-0.2,3.7-0.4,5.6-0.5
			c0-1.2,0-2.4,0-3.6c1.6-0.1,3.2-0.2,4.8-0.3c0,2.7,0,5.5,0,8.2c-5.9,0.4-11.7,0.9-17.6,1.7C97.4,58.8,97.4,57.2,97.4,55.7z"/>
		<path class="st3" d="M128.7,58.2c-3.1,0-6.2,0.1-9.4,0.2c0-1.5,0-3.1,0-4.6c0.5,0,1,0,1.5-0.1c0-4,0-8,0-12.1c-0.5,0-1,0-1.5,0.1
			c0-1.5,0-3.1,0-4.6c5.7-0.2,11.3-0.3,17-0.2c0,2.5,0,5,0,7.6c-1.6,0-3.2-0.1-4.8-0.1c0-1,0-2,0-3c-1.7,0-3.4,0-5,0c0,4,0,8,0,12.1
			c0.7,0,1.5,0,2.2,0C128.7,55.1,128.7,56.6,128.7,58.2z"/>
		<path class="st3" d="M147.4,48.7c0.5-0.4,1-0.9,1.5-1.5c0.5-0.5,1.1-1,1.7-1.6c0.6-0.5,1.1-1.1,1.7-1.6c0.5-0.5,1.1-1,1.5-1.5
			c-0.3,0-0.7-0.1-1-0.1c0-1.5,0-3.1,0-4.6c2.9,0.3,5.7,0.6,8.6,0.9c0,1.5,0,3.1,0,4.6c-0.5-0.1-1.1-0.1-1.6-0.2c0,4,0,8,0,12.1
			c0.5,0.1,1.1,0.1,1.6,0.2c0,1.5,0,3.1,0,4.6c-2.9-0.4-5.8-0.7-8.7-0.9c0-1.5,0-3.1,0-4.6c0.5,0,1.1,0.1,1.6,0.2c0-2.2,0-4.3,0-6.5
			c0,0-0.1,0-0.2,0c-0.5,0.4-1,0.9-1.5,1.4c-0.5,0.5-1.1,1-1.6,1.5c-0.6,0.5-1.1,1-1.7,1.6c-0.5,0.5-1.1,1-1.5,1.5
			c0.4,0,0.8,0.1,1.2,0.1c0,1.5,0,3.1,0,4.6c-2.9-0.2-5.8-0.4-8.7-0.5c0-1.5,0-3.1,0-4.6c0.5,0,1.1,0,1.6,0.1c0-4,0-8,0-12.1
			c-0.5,0-1.1,0-1.6-0.1c0-1.5,0-3.1,0-4.6c2.9,0.1,5.7,0.3,8.6,0.5c0,1.5,0,3.1,0,4.6c-0.5,0-1.1-0.1-1.6-0.1c0,2.2,0,4.4,0,6.6
			C147.3,48.7,147.3,48.7,147.4,48.7z"/>
		<path class="st3" d="M167.5,44.3c-0.5-0.1-1-0.2-1.5-0.2c0-1.5,0-3.1,0-4.6c4.6,0.7,9.2,1.5,13.8,2.4c0.6,0.1,1.1,0.3,1.6,0.6
			c0.5,0.3,0.8,0.6,1.2,1c0.3,0.4,0.5,0.8,0.7,1.3c0.1,0.5,0.2,0.9,0.2,1.3c0,1.9,0,3.9,0,5.8c0,0.4-0.1,0.8-0.2,1.2
			c-0.1,0.4-0.4,0.8-0.7,1.1c-0.3,0.3-0.7,0.5-1.1,0.7c-0.5,0.1-1,0.2-1.6,0c-2.2-0.4-4.4-0.9-6.7-1.2c0,1.2,0,2.4,0,3.5
			c0.6,0.1,1.2,0.2,1.9,0.3c0,1.5,0,3.1,0,4.6c-3-0.5-6-1-9-1.5c0-1.5,0-3.1,0-4.6c0.5,0.1,1,0.1,1.5,0.2
			C167.5,52.3,167.5,48.3,167.5,44.3z M173.2,45.3c0,1.3,0,2.5,0,3.8c1.6,0.3,3.1,0.6,4.7,0.9c0-1.3,0-2.5,0-3.8
			C176.3,45.8,174.7,45.6,173.2,45.3z"/>
		<path class="st3" d="M194.5,56.5c0.5-0.4,0.9-0.8,1.5-1.2c0.5-0.4,1.1-0.8,1.6-1.3c0.6-0.4,1.1-0.8,1.6-1.3c0.5-0.4,1-0.8,1.5-1.2
			c-0.3-0.1-0.6-0.2-1-0.3c0-1.5,0-3.1,0-4.6c2.8,0.8,5.6,1.7,8.3,2.6c0,1.5,0,3.1,0,4.6c-0.5-0.2-1-0.3-1.6-0.5c0,4,0,8,0,12.1
			c0.5,0.2,1,0.3,1.6,0.5c0,1.5,0,3.1,0,4.6c-2.8-0.9-5.6-1.8-8.4-2.6c0-1.5,0-3.1,0-4.6c0.5,0.2,1.1,0.3,1.6,0.5c0-2.2,0-4.3,0-6.5
			c0,0-0.1,0-0.1,0c-0.5,0.3-1,0.7-1.5,1.1c-0.5,0.4-1.1,0.8-1.6,1.2c-0.5,0.4-1.1,0.8-1.6,1.3c-0.5,0.4-1,0.8-1.5,1.2
			c0.4,0.1,0.8,0.2,1.1,0.3c0,1.5,0,3.1,0,4.6c-2.8-0.8-5.7-1.5-8.5-2.1c0-1.5,0-3.1,0-4.6c0.5,0.1,1.1,0.2,1.6,0.4c0-4,0-8,0-12.1
			c-0.5-0.1-1-0.2-1.5-0.4c0-1.5,0-3.1,0-4.6c2.8,0.7,5.6,1.4,8.4,2.1c0,1.5,0,3.1,0,4.6c-0.5-0.1-1-0.3-1.6-0.4c0,2.2,0,4.4,0,6.6
			C194.4,56.4,194.5,56.4,194.5,56.5z"/>
	</g>
	<g>
		<path class="st3" d="M44.8,60.7c0,0-6,3-12.5,7.2l12.5-4V60.7z"/>
	</g>
	<g>
		<path class="st3" d="M216.1,61.7c0,0,6.8,3.2,13.3,7.4l-13.4-4.3L216.1,61.7z"/>
	</g>
	<path class="st3" d="M95,89.8c0,0-3.9-1.3-6.5,6.3c0,0,2.1-3.2,4.7-4.1C95,91.4,96.8,90.8,95,89.8z"/>
	<path class="st3" d="M109.6,85.7c0,0.5-0.5,0.8-0.9,0.8c-0.5,0-0.8-0.5-0.8-0.9c0-0.5,0.5-0.8,0.9-0.8
		C109.3,84.9,109.6,85.3,109.6,85.7z"/>
	<path class="st7" d="M174.4,105.1c-0.1,1.3-1.2,2.2-2.5,2.1c-1.3-0.1-2.2-1.2-2.1-2.5c0.1-1.3,1.2-2.2,2.5-2.1
		C173.5,102.7,174.5,103.8,174.4,105.1z"/>
	<path class="st3" d="M174.5,103.9c0,0.5-0.4,0.8-0.9,0.8c-0.5,0-0.8-0.4-0.8-0.9c0-0.5,0.4-0.8,0.9-0.8
		C174.2,103,174.5,103.4,174.5,103.9z"/>
	<path class="st0" d="M108,190.3c-7,5.2-0.4-9.6-0.4-9.6S100,193.9,96.1,195c-3.1,0.8,0.6-5.3,3.2-11c0.3-0.6-3.1,4.1-3.3,4.4
		c-4.1,6.4-18.4,31.2-18.4,31.2s-1.3,1.8-0.1,2.7c3.3,2.2,8.3,0.3,8.3,0.3s1,5.1,6.8,7c2.1,0.7,2.8-1,2.8-1s22.4-47.2,28.8-57.5
		c2-3.2,1.5-6.3-1.1-2.1C119.2,175.4,111.9,187.3,108,190.3z"/>
	<path class="st8" d="M139.4,167.1c0.2-0.1,0.4-0.2,0.5-0.3c-4.9,1.3-10.5,2.5-14,2.1C125.9,168.9,131.1,171.9,139.4,167.1z"/>
	<path class="st3" d="M186.8,115.2c0,0-1.7-4.6-3.5-5.7c-1.7-1.1-1.9,0.7-1.1,1.2C183,111,185.3,112.3,186.8,115.2z"/>
	<g>
		<path class="st4" d="M99.5,169.4c-0.7,0-1.5,0-2.3-0.2c-0.3,0,0-0.1-1-0.3c0,0,0,0,0,0C97.1,169.4,98.2,169.6,99.5,169.4z"/>
		<path class="st5" d="M105.3,170.8c-0.1-1,0-2.4,0.2-4c0,0,0,0,0,0c-1.2,1.1-3.5,2.4-6,2.5c-1.3,0.1-2.3-0.1-3.3-0.4c0,0,0,0,0,0
			c0,0,0.1,0,0.1,0c0,0,0,0,0,0s0.1-0.1,0.2-0.3c0.1-1.7,1.8-7.7,3.6-11.5c-0.3-0.5-1-1.1-1.4-1.7c-1.4-0.4-3.5-1.1-5.9-2.6
			c0.4,0.9,0.9,1.8,1.3,2.6c-1-1.4-2.4-2.9-3.7-4.3c-0.7-0.6-1.5-1.2-2.3-1.9c-0.2-0.1-0.4-0.3-0.6-0.4c-0.1-0.1-0.3-0.2-0.4-0.2
			c-2.5-1.3,0.2,2.9,3.5,7c-3-1.5-8-3.7-11.2-3.9c0,0,2.2,2.1,4.5,3.9c-0.1,0.2-0.1,0.5-0.2,0.8c-3.6-1.2-8.7-2.6-11.2-1.5
			c0,0,3.9,3.7,8.4,7.3c-2.9-1.8-6.9-3.7-10.4-3.9c0,0,5.3,5.1,9.2,7.3c-3.6-1.7-11.6-5.3-16.2-5.6c0,0,3.6,3.1,5.3,4
			c0,0-5-1.9-11.5-0.1c0,0-0.1,0-0.1,0c0,0,0,0,0.1,0c-0.1,0-0.3,0.1-0.4,0.1c0,0,0.6,0.2,1.7,0.6c1.3,0.7,3.6,1.9,6.2,3
			c-3.7-0.8-7.4-1.4-9.7-1.5c0,0,7.2,3,2.6,3.7l-6.9-0.5c0,0,5.7,4,8.6,5.4c-1.7-0.3-4.5-0.4-6.8,0.3c-4,1.3-5.9,3.3-5.9,3.3
			l4.4,0.9c0,0-1.3,0.6-3.1,2.9c0,0,8-0.6,11.4-1.8c0,0-5.3,2.3-7,4.5c0,0,6.9-1.6,9.8-3.6c0,0-4,3.1-5.2,6.9l4.7-2.8l-1.6,4.4
			c0,0,5.6-5,8.4-11.6c0,0,0.4-1.4,1.8-1.8c1.4-0.4-4.9,5.9-4.4,11.2c0,0,2.3-2.6,3.4-4.5c-0.7,1.5-2.2,5.3-0.8,9.3
			c0,0,3.7-6.2,6.9-16.1c0.7-2-2.8,11.6-2.8,11.6s1.9-1.1,3.9-4.3c-0.5,3.5-0.7,6.2-0.7,6.2c2.3-1.8,4-6.2,4-6.2
			c1-1.9,2.8-7.9,3.6-10.3c0.6-1.7,1.1,0.4,1.4-0.7c-1.1,4.7-2.5,14.8-2.5,14.8c1.6-1.7,2.8-4,3.9-6.4c-0.4,3.6-0.6,6.4-0.6,6.4
			c2.4-2.8,4.3-6.2,5.7-8.7c0.1,2.7,0.4,5.5,1.2,8.5c0,0,2.6-3,4.8-7.9c0.1,2,0.2,4.1,0.2,5.9c0,1,0.2,1.4,0.4,1.3
			c0.6-0.9,1.1-1.8,1.7-2.6c0.7-1.5,1.5-3.3,2.2-4.3c-2.7-0.8-3.2-2.2-3.3-2.8c-0.1-0.7,0.3-0.8,0.4-0.8c0-0.3,0.1-0.6,0.4-0.8
			C100.2,174,102.6,172.5,105.3,170.8z"/>
		<path class="st0" d="M96.4,169c0,0,0.1,0,0.1,0c0-0.1,0-0.2,0-0.4C96.4,168.8,96.3,169,96.4,169C96.3,169,96.3,169,96.4,169z"/>
		<g>
			<path class="st0" d="M97.4,169.3c-0.1,0-0.1,0-0.2,0c0,0,0,0,0,0C97.3,169.3,97.4,169.3,97.4,169.3z"/>
			<path class="st0" d="M165.3,126.8c-4.7-6.4-11.8-3.6-11.8-3.6c1.5-3.6,8.2-4.3,8.2-4.3c-4.2-5.9-14.2-6.5-17.9-5.7
				c-3.7,0.7-3.6-4-3.6-4c-10.3,5.3-16.1,12.7-23.3,22.3c-6.7,9-18.9,34-20.5,37.1c0,0.2,0,0.3,0,0.4c0.3,0.1,0.5,0.2,0.8,0.2
				c0.2,0,5.4-0.6,11.2-11c2.7-5.5,5.2-10.8,8.4-14.4c0.1-0.1,0.2-0.2,0.3-0.3c0.2-0.2,0.4-0.4,0.7-0.7c0.1-0.1,0.1-0.1,0.2-0.2
				c0.3-0.3,0.6-0.5,0.9-0.8c1-0.8,1.4-0.6,0.9,0.6c-2,4.8-3.5,14.7-3.7,18.7c-1.9,3.8-14.1,10.8-16.9,13.7
				c-0.1,0.1-0.2,0.2-0.3,0.4c0,0,0,0,0,0.1c0,0.1,0,0.1-0.1,0.2c0,0.1,0,0.1,0,0.2c0,1,1.5,2.1,4.9,2.2c6.2,0.2,17.9-0.7,34-6.8
				C169.3,159,169.6,132.6,165.3,126.8z"/>
		</g>
	</g>
	<g>
		<path class="st9" d="M34.7,42.2c-1.1,0.5-2.1,1-3.2,1.5c0-0.2,0-0.4,0-0.6c0.3-0.2,0.6-0.5,0.9-0.7c0-1.7,0-3.5,0-5.2
			c-0.3,0-0.6,0.1-0.9,0.1c0-0.2,0-0.4,0-0.6c1.1-0.5,2.1-1,3.2-1.5c0,0.2,0,0.4,0,0.6c-0.3,0.2-0.6,0.4-0.9,0.7c0,1.7,0,3.5,0,5.2
			c0.3-0.1,0.6-0.1,0.9-0.2C34.7,41.8,34.7,42,34.7,42.2z M38.3,40.2c0,0.2-0.1,0.3-0.1,0.5c-0.4,0.3-0.8,0.5-1.2,0.8
			c-1-0.8-1.9-1.6-2.9-2.4c0-0.1,0-0.1,0-0.2c0.7-1.1,1.3-2.3,2-3.4c-0.2,0-0.5,0.1-0.7,0.1c0-0.2,0-0.4,0-0.6
			c0.8-0.4,1.7-0.8,2.5-1.1c0,0.2,0,0.4,0,0.6c-0.2,0.2-0.4,0.3-0.5,0.5c-0.2,0.2-0.3,0.3-0.4,0.5c-0.1,0.2-0.3,0.3-0.4,0.5
			c-0.1,0.2-0.2,0.4-0.4,0.5c-0.3,0.5-0.7,1-1,1.5C36.2,38.8,37.2,39.5,38.3,40.2z"/>
		<path class="st9" d="M45.7,34.1c0,0.5-0.1,1-0.2,1.4c-0.1,0.5-0.3,0.9-0.5,1.4c-0.2,0.4-0.6,0.8-1,1.2c-0.4,0.4-0.9,0.7-1.5,0.9
			c-1.1,0.4-1.8,0.5-2.3,0.1c-0.5-0.4-0.8-1.2-0.8-2.3c0-0.5,0.1-0.9,0.2-1.4c0.1-0.5,0.3-1,0.5-1.4c0.2-0.4,0.6-0.9,1-1.2
			c0.4-0.4,0.9-0.7,1.5-0.9c0.5-0.2,0.9-0.3,1.3-0.3c0.4,0,0.7,0.1,1,0.3c0.3,0.2,0.4,0.5,0.6,0.9C45.6,33.1,45.7,33.5,45.7,34.1z
			 M42.6,32.8c-0.3,0.1-0.6,0.3-0.8,0.6c-0.2,0.2-0.4,0.5-0.5,0.8c-0.1,0.3-0.2,0.6-0.2,0.9c0,0.3-0.1,0.6-0.1,0.9
			c0,0.4,0,0.8,0.1,1.1c0.1,0.3,0.1,0.5,0.3,0.7c0.1,0.2,0.3,0.3,0.5,0.3c0.2,0,0.5,0,0.8-0.1c0.3-0.1,0.6-0.3,0.8-0.5
			c0.2-0.2,0.4-0.5,0.5-0.8c0.1-0.3,0.2-0.6,0.3-0.9c0-0.3,0.1-0.6,0.1-0.9c0-0.3,0-0.7-0.1-1c-0.1-0.3-0.1-0.6-0.3-0.8
			c-0.1-0.2-0.3-0.3-0.5-0.4C43.1,32.6,42.9,32.6,42.6,32.8z"/>
		<path class="st9" d="M47.4,30c1.1-0.4,2.1-0.8,3.2-1.2c0,0.2,0,0.4,0,0.6c-0.3,0.2-0.6,0.4-0.9,0.6c0,0.7,0,1.4,0,2
			c0.9-0.3,1.8-0.7,2.7-1c0-0.7,0-1.3,0-2c-0.3,0-0.6,0-0.8,0c0-0.2,0-0.4,0-0.6c1.1-0.4,2.1-0.8,3.2-1.1c0,0.2,0,0.4,0,0.6
			c-0.3,0.2-0.6,0.4-0.9,0.6c0,1.7,0,3.4,0,5.2c0.3,0,0.6-0.1,0.9-0.1c0,0.2,0,0.4,0,0.7c-1.1,0.4-2.1,0.8-3.2,1.1
			c0-0.2,0-0.4-0.1-0.6c0.3-0.2,0.6-0.4,0.9-0.6c0-0.8,0-1.6,0-2.3c-0.9,0.3-1.8,0.7-2.7,1c0,0.8,0,1.5,0,2.3c0.3,0,0.6-0.1,0.9-0.1
			c0,0.2,0,0.4,0,0.7c-1.1,0.4-2.1,0.8-3.2,1.2c0-0.2,0-0.4,0-0.6c0.3-0.2,0.6-0.4,0.9-0.6c0-1.7,0-3.4,0-5.2c-0.3,0-0.6,0-0.9,0.1
			C47.4,30.4,47.4,30.2,47.4,30z"/>
		<path class="st9" d="M62.6,25.7c0,0.8,0,1.7,0,2.5c0,0.8,0,1.7,0,2.5c0.1,0,0.3-0.1,0.4-0.1c0.1,0,0.3-0.1,0.4-0.1
			c0,0,0,0.1,0.1,0.1c0,0.4-0.1,0.9-0.1,1.3c0,0.4-0.1,0.9-0.1,1.3c-0.3,0.1-0.5,0.2-0.8,0.2c-0.1-0.6-0.2-1.2-0.3-1.7
			c-1.6,0.5-3.2,1-4.8,1.5c-0.1,0.3-0.2,0.7-0.2,1c-0.1,0.3-0.1,0.7-0.2,1c-0.2,0.1-0.5,0.2-0.7,0.2c0-0.9-0.1-1.7-0.1-2.6
			c0,0,0,0,0-0.1c0,0,0,0,0-0.1c0.1-0.1,0.2-0.1,0.4-0.2c0.1-0.1,0.3-0.1,0.4-0.2c0.2-0.3,0.4-0.6,0.6-1c0.2-0.4,0.3-0.7,0.4-1.1
			c0.1-0.4,0.2-0.8,0.2-1.3c0.1-0.4,0.1-0.9,0.1-1.4c0-0.2,0-0.5,0-0.7c-0.2,0-0.3,0-0.5,0c-0.2,0-0.3,0-0.5,0c0-0.1,0-0.2,0-0.3
			c0-0.1,0-0.2,0-0.3c0.3-0.1,0.6-0.2,0.8-0.3c0.2-0.1,0.4-0.1,0.7-0.2c0.2-0.1,0.4-0.1,0.7-0.2c0.2-0.1,0.5-0.2,0.8-0.3
			c0.3-0.1,0.6-0.2,0.8-0.3c0.2-0.1,0.5-0.2,0.7-0.2c0.2-0.1,0.5-0.1,0.7-0.2c0.2-0.1,0.5-0.2,0.8-0.3c0,0.2,0,0.4,0,0.6
			c-0.2,0.1-0.3,0.2-0.5,0.2C62.9,25.5,62.7,25.6,62.6,25.7z M59.2,26.8c0,0.2,0,0.4,0,0.7c0,0.4,0,0.8,0,1.2c0,0.4-0.1,0.8-0.2,1.2
			c-0.1,0.4-0.2,0.8-0.3,1.2c-0.1,0.4-0.3,0.8-0.5,1.2c0.5-0.2,1-0.3,1.5-0.5c0.3-0.1,0.5-0.2,0.7-0.2c0.2-0.1,0.5-0.2,0.7-0.2
			c0-1.7,0-3.4,0-5C60.4,26.4,59.8,26.6,59.2,26.8z"/>
		<path class="st9" d="M68.4,29.4c0,0.2,0,0.4,0,0.6c-1.1,0.3-2.2,0.6-3.3,0.9c0-0.1,0-0.2,0-0.3c0-0.1,0-0.2,0-0.3
			c0.3-0.2,0.6-0.4,0.9-0.6c0-1.7,0-3.4,0-5.2c-0.3,0-0.6,0-0.9,0c0-0.1,0-0.2,0-0.3c0-0.1,0-0.2,0-0.3c1.1-0.3,2.2-0.6,3.2-0.9
			c0,0.2,0,0.4,0,0.6c-0.3,0.2-0.6,0.3-0.9,0.5c0,1.2,0,2.3,0,3.5c0.9-1.3,1.8-2.5,2.8-3.8c0-0.2,0-0.3,0-0.5c-0.3,0-0.6,0-0.8,0
			c0-0.1,0-0.2,0-0.3c0-0.1,0-0.2,0-0.3c1.1-0.3,2.2-0.6,3.2-0.9c0,0.1,0,0.2,0,0.3c0,0.1,0,0.2,0,0.3c-0.3,0.2-0.6,0.3-1,0.5
			c0,1.7,0,3.4,0,5.2c0.3,0,0.6,0,1,0c0,0.2,0,0.4,0,0.6c-1.1,0.3-2.2,0.6-3.3,0.9c0-0.2,0-0.4,0-0.6c0.3-0.2,0.6-0.3,0.9-0.5
			c0-1.2,0-2.4,0-3.5c-0.5,0.6-0.9,1.2-1.4,1.9c-0.5,0.6-0.9,1.3-1.4,1.9c0,0.2,0,0.4,0,0.5C67.8,29.4,68.1,29.4,68.4,29.4z"/>
		<path class="st9" d="M77.2,20.8c0.5-0.1,1-0.2,1.5-0.4c0.5-0.1,1.1-0.3,1.5-0.4c0,0,0.1,0,0.1,0c0,0.7,0,1.4,0,2.1
			c-0.2,0.1-0.3,0.1-0.5,0.2c-0.2-0.4-0.4-0.9-0.6-1.3c-0.5,0.1-0.9,0.2-1.4,0.3c0,1.7,0,3.5,0,5.2c0.3,0,0.7,0,1,0
			c0,0.2,0,0.4,0,0.6c-1.1,0.3-2.3,0.5-3.4,0.8c0-0.2,0-0.4-0.1-0.5c0.3-0.2,0.6-0.4,0.9-0.5c0-1.7,0-3.5,0-5.2
			c-0.5,0.1-0.9,0.2-1.4,0.3c-0.2,0.5-0.4,1-0.6,1.5c-0.2,0-0.3,0-0.5,0.1c0-0.7,0-1.4,0-2.1c0.1,0,0.1-0.1,0.2-0.1
			c0.5-0.1,1-0.2,1.5-0.3C76.2,21.1,76.7,21,77.2,20.8z"/>
		<path class="st9" d="M87.6,23.5c-0.1,0.7-0.2,1.3-0.3,2c0,0-0.1,0.1-0.1,0.1c-0.2,0-0.5,0.1-0.7,0.1c-0.2,0-0.4,0.1-0.6,0.1
			c-0.2,0-0.4,0.1-0.7,0.1s-0.5,0.1-0.8,0.2c-0.2,0-0.4,0.1-0.6,0.1c-0.2,0-0.5,0.1-0.7,0.2c-0.2,0.1-0.5,0.1-0.7,0.2
			c-0.2,0.1-0.5,0.1-0.7,0.2c0-0.2,0-0.4-0.1-0.6c0.3-0.2,0.6-0.3,0.9-0.5c0-1.7,0-3.5,0-5.2c-0.3,0-0.5,0-0.8-0.1
			c0-0.2,0-0.4,0.1-0.6c0.2,0,0.4-0.1,0.6-0.1c0.2,0,0.5-0.1,0.7-0.1c0.3,0,0.5-0.1,0.7-0.1c0.2,0,0.4-0.1,0.5-0.1
			c0.2,0,0.4-0.1,0.7-0.1c0.2,0,0.4-0.1,0.6-0.1c0.2,0,0.4-0.1,0.6-0.1c0.2,0,0.4-0.1,0.7-0.1c0,0,0.1,0,0.1,0c0,0.6,0,1.3,0,1.9
			c-0.2,0.1-0.3,0.1-0.5,0.2c-0.2-0.3-0.3-0.7-0.5-1c-0.1,0-0.2,0-0.4,0.1c-0.2,0-0.4,0.1-0.6,0.1c-0.2,0-0.4,0.1-0.6,0.1
			c-0.2,0-0.3,0.1-0.4,0.1c0,0.7,0,1.3,0,2c0.7-0.2,1.5-0.4,2.2-0.5c0,0.3,0,0.6,0,0.9c-0.7,0.1-1.5,0.2-2.2,0.4c0,0.7,0,1.5,0,2.2
			c0.1,0,0.3-0.1,0.5-0.1c0.2,0,0.4-0.1,0.7-0.1c0.2,0,0.4-0.1,0.7-0.1c0.2,0,0.4-0.1,0.5-0.1c0.2-0.4,0.5-0.9,0.7-1.3
			C87.3,23.5,87.5,23.5,87.6,23.5z"/>
		<path class="st9" d="M89.2,18.3c0.1,0,0.3,0,0.4-0.1c0.1,0,0.2,0,0.4-0.1c0.1,0,0.2,0,0.4-0.1c0.1,0,0.3,0,0.4-0.1
			c0.4-0.1,0.7-0.1,1-0.2c0.3-0.1,0.6-0.1,1-0.2c0.7-0.1,1.3,0,1.7,0.2c0.4,0.3,0.7,0.7,0.7,1.4c0,0.3-0.1,0.6-0.2,0.9
			c-0.1,0.3-0.3,0.6-0.5,0.8c-0.2,0.2-0.5,0.4-0.8,0.6c-0.3,0.2-0.7,0.3-1.2,0.4c-0.1,0-0.3,0-0.4,0.1c-0.2,0-0.4,0-0.5,0
			c0,0.6,0,1.2,0,1.9c0.3,0,0.7,0,1,0c0,0.2,0,0.4,0,0.6c-1.1,0.2-2.2,0.4-3.4,0.6c0-0.2,0-0.4,0-0.6c0.3-0.1,0.6-0.3,0.9-0.4
			c0-1.7,0-3.5,0-5.2c-0.3,0-0.6-0.1-0.8-0.1C89.2,18.7,89.2,18.5,89.2,18.3z M93.5,19.7c0-0.4-0.1-0.7-0.4-0.9
			c-0.3-0.2-0.6-0.2-1-0.1c-0.2,0-0.4,0.1-0.6,0.2c0,0.8,0,1.6,0,2.3c0.1,0,0.2,0,0.3,0c0.1,0,0.2,0,0.2,0c0.3-0.1,0.6-0.1,0.8-0.2
			c0.2-0.1,0.4-0.2,0.5-0.4c0.1-0.1,0.2-0.3,0.2-0.4C93.5,20,93.5,19.8,93.5,19.7z"/>
		<path class="st9" d="M96.8,20.5c0-0.4,0.1-0.9,0.2-1.4c0.1-0.5,0.3-0.9,0.6-1.3c0.3-0.4,0.6-0.7,1-1c0.4-0.3,0.9-0.4,1.5-0.5
			c0.3,0,0.5,0,0.8,0c0.3,0,0.5,0.1,0.9,0.2c0.1-0.1,0.2-0.3,0.2-0.4c0.2,0,0.3,0,0.5-0.1c0,0.7,0,1.5,0,2.2c-0.2,0-0.3,0.1-0.5,0.1
			c-0.2-0.3-0.3-0.6-0.5-0.9c-0.2-0.1-0.4-0.2-0.6-0.2c-0.2,0-0.4,0-0.6,0c-0.3,0-0.6,0.1-0.8,0.3c-0.2,0.2-0.4,0.4-0.5,0.6
			c-0.1,0.3-0.2,0.5-0.3,0.9c-0.1,0.3-0.1,0.7-0.1,1c0,0.3,0,0.7,0.1,1c0.1,0.3,0.1,0.5,0.3,0.8c0.1,0.2,0.3,0.4,0.6,0.5
			c0.3,0.1,0.6,0.1,1,0.1c0.2,0,0.5-0.1,0.8-0.2c0.3-0.1,0.7-0.2,1.1-0.4c0.1,0.3,0.2,0.6,0.2,0.8c-0.2,0.1-0.4,0.2-0.6,0.3
			c-0.2,0.1-0.4,0.2-0.7,0.2c-0.2,0.1-0.4,0.1-0.6,0.2c-0.2,0-0.4,0.1-0.6,0.1c-1.1,0.1-1.9,0-2.5-0.5
			C97.1,22.6,96.8,21.8,96.8,20.5z"/>
		<path class="st9" d="M107.4,22.6c-1.1,0.1-2.3,0.2-3.4,0.4c0-0.2,0-0.4,0-0.6c0.3-0.1,0.6-0.3,0.9-0.4c0-1.7,0-3.5,0-5.2
			c-0.3-0.1-0.6-0.1-0.9-0.2c0-0.2,0-0.4,0-0.6c1.1-0.1,2.3-0.3,3.4-0.4c0,0.2,0,0.4,0,0.6c-0.3,0.1-0.7,0.2-1,0.3
			c0,1.7,0,3.5,0,5.2c0.3,0,0.7,0.1,1,0.1C107.4,22.2,107.4,22.4,107.4,22.6z M111.2,21.8c0,0.2-0.1,0.3-0.1,0.5
			c-0.4,0.1-0.9,0.3-1.3,0.4c-1-1.1-2.1-2.2-3.1-3.3c0-0.1,0-0.1,0-0.2c0.7-0.9,1.4-1.8,2.1-2.7c-0.3-0.1-0.5-0.1-0.8-0.2
			c0-0.2,0-0.4,0-0.6c0.9-0.1,1.8-0.2,2.7-0.3c0,0.2,0,0.4,0,0.6c-0.2,0.1-0.4,0.2-0.5,0.3c-0.2,0.1-0.3,0.2-0.5,0.3
			c-0.1,0.1-0.3,0.2-0.4,0.4c-0.1,0.1-0.3,0.3-0.4,0.4c-0.3,0.4-0.7,0.8-1,1.2C108.9,19.7,110,20.7,111.2,21.8z"/>
		<path class="st9" d="M119,18.1c0,0.5-0.1,0.9-0.2,1.4c-0.1,0.4-0.3,0.8-0.6,1.2c-0.3,0.4-0.6,0.6-1,0.9c-0.4,0.2-0.9,0.4-1.5,0.4
			c-1.1,0.1-1.9-0.2-2.5-0.7c-0.5-0.6-0.8-1.4-0.8-2.5c0-0.5,0.1-0.9,0.2-1.4c0.1-0.5,0.3-0.9,0.6-1.2c0.3-0.4,0.6-0.7,1-0.9
			c0.4-0.2,1-0.4,1.6-0.4c0.5,0,1,0,1.4,0.2c0.4,0.1,0.7,0.4,1,0.6c0.3,0.3,0.5,0.7,0.6,1.1C119,17.1,119,17.6,119,18.1z
			 M115.7,15.8c-0.3,0-0.6,0.1-0.8,0.3c-0.2,0.2-0.4,0.4-0.5,0.7c-0.1,0.3-0.2,0.5-0.2,0.9c0,0.3-0.1,0.6-0.1,0.9
			c0,0.4,0,0.8,0.1,1.1c0.1,0.3,0.1,0.6,0.3,0.8s0.3,0.4,0.5,0.5c0.2,0.1,0.5,0.2,0.8,0.1c0.3,0,0.6-0.1,0.8-0.3
			c0.2-0.2,0.4-0.4,0.5-0.6c0.1-0.3,0.2-0.5,0.3-0.8c0.1-0.3,0.1-0.6,0.1-0.9c0-0.3,0-0.7-0.1-1c-0.1-0.3-0.1-0.6-0.3-0.8
			c-0.1-0.2-0.3-0.4-0.5-0.6C116.3,15.8,116.1,15.7,115.7,15.8z"/>
		<path class="st9" d="M126.8,19.4c-0.1,0.6-0.2,1.3-0.3,1.9c0,0-0.1,0.1-0.1,0.1c-0.2,0-0.5,0-0.7,0c-0.2,0-0.4,0-0.7,0
			c-0.2,0-0.4,0-0.7,0c-0.2,0-0.5,0-0.8,0c-0.2,0-0.4,0-0.6,0c-0.2,0-0.5,0-0.7,0c-0.3,0-0.5,0-0.7,0s-0.5,0-0.7,0
			c0-0.2,0-0.4-0.1-0.6c0.3-0.1,0.6-0.2,0.9-0.3c0-1.7,0-3.5,0-5.2c-0.3-0.1-0.6-0.1-0.8-0.2c0-0.2,0-0.4,0.1-0.6c0.2,0,0.4,0,0.6,0
			c0.2,0,0.5,0,0.8,0c0.3,0,0.5,0,0.7,0c0.2,0,0.4,0,0.5,0c0.2,0,0.5,0,0.7,0c0.2,0,0.4,0,0.6,0c0.2,0,0.4,0,0.6,0
			c0.2,0,0.4,0,0.7,0c0,0,0.1,0,0.1,0.1c0,0.6,0,1.3,0,1.9c-0.2,0-0.3,0.1-0.5,0.1c-0.2-0.4-0.3-0.7-0.5-1.1c-0.1,0-0.2,0-0.4,0
			s-0.4,0-0.6,0c-0.2,0-0.4,0-0.6,0c-0.2,0-0.3,0-0.4,0c0,0.7,0,1.3,0,2c0.8-0.1,1.5-0.1,2.3-0.1c0,0.3,0,0.6,0,0.9
			c-0.8,0-1.5,0-2.3,0c0,0.7,0,1.5,0,2.2c0.1,0,0.3,0,0.5,0c0.2,0,0.4,0,0.7,0c0.2,0,0.5,0,0.7,0c0.2,0,0.4,0,0.5,0
			c0.2-0.4,0.5-0.8,0.7-1.2C126.5,19.3,126.6,19.3,126.8,19.4z"/>
		<path class="st9" d="M147.4,18.3c0,0.5-0.1,0.9-0.2,1.4c-0.1,0.4-0.3,0.8-0.6,1.1c-0.3,0.3-0.6,0.6-1,0.8
			c-0.4,0.2-0.9,0.3-1.5,0.2c-1.1-0.1-1.9-0.4-2.5-1c-0.5-0.6-0.8-1.5-0.8-2.6c0-0.5,0.1-0.9,0.2-1.4c0.1-0.4,0.3-0.8,0.6-1.2
			c0.3-0.3,0.6-0.6,1-0.8c0.4-0.2,1-0.3,1.6-0.2c0.5,0,1,0.1,1.4,0.3c0.4,0.2,0.7,0.4,1,0.8c0.3,0.3,0.5,0.7,0.6,1.1
			C147.4,17.3,147.4,17.8,147.4,18.3z M144.1,15.6c-0.3,0-0.6,0-0.8,0.2c-0.2,0.1-0.4,0.3-0.5,0.6c-0.1,0.2-0.2,0.5-0.2,0.8
			c0,0.3-0.1,0.6-0.1,0.9c0,0.4,0,0.8,0.1,1.1c0.1,0.3,0.1,0.6,0.3,0.9c0.1,0.2,0.3,0.4,0.5,0.6c0.2,0.1,0.5,0.2,0.8,0.2
			c0.3,0,0.6,0,0.8-0.2c0.2-0.1,0.4-0.3,0.5-0.6c0.1-0.2,0.2-0.5,0.3-0.8c0.1-0.3,0.1-0.6,0.1-0.9c0-0.3,0-0.7-0.1-1
			c-0.1-0.3-0.1-0.6-0.3-0.9c-0.1-0.3-0.3-0.5-0.5-0.6C144.7,15.7,144.5,15.6,144.1,15.6z"/>
		<path class="st9" d="M149.3,15.7c0-0.2,0-0.4,0.1-0.6c0.1,0,0.3,0,0.5,0c0.2,0,0.4,0,0.7,0.1c0.2,0,0.5,0,0.8,0.1
			c0.3,0,0.5,0,0.7,0.1c0.4,0,0.8,0.1,1.3,0.1c0.5,0,0.9,0.1,1.3,0.1c0,0,0.1,0,0.1,0.1c0,0.6,0,1.3,0,1.9c-0.1,0-0.2,0-0.3,0
			c-0.1,0-0.2,0-0.3,0c-0.2-0.4-0.3-0.8-0.5-1.1c-0.7-0.1-1.4-0.1-2.1-0.2c0,0.6,0,1.1,0,1.7c0.1,0,0.3,0,0.5,0c0.2,0,0.4,0,0.6,0
			c0.5,0,0.9,0.1,1.2,0.3c0.3,0.1,0.6,0.3,0.9,0.5c0.2,0.2,0.4,0.5,0.5,0.7c0.1,0.3,0.2,0.6,0.2,0.9c0,0.3-0.1,0.6-0.2,0.8
			c-0.1,0.2-0.3,0.5-0.5,0.6c-0.2,0.2-0.5,0.3-0.7,0.4c-0.3,0.1-0.6,0.1-1,0.1c-0.1,0-0.2,0-0.4,0s-0.4,0-0.6-0.1
			c-0.2,0-0.4,0-0.6-0.1c-0.2,0-0.3,0-0.4,0c-0.1,0-0.3,0-0.4,0c-0.5,0-1-0.1-1.5-0.1c0-0.1,0-0.2,0-0.3c0-0.1,0-0.2,0-0.3
			c0.3-0.1,0.6-0.1,0.9-0.2c0-1.7,0-3.5,0-5.2C149.8,15.9,149.6,15.8,149.3,15.7z M152.4,18.8c-0.2,0-0.5,0-0.7,0c0,0.8,0,1.6,0,2.3
			c0.1,0,0.2,0.1,0.4,0.1c0.1,0,0.2,0,0.4,0.1c0.3,0,0.5,0,0.7,0c0.2,0,0.4-0.1,0.5-0.2c0.1-0.1,0.2-0.2,0.3-0.4
			c0.1-0.1,0.1-0.3,0.1-0.5C154,19.4,153.5,18.9,152.4,18.8z"/>
		<path class="st9" d="M161,17.1c0,0.6,0,1.1,0,1.7c0.1,0,0.1,0,0.2,0c0.1,0,0.2,0,0.3,0c0.1,0,0.2,0,0.3,0c0.1,0,0.2,0,0.3,0
			c0.9,0.1,1.6,0.4,2.1,0.9c0.5,0.5,0.7,1,0.7,1.7c0,0.3-0.1,0.6-0.2,0.8c-0.1,0.3-0.3,0.5-0.5,0.6c-0.2,0.2-0.5,0.3-0.7,0.4
			c-0.3,0.1-0.6,0.1-0.9,0c-0.3,0-0.7-0.1-1.1-0.2c-0.4-0.1-0.8-0.1-1.1-0.2c-0.3,0-0.5-0.1-0.8-0.1c-0.3,0-0.6-0.1-0.9-0.1
			c0-0.2,0-0.4,0-0.6c0.3-0.1,0.6-0.1,0.9-0.2c0-1.7,0-3.4,0-5.1c-0.5-0.1-1-0.1-1.5-0.2c-0.2,0.4-0.3,0.7-0.5,1.1
			c-0.2-0.1-0.3-0.1-0.5-0.2c0-0.6,0-1.3,0-1.9c0,0,0.1,0,0.1,0c0.2,0,0.4,0.1,0.6,0.1c0.2,0,0.4,0.1,0.6,0.1c0.2,0,0.4,0.1,0.6,0.1
			c0.2,0,0.3,0,0.5,0.1c0.3,0,0.5,0.1,0.7,0.1c0.2,0,0.4,0.1,0.6,0.1c0.2,0,0.4,0,0.6,0.1c0.2,0,0.4,0.1,0.6,0.1c0,0.2,0,0.4,0,0.6
			C161.7,17.1,161.4,17.1,161,17.1z M163.3,21.3c0-0.4-0.1-0.7-0.4-1c-0.3-0.3-0.6-0.4-1.2-0.5c-0.2,0-0.5,0-0.7,0
			c0,0.8,0,1.6,0,2.4c0.1,0,0.2,0.1,0.4,0.1c0.1,0,0.3,0.1,0.4,0.1c0.3,0,0.5,0,0.7,0c0.2,0,0.4-0.1,0.5-0.2
			c0.1-0.1,0.2-0.2,0.3-0.4C163.3,21.6,163.3,21.5,163.3,21.3z"/>
		<path class="st9" d="M172.4,22.8c-0.1,0.6-0.2,1.3-0.3,1.9c0,0-0.1,0.1-0.1,0.1c-0.2,0-0.5-0.1-0.7-0.1c-0.2,0-0.4-0.1-0.6-0.1
			c-0.2,0-0.4-0.1-0.7-0.1c-0.2,0-0.5-0.1-0.8-0.1c-0.2,0-0.4-0.1-0.6-0.1c-0.2,0-0.5-0.1-0.7-0.1c-0.2,0-0.5-0.1-0.7-0.1
			c-0.2,0-0.5-0.1-0.7-0.1c0-0.2,0-0.4-0.1-0.6c0.3,0,0.6-0.1,0.9-0.1c0-1.7,0-3.5,0-5.2c-0.3-0.1-0.5-0.2-0.8-0.4
			c0-0.2,0-0.4,0.1-0.6c0.2,0,0.4,0.1,0.6,0.1s0.5,0.1,0.7,0.1c0.3,0,0.5,0.1,0.7,0.1c0.2,0,0.4,0.1,0.5,0.1c0.2,0,0.5,0.1,0.7,0.1
			c0.2,0,0.4,0.1,0.6,0.1c0.2,0,0.4,0.1,0.6,0.1c0.2,0,0.4,0.1,0.7,0.1c0,0,0.1,0.1,0.1,0.1c0,0.6,0,1.3,0,1.9c-0.2,0-0.3,0-0.5,0
			c-0.2-0.4-0.3-0.8-0.5-1.2c-0.1,0-0.2,0-0.4-0.1c-0.2,0-0.4-0.1-0.6-0.1c-0.2,0-0.4-0.1-0.6-0.1c-0.2,0-0.3-0.1-0.4-0.1
			c0,0.7,0,1.3,0,2c0.7,0.1,1.5,0.2,2.2,0.3c0,0.3,0,0.6,0,0.9c-0.7-0.2-1.5-0.3-2.2-0.5c0,0.7,0,1.5,0,2.2c0.1,0,0.3,0,0.5,0.1
			c0.2,0,0.4,0.1,0.7,0.1c0.2,0,0.5,0.1,0.7,0.1c0.2,0,0.4,0.1,0.5,0.1c0.2-0.4,0.5-0.7,0.7-1.1C172.1,22.7,172.2,22.8,172.4,22.8z"
			/>
		<path class="st9" d="M180.1,20.3c0,0.8,0,1.7,0,2.5c0,0.8,0,1.7,0,2.5c0.1,0,0.3,0.1,0.4,0.1c0.1,0,0.3,0.1,0.4,0.1
			c0,0,0,0.1,0.1,0.1c0,0.4-0.1,0.9-0.1,1.3c0,0.4-0.1,0.9-0.1,1.3c-0.3-0.1-0.5-0.1-0.8-0.2c-0.1-0.6-0.2-1.3-0.3-1.9
			c-1.6-0.3-3.3-0.7-4.9-1c-0.1,0.3-0.2,0.6-0.2,0.9c-0.1,0.3-0.2,0.6-0.2,0.9c-0.2,0-0.5-0.1-0.7-0.1c0-0.9-0.1-1.8-0.1-2.6
			c0,0,0,0,0,0c0,0,0,0,0,0c0.1,0,0.3,0,0.4,0c0.1,0,0.3,0,0.4,0c0.2-0.2,0.4-0.4,0.6-0.7c0.2-0.3,0.3-0.6,0.4-0.9
			c0.1-0.3,0.2-0.7,0.3-1.2c0.1-0.4,0.1-0.9,0.1-1.3c0-0.2,0-0.5,0-0.7c-0.2-0.1-0.3-0.2-0.5-0.2c-0.2-0.1-0.3-0.1-0.5-0.2
			c0-0.1,0-0.2,0-0.3c0-0.1,0-0.2,0-0.3c0.3,0.1,0.6,0.1,0.8,0.2c0.2,0,0.5,0.1,0.7,0.1c0.2,0,0.4,0.1,0.7,0.1
			c0.2,0,0.5,0.1,0.8,0.2c0.3,0.1,0.6,0.1,0.8,0.2c0.2,0.1,0.5,0.1,0.7,0.1c0.2,0,0.5,0.1,0.7,0.1c0.2,0,0.5,0.1,0.8,0.2
			c0,0.2,0,0.4,0,0.6c-0.2,0-0.3,0-0.5,0S180.3,20.3,180.1,20.3z M176.7,19.7c0,0.2,0,0.4,0,0.7c0,0.4,0,0.8-0.1,1.1
			c0,0.4-0.1,0.7-0.2,1.1c-0.1,0.4-0.2,0.7-0.3,1c-0.1,0.3-0.3,0.6-0.5,0.9c0.5,0.1,1,0.2,1.5,0.3c0.3,0.1,0.5,0.1,0.8,0.1
			c0.2,0,0.5,0.1,0.7,0.1c0-1.7,0-3.4,0-5C178,19.9,177.4,19.8,176.7,19.7z"/>
		<path class="st9" d="M186.1,27.1c0,0.2,0,0.4,0,0.6c-1.1-0.3-2.2-0.5-3.3-0.8c0-0.1,0-0.2,0-0.3c0-0.1,0-0.2,0-0.3
			c0.3,0,0.6-0.1,0.9-0.1c0-1.7,0-3.4,0-5.2c-0.3-0.2-0.6-0.3-0.9-0.5c0-0.1,0-0.2,0-0.3c0-0.1,0-0.2,0-0.3c1.1,0.2,2.2,0.5,3.3,0.8
			c0,0.2,0,0.4,0,0.6c-0.3,0-0.6,0-0.9,0c0,1.2,0,2.3,0,3.5c0.9-0.8,1.9-1.6,2.8-2.3c0-0.2,0-0.3,0-0.5c-0.3-0.2-0.6-0.3-0.9-0.5
			c0-0.1,0-0.2,0-0.3c0-0.1,0-0.2,0-0.3c1.1,0.3,2.2,0.5,3.3,0.8c0,0.1,0,0.2,0,0.3c0,0.1,0,0.2,0,0.3c-0.3,0-0.6,0-1,0
			c0,1.7,0,3.4,0,5.2c0.3,0.2,0.6,0.3,1,0.5c0,0.2,0,0.4,0,0.6c-1.1-0.3-2.2-0.6-3.3-0.8c0-0.2,0-0.4,0-0.6c0.3,0,0.6,0,0.9-0.1
			c0-1.2,0-2.4,0-3.5c-0.5,0.4-0.9,0.8-1.4,1.2c-0.5,0.4-0.9,0.8-1.4,1.2c0,0.2,0,0.4,0,0.5C185.4,26.8,185.8,26.9,186.1,27.1z"/>
		<path class="st9" d="M192,22.3c1.1,0.3,2.2,0.6,3.3,0.9c0,0.2,0,0.4,0,0.6c-0.3,0-0.6,0-0.9,0c0,0.7,0,1.4,0,2
			c0.9,0.3,1.9,0.5,2.8,0.8c0-0.7,0-1.3,0-2c-0.3-0.2-0.6-0.3-0.8-0.5c0-0.2,0-0.4,0-0.6c1.1,0.3,2.2,0.6,3.2,0.9c0,0.2,0,0.4,0,0.6
			c-0.3,0-0.6,0-1-0.1c0,1.7,0,3.4,0,5.2c0.3,0.2,0.6,0.3,1,0.5c0,0.2,0,0.4,0,0.6c-1.1-0.3-2.2-0.6-3.3-1c0-0.2,0-0.4-0.1-0.6
			c0.3,0,0.6,0,0.9,0c0-0.8,0-1.6,0-2.3c-0.9-0.3-1.8-0.5-2.8-0.8c0,0.8,0,1.5,0,2.3c0.3,0.2,0.6,0.3,0.9,0.5c0,0.2,0,0.4,0,0.6
			c-1.1-0.3-2.2-0.6-3.3-0.9c0-0.2,0-0.4,0-0.6c0.3,0,0.6,0,0.9,0c0-1.7,0-3.4,0-5.2c-0.3-0.2-0.6-0.3-0.9-0.5
			C192,22.7,192,22.5,192,22.3z"/>
		<path class="st9" d="M206.9,31.6c-0.1,0.6-0.2,1.2-0.3,1.8c0,0-0.1,0-0.1,0.1c-0.2-0.1-0.5-0.2-0.7-0.2c-0.2-0.1-0.4-0.1-0.6-0.2
			c-0.2-0.1-0.4-0.1-0.7-0.2c-0.2-0.1-0.5-0.2-0.7-0.2c-0.2-0.1-0.4-0.1-0.6-0.2c-0.2-0.1-0.5-0.1-0.7-0.2c-0.2-0.1-0.5-0.1-0.7-0.2
			c-0.2-0.1-0.5-0.1-0.6-0.2c0-0.2,0-0.4-0.1-0.6c0.3,0,0.6,0,0.9,0c0-1.7,0-3.5,0-5.2c-0.3-0.2-0.5-0.3-0.8-0.5
			c0-0.2,0-0.4,0.1-0.6c0.2,0.1,0.4,0.1,0.6,0.2c0.2,0.1,0.5,0.2,0.7,0.2c0.2,0.1,0.5,0.2,0.7,0.2c0.2,0.1,0.4,0.1,0.5,0.2
			c0.2,0.1,0.4,0.1,0.6,0.2c0.2,0.1,0.4,0.1,0.6,0.2c0.2,0.1,0.4,0.1,0.6,0.2c0.2,0.1,0.4,0.1,0.7,0.2c0,0,0.1,0.1,0.1,0.1
			c0,0.6,0,1.3,0,1.9c-0.2,0-0.3,0-0.5-0.1c-0.2-0.4-0.3-0.9-0.5-1.3c-0.1,0-0.2-0.1-0.4-0.1c-0.2-0.1-0.4-0.1-0.6-0.2
			c-0.2-0.1-0.4-0.1-0.6-0.2c-0.2-0.1-0.3-0.1-0.4-0.1c0,0.7,0,1.3,0,2c0.7,0.2,1.5,0.4,2.2,0.6c0,0.3,0,0.6,0,0.9
			c-0.7-0.3-1.5-0.5-2.2-0.8c0,0.7,0,1.5,0,2.2c0.1,0,0.3,0.1,0.5,0.2c0.2,0.1,0.4,0.1,0.6,0.2c0.2,0.1,0.4,0.1,0.6,0.2
			c0.2,0.1,0.4,0.1,0.5,0.2c0.2-0.3,0.4-0.6,0.7-0.9C206.6,31.5,206.8,31.6,206.9,31.6z"/>
		<path class="st9" d="M208.5,27.3c1.1,0.4,2.1,0.7,3.2,1.1c0,0.2,0,0.4,0,0.6c-0.3,0-0.6-0.1-0.9-0.1c0,0.7,0,1.4,0,2
			c0.9,0.3,1.8,0.7,2.7,1c0-0.7,0-1.3,0-2c-0.3-0.2-0.6-0.4-0.8-0.6c0-0.2,0-0.4,0-0.6c1.1,0.4,2.1,0.8,3.2,1.2c0,0.2,0,0.4,0,0.6
			c-0.3,0-0.6-0.1-0.9-0.1c0,1.7,0,3.4,0,5.2c0.3,0.2,0.6,0.4,0.9,0.6c0,0.2,0,0.4,0,0.6c-1.1-0.4-2.1-0.8-3.2-1.2
			c0-0.2,0-0.4-0.1-0.6c0.3,0,0.6,0,0.9,0c0-0.8,0-1.6,0-2.3c-0.9-0.3-1.8-0.7-2.7-1c0,0.8,0,1.5,0,2.3c0.3,0.2,0.6,0.4,0.9,0.6
			c0,0.2,0,0.4,0,0.6c-1.1-0.4-2.1-0.8-3.2-1.1c0-0.2,0-0.4,0-0.6c0.3,0,0.6,0,0.9,0c0-1.7,0-3.4,0-5.2c-0.3-0.2-0.6-0.4-0.9-0.6
			C208.4,27.7,208.4,27.5,208.5,27.3z"/>
		<path class="st9" d="M220.7,38.2c0,0.2,0,0.4,0,0.6c-1.1-0.4-2.1-0.9-3.2-1.3c0-0.1,0-0.2,0-0.3c0-0.1,0-0.2,0-0.3
			c0.3,0,0.6,0,0.9,0.1c0-1.7,0-3.4,0-5.2c-0.3-0.2-0.6-0.4-0.9-0.6c0-0.1,0-0.2,0-0.3c0-0.1,0-0.2,0-0.3c1.1,0.4,2.1,0.8,3.2,1.3
			c0,0.2,0,0.4,0,0.6c-0.3,0-0.6-0.1-0.9-0.1c0,1.2,0,2.3,0,3.5c0.9-0.6,1.8-1.3,2.7-1.9c0-0.2,0-0.3,0-0.5
			c-0.3-0.2-0.5-0.4-0.8-0.6c0-0.1,0-0.2,0-0.3c0-0.1,0-0.2,0-0.3c1,0.4,2.1,0.9,3.1,1.3c0,0.1,0,0.2,0,0.3c0,0.1,0,0.2,0,0.3
			c-0.3-0.1-0.6-0.1-0.9-0.2c0,1.7,0,3.4,0,5.2c0.3,0.2,0.6,0.4,0.9,0.6c0,0.2,0,0.4,0,0.6c-1.1-0.5-2.1-0.9-3.2-1.3
			c0-0.2,0-0.4,0-0.6c0.3,0,0.6,0,0.8,0.1c0-1.2,0-2.4,0-3.5c-0.4,0.3-0.9,0.6-1.3,0.9c-0.4,0.3-0.9,0.6-1.4,0.9c0,0.2,0,0.4,0,0.5
			C220.1,37.8,220.4,38,220.7,38.2z"/>
		<path class="st9" d="M231.9,41.7c-0.1,0.6-0.2,1.2-0.2,1.8c0,0-0.1,0-0.1,0.1c-0.2-0.1-0.4-0.2-0.6-0.3c-0.2-0.1-0.4-0.2-0.6-0.3
			c-0.2-0.1-0.4-0.2-0.6-0.3c-0.2-0.1-0.5-0.2-0.7-0.3c-0.2-0.1-0.4-0.2-0.6-0.3c-0.2-0.1-0.4-0.2-0.7-0.3c-0.2-0.1-0.5-0.2-0.7-0.3
			c-0.2-0.1-0.4-0.2-0.6-0.3c0-0.2,0-0.4-0.1-0.6c0.3,0,0.6,0.1,0.9,0.1c0-1.7,0-3.5,0-5.2c-0.3-0.2-0.5-0.4-0.8-0.6
			c0-0.2,0-0.4,0.1-0.6c0.2,0.1,0.4,0.2,0.6,0.3c0.2,0.1,0.5,0.2,0.7,0.3c0.2,0.1,0.5,0.2,0.7,0.3c0.2,0.1,0.4,0.2,0.5,0.2
			c0.2,0.1,0.4,0.2,0.6,0.3c0.2,0.1,0.4,0.2,0.6,0.3c0.2,0.1,0.4,0.2,0.6,0.3c0.2,0.1,0.4,0.2,0.6,0.3c0,0,0.1,0.1,0.1,0.1
			c0,0.6,0,1.3,0,1.9c-0.2,0-0.3-0.1-0.5-0.1c-0.2-0.4-0.3-0.9-0.5-1.3c-0.1,0-0.2-0.1-0.4-0.2c-0.2-0.1-0.4-0.2-0.6-0.2
			c-0.2-0.1-0.4-0.2-0.6-0.2c-0.2-0.1-0.3-0.1-0.4-0.2c0,0.7,0,1.3,0,2c0.7,0.3,1.4,0.6,2.1,0.9c0,0.3,0,0.6,0,0.9
			c-0.7-0.4-1.4-0.7-2.1-1c0,0.7,0,1.5,0,2.2c0.1,0.1,0.3,0.1,0.5,0.2c0.2,0.1,0.4,0.2,0.6,0.3c0.2,0.1,0.4,0.2,0.6,0.3
			c0.2,0.1,0.4,0.2,0.5,0.2c0.2-0.3,0.4-0.6,0.6-0.9C231.6,41.5,231.8,41.6,231.9,41.7z"/>
	</g>
	<g>
		<path class="st9" d="M116.4,0.6c0.8-0.1,1.3,0.1,1.8,0.4c0.4,0.3,0.6,0.8,0.6,1.5c0,0.4-0.1,0.7-0.2,1.1c-0.2,0.4-0.4,0.7-0.7,1.1
			c-0.3,0.4-0.6,0.7-1,1c-0.4,0.3-0.8,0.6-1.2,0.9c0,0,0,0,0,0c0.8-0.1,1.7-0.2,2.5-0.3c0.2-0.4,0.4-0.8,0.6-1.1
			c0.2,0,0.3,0,0.5,0.1c-0.1,0.7-0.2,1.3-0.3,2c0,0-0.1,0.1-0.1,0.1c-0.3,0-0.6,0-1,0.1c-0.4,0-0.9,0-1.4,0.1c-0.1,0-0.2,0-0.3,0
			c-0.1,0-0.2,0-0.4,0c-0.2,0-0.4,0-0.6,0.1c-0.3,0-0.6,0.1-1,0.1c-0.1-0.2-0.1-0.4-0.2-0.7c0.5-0.4,0.9-0.7,1.3-1.1
			c0.4-0.4,0.8-0.7,1.1-1.1c0.3-0.4,0.6-0.7,0.7-1.1c0.2-0.4,0.3-0.7,0.3-1.1c0-0.4-0.1-0.7-0.3-0.9c-0.2-0.2-0.5-0.3-1-0.2
			c-0.3,0-0.6,0.1-0.9,0.2c-0.3,0.1-0.6,0.2-0.8,0.4c-0.1-0.2-0.3-0.5-0.4-0.7c0.4-0.3,0.7-0.5,1.2-0.7
			C115.4,0.8,115.9,0.6,116.4,0.6z"/>
		<path class="st9" d="M126.3,3.7c0,0.5,0,0.9-0.1,1.4c-0.1,0.4-0.2,0.8-0.4,1.2c-0.2,0.3-0.5,0.6-0.8,0.8c-0.4,0.2-0.8,0.3-1.4,0.4
			c-0.6,0-1-0.1-1.4-0.2c-0.4-0.2-0.6-0.4-0.9-0.8c-0.2-0.3-0.4-0.7-0.4-1.1c-0.1-0.4-0.1-0.9-0.1-1.3c0-0.4,0-0.9,0.1-1.3
			c0.1-0.4,0.2-0.8,0.4-1.2c0.2-0.3,0.5-0.6,0.9-0.8c0.4-0.2,0.8-0.3,1.4-0.4c0.6,0,1,0.1,1.4,0.3c0.4,0.2,0.6,0.4,0.8,0.8
			c0.2,0.3,0.4,0.7,0.4,1.1C126.2,2.8,126.3,3.2,126.3,3.7z M123.5,1.1c-0.3,0-0.5,0.1-0.6,0.2c-0.2,0.1-0.3,0.3-0.4,0.6
			c-0.1,0.2-0.1,0.5-0.2,0.8c0,0.3,0,0.6,0,0.9c0,0.4,0,0.7,0,1c0,0.3,0.1,0.7,0.2,0.9c0.1,0.3,0.2,0.5,0.4,0.6
			c0.2,0.2,0.4,0.2,0.7,0.2c0.3,0,0.5-0.1,0.6-0.2c0.2-0.1,0.3-0.3,0.4-0.5c0.1-0.2,0.2-0.5,0.2-0.8c0-0.3,0-0.6,0-0.9
			c0-0.4,0-0.7,0-1.1s-0.1-0.7-0.2-0.9c-0.1-0.3-0.2-0.5-0.4-0.6C124,1.2,123.8,1.1,123.5,1.1z"/>
		<path class="st9" d="M133.3,3.6c0,0.5,0,0.9-0.1,1.4c-0.1,0.4-0.2,0.8-0.4,1.2c-0.2,0.3-0.5,0.6-0.9,0.8c-0.4,0.2-0.8,0.3-1.4,0.3
			c-0.6,0-1-0.1-1.4-0.3c-0.4-0.2-0.6-0.5-0.9-0.8c-0.2-0.3-0.4-0.7-0.4-1.2c-0.1-0.4-0.1-0.9-0.1-1.3c0-0.4,0-0.9,0.1-1.3
			c0.1-0.4,0.2-0.8,0.4-1.2c0.2-0.3,0.5-0.6,0.9-0.8c0.4-0.2,0.8-0.3,1.4-0.3c0.6,0,1,0.1,1.4,0.3c0.4,0.2,0.6,0.5,0.9,0.8
			c0.2,0.3,0.4,0.7,0.4,1.1S133.3,3.1,133.3,3.6z M130.4,0.9c-0.3,0-0.5,0.1-0.6,0.2c-0.2,0.1-0.3,0.3-0.4,0.6
			c-0.1,0.2-0.1,0.5-0.2,0.8c0,0.3,0,0.6,0,0.9c0,0.4,0,0.7,0,1c0,0.3,0.1,0.7,0.2,0.9c0.1,0.3,0.2,0.5,0.4,0.7
			c0.2,0.2,0.4,0.2,0.7,0.2c0.3,0,0.5-0.1,0.6-0.2c0.2-0.1,0.3-0.3,0.4-0.5c0.1-0.2,0.2-0.5,0.2-0.8c0-0.3,0-0.6,0-0.9
			c0-0.4,0-0.7,0-1.1c0-0.3-0.1-0.7-0.2-0.9c-0.1-0.3-0.2-0.5-0.4-0.7C131,1,130.7,0.9,130.4,0.9z"/>
		<path class="st9" d="M137.6,4.6c-0.1,0-0.2,0-0.3,0c-0.1,0-0.2,0-0.3,0c-0.3,0-0.6-0.1-0.9-0.2c-0.3-0.1-0.5-0.2-0.7-0.4
			c-0.2-0.2-0.4-0.4-0.5-0.7c-0.1-0.3-0.2-0.6-0.2-0.9c0-0.3,0.1-0.6,0.2-0.9c0.1-0.3,0.3-0.6,0.5-0.8c0.2-0.2,0.5-0.4,0.8-0.6
			c0.3-0.1,0.7-0.2,1.2-0.2c0.5,0,0.9,0.1,1.2,0.2c0.3,0.2,0.6,0.4,0.8,0.6c0.2,0.3,0.4,0.6,0.5,0.9c0.1,0.3,0.1,0.7,0.1,1.1
			c0,0.7-0.1,1.2-0.4,1.7c-0.2,0.5-0.6,0.9-0.9,1.3c-0.4,0.4-0.8,0.7-1.3,0.9c-0.5,0.2-1,0.4-1.4,0.6c-0.1-0.2-0.2-0.5-0.3-0.7
			c0.7-0.3,1.2-0.7,1.6-1c0.4-0.3,0.7-0.7,0.8-1c0.2-0.3,0.3-0.7,0.3-1c0-0.3,0.1-0.6,0.1-0.9c0-0.6-0.1-1-0.3-1.3
			c-0.2-0.3-0.5-0.5-0.9-0.5c-0.2,0-0.4,0-0.5,0.1c-0.1,0.1-0.3,0.2-0.4,0.3c-0.1,0.1-0.2,0.3-0.2,0.5c0,0.2-0.1,0.4-0.1,0.6
			c0,0.3,0,0.5,0.1,0.7c0.1,0.2,0.1,0.3,0.2,0.5c0.1,0.1,0.2,0.2,0.4,0.3c0.2,0.1,0.4,0.1,0.6,0.1C137.6,4.3,137.6,4.4,137.6,4.6z"
			/>
		<path class="st9" d="M143.4,4.8c0-0.6,0-1.1,0-1.7C143.2,3,143,3,142.7,2.9c0-0.1,0-0.2,0-0.3c0-0.1,0-0.2,0-0.3
			c0.1,0,0.3,0,0.5,0c0.2,0,0.4,0,0.6,0c0.2,0,0.4,0,0.6,0c0.2,0,0.3,0,0.4,0c0.2,0,0.4,0,0.6,0c0.2,0,0.4,0,0.6,0
			c0.1,0,0.2,0,0.4,0c0.1,0,0.3,0,0.4,0c0.1,0,0.1,0.1,0.2,0.1c0,0.2,0,0.5,0,0.7c0,0.2,0,0.5,0,0.7c-0.1,0-0.2,0-0.3,0
			c-0.1,0-0.2,0-0.3,0c-0.1-0.1-0.1-0.3-0.2-0.4c-0.1-0.1-0.1-0.3-0.2-0.4c-0.5,0-1-0.1-1.4-0.1c0,1.1,0,2.2,0,3.4
			c0.2,0.1,0.4,0.2,0.6,0.2c0,0.2,0,0.4,0,0.5c-0.9,0-1.8-0.1-2.7-0.1c0-0.1,0-0.2,0-0.3c0-0.1,0-0.2,0-0.3c0.2-0.1,0.5-0.2,0.7-0.2
			C143.4,5.9,143.4,5.3,143.4,4.8z"/>
		<path class="st9" d="M150.5,7c0,0.2-0.1,0.4-0.2,0.6c-0.2,0.2-0.4,0.2-0.6,0.2c-0.3,0-0.5-0.1-0.7-0.3c-0.1-0.2-0.2-0.4-0.2-0.6
			c0-0.2,0.1-0.4,0.3-0.6c0.2-0.1,0.4-0.2,0.6-0.2c0.3,0,0.5,0.1,0.6,0.3C150.4,6.5,150.5,6.7,150.5,7z"/>
	</g>
	<g>
		<path class="st6" d="M247.8,50.1v0.7h-1.6v4.4h-0.9v-4.4h-1.6v-0.7H247.8z"/>
		<path class="st6" d="M248.7,50.1h1.2l0.9,2.6c0.1,0.4,0.4,1,0.5,1.4h0c0.1-0.4,0.4-1.2,0.6-1.8l0.8-2.3h1.2l0.4,5.2h-0.9l-0.1-2.5
			c0-0.6-0.1-1.2-0.1-1.8h0c-0.1,0.5-0.3,0.9-0.6,1.7l-1,2.6h-0.7l-0.9-2.6c-0.2-0.5-0.4-1.2-0.5-1.7h0c0,0.6-0.1,1.3-0.1,1.9
			l-0.1,2.4h-0.9L248.7,50.1z"/>
	</g>
</g>
</svg>
