<?xml version="1.0" encoding="utf-8"?>
<!-- Generator: Adobe Illustrator 22.1.0, SVG Export Plug-In . SVG Version: 6.00 Build 0)  -->
<svg version="1.1" id="Слой_1" xmlns="http://www.w3.org/2000/svg" xmlns:xlink="http://www.w3.org/1999/xlink" x="0px" y="0px"
	 viewBox="0 0 512.1 320.1" style="enable-background:new 0 0 512.1 320.1;" xml:space="preserve">
<style type="text/css">
	.st0{fill:#241F20;}
</style>
<g id="_x23_241f20ff">
	<path class="st0" d="M25.4,0.9C27.6,0.3,29.8,0.1,32,0c148.7,0,297.3,0,446,0c18.2-0.8,35,16.2,34,34.3c0,84,0,168.1,0,252.1
		c0.6,17.9-16,34.4-34,33.6c-148.4,0-296.8,0-445.1,0C15.4,320.2-0.6,304,0,286.4c0-84.4,0-168.7,0-253.1
		C-0.3,18.4,11.3,4.7,25.4,0.9 M23.7,24.2c-2.5,2.7-2.3,6.7-2.4,10.2c0,24.1,0,48.3,0,72.4c14.2,0,28.5,0,42.7,0
		c-9.9-5.3-19.5-12.6-24.5-22.9c-4.9-9.7-4.4-21.4-0.3-31.3c2.3-5.5,6.6-10.5,12.5-12.3c6.7-2.2,13.9-0.8,20.4,1.2
		c12.8,4.4,24.3,11.8,34.8,20.2c11.2,8.8,21.7,18.6,31.8,28.6c13.9-13.5,28.2-26.9,44.4-37.7c10-6.3,20.9-12.1,32.9-13.3
		c7.4-0.7,15.5,2.1,19.6,8.7c6.6,10.6,7.7,24.9,2.1,36.2c-4.9,10.1-14.3,16.9-23.7,22.5c6.3,0.4,12.7,0.1,19.1,0.2
		c85.9-0.1,171.8,0.1,257.7-0.1c0-24.4,0-48.9,0-73.3c0-2.9-0.1-6.2-2-8.6c-1.9-2.7-5.5-3.3-8.6-3.3c-110.3,0.1-220.5-0.1-330.8,0.1
		c-0.1,11,0.2,22-0.1,33c-0.3,6.2-6.8,10.8-12.8,9.4c-4.8-0.9-8.6-5.4-8.5-10.3c-0.1-10.7,0.1-21.4,0-32.1c-31.4,0-62.7,0-94.1,0
		C30.5,21.4,26.3,21.3,23.7,24.2 M58.3,62.7c-2.2,6.6-0.3,14.1,4.2,19.2c5.7,6.5,13.7,10.4,21.7,13.2c11,3.7,22.6,5.5,34.1,5.2
		c-12.2-12.3-25.7-23.4-40-33.3c-4.6-2.9-9.2-6.2-14.6-7.3C61.5,59.2,58.9,60.4,58.3,62.7 M203.1,64.4c-16,10.3-30.6,22.6-44.1,35.9
		c15.9,0.2,32.3-2.8,46.3-10.7c7.5-4.2,14.4-11.3,14.6-20.3c-0.2-3.2,0.1-7.8-3.4-9.4C211.6,59,207.1,62.1,203.1,64.4 M21.4,128.1
		c0,53.1,0,106.2,0,159.3c0,2.9,0.3,6.1,2.3,8.4c2.3,2.6,6.1,2.9,9.4,2.9c31.7,0,63.3,0,95,0c0-38.8,0-77.6,0-116.4
		c-0.2-3.4,1.1-6.9,3.9-9.1c3.9-3.4,10.3-3.3,14.1,0.3c2.5,2.2,3.5,5.6,3.5,8.8c0,38.8,0,77.5,0,116.3c109.6,0.2,219.1,0,328.7,0.1
		c3.4,0,7.2,0,9.9-2.4c2.4-2.2,2.8-5.8,2.8-8.9c0-53.1,0.1-106.2,0-159.3c-111.1,0-222.2-0.1-333.3,0.1c16.1,11,30.9,25,39.1,42.9
		c5.9,12.9,8,27.8,4.9,41.7c-1.4,6.5-9.6,10.1-15.4,6.7c-4.1-2.1-6.5-7.1-5.3-11.6c2.2-9.8,0-20.1-4-29.1
		c-7.4-16.5-22.4-28.1-37.7-36.8c-11,5.8-21.2,13.4-29.3,22.9c-8.5,10.1-14,23.2-13.6,36.5c-0.1,4.2,2.1,8.4,0.4,12.5
		c-1.8,4.8-7.3,7.8-12.3,6.6c-4.2-0.9-7.6-4.5-8.3-8.7c-3.7-18.2,1.4-37.5,11.9-52.6c8.4-12.5,20-22.4,32.2-31
		C87.1,128,54.2,128,21.4,128.1z"/>
</g>
</svg>
