<?xml version="1.0" encoding="utf-8"?>
<!-- Generator: Adobe Illustrator 22.1.0, SVG Export Plug-In . SVG Version: 6.00 Build 0)  -->
<svg version="1.1" id="Слой_1" xmlns="http://www.w3.org/2000/svg" xmlns:xlink="http://www.w3.org/1999/xlink" x="0px" y="0px"
	 viewBox="0 0 501.4 426.7" style="enable-background:new 0 0 501.4 426.7;" xml:space="preserve">
<style type="text/css">
	.st0{fill:#010101;}
</style>
<g id="_x23_010101ff">
	<path class="st0" d="M128.2,5.9c4.4-4.1,10.5-6,16.5-5.9c67.7,0,135.3,0,203,0c4.6,0,9.3-0.3,13.9,0.3c9.5,1.3,17.6,9.6,18.8,19.2
		c0.4,3.6,0.2,7.2,0.3,10.8c-0.2,23.5,0.2,47.1-0.2,70.6c-9.9-0.1-19.8-0.1-29.7,0c-0.1-23.7,0.1-47.4-0.1-71
		c-66.8-0.1-133.5-0.1-200.3,0c-0.2,23.7,0,47.3-0.1,71c-9.9-0.1-19.8-0.1-29.7,0c-0.4-25.5,0-51.1-0.2-76.6
		C120.4,17.5,123,10.5,128.2,5.9z"/>
	<path class="st0" d="M80.1,68.8c3.2-1.8,6.9-2.6,10.4-3.2c0.6,21.7,0.1,43.4,0.2,65.1c102.3,0.2,204.6,0,306.9,0.1
		c4.3,0,8.6,0,12.9-0.1c0-21.6-0.1-43.3,0-64.9c9.1,0.3,17.5,6.1,21.3,14.3c2.6,5.4,2.2,11.5,2.2,17.3c-0.1,11,0.1,22.1-0.1,33.1
		c9.5,0.6,19.1,0,28.7,0.3c13.5,0.8,26.3,8.8,33.1,20.5c3.9,6.6,5.8,14.4,5.6,22c0,43.4,0,86.7,0,130.1
		c-0.1,15.5-12.4,27.6-25.3,34.4c-8.4,4.5-17.8,7-27.4,7c-13.2-0.1-26.3,0-39.5,0c0-24.8,0-49.6,0-74.4c0.4-4.7-3.9-8.7-8.5-8.3
		c-98.3,0-196.7,0-295,0c-3.7,0.2-8.2-0.7-11.2,2.2c-2.3,2-2.5,5.3-2.4,8.1c0.1,24-0.1,48,0.1,72.1c-12.8,0.7-25.7,0.1-38.6,0.3
		c-13.5,0.4-26.9-4.6-37.5-12.9c-6.6-5.2-12.3-12-14.9-20.1c-1.6-5-1.3-10.3-1.3-15.4c0-41.4,0-82.7,0-124.1
		c0-9.3,3.1-18.5,8.9-25.8c7.5-9.6,19.5-15.6,31.8-15.8c8.8-0.1,17.7,0.1,26.5-0.1c0.2-13.4,0-26.9,0.1-40.4
		C67.1,81.5,72.3,72.9,80.1,68.8 M379.1,189.8c-7.1,2.4-11.9,10-11.1,17.5c0.6,9.6,11,17.2,20.3,14.7c8.8-1.8,14.9-11.4,12.7-20.1
		C399.1,192.4,388.2,186.3,379.1,189.8 M438.1,189.7c-7.3,2.3-12.4,10.1-11.4,17.7c0.7,9.4,10.6,16.8,19.9,14.7
		c9.1-1.6,15.5-11.5,13.1-20.5C457.5,192.4,447,186.5,438.1,189.7 M51,192.6c-9.5,2.8-12.8,16.2-5.7,23.1c4.9,5.5,12.8,4.4,19.4,4.5
		c6.2-0.3,13.4,1.2,18.4-3.4c6.6-5.3,6.5-16.5-0.2-21.7c-4.8-4.1-11.4-3.2-17.3-3.2C60.8,192.1,55.8,191.3,51,192.6z"/>
	<path class="st0" d="M189,66.7c2.9-0.5,5.8-0.3,8.7-0.4c37,0,74,0,111.1,0c4.9-0.1,9.8,2.3,12.5,6.5c3.5,5.3,2.8,12.9-1.6,17.5
		c-2.8,3-6.9,4.4-10.9,4.4c-36.4,0-72.7,0-109,0c-5.3-0.1-11.2,0.7-15.8-2.6c-6.1-4.1-7.9-13.2-3.8-19.3
		C182.1,69.7,185.4,67.5,189,66.7z"/>
	<path class="st0" d="M120.8,291.8c9.9,0.2,19.7,0.1,29.6,0c0.2,35-0.1,69.9,0.1,104.9c66.8,0.2,133.6,0.1,200.3,0
		c0.1-34.9,0.1-69.8,0-104.6c9.9-0.4,19.9-0.1,29.8-0.1c0,37.5,0.1,75,0,112.5c0.2,12.1-10.9,22.8-23,22.3c-71.3,0-142.7,0-214,0
		c-12,0.4-23.2-10.2-23-22.3C120.7,366.9,120.5,329.4,120.8,291.8z"/>
	<path class="st0" d="M189.1,295.9c1.5-0.3,3.1-0.3,4.6-0.4c38.7,0.1,77.4-0.1,116.1,0.1c7.7-0.1,14.3,7.1,13.8,14.8
		c-0.2,7.2-6.7,13.6-13.9,13.5c-39.3,0-78.5,0-117.8,0c-7.6,0.1-14.3-6.9-13.9-14.4C177.9,303.1,182.8,297.1,189.1,295.9z"/>
	<path class="st0" d="M188,345.7c1.8-0.5,3.8-0.5,5.6-0.6c36.3,0,72.7,0,109,0c4.9,0,10.4-0.6,14.7,2.5c6,3.9,8,12.6,4.3,18.7
		c-2.5,4.6-7.7,7.4-12.9,7.1c-38.7,0.1-77.4,0-116.1,0c-6.2,0.3-12.3-3.8-14.1-9.8C176,356.4,180.6,347.7,188,345.7z"/>
</g>
</svg>
