<?xml version="1.0" encoding="UTF-8" ?>
<!DOCTYPE svg PUBLIC "-//W3C//DTD SVG 1.1//EN" "http://www.w3.org/Graphics/SVG/1.1/DTD/svg11.dtd">
<svg width="512pt" height="512pt" viewBox="0 0 512 512" version="1.1" xmlns="http://www.w3.org/2000/svg">
<g id="#010101ff">
<path fill="#010101" opacity="1.00" d=" M 180.26 63.57 C 182.97 44.26 201.11 27.48 220.97 28.45 C 240.66 28.46 260.35 28.47 280.04 28.45 C 299.84 27.74 317.49 44.55 320.30 63.72 C 347.20 63.72 374.10 63.71 401.00 63.71 C 408.40 63.83 415.92 63.22 423.20 64.92 C 451.67 71.14 474.97 98.45 474.10 128.00 C 473.95 173.90 474.26 219.80 473.94 265.69 C 464.66 265.63 455.38 265.68 446.10 265.68 C 445.79 218.78 446.07 171.87 445.96 124.96 C 445.76 116.82 443.32 108.41 437.71 102.33 C 431.36 95.09 421.46 91.78 412.02 91.93 C 381.41 92.01 350.80 91.80 320.19 92.04 C 320.22 143.36 320.21 194.68 320.20 246.00 C 320.03 254.47 321.05 263.19 318.27 271.37 C 311.97 290.78 292.85 306.32 272.04 305.83 C 257.69 305.81 243.34 305.81 228.99 305.83 C 207.55 306.58 187.68 290.39 181.81 270.17 C 179.67 263.31 180.31 256.07 180.24 249.00 C 180.18 196.64 180.32 144.28 180.17 91.92 C 149.78 91.87 119.40 91.87 89.01 91.92 C 79.51 91.73 69.57 94.87 63.08 102.07 C 56.85 108.72 54.49 118.09 54.66 127.01 C 54.66 220.67 54.65 314.32 54.67 407.97 C 54.56 417.04 57.45 426.50 64.07 432.93 C 70.30 439.17 79.27 442.03 87.97 442.05 C 155.75 442.07 223.54 442.02 291.32 442.07 C 291.54 451.46 291.42 460.84 291.36 470.23 C 223.92 470.30 156.47 470.23 89.03 470.26 C 55.63 470.20 25.51 439.49 26.49 406.03 C 26.51 313.00 26.47 219.97 26.51 126.94 C 26.21 98.18 48.61 71.89 76.15 65.20 C 85.28 63.08 94.72 63.81 104.00 63.71 C 129.42 63.59 154.85 63.88 180.26 63.57 M 213.32 57.24 C 209.42 58.12 208.32 62.53 208.42 66.00 C 208.38 129.00 208.43 192.00 208.39 255.00 C 208.31 260.54 208.20 266.63 211.65 271.32 C 215.00 276.23 221.31 277.70 226.93 277.65 C 241.97 277.68 257.01 277.61 272.04 277.68 C 276.91 277.74 282.15 277.19 286.10 274.07 C 290.37 270.82 291.99 265.23 292.02 260.07 C 292.01 195.70 291.98 131.32 292.04 66.94 C 291.96 64.23 291.95 61.16 290.05 59.00 C 287.76 56.52 284.09 56.73 281.01 56.61 C 260.33 56.64 239.66 56.63 218.99 56.62 C 217.09 56.66 215.16 56.71 213.32 57.24 Z" />
<path fill="#010101" opacity="1.00" d=" M 245.41 225.46 C 252.38 222.68 260.94 226.54 263.49 233.58 C 265.41 239.41 264.85 246.75 260.19 251.18 C 255.45 256.01 247.03 256.59 241.78 252.27 C 232.94 245.67 234.66 229.19 245.41 225.46 Z" />
<path fill="#010101" opacity="1.00" d=" M 337.64 291.15 C 361.75 290.75 385.88 291.13 410.00 290.97 C 419.48 291.18 429.11 290.30 438.43 292.55 C 452.87 295.68 466.00 304.49 474.27 316.75 C 481.69 327.56 485.62 341.19 483.20 354.25 C 479.98 372.00 467.59 387.64 451.39 395.42 C 442.93 399.62 433.46 401.47 424.06 401.51 C 404.68 401.60 385.30 401.40 365.93 401.61 C 365.86 409.35 365.85 417.10 365.96 424.85 C 398.22 425.01 430.49 424.63 462.75 425.03 C 462.78 434.33 462.74 443.63 462.76 452.93 C 430.51 453.16 398.26 452.88 366.01 453.07 C 365.64 463.25 366.12 473.45 365.80 483.63 C 356.50 483.63 347.20 483.58 337.90 483.65 C 337.50 473.46 337.79 463.26 337.74 453.07 C 331.17 452.90 324.60 453.14 318.02 452.97 C 317.88 443.64 317.97 434.30 318.03 424.96 C 324.58 424.77 331.13 424.94 337.69 424.81 C 337.73 417.13 337.76 409.46 337.69 401.78 C 331.18 401.24 324.63 401.58 318.11 401.59 C 317.90 392.17 317.82 382.75 318.10 373.33 C 324.59 373.30 331.08 373.47 337.58 373.25 C 337.84 345.89 337.70 318.51 337.64 291.15 M 365.97 319.16 C 365.84 337.19 365.82 355.23 365.98 373.26 C 384.98 373.48 403.99 373.29 422.99 373.36 C 431.75 373.37 441.39 372.29 448.19 366.20 C 454.13 360.95 456.04 352.60 455.70 344.96 C 455.68 337.76 453.20 330.21 447.44 325.59 C 440.05 319.68 430.09 319.02 421.00 319.13 C 402.66 319.16 384.32 319.08 365.97 319.16 Z" />
</g>
</svg>
