<?xml version="1.0" encoding="utf-8"?>
<!-- Generator: Adobe Illustrator 22.1.0, SVG Export Plug-In . SVG Version: 6.00 Build 0)  -->
<svg version="1.1" id="Слой_1" xmlns="http://www.w3.org/2000/svg" xmlns:xlink="http://www.w3.org/1999/xlink" x="0px" y="0px"
	 viewBox="0 0 511.9 508" style="enable-background:new 0 0 511.9 508;" xml:space="preserve">
<style type="text/css">
	.st0{fill:#373737;}
</style>
<g id="_x23_373737ff">
	<path class="st0" d="M254,4c4.2-5.2,12.9-5.3,17.2-0.2c17,20.6,33.9,41.4,50.9,62.1c21.3-6.9,42.5-14,63.7-21c3-0.9,6-2.3,9.1-2.5
		c5.3-0.2,10.5,3.7,11.5,9c3.4,26.8,5.9,53.7,9.5,80.5c23.7,6,47.3,12.1,71,18.2c6.5,1.6,10.4,9.5,7.4,15.6
		c-11.7,24.1-23.8,48-35.3,72.2c16.7,18,33.5,35.9,50.2,54c4.5,4.9,3.1,13.5-2.6,17c-22.8,13.9-45.9,27.5-68.7,41.5
		c4.3,24,8.7,47.9,12.9,71.9c1.2,5.7-2.7,11.8-8.4,13.1c-2.5,0.5-5.1,0.3-7.6,0.2c-25.1-0.8-50.1-1.4-75.2-2.2
		c-10.1,22.7-19,45.9-28.9,68.6c-2.9,5.9-11.4,8-16.7,4c-19-13-38.1-26-57.1-39c-3-1.8-5.6-4.4-8.9-5.6
		c-18.5,12.4-36.6,25.3-55,37.9c-3.5,2.3-6.8,5.5-11.2,5.5c-4.9,0.3-9.5-2.9-11.2-7.5c-10.3-24.3-20.6-48.5-30.8-72.8
		c-24.7,0.5-49.4,1.7-74,2.4c-6.9,0.1-12.6-7-10.9-13.8c4.4-26,9-52.1,13.5-78.1C47.5,322,26.1,309.7,5,296.9
		c-5.7-3.5-6.7-12.2-2.2-17c18-19.6,36-39.2,54-58.9c-9.7-20.1-20-40-29.9-60c-1.6-3.5-4.1-6.9-3.9-11c0.1-5.1,3.9-9.8,8.9-10.8
		c25.6-6.8,51.3-13.4,76.9-20.2c2.7-24.3,5.3-48.6,8-72.9c0.4-4.9,4.4-9,9.2-9.9c4.3-0.8,8.3,1.3,12.3,2.5
		c23.1,7.5,46.2,15.2,69.4,22.4C223.2,42.1,238.5,23,254,4 M184.4,145.5c-11.6,1.2-22.8,6.6-30.8,15.1c-20.7,21.8-19.9,60.9,2.8,81
		c19.6,17.7,53.1,16.2,70.9-3.2c21.4-22.5,19.7-63.4-5-82.7C211.8,147.3,197.7,144,184.4,145.5 M320.3,146.4
		c-3.3,0.9-6.1,3.1-8.1,5.8C267,214,221.8,275.8,176.6,337.6c-3.2,4.2-4.8,9.8-3,15c2.3,7.2,10.7,11.4,17.9,9
		c4.6-1.2,7.8-4.9,10.4-8.8c44.7-61.2,89.5-122.4,134.3-183.7c3.4-4.6,3.8-11.3,1-16.3C334.1,147.1,326.6,144.4,320.3,146.4
		 M315.4,254.3c-12.3,1.3-24.2,7.3-32.3,16.7c-9.5,10.9-14,25.6-13.4,39.9c0.3,16.7,8.2,33.6,22.2,43.1
		c20.3,14.1,50.9,10.9,67.3-7.8c19.7-22,18.6-60.1-3.8-79.9C344.8,256.6,329.6,252.7,315.4,254.3z"/>
	<path class="st0" d="M185.3,173.4c6.1-1.7,13.1,0.1,17.4,4.8c6.6,7.1,8.4,17.4,7.3,26.7c-0.9,7.6-4.3,15.8-11.4,19.5
		c-6.9,3.7-15.8,1.6-20.8-4.3c-7.2-8.3-8.3-20.3-6-30.6C173.4,182.6,178,175.4,185.3,173.4z"/>
	<path class="st0" d="M316.3,282.3c5.7-1.5,12.2-0.1,16.5,4c5.9,5.6,8.4,13.8,8.5,21.8c0.1,7.6-1.6,15.7-6.8,21.5
		c-4.3,4.9-11.6,6.9-17.8,4.9c-4.9-1.5-8.8-5.4-11.2-9.9c-4.4-8.1-4.7-17.9-2.6-26.7C304.5,291,309.2,284.2,316.3,282.3z"/>
</g>
</svg>
