<?xml version="1.0" encoding="UTF-8" ?>
<!DOCTYPE svg PUBLIC "-//W3C//DTD SVG 1.1//EN" "http://www.w3.org/Graphics/SVG/1.1/DTD/svg11.dtd">
<svg width="512pt" height="512pt" viewBox="0 0 512 512" version="1.1" xmlns="http://www.w3.org/2000/svg">
<g id="#4d4d4dff">
<path fill="#4d4d4d" opacity="1.00" d=" M 252.71 67.67 C 253.56 66.01 254.44 63.35 256.85 63.97 C 257.97 64.97 258.58 66.39 259.24 67.72 C 268.36 87.94 277.62 108.09 286.73 128.31 C 287.23 129.83 288.39 130.97 290.07 131.01 C 308.05 134.19 325.49 140.11 341.85 148.17 C 359.31 156.52 375.42 167.33 392.38 176.58 C 404.58 183.12 417.91 188.73 432.00 188.46 C 433.89 177.86 440.16 167.77 450.15 163.17 C 463.98 156.08 482.40 161.25 490.68 174.34 C 498.77 186.12 497.44 203.23 487.61 213.60 C 478.69 223.65 463.10 226.91 450.92 221.20 C 447.30 219.61 444.23 217.07 441.03 214.81 C 435.71 217.15 430.26 219.16 424.76 221.03 C 429.44 231.48 435.28 241.38 440.42 251.61 C 457.93 285.05 475.45 318.48 492.91 351.94 C 485.05 352.04 477.17 352.14 469.31 351.82 C 447.58 308.93 425.60 266.16 403.70 223.35 C 401.41 223.10 399.11 222.85 396.83 222.57 C 386.70 241.40 377.36 260.65 367.47 279.61 C 355.26 303.71 342.80 327.68 330.68 351.82 C 322.81 352.25 314.93 351.92 307.06 351.95 C 330.56 306.87 354.27 261.90 377.71 216.79 C 359.38 208.36 341.00 199.68 321.37 194.69 C 314.92 192.95 308.38 191.61 301.80 190.48 C 298.21 199.55 293.01 208.23 285.04 214.11 C 274.36 222.38 260.08 225.79 246.83 223.09 C 233.27 220.52 221.14 211.62 214.46 199.57 C 212.86 196.63 211.63 193.50 210.17 190.50 C 195.81 192.63 181.79 196.78 168.41 202.39 C 157.66 206.78 147.45 212.40 136.68 216.77 C 135.34 217.04 134.52 218.24 135.56 219.40 C 158.65 263.60 181.85 307.74 204.91 351.95 C 197.05 351.91 189.18 352.28 181.33 351.81 C 159.57 308.86 137.47 266.09 115.69 223.15 C 113.22 223.02 110.75 223.09 108.30 223.29 C 86.41 266.12 64.43 308.92 42.67 351.81 C 34.82 352.16 26.95 352.03 19.09 351.94 C 41.89 308.18 64.91 264.52 87.68 220.75 C 82.09 218.77 76.49 216.80 70.98 214.59 C 66.18 218.55 60.83 222.17 54.60 223.32 C 41.60 226.19 27.24 219.97 20.56 208.43 C 13.03 196.31 15.08 179.29 25.39 169.39 C 35.44 158.92 52.89 156.94 65.00 164.97 C 73.27 170.00 78.28 179.04 79.88 188.42 C 95.24 188.68 109.61 182.17 122.73 174.83 C 142.25 163.85 161.05 151.39 181.87 142.91 C 194.07 137.85 206.73 133.81 219.76 131.56 C 221.25 131.17 222.92 131.14 224.20 130.21 C 225.14 128.76 225.79 127.14 226.51 125.57 C 235.14 106.22 244.10 87.03 252.71 67.67 M 250.34 159.32 C 243.00 161.68 237.81 169.31 238.44 177.02 C 238.74 186.43 247.62 194.32 256.99 193.56 C 267.12 193.34 275.39 182.99 273.33 173.05 C 271.93 162.67 260.15 155.66 250.34 159.32 Z" />
<path fill="#4d4d4d" opacity="1.00" d=" M 0.00 372.20 C 1.73 370.53 3.39 368.27 6.01 368.15 C 10.33 367.74 14.67 368.03 18.99 368.00 C 84.69 367.99 150.39 368.00 216.08 367.99 C 220.13 367.58 224.22 370.83 223.88 375.07 C 221.90 409.67 201.96 442.19 173.16 461.13 C 153.78 474.10 130.28 481.04 106.92 479.86 C 80.53 478.64 54.97 467.27 35.75 449.25 C 15.41 430.47 2.31 404.08 0.00 376.45 L 0.00 372.20 Z" />
<path fill="#4d4d4d" opacity="1.00" d=" M 288.10 375.00 C 287.73 370.76 291.86 367.51 295.91 368.01 C 365.30 367.99 434.70 367.98 504.09 368.01 C 507.43 367.61 509.97 369.88 512.00 372.20 L 512.00 376.45 C 510.14 396.43 503.10 415.99 491.23 432.22 C 473.06 457.57 444.30 475.35 413.24 479.14 C 390.24 482.13 366.44 477.09 346.30 465.71 C 313.56 447.58 290.17 412.62 288.10 375.00 Z" />
</g>
</svg>
