<?xml version="1.0" encoding="utf-8"?>
<!-- Generator: Adobe Illustrator 22.1.0, SVG Export Plug-In . SVG Version: 6.00 Build 0)  -->
<svg version="1.1" id="Layer_1" xmlns="http://www.w3.org/2000/svg" xmlns:xlink="http://www.w3.org/1999/xlink" x="0px" y="0px"
	 viewBox="0 0 32 24" style="enable-background:new 0 0 32 24;" xml:space="preserve">
<style type="text/css">
	.st0{fill:#E02F2F;}
	.st1{fill:#FFFFFF;}
</style>
<g>
	<path class="st0" d="M31.7,5.2c0,0-0.3-2.4-1.3-3.4c-1.2-1.4-2.6-1.4-3.2-1.4C22.7,0,16,0,16,0h0c0,0-6.7,0-11.2,0.3
		c-0.6,0.1-2,0.1-3.2,1.4c-1,1-1.3,3.4-1.3,3.4S0,7.9,0,10.7v2.6c0,2.8,0.3,5.5,0.3,5.5s0.3,2.4,1.3,3.4c1.2,1.4,2.8,1.3,3.5,1.5
		C7.7,23.9,16,24,16,24s6.7,0,11.2-0.4c0.6-0.1,2-0.1,3.2-1.4c1-1,1.3-3.4,1.3-3.4s0.3-2.8,0.3-5.5v-2.6C32,7.9,31.7,5.2,31.7,5.2z"
		/>
	<polygon class="st1" points="12,6 12,18 22,12 	"/>
</g>
</svg>
