<?xml version="1.0" standalone="no"?>
<!DOCTYPE svg PUBLIC "-//W3C//DTD SVG 1.1//EN" "http://www.w3.org/Graphics/SVG/1.1/DTD/svg11.dtd" >
<svg xmlns="http://www.w3.org/2000/svg" xmlns:xlink="http://www.w3.org/1999/xlink" version="1.1">
<metadata>
Created by FontForge 20170924 at Mon Apr 16 09:51:53 2007
 By www-data
Copyright (c) 2006 Parachute :, www.parachute.gr.  All rights reserved.
</metadata>
<defs>
<font id="PFSynchPro-Bold" horiz-adv-x="591" >
  <font-face 
    font-family="PF Synch Pro"
    font-weight="700"
    font-stretch="normal"
    units-per-em="1000"
    panose-1="2 0 8 0 0 0 0 2 0 4"
    ascent="750"
    descent="-250"
    x-height="501"
    cap-height="708"
    bbox="-227 -276 1225 986"
    underline-thickness="50"
    underline-position="-100"
    unicode-range="U+0020-FB05"
  />
<missing-glyph horiz-adv-x="440" 
d="M0 700h440v-700h-440v700zM360 650h-280l140 -255zM390 95v510l-140 -255zM360 50l-140 255l-140 -255h280zM50 95l140 255l-140 255v-510z" />
    <glyph glyph-name="fj" unicode="fj" horiz-adv-x="607" 
d="M391 377h-161v-254h54v-123h-249v123h47v254h-47v123h47v89q0 22 4 40.5t15.5 33.5t31 26.5t50.5 17.5l261 48l24 -135l-238 -41v-78h309v-545q0 -66 -32.5 -100t-95.5 -34h-128v124h108v431z" />
    <glyph glyph-name="ffj" unicode="ffj" horiz-adv-x="920" 
d="M35 500h47v89q0 48 21 77t79 41l165 30l71 -41q12 13 30.5 22.5t45.5 14.5l261 48q7 -34 13 -67.5t12 -67.5q-60 -10 -119 -20t-119 -21v-104h309v-517q0 -29 -3 -56q-7 -51 -38 -78.5t-87 -27.5h-127v124h107v431h-161v-255h54v-122h-243v122h41v255h-164v-255h47v-122
h-242v122h47v255h-47v123zM394 588q0 11 1 16t3 11l-168 -34v-81h164v88z" />
    <glyph glyph-name="ff" unicode="ff" horiz-adv-x="696" 
d="M232 377v-255h47v-122h-242v122h47v255h-47v123h47v88q0 45 20 75.5t80 42.5q42 8 82.5 15.5t82.5 15.5l71 -41q12 13 30.5 22t46.5 14l201 37l24 -131q-45 -8 -89 -15.5t-89 -15.5v-107h116v-123h-116v-255h54v-122h-249v122h47v255h-164zM232 500h164v88q0 11 1 16
t3 11l-168 -34v-81z" />
    <glyph glyph-name="fi" unicode="fi" horiz-adv-x="625" 
d="M539 123h51v-123h-244v123h45v254h-161v-254h48v-123h-243v123h47v254h-47v123h47v89q0 22 4 40.5t15.5 33.5t31 26.5t50.5 17.5l261 48l24 -135l-238 -41v-78h309v-378z" />
    <glyph glyph-name="fl" unicode="fl" horiz-adv-x="630" 
d="M539 122h51v-122h-240v122h41v473l-161 -28v-67h101v-123h-101v-254h50v-123h-243v123h45v254h-50v123h50v75q0 22 4 41t15.5 34.5t31 26.5t50.5 16l161 29v32h195v-632z" />
    <glyph glyph-name="ffi" unicode="ffi" horiz-adv-x="930" 
d="M902 122v-122h-244v122h45v255h-161v-255h54v-122h-243v122h41v255h-164v-255h47v-122h-242v122h47v255h-47v123h47v94v9.5t1 9.5q5 39 27 61.5t72 31.5l165 31l71 -41q12 13 30.5 22.5t45.5 14.5l29 5q58 11 116 21.5t116 21.5q7 -34 12.5 -67.5t12.5 -67.5l-238 -41
v-104h309v-379h51zM230 500h164v88q0 11 1 16t3 11l-168 -34v-81z" />
    <glyph glyph-name="ffl" unicode="ffl" horiz-adv-x="942" 
d="M655 745v32q49 0 97.5 0.5t97.5 0.5v-657h51v-121h-239v121h40v498q-41 -7 -80.5 -13.5t-80.5 -14.5v-91h101v-123h-101v-255h50v-122h-244v122h46v255h-161v-255h47v-122h-242v122h47v255h-47v123h47v78q1 21 6 39.5t16 33t30 24.5t48 16l165 30q17 -10 34.5 -19.5
t34.5 -20.5q23 26 75 36zM232 500h161v84q0 11 1 16t3 11l-166 -26z" />
    <glyph glyph-name="ft" unicode="ft" horiz-adv-x="743" 
d="M514 0q-35 0 -58.5 11t-38 28.5t-21 40t-6.5 45.5v253h-157v-255h54v-123h-250v123h47v255h-47v123h47v101q0 22 4 41t15.5 34.5t31 26.5t50.5 16l182 34l25 -132l-159 -28v-93h157v49l57 65h92v-114h137v-123h-137v-255h105v64h89v-90q0 -17 -8 -34t-22.5 -31t-34.5 -23
t-44 -9h-110z" />
    <glyph glyph-name=".notdef" horiz-adv-x="440" 
d="M0 700h440v-700h-440v700zM360 650h-280l140 -255zM390 95v510l-140 -255zM360 50l-140 255l-140 -255h280zM50 95l140 255l-140 255v-510z" />
    <glyph glyph-name="exclam" unicode="!" horiz-adv-x="325" 
d="M110 213l-20 169v326h146v-331l-20 -164h-106zM80 76q0 34 24 58.5t59 24.5q34 0 58 -24.5t24 -58.5q0 -35 -24 -59t-58 -24q-35 0 -59 24t-24 59z" />
    <glyph glyph-name="quotedbl" unicode="&#x22;" horiz-adv-x="447" 
d="M265 437l-15 270h127l-14 -270h-98zM85 437l-15 270h129l-14 -270h-100z" />
    <glyph glyph-name="numbersign" unicode="#" horiz-adv-x="570" 
d="M508 261l-14 -81h-88l-25 -155h-90l24 155h-114l-25 -155h-90l24 155h-84l15 81h81l23 152h-87l15 81h84l25 156h89l-24 -156h116l24 156h89l-24 -156h91l-13 -81h-89l-23 -152h90zM236 413l-23 -152h114l23 152h-114z" />
    <glyph glyph-name="dollar" unicode="$" 
d="M196 18q-16 0 -36.5 5.5t-38.5 19t-30.5 36t-12.5 55.5v56h129v-43h65v150h-87q-21 0 -40.5 8.5t-34.5 22.5t-24.5 32.5t-9.5 39.5v183q0 19 8.5 37.5t23.5 33.5t34.5 24t42.5 9h87v82h42v-82h73q17 0 37.5 -6t38.5 -20t30 -36t12 -53v-66h-126v52h-65v-135h98
q24 0 44 -8.5t34.5 -22.5t22.5 -32.5t8 -39.5v-198q0 -21 -9.5 -40t-25 -33t-35 -22.5t-39.5 -8.5h-98v-102h-42v102h-76zM219 423h53v135h-53v-135zM314 297v-150h61v150h-61z" />
    <glyph glyph-name="percent" unicode="%" horiz-adv-x="895" 
d="M40 635q0 27 22 49.5t57 22.5h169q38 0 58.5 -23t20.5 -49v-283q0 -12 -5.5 -25t-15.5 -23.5t-25.5 -17t-34.5 -6.5h-167q-18 0 -32.5 6.5t-25 17t-16 23t-5.5 25.5v283zM153 614v-241h101v241h-101zM529 354q0 27 22 49.5t57 22.5h168q39 0 59 -23t20 -49v-283
q0 -12 -5 -24.5t-15.5 -23t-25.5 -17t-34 -6.5h-167q-18 0 -32.5 6.5t-25 16.5t-16 22.5t-5.5 25.5v283zM642 334v-241h101v241h-101zM254 -34l302 772h92l-303 -772h-91z" />
    <glyph glyph-name="ampersand" unicode="&#x26;" horiz-adv-x="689" 
d="M580 475v-60h59v-121h-59v-187q0 -19 -7.5 -38t-21.5 -34.5t-34 -25t-46 -9.5h-292q-24 0 -44 9.5t-34.5 24.5t-22.5 34t-8 39v163q0 16 5.5 32.5t16.5 30.5t27.5 24t38.5 13q-17 6 -27 15.5t-15.5 22t-7.5 26t-2 26.5v143q0 20 8 39t22.5 33.5t35 23.5t44.5 9h207
q25 0 45.5 -9t34.5 -23.5t21.5 -33.5t7.5 -39v-61h-148v37h-129v-163h177v59h148zM218 293v-164h214v164h-214z" />
    <glyph glyph-name="quoteright" unicode="&#x2019;" horiz-adv-x="250" 
d="M60 446v280h68q24 0 38 -7.5t20.5 -18.5t8 -22.5t1.5 -18.5v-121l-88 -92h-48z" />
    <glyph glyph-name="parenleft" unicode="(" horiz-adv-x="366" 
d="M50 285q0 67 16.5 131t43.5 121t61.5 106t70.5 85l70 -62q-66 -87 -100.5 -179.5t-34.5 -201.5q0 -112 34 -205t100 -179l-70 -59q-36 37 -70.5 86t-61 106t-43 121t-16.5 130z" />
    <glyph glyph-name="parenright" unicode=")" horiz-adv-x="366" 
d="M316 285q0 -66 -16 -130t-43 -121t-61 -106t-70 -86l-71 59q66 86 100 179t34 205q0 109 -34.5 201.5t-100.5 179.5l71 62q36 -36 70.5 -85t61 -106t43 -121t16.5 -131z" />
    <glyph glyph-name="asterisk" unicode="*" horiz-adv-x="518" 
d="M328 516l90 -92l-97 -65l-62 110l-62 -110l-97 66l91 91l-131 25l37 106l121 -54l-18 125h117l-17 -125l123 54l35 -106z" />
    <glyph glyph-name="plus" unicode="+" 
d="M59 348h184v184h104v-184h185v-104h-185v-184h-104v184h-184v104z" />
    <glyph glyph-name="comma" unicode="," horiz-adv-x="260" 
d="M62 -142v298h73q26 0 40.5 -8t22 -19.5t9 -23.5t1.5 -20v-129l-95 -98h-51z" />
    <glyph glyph-name="hyphen" unicode="-" horiz-adv-x="313" 
d="M32 199v110h250v-110h-250z" />
    <glyph glyph-name="period" unicode="." horiz-adv-x="270" 
d="M50 80q0 35 25 60t60 25q18 0 33.5 -7t27 -18.5t18 -27t6.5 -32.5q0 -35 -25 -60t-60 -25q-17 0 -32.5 6.5t-27 18t-18.5 27t-7 33.5z" />
    <glyph glyph-name="slash" unicode="/" horiz-adv-x="460" 
d="M2 -55l344 809h112l-344 -809h-112z" />
    <glyph glyph-name="zero" unicode="0" horiz-adv-x="589" 
d="M50 602q0 20 8.5 39t24 34t36.5 24t45 9h261q26 0 47 -9.5t35.5 -24.5t22.5 -34t8 -38v-495q0 -19 -8.5 -38t-23.5 -34.5t-36 -25t-47 -9.5h-259q-25 0 -46 9.5t-36 24.5t-23.5 34t-8.5 39v495zM199 581v-454h190v454h-190z" />
    <glyph glyph-name="one" unicode="1" horiz-adv-x="589" 
d="M107 123h116v426h-124v75l130 84h51q27 0 44.5 -8.5t28 -23t14.5 -33t4 -38.5v-482h119v-123h-383v123z" />
    <glyph glyph-name="two" unicode="2" horiz-adv-x="589" 
d="M192 203v-76h222v70h125v-197h-494v187q0 47 15.5 78.5t58.5 57.5l265 169v87h-178v-63h-133v66q0 18 4.5 40t17.5 41t37.5 32t64.5 13h226q27 0 47 -9.5t34 -24.5t21 -34.5t7 -39.5v-110q0 -24 -5 -42t-15.5 -31.5t-25.5 -25.5t-35 -24z" />
    <glyph glyph-name="three" unicode="3" horiz-adv-x="589" 
d="M60 708h449v-129l-172 -149h89q26 0 45.5 -8t32 -21.5t19 -31.5t6.5 -37v-223q0 -20 -7.5 -39t-21.5 -35t-34 -25.5t-46 -9.5h-267q-28 0 -49.5 10t-36.5 26t-22.5 36t-7.5 40v58h140v-42h206v188h-193l-47 95l182 169h-265v128z" />
    <glyph glyph-name="four" unicode="4" horiz-adv-x="589" 
d="M252 123h74v67h-306v106q14 17 39 49.5t56 72.5t65 84t65 84t56 72t38 50h136v-408h93v-110h-93v-67h83v-123h-306v123zM323 518q-12 -17 -35 -46.5t-48.5 -62.5t-48.5 -63t-36 -46h172l-1 218h-3z" />
    <glyph glyph-name="five" unicode="5" horiz-adv-x="589" 
d="M506 579h-296l-16 -122h239q27 0 46 -9t32 -23t19 -32.5t6 -37.5v-246q0 -20 -7.5 -39t-21.5 -35t-34 -25.5t-46 -9.5h-263q-27 0 -48.5 10t-36.5 26t-22.5 36t-7.5 40v58h139v-41h201v199h-236l-107 73l24 194q3 25 9.5 45.5t20 35.5t35.5 23.5t56 8.5h315v-129z" />
    <glyph glyph-name="six" unicode="6" horiz-adv-x="589" 
d="M196 365l70 72h171q25 0 44.5 -9t32.5 -23t19.5 -32.5t6.5 -37.5v-226q0 -20 -7.5 -39t-21.5 -35t-34 -25.5t-46 -9.5h-273q-24 0 -44.5 9.5t-34.5 25t-22 35t-8 39.5v491q0 20 7.5 39.5t22 34.5t34.5 24.5t45 9.5h245q25 0 45.5 -9t34.5 -23.5t21.5 -33.5t7.5 -39v-70
h-148v46h-168v-214zM196 307v-178h196v178h-196z" />
    <glyph glyph-name="seven" unicode="7" horiz-adv-x="589" 
d="M70 709h449v-119l-247 -590h-151l242 579h-161v-65h-132v195z" />
    <glyph glyph-name="eight" unicode="8" horiz-adv-x="589" 
d="M63 601q0 20 8.5 39t23.5 34t36 24.5t45 9.5h237q26 0 47 -9.5t35.5 -24.5t22.5 -34t8 -39v-127q0 -25 -13.5 -49.5t-39.5 -38.5q32 -13 50 -40.5t18 -57.5v-181q0 -19 -8.5 -38t-23.5 -34.5t-36 -25t-47 -9.5h-265q-25 0 -46 9.5t-36 24.5t-23.5 34t-8.5 39v181
q0 30 19 57t50 40q-25 15 -39 39t-14 50v127zM196 316v-187h196v187h-196zM211 579v-133h166v133h-166z" />
    <glyph glyph-name="nine" unicode="9" horiz-adv-x="589" 
d="M392 360l-71 -71h-168q-26 0 -45 9t-32 23t-19.5 32.5t-6.5 37.5v209q0 19 7.5 38.5t21.5 35t34 25t46 9.5h271q24 0 44.5 -9.5t34.5 -24.5t22 -34.5t8 -39.5v-491q0 -20 -8 -39.5t-22 -35t-34 -25t-45 -9.5h-260q-26 0 -46 9t-34 23.5t-21.5 33.5t-7.5 39v69h148v-45
h183v231zM392 418v162h-195v-162h195z" />
    <glyph glyph-name="colon" unicode=":" horiz-adv-x="270" 
d="M50 80q0 35 25 60t60 25q18 0 33.5 -7t27 -18.5t18 -27t6.5 -32.5q0 -35 -25 -60t-60 -25q-17 0 -32.5 6.5t-27 18t-18.5 27t-7 33.5zM50 364q0 18 7 33.5t18.5 27t27 18.5t32.5 7q18 0 33.5 -7t27 -18.5t18 -27t6.5 -33.5q0 -35 -25 -60t-60 -25q-17 0 -32.5 6.5t-27 18
t-18.5 27t-7 33.5z" />
    <glyph glyph-name="less" unicode="&#x3c;" 
d="M534 442l-348 -151l348 -157l-37 -92l-440 201v93l439 199z" />
    <glyph glyph-name="equal" unicode="=" 
d="M58 438h474v-99h-474v99zM58 238h474v-98h-474v98z" />
    <glyph glyph-name="greater" unicode="&#x3e;" 
d="M95 535l439 -199v-93l-440 -201l-37 92l347 157l-347 151z" />
    <glyph glyph-name="question" unicode="?" horiz-adv-x="611" 
d="M168 199v69q0 24 2 42.5t9 33.5t20 27.5t34 24.5l160 87v96h-187v-68h-136v71q0 18 4.5 40t17.5 41t37.5 32t64.5 13h237q27 0 47.5 -9t34.5 -23.5t21 -33.5t7 -39v-121q0 -46 -18 -72t-58 -48l-158 -84v-79h-139zM157 76q0 34 24 58.5t59 24.5q34 0 58 -24.5t24 -58.5
q0 -35 -24 -59t-58 -24q-35 0 -59 24t-24 59z" />
    <glyph glyph-name="at" unicode="@" horiz-adv-x="995" 
d="M495 127h-112q-22 0 -39.5 8t-29.5 20.5t-18.5 28t-6.5 30.5v83q0 16 6 32.5t18 29.5t29 21t40 8h174v68h-120v-35h-118v47q0 17 8 34.5t22 32t34 23.5t44 9h138q40 0 64.5 -11t37.5 -28.5t17 -38t4 -38.5v-228h17q37 0 60.5 16t37 41t19 55t5.5 58q0 67 -19 122t-58 94
t-98 60.5t-140 21.5q-79 0 -142 -25.5t-107 -73t-67.5 -115.5t-23.5 -152q0 -73 17.5 -134.5t56 -106.5t100.5 -70.5t151 -25.5q45 0 93.5 8.5t96.5 34.5l39 -82q-62 -33 -120.5 -44t-116.5 -11q-107 0 -185.5 32.5t-130 89.5t-77 135t-25.5 169q0 94 28 178t83.5 147
t138.5 99.5t193 36.5q100 0 176.5 -28.5t129 -79.5t79.5 -122.5t27 -157.5q0 -65 -18.5 -114.5t-50.5 -82.5t-75.5 -50t-93.5 -17h-104l-27 59zM418 235h138v76h-138v-76z" />
    <glyph glyph-name="A" unicode="A" horiz-adv-x="711" 
d="M458 203h-237l-24 -71h73v-132h-256v132h46l210 582h173l203 -582h47v-132h-290v132h78zM339 562l-80 -245h160l-75 245h-5z" />
    <glyph glyph-name="B" unicode="B" horiz-adv-x="669" 
d="M40 0v132h54v444h-54v132h442q27 0 48.5 -10t36.5 -25.5t22.5 -35t7.5 -38.5v-118q0 -33 -13.5 -56.5t-45.5 -34.5q40 -10 56 -39.5t16 -59.5v-182q0 -20 -8.5 -39t-23.5 -35t-36 -25.5t-46 -9.5h-456zM251 135h198v184h-198v-184zM251 442h187v131h-187v-131z" />
    <glyph glyph-name="C" unicode="C" horiz-adv-x="596" 
d="M218 135h209v77h136v-103q0 -19 -11 -38.5t-28.5 -35t-39 -25.5t-42.5 -10h-265q-21 0 -41.5 9.5t-37 24.5t-27 34.5t-10.5 40.5v490q0 21 10 40.5t26.5 34.5t37.5 24.5t42 9.5h180l69 -73v73h126v-203h-126v68h-208v-438z" />
    <glyph glyph-name="D" unicode="D" horiz-adv-x="674" 
d="M42 133h52v443h-53v132h458q27 0 48.5 -10t36 -26t22.5 -36t8 -39v-486q0 -21 -9.5 -41t-25.5 -35.5t-37 -25t-43 -9.5h-457v133zM251 135h206v438h-206v-438z" />
    <glyph glyph-name="E" unicode="E" horiz-adv-x="636" 
d="M41 134h53v441h-54v133h546v-229h-135v96h-200v-140h221v-125h-221v-175h215v131h136v-266h-561v134z" />
    <glyph glyph-name="F" unicode="F" horiz-adv-x="614" 
d="M330 0h-288v134h52v441h-53v133h546v-237h-136v104h-200v-160h216v-123h-216v-157h79v-135z" />
    <glyph glyph-name="G" unicode="G" horiz-adv-x="663" 
d="M353 402h272v-113h-43v-289h-90l-53 73l-70 -73h-192q-21 0 -41.5 9.5t-37 24.5t-27 34.5t-10.5 40.5v490q0 21 9.5 40.5t25.5 34.5t37 24.5t44 9.5h201l70 -73v73h125v-203h-125v68h-230v-438h219v154h-84v113z" />
    <glyph glyph-name="H" unicode="H" horiz-adv-x="754" 
d="M312 132v-132h-270v132h57v444h-58v132h271v-132h-55v-150h237v150h-60v132h278v-132h-62v-444h62v-132h-278v132h60v171h-237v-171h55z" />
    <glyph glyph-name="I" unicode="I" horiz-adv-x="431" 
d="M293 132h66v-132h-287v132h64v444h-65v132h288v-132h-66v-444z" />
    <glyph glyph-name="J" unicode="J" horiz-adv-x="590" 
d="M150 226v-91h182v440h-71v133h287v-133h-58v-466q0 -19 -9.5 -38.5t-25 -35t-36.5 -25.5t-44 -10h-248q-23 0 -44 9.5t-37 25t-25.5 35t-9.5 39.5v117h139z" />
    <glyph glyph-name="K" unicode="K" horiz-adv-x="689" 
d="M384 708h271v-134h-66l-129 -130l161 -311h51v-133h-269v133h47l-102 200l-105 -105v-96h48v-132h-255v132h49v442h-50v134h255v-134h-47v-197l193 197h-52v134z" />
    <glyph glyph-name="L" unicode="L" horiz-adv-x="594" 
d="M309 576h-58v-441h207v83h125v-218h-542v132h54v444h-52v132h266v-132z" />
    <glyph glyph-name="M" unicode="M" horiz-adv-x="944" 
d="M481 226l161 482h261v-132h-53v-444h53v-132h-257v132h53v337h-5l-157 -469h-135l-175 472h-4v-340h53v-132h-235v132h53v444h-53v132h259l177 -482h4z" />
    <glyph glyph-name="N" unicode="N" horiz-adv-x="772" 
d="M539 263v313h-53v132h244v-132h-58v-579h-149l-295 467h-5v-332h53v-132h-234v132h53v444h-54v132h211l282 -445h5z" />
    <glyph glyph-name="O" unicode="O" horiz-adv-x="658" 
d="M61 599q0 20 10 39.5t26 35t37 25t43 9.5h305q22 0 43 -9.5t37 -25t25.5 -35t9.5 -39.5v-490q0 -19 -9.5 -38.5t-25 -35t-36.5 -25.5t-44 -10h-305q-21 0 -42 9.5t-37.5 25t-26.5 35t-10 39.5v490zM218 573v-438h222v438h-222z" />
    <glyph glyph-name="P" unicode="P" horiz-adv-x="631" 
d="M95 576h-54v132h454q26 0 47 -9.5t36 -25t23.5 -35t8.5 -39.5v-216q0 -20 -8 -40.5t-23 -37t-36.5 -27.5t-47.5 -11h-242v-135h62v-132h-274v132h54v444zM253 573v-171h198v171h-198z" />
    <glyph glyph-name="Q" unicode="Q" horiz-adv-x="658" 
d="M61 599q0 20 10 39.5t26 35t37 25t43 9.5h305q22 0 43 -9.5t37 -25t25.5 -35t9.5 -39.5v-490l-109 -109h-127v-67h117v-113h-146q-35 0 -60 21t-25 69v38l47 52h-117q-21 0 -42 9.5t-37.5 25t-26.5 35t-10 39.5v490zM218 573v-438h222v438h-222z" />
    <glyph glyph-name="R" unicode="R" horiz-adv-x="656" 
d="M312 294h-59v-162h54v-132h-266v132h54v444h-54v132h447q28 0 49.5 -9.5t36 -25t22 -35t7.5 -39.5v-198q0 -20 -7 -39t-20.5 -34t-33.5 -24.5t-47 -9.5h-24l71 -164h78v-130h-182zM253 573v-147h191v147h-191z" />
    <glyph glyph-name="S" unicode="S" horiz-adv-x="613" 
d="M168 298q-22 0 -43 8.5t-37.5 23.5t-26.5 35t-10 42v192q0 20 9.5 39.5t25 35t37 25t45.5 9.5h165l70 -74v74h127v-196h-127v61h-196v-140h238q25 0 46.5 -8.5t37 -23.5t24 -35t8.5 -42v-214q0 -23 -10 -43t-26.5 -35t-37.5 -23.5t-42 -8.5h-195l-71 73v-73h-126v196h126
v-61h225v163h-236v0z" />
    <glyph glyph-name="T" unicode="T" horiz-adv-x="665" 
d="M516 575h-105v-442h85v-133h-320v133h77v442h-105v-92h-137v225h642v-225h-137v92z" />
    <glyph glyph-name="U" unicode="U" horiz-adv-x="723" 
d="M470 135v441h-67v132h278v-132h-54v-460q0 -21 -8.5 -42t-24 -37.5t-38.5 -26.5t-51 -10h-291q-29 0 -51.5 10t-38 26t-24 37t-8.5 43v460h-51v132h269v-132h-62v-441h222z" />
    <glyph glyph-name="V" unicode="V" horiz-adv-x="703" 
d="M377 154l133 422h-84v133h262v-133h-42l-194 -582h-179l-212 582h-44v133h295v-133h-87l146 -422h6z" />
    <glyph glyph-name="W" unicode="W" horiz-adv-x="985" 
d="M497 272l-77 -278h-180l-178 582h-43v133h278v-133h-75l117 -409h6l91 319l-26 90h-56v133h286v-133h-73l119 -408h6l105 408h-72v133h243v-133h-42l-159 -582h-180l-85 278h-5z" />
    <glyph glyph-name="X" unicode="X" horiz-adv-x="702" 
d="M389 444l90 132h-51v132h243v-132h-52l-157 -228l163 -216h55v-132h-300v132h48l-105 144l-97 -144h52v-132h-257v132h61l166 243l-148 201h-53v132h293v-132h-49z" />
    <glyph glyph-name="Y" unicode="Y" horiz-adv-x="660" 
d="M21 576v133h272v-133h-68l126 -200l119 200h-74v133h253v-133h-42l-183 -301v-143h65v-132h-286v132h64v127l-206 317h-40z" />
    <glyph glyph-name="Z" unicode="Z" horiz-adv-x="584" 
d="M206 133h230v83h126v-216h-541v133l338 442h-184v-66h-127v199h499v-129z" />
    <glyph glyph-name="bracketleft" unicode="[" horiz-adv-x="349" 
d="M71 -146l1 854h215v-113h-98l-1 -628h98v-113h-215z" />
    <glyph glyph-name="backslash" unicode="\" horiz-adv-x="464" 
d="M348 -55l-344 809h112l344 -809h-112z" />
    <glyph glyph-name="bracketright" unicode="]" horiz-adv-x="349" 
d="M62 -146v113h98l-1 628h-98v113h215l1 -854h-215z" />
    <glyph glyph-name="asciicircum" unicode="^" horiz-adv-x="601" 
d="M442 255l-141 315q-11 -24 -30.5 -67.5t-40.5 -90t-40.5 -90t-30.5 -67.5h-124l217 454h99l215 -454h-124z" />
    <glyph glyph-name="underscore" unicode="_" horiz-adv-x="500" 
d="M0 -147v77h500v-77h-500z" />
    <glyph glyph-name="quoteleft" unicode="&#x2018;" horiz-adv-x="250" 
d="M190 725v-280h-68q-24 0 -38 8t-21 18.5t-8.5 22t-1.5 18.5v122l89 91h48z" />
    <glyph glyph-name="a" unicode="a" horiz-adv-x="597" 
d="M149 0q-25 0 -45 8.5t-33.5 22.5t-21 31.5t-7.5 34.5v87q0 19 6.5 38.5t20 35.5t34 26t49.5 10h202v78h-152v-41h-130v45q0 18 7 40t22 40.5t39 31.5t58 13h162q47 0 75 -13t43 -33t20 -44t5 -45v-243h24v32h57v-56q0 -41 -22 -70.5t-68 -29.5h-48q-33 0 -57 16.5
t-33 48.5l-64 -64h-143zM354 211h-165v-88h165v88z" />
    <glyph glyph-name="b" unicode="b" horiz-adv-x="589" 
d="M79 605h-47v123l195 1v-300l70 72h131q25 0 45 -9t34.5 -23.5t22 -33t7.5 -37.5v-295q0 -18 -8 -36.5t-22 -33t-34.5 -24t-44.5 -9.5h-131l-70 72v-72h-195v122h47v483zM388 372h-161v-246h161v246z" />
    <glyph glyph-name="c" unicode="c" horiz-adv-x="519" 
d="M51 401q0 18 8.5 36t23.5 32t34.5 23t41.5 9h117l68 -71v71h132v-173h-132v44h-144v-246h148v56h139v-79q0 -18 -7 -36.5t-21 -33t-34.5 -24t-47.5 -9.5h-216q-25 0 -45 9t-34.5 23.5t-22.5 33t-8 37.5v298z" />
    <glyph glyph-name="d" unicode="d" horiz-adv-x="590" 
d="M312 729l198 -1v-606h47v-122h-193v72l-70 -72h-133q-24 0 -44.5 9.5t-35 24t-22.5 33t-8 36.5v295q0 19 7.5 37.5t22 33t34.5 23.5t46 9h133l70 -72v176h-52v124zM203 129h161v243h-161v-243z" />
    <glyph glyph-name="e" unicode="e" horiz-adv-x="545" 
d="M161 0q-23 0 -43 9t-35 23.5t-23.5 33t-8.5 37.5v281q0 19 8.5 39.5t24 37.5t38 28t50.5 11h198q34 0 57.5 -11.5t38 -28.5t21 -38.5t6.5 -40.5v-91q0 -42 -19 -57.5t-52 -15.5h-225v-90h162v48h136v-72q0 -18 -9 -36.5t-24.5 -33.5t-36.5 -24t-46 -9h-218zM197 307h149
v71h-149v-71z" />
    <glyph glyph-name="f" unicode="f" horiz-adv-x="384" 
d="M37 500h47v89q0 22 4 41t15.5 34t31 26t50.5 17l201 37l24 -132l-177 -31v-81h115v-123h-115v-254h54v-123h-250v123h47v254h-47v123z" />
    <glyph glyph-name="g" unicode="g" horiz-adv-x="580" 
d="M145 -46h231v69h-231v-69zM198 279h123v103h-123v-103zM459 402q1 -5 1 -21v-117q0 -17 -7.5 -35t-22.5 -33t-36.5 -25t-48.5 -10h-176v-33h248q25 0 45 -9t34 -23.5t22 -33t8 -37.5v-99q0 -20 -7 -38.5t-20 -33t-32.5 -23.5t-44.5 -9h-306q-51 0 -77.5 32t-26.5 74v37
l79 73q-22 11 -30 32t-6 46l60 61q-24 14 -39.5 37.5t-15.5 49.5v134q0 17 7.5 35t22 33t34.5 25t45 10h183q33 0 57.5 -15t36.5 -41q6 7 16 18t24.5 21.5t33.5 17.5t42 7q10 -27 9.5 -58t-6.5 -58z" />
    <glyph glyph-name="h" unicode="h" horiz-adv-x="617" 
d="M350 122h40v250h-161v-250h47v-122h-244v122h48v483h-48v123l197 1v-300l70 72h130q25 0 45.5 -9t34.5 -23.5t21.5 -33t7.5 -37.5v-276h52v-122h-240v122z" />
    <glyph glyph-name="i" unicode="i" horiz-adv-x="345" 
d="M244 123h51v-123h-247v123h47v255h-47v123h196v-378zM70 635q0 38 26.5 64.5t64.5 26.5q37 0 63.5 -26.5t26.5 -64.5t-26.5 -64t-63.5 -26q-38 0 -64.5 26t-26.5 64z" />
    <glyph glyph-name="j" unicode="j" horiz-adv-x="313" 
d="M67 635q0 38 26.5 64.5t64.5 26.5t64 -26.5t26 -64.5t-26 -64t-64 -26t-64.5 26t-26.5 64zM92 378h-47v123h196v-545q0 -66 -33 -100t-95 -34h-128v124h107v432z" />
    <glyph glyph-name="k" unicode="k" horiz-adv-x="593" 
d="M303 501h246v-119h-59l-64 -56l104 -204h35v-122h-229v122h40l-59 109l-88 -77v-32h40v-122h-234v122h46v484h-51v122h199v-443l112 97h-38v119z" />
    <glyph glyph-name="l" unicode="l" horiz-adv-x="330" 
d="M239 122h51v-122h-247v122h47v484h-47v123l196 1v-608z" />
    <glyph glyph-name="m" unicode="m" horiz-adv-x="884" 
d="M330 122h36v250h-138v-250h39v-122h-236v122h49v257h-49v121l197 1v-72l70 72h107q42 0 68.5 -22t35.5 -52l75 74h107q26 0 46 -9t34 -23.5t21.5 -33t7.5 -37.5v-276h52v-122h-234v122h34v250h-138v-250h40v-122h-224v122z" />
    <glyph glyph-name="n" unicode="n" horiz-adv-x="621" 
d="M349 122h40v250h-161v-250h47v-122h-244v122h49v257h-49v121l197 1v-72l70 72h131q25 0 45.5 -9t34.5 -23.5t21.5 -33t7.5 -37.5v-276h51v-122h-240v122z" />
    <glyph glyph-name="o" unicode="o" horiz-adv-x="568" 
d="M517 103q0 -18 -9 -36.5t-24.5 -33.5t-36.5 -24t-45 -9h-241q-24 0 -44 9t-35 23.5t-23 33t-8 37.5v295q0 19 8.5 37.5t23.5 33t35 23.5t43 9h247q25 0 45 -9t34 -23.5t22 -33t8 -37.5v-295zM197 127h174v247h-174v-247z" />
    <glyph glyph-name="p" unicode="p" horiz-adv-x="589" 
d="M271 -178h-240v123h48v434h-47v121h196v-71l70 71h130q24 0 44.5 -9.5t34.5 -24t22 -33t8 -36.5v-294q0 -19 -7.5 -37.5t-21.5 -33t-34.5 -23.5t-45.5 -9h-130l-70 72v-127h43v-123zM389 374h-161v-245h161v245z" />
    <glyph glyph-name="q" unicode="q" horiz-adv-x="586" 
d="M318 -55h43v127l-70 -72h-130q-26 0 -46 9t-34.5 23.5t-22 33t-7.5 37.5v294q0 18 8 36.5t22.5 33t35 24t44.5 9.5h130l70 -71v71h196v-121h-47v-434h48v-123h-240v123zM200 129h161v245h-161v-245z" />
    <glyph glyph-name="r" unicode="r" horiz-adv-x="466" 
d="M234 358v-235h47v-123h-244v123h48v255h-48v122l197 1v-86q10 12 29 28t45 30.5t59 24.5t71 9q14 -17 19.5 -39t5 -45.5t-6 -45.5t-13.5 -40z" />
    <glyph glyph-name="s" unicode="s" horiz-adv-x="531" 
d="M464 501v-157h-132v41h-141v-70h192q24 0 43 -9t32.5 -23t20.5 -32t7 -37v-117q0 -18 -8.5 -35t-22.5 -31t-32.5 -22.5t-39.5 -8.5h-143l-63 64v-64h-133v156h133v-39h160v77h-187q-21 0 -41 9t-35 23.5t-24 33t-9 37.5v107q0 18 8.5 35.5t23.5 31t34.5 22t41.5 8.5h124
l59 -66v66h132z" />
    <glyph glyph-name="t" unicode="t" horiz-adv-x="435" 
d="M206 0q-35 0 -58.5 11t-38 28.5t-21 40t-6.5 45.5v254h-61v120h61v85l57 64h92v-149h138v-120h-138v-256h105v64h89v-90q0 -17 -8 -34t-22.5 -31t-34.5 -23t-43 -9h-111z" />
    <glyph glyph-name="u" unicode="u" horiz-adv-x="613" 
d="M267 379h-44v-252h161v252h-47v122h196v-379h50v-122h-199v71l-70 -71h-134q-26 0 -45.5 9t-33 23t-20.5 32.5t-7 38.5v276h-48v122h241v-122z" />
    <glyph glyph-name="v" unicode="v" 
d="M321 127l94 252h-61v122h223v-122h-35l-153 -385h-177l-164 385h-35v122h259v-122h-56l99 -252h6z" />
    <glyph glyph-name="w" unicode="w" horiz-adv-x="835" 
d="M593 136l79 242h-49v123h200v-123h-34l-127 -383h-176l-60 166l-12 -23l-49 -143h-177q-36 96 -71 191t-71 192h-34q0 31 -0.5 61.5t-0.5 61.5h248v-123h-55l86 -247h6l64 189q-5 14 -10 29t-10 29h-27v123h238v-123h-49l84 -242h7z" />
    <glyph glyph-name="x" unicode="x" horiz-adv-x="564" 
d="M273 0v120h37l-65 71l-58 -71h34v-120h-210v120h47l116 140l-114 123h-43v118h276v-118h-37l64 -72l60 72h-38v118h206v-118h-39l-118 -138l115 -125h46v-120h-279z" />
    <glyph glyph-name="y" unicode="y" horiz-adv-x="557" 
d="M293 157l77 221h-40v123h216v-123h-41l-164 -436h52l-1 -120h-263v120h81l30 82h-44l-138 354h-41v123h223v-123h-33l80 -221h6z" />
    <glyph glyph-name="z" unicode="z" horiz-adv-x="519" 
d="M207 127h142v61h132v-188h-450v127l262 248h-116v-46h-132v172h427v-122z" />
    <glyph glyph-name="braceleft" unicode="{" horiz-adv-x="359" 
d="M310 -47v-99h-88q-24 0 -46.5 7.5t-39.5 23t-27 40t-10 57.5l2 249l-50 41v48l50 35v233q0 29 9.5 51.5t25.5 37.5t38 23t46 8h90v-99h-92v-258l-70 -55l70 -60v-283h92z" />
    <glyph glyph-name="bar" unicode="|" horiz-adv-x="317" 
d="M98 -182v921h121v-921h-121z" />
    <glyph glyph-name="braceright" unicode="}" horiz-adv-x="359" 
d="M141 -47v283l70 60l-70 55v258h-93v99h91q24 0 46 -8t38 -23t25.5 -37.5t9.5 -51.5v-233l49 -35v-48l-49 -41l2 -249q0 -33 -10 -57.5t-27 -40t-39.5 -23t-46.5 -7.5h-89v99h93z" />
    <glyph glyph-name="asciitilde" unicode="~" 
d="M550 289q-12 -19 -29.5 -37.5t-38 -33t-43.5 -23.5t-45 -9q-29 0 -54.5 10t-49.5 21.5t-47.5 21.5t-48.5 10q-42 0 -86 -53l-67 61q10 17 26 35t35.5 32.5t42.5 23.5t47 9q28 0 53.5 -9.5t49.5 -20.5t47.5 -20.5t47.5 -9.5q29 0 47.5 12.5t41.5 40.5z" />
    <glyph glyph-name="sterling" unicode="&#xa3;" horiz-adv-x="589" 
d="M380 429v-118h-125l-15 -179h187v65h124v-197h-520v132h61l15 179h-65v118h75l14 163q5 50 35.5 82.5t86.5 32.5h157q30 0 52.5 -9.5t37.5 -25t22.5 -35t7.5 -39.5v-73h-129v47h-125l-12 -143h116z" />
    <glyph glyph-name="yen" unicode="&#xa5;" 
d="M77 321v67h81l-97 187h-34v134h241v-134h-49l98 -191l90 191h-60v134h223v-134h-37l-93 -187h97v-67h-460zM537 283v-67h-152v-83h65v-133h-286v133h64v83h-151v67h460z" />
    <glyph glyph-name="section" unicode="&#xa7;" horiz-adv-x="581" 
d="M91 -48h274v124h-195q-22 0 -39 8t-29 20.5t-18.5 29t-6.5 34.5v162q0 10 2.5 21.5t9 22t17.5 19.5t28 14q-15 6 -24.5 16t-15 21.5t-7 23.5t-1.5 23v149q0 17 7.5 33t21 28.5t31 20t37.5 7.5h239l60 -62v-43h-256v-114h192q22 0 39.5 -8t28.5 -21t17 -29.5t6 -32.5v-163
q0 -23 -9 -43.5t-39 -34.5q34 -14 41.5 -37t7.5 -46v-161q0 -17 -8 -32.5t-21.5 -28.5t-31 -20.5t-37.5 -7.5h-262l-59 62v45zM207 208h169v178h-169v-178z" />
    <glyph glyph-name="quotesingle" unicode="'" horiz-adv-x="272" 
d="M85 437l-15 270h128l-14 -270h-99z" />
    <glyph glyph-name="quotedblleft" unicode="&#x201c;" horiz-adv-x="430" 
d="M190 725v-280h-68q-24 0 -38 8t-21 18.5t-8.5 22t-1.5 18.5v122l89 91h48zM370 725v-280h-68q-24 0 -38 8t-20.5 18.5t-8 22t-1.5 18.5v122l88 91h48z" />
    <glyph glyph-name="guillemotleft" unicode="&#xab;" horiz-adv-x="547" 
d="M43 255l185 201l69 -48l-116 -172q9 -13 24.5 -36t33 -48t33 -47.5t24.5 -35.5l-71 -52l-182 200v38zM246 255l184 201l69 -48l-116 -172q9 -13 24.5 -36t33 -48t33 -47.5t23.5 -35.5l-70 -52l-181 200v38z" />
    <glyph glyph-name="endash" unicode="&#x2013;" horiz-adv-x="500" 
d="M40 301h420v-88h-420v88z" />
    <glyph glyph-name="dagger" unicode="&#x2020;" horiz-adv-x="617" 
d="M243 393h-189v126h189v189h132v-189h189v-126h-189v-528h-132v528z" />
    <glyph glyph-name="periodcentered" unicode="&#xb7;" horiz-adv-x="292" 
d="M61 288q0 35 25 60t60 25t60 -25t25 -60t-25 -60t-60 -25t-60 25t-25 60z" />
    <glyph glyph-name="bullet" unicode="&#x2022;" horiz-adv-x="437" 
d="M100 285q0 25 9 46.5t25 37.5t38 25.5t47 9.5t46.5 -9.5t37.5 -25.5t25 -37.5t9 -46.5t-9 -46.5t-25 -37.5t-37.5 -25.5t-46.5 -9.5t-47 9.5t-38 25.5t-25 37.5t-9 46.5z" />
    <glyph glyph-name="quotedblright" unicode="&#x201d;" horiz-adv-x="430" 
d="M240 446v280h68q24 0 38 -7.5t20.5 -18.5t8 -22.5t1.5 -18.5v-121l-88 -92h-48zM60 446v280h68q24 0 38 -7.5t20.5 -18.5t8 -22.5t1.5 -18.5v-121l-88 -92h-48z" />
    <glyph glyph-name="ellipsis" unicode="&#x2026;" horiz-adv-x="757" 
d="M50 80q0 35 25 60t60 25q18 0 33.5 -7t27 -18.5t18 -27t6.5 -32.5q0 -35 -25 -60t-60 -25q-17 0 -32.5 6.5t-27 18t-18.5 27t-7 33.5zM294 80q0 17 6.5 32.5t18 27t27 18.5t33.5 7t33.5 -7t27 -18.5t18 -27t6.5 -32.5q0 -35 -25 -60t-60 -25t-60 25t-25 60zM537 80
q0 35 25 60t60 25q18 0 33.5 -7t27 -18.5t18 -27t6.5 -32.5q0 -35 -25 -60t-60 -25q-17 0 -32.5 6.5t-27 18t-18.5 27t-7 33.5z" />
    <glyph glyph-name="perthousand" unicode="&#x2030;" horiz-adv-x="1265" 
d="M40 635q0 27 22 49.5t57 22.5h169q38 0 58.5 -23t20.5 -49v-283q0 -12 -5.5 -25t-15.5 -23.5t-25.5 -17t-34.5 -6.5h-167q-18 0 -32.5 6.5t-25 17t-16 23t-5.5 25.5v283zM153 614v-241h101v241h-101zM529 354q0 27 22 49.5t57 22.5h168q39 0 59 -23t20 -49v-283
q0 -12 -5 -24.5t-15.5 -23t-25.5 -17t-34 -6.5h-167q-18 0 -32.5 6.5t-25 16.5t-16 22.5t-5.5 25.5v283zM642 334v-241h101v241h-101zM899 354q0 27 22 49.5t57 22.5h168q38 0 58.5 -23t20.5 -49v-283q0 -12 -5.5 -24.5t-15.5 -23t-25 -17t-34 -6.5h-167q-18 0 -32.5 6.5
t-25 16.5t-16 22.5t-5.5 25.5v283zM1011 334v-241h101v241h-101zM252 -34l302 772h92l-303 -772h-91z" />
    <glyph glyph-name="grave" unicode="`" horiz-adv-x="580" 
d="M274 539l-136 178l108 67l108 -201z" />
    <glyph glyph-name="dieresis" unicode="&#xa8;" horiz-adv-x="580" 
d="M109 636q0 32 22.5 54.5t54.5 22.5t54.5 -22.5t22.5 -54.5t-22.5 -54.5t-54.5 -22.5t-54.5 22.5t-22.5 54.5zM326 636q0 32 23 54.5t55 22.5t54 -22.5t22 -54.5t-22 -54.5t-54 -22.5t-55 22.5t-23 54.5z" />
    <glyph glyph-name="emdash" unicode="&#x2014;" horiz-adv-x="1000" 
d="M40 301h920v-88h-920v88z" />
    <glyph glyph-name="oe" unicode="&#x153;" horiz-adv-x="839" 
d="M497 0q-20 0 -41 12.5t-35 35.5q-12 -23 -37.5 -35.5t-46.5 -12.5h-176q-24 0 -44 9t-35 23.5t-23 33t-8 37.5v295q0 19 8.5 37.5t23.5 33t35 23.5t43 9h193q20 0 40.5 -12t31.5 -32q14 20 34 31.5t41 11.5h164q34 0 57 -11.5t37.5 -28.5t21 -38.5t6.5 -40.5v-91
q0 -42 -19 -57.5t-51 -15.5h-198v-90h131v41h139v-65q0 -18 -8.5 -36.5t-24 -33.5t-37 -24t-46.5 -9h-176zM196 127h139v247h-139v-247zM519 307h120v68h-120v-68z" />
    <glyph glyph-name="germandbls" unicode="&#xdf;" horiz-adv-x="584" 
d="M30 466h47l1 154q0 21 7.5 40.5t22 34.5t34.5 24.5t46 9.5h198q37 0 61.5 -12.5t39.5 -31t21.5 -41t6.5 -42.5v-94q0 -28 -11.5 -56t-42.5 -44q40 -12 56.5 -40.5t16.5 -60.5v-204q0 -20 -6.5 -38.5t-19.5 -32.5t-32 -23t-44 -9h-95l-72 72v58h121v212h-161l1 -480h-196
v123h47v357h-47v124zM225 600v-134h142v134h-142z" />
    <glyph glyph-name="mu" unicode="&#xb5;" horiz-adv-x="609" 
d="M27 378v122h240v-122h-43v-249h156v249h-47v122h196l-1 -378h51v-122h-199v71l-70 -71h-86v-55h43v-123h-240v123h48v433h-48z" />
    <glyph glyph-name="mu" unicode="&#x3bc;" horiz-adv-x="609" 
d="M27 378v122h240v-122h-43v-249h156v249h-47v122h196l-1 -378h51v-122h-199v71l-70 -71h-86v-55h43v-123h-240v123h48v433h-48z" />
    <glyph glyph-name="trademark" unicode="&#x2122;" horiz-adv-x="869" 
d="M709 543l-69 -205h-76l-76 205h-4v-124h28v-77h-126v77h27v211h-27v78h138l85 -232h7l74 232h138v-78h-27v-211h27v-77h-143v77h27v124h-3zM280 630h-42v-210h44v-78h-173v78h39v210h-42v-43h-81v121h337v-121h-82v43z" />
    <glyph glyph-name="onehalf" unicode="&#xbd;" horiz-adv-x="890" 
d="M64 371h72v224h-78v60l89 51h35q40 0 54 -20.5t14 -47.5v-267h75v-91h-261v91zM623 125v-33h121v41h98v-133h-332v116q0 29 11 50t41 38q7 4 30.5 17.5t50 28.5t50 28.5t31.5 17.5v36h-90v-36h-103v47q0 12 3 26.5t12.5 27t26.5 21t46 8.5h139q35 0 56.5 -22.5
t21.5 -49.5v-62q0 -32 -14.5 -48t-40.5 -31zM241 -34l302 772h92l-303 -772h-91z" />
    <glyph glyph-name="plusminus" unicode="&#xb1;" 
d="M60 413h184v173h102v-173h186v-100h-186v-173h-102v173h-184v100zM532 105v-102h-472v102h472z" />
    <glyph glyph-name="degree" unicode="&#xb0;" horiz-adv-x="435" 
d="M219 412q-32 0 -59 11.5t-47 31t-31.5 46t-11.5 56.5q0 31 11.5 57.5t32 46t47.5 31t58 11.5t57.5 -11.5t46 -31t31 -46t11.5 -57.5q0 -30 -11.5 -56.5t-31.5 -46t-46.5 -31t-56.5 -11.5zM217 630q-29 0 -50.5 -21t-21.5 -52q0 -29 21.5 -50t50.5 -21t51 21t22 50
q0 30 -22 51.5t-51 21.5z" />
    <glyph glyph-name="registered" unicode="&#xae;" horiz-adv-x="566" 
d="M506 493q0 -49 -18.5 -89t-49 -68.5t-71 -44t-84.5 -15.5t-84.5 15.5t-71.5 44t-49 68.5t-18 89q0 50 18 90t49 68.5t71.5 44t84.5 15.5t84.5 -15.5t71 -44t49 -68.5t18.5 -90zM454 493q0 38 -13.5 70t-37 55t-54.5 35.5t-66 12.5q-36 0 -67 -12.5t-54.5 -35.5t-37 -55
t-13.5 -70t13.5 -69.5t37 -54t54.5 -35.5t67 -13q35 0 66 12t54.5 34t37 54t13.5 72zM276 471h-19v-47h19v-51h-97v51h20v142h-20v49h161q20 0 31.5 -13t11.5 -27v-65q0 -14 -11 -26.5t-29 -12.5h-8l4.5 -9t7.5 -15.5t7 -15.5t4 -9h30v-49h-68zM257 565v-44h65v44h-65z" />
    <glyph glyph-name="copyright" unicode="&#xa9;" horiz-adv-x="809" 
d="M771 351q0 -82 -30 -148t-80.5 -112.5t-117 -72t-139.5 -25.5t-139 25.5t-116.5 72t-80.5 112.5t-30 148q0 81 30 147t80.5 112.5t116.5 72t139 25.5t139.5 -25.5t117 -72t80.5 -112.5t30 -147zM690 351q0 63 -23 115.5t-62 90t-91 58.5t-110 21q-59 0 -111 -21
t-91 -58.5t-61.5 -90t-22.5 -115.5t22.5 -116t61.5 -91t91 -59t111 -21q58 0 110 19.5t91 56.5t62 90.5t23 120.5zM346 220h132v52h88v-68q0 -13 -7 -25.5t-18.5 -22.5t-25.5 -16.5t-28 -6.5h-167q-13 0 -26 6t-24 15.5t-18 22.5t-7 27v277q0 13 7 26t18 23t24 16t26 6h111
l46 -48v48h82v-134h-82v47h-131v-245z" />
    <glyph glyph-name="dieresistonos" unicode="&#x385;" horiz-adv-x="580" 
d="M70 634q0 30 21.5 51t51.5 21q31 0 52 -21t21 -51q0 -31 -21 -53t-52 -22q-30 0 -51.5 22t-21.5 53zM374 634q0 30 22 51t52 21t51.5 -21t21.5 -51q0 -31 -21.5 -53t-51.5 -22t-52 22t-22 53zM221 566l58 214l116 -39l-89 -199z" />
    <glyph glyph-name="tonos" unicode="&#x384;" horiz-adv-x="580" 
d="M246 583l108 201l107 -67l-136 -178z" />
    <glyph glyph-name="sfthyphen" unicode="&#xad;" horiz-adv-x="313" 
d="M32 199v110h250v-110h-250z" />
    <glyph glyph-name="Euro" unicode="&#x20ac;" 
d="M32 385v69h41v145q0 21 10 40.5t26 34.5t37 24.5t42 9.5h232q28 0 50 -10t38 -25.5t24.5 -35t8.5 -38.5v-85h-130v59h-182v-119h176v-69h-373zM405 348v-67h-176v-146h182v61h130v-87q0 -19 -9 -38.5t-25 -35t-38.5 -25.5t-48.5 -10h-232q-21 0 -42 9.5t-37 24.5
t-26 34.5t-10 40.5v172h-42v67h374z" />
    <glyph glyph-name="semicolon" unicode=";" horiz-adv-x="270" 
d="M50 364q0 18 7 33.5t18.5 27t27 18.5t32.5 7q18 0 33.5 -7t27 -18.5t18 -27t6.5 -33.5q0 -35 -25 -60t-60 -25q-17 0 -32.5 6.5t-27 18t-18.5 27t-7 33.5zM65 -142v298h73q26 0 40.5 -8t21.5 -19.5t8.5 -23.5t1.5 -20v-129l-94 -98h-51z" />
    <glyph glyph-name="acute" unicode="&#xb4;" horiz-adv-x="580" 
d="M193 583l108 201l107 -67l-135 -178z" />
    <glyph glyph-name="anoteleia" unicode="&#x387;" horiz-adv-x="292" 
d="M61 364q0 18 6.5 33.5t18 27t27 18.5t33.5 7t33.5 -7t27 -18.5t18 -27t6.5 -33.5q0 -35 -25 -60t-60 -25t-60 25t-25 60z" />
    <glyph glyph-name="daggerdbl" unicode="&#x2021;" horiz-adv-x="617" 
d="M375 88v-223h-132v223h-189v126h189v179h-189v126h189v189h132v-189h189v-126h-189v-179h189v-126h-189z" />
    <glyph glyph-name="guilsinglleft" unicode="&#x2039;" horiz-adv-x="349" 
d="M44 255q11 12 37 40t55.5 59.5t55.5 60t37 41.5q3 -3 13 -9.5t21 -14.5t21.5 -14.5t13.5 -9.5l-116 -172q14 -21 30.5 -44.5t32.5 -47t29.5 -43.5t22.5 -33l-71 -51q-11 12 -36.5 40.5t-54 60t-54.5 59.5t-37 40v38z" />
    <glyph glyph-name="guilsinglright" unicode="&#x203a;" horiz-adv-x="349" 
d="M304 217q-11 -12 -36.5 -40t-54 -59.5t-54 -60t-36.5 -40.5l-71 51q9 13 22.5 33t29 43.5t32 47t30.5 44.5q-7 11 -23 35l-34 51t-34.5 51t-23.5 35q3 3 13 9.5t21.5 14.5t21.5 14.5t13 9.5q7 -9 21.5 -24.5t32.5 -35.5t37.5 -41.5t37.5 -41t32.5 -35t22.5 -23.5v-38z
" />
    <glyph glyph-name="guillemotright" unicode="&#xbb;" horiz-adv-x="547" 
d="M503 217l-182 -200l-70 52q9 13 24.5 35.5t33 47.5t33 48t24.5 36l-116 172l69 48l184 -201v-38zM301 217l-181 -200l-71 52q9 13 24.5 35.5t32.5 47.5t32.5 48t24.5 36l-115 172l69 48l184 -201v-38z" />
    <glyph glyph-name="logicalnot" unicode="&#xac;" 
d="M59 348h473v-288h-105v184h-368v104z" />
    <glyph glyph-name="quotesinglbase" unicode="&#x201a;" horiz-adv-x="262" 
d="M62 -142v298h72q26 0 40.5 -8t22 -19.5t9 -23.5t1.5 -20v-129l-95 -98h-50z" />
    <glyph glyph-name="quotedblbase" unicode="&#x201e;" horiz-adv-x="454" 
d="M62 -142v298h72q26 0 40.5 -8t22 -19.5t9 -23.5t1.5 -20v-129l-95 -98h-50zM254 -142v298h73q26 0 40.5 -8t21.5 -19.5t8.5 -23.5t1.5 -20v-129l-94 -98h-51z" />
    <glyph glyph-name="brokenbar" unicode="&#xa6;" horiz-adv-x="317" 
d="M98 350v389h121v-389h-121zM219 246v-428h-121v428h121z" />
    <glyph glyph-name="paragraph" unicode="&#xb6;" horiz-adv-x="543" 
d="M212 331h-51q-28 0 -50.5 10t-38 27t-24 39t-8.5 46v122q0 26 8 50t24 42.5t38.5 29.5t51.5 11l331 1v-85h-37v-754h-88v754h-65v-754h-91v461z" />
    <glyph glyph-name="exclamdown" unicode="&#xa1;" horiz-adv-x="325" 
d="M216 292l20 -164v-306h-146v301l20 169h106zM80 429q0 34 24 58.5t59 24.5q34 0 58 -24.5t24 -58.5t-24 -58.5t-58 -24.5q-35 0 -59 24.5t-24 58.5z" />
    <glyph glyph-name="currency" unicode="&#xa4;" horiz-adv-x="556" 
d="M39 453l70 71q3 -4 12 -13t19.5 -19t19.5 -19t12 -13q47 29 105 29q57 0 105 -28q14 15 31 31.5t31 30.5l70 -70l-63 -61q29 -47 29 -105q0 -27 -7.5 -54t-21.5 -50q12 -14 30.5 -31t32.5 -31l-70 -71l-63 64q-47 -29 -104 -29q-58 0 -105 29l-64 -64l-69 70l64 63
q-14 23 -21.5 50t-7.5 54q0 56 29 103zM174 287q0 -21 8 -39.5t22 -33t32.5 -22.5t39.5 -8t40 8t33.5 22t22.5 33t8 40t-8 40t-22.5 33t-33.5 22t-40 8t-40 -8t-32.5 -22t-21.5 -33t-8 -40z" />
    <glyph glyph-name="multiply" unicode="&#xd7;" 
d="M151 487l143 -144l145 145l74 -74l-145 -145l144 -144l-72 -72l-144 144l-145 -144l-74 73l144 145l-143 143z" />
    <glyph glyph-name="OE" unicode="&#x152;" horiz-adv-x="861" 
d="M61 599q0 20 10 39.5t26 35t37 25t43 9.5h637v-229h-126v96h-171v-140h187v-125h-187v-175h186v131h126v-266h-652q-21 0 -42 9.5t-37.5 25t-26.5 35t-10 39.5v490zM218 573v-438h141v438h-141z" />
    <glyph glyph-name="AE" unicode="&#xc6;" horiz-adv-x="1030" 
d="M245 204q-12 -17 -25 -35.5t-25 -36.5h81v-132h-268v132h55l318 442h-58v134h659v-229h-126v95h-209v-140h226v-124h-226v-175h225v130h126v-265h-561v133h53v71h-245zM327 318h163v235z" />
    <glyph glyph-name="cent" unicode="&#xa2;" 
d="M281 -75v96h-83q-23 0 -41.5 8t-32 21.5t-20.5 30.5t-7 35v268q0 18 7 35t20.5 30.5t32 21.5t41.5 8h83v97h42v-97h71q25 0 43.5 -8.5t31.5 -22t19.5 -30.5t6.5 -34v-66h-123v46h-49v-228h49v46h123v-66q0 -17 -6.5 -34t-19.5 -30.5t-31.5 -22t-43.5 -8.5h-71v-96h-42z
M281 136v228h-52v-228h52z" />
    <glyph glyph-name="circumflex" unicode="&#x2c6;" horiz-adv-x="580" 
d="M291 644l-142 -99l-51 56l174 167h43l171 -166l-50 -57z" />
    <glyph glyph-name="space" unicode=" " horiz-adv-x="280" 
 />
    <glyph glyph-name="cedilla" unicode="&#xb8;" horiz-adv-x="519" 
d="M337 33l-55 -69h56q27 0 40.5 -15t13.5 -32v-85q0 -17 -14.5 -33t-41.5 -16h-134q-25 0 -40 15.5t-15 33.5v39h86v-20h71v50h-70l-39 47l62 85h80z" />
    <glyph glyph-name="divide" unicode="&#xf7;" 
d="M301 395q-31 0 -52 21.5t-21 52.5q0 30 21 51.5t52 21.5q30 0 51.5 -21.5t21.5 -51.5q0 -31 -22 -52.5t-51 -21.5zM59 347h473v-103h-473v103zM301 53q-31 0 -52 21t-21 52t21 52t52 21q30 0 51.5 -21t21.5 -52t-22 -52t-51 -21z" />
    <glyph glyph-name="primemod" unicode="&#x2b9;" horiz-adv-x="270" 
d="M41 419l118 293l117 -50l-159 -277z" />
    <glyph glyph-name="caron" unicode="&#x2c7;" horiz-adv-x="580" 
d="M436 774l50 -56l-171 -166h-43l-174 167l51 56l142 -99z" />
    <glyph glyph-name="breve" unicode="&#x2d8;" horiz-adv-x="580" 
d="M290 643q17 0 31 7.5t25 19.5t17.5 27.5t8.5 31.5h88q0 -30 -11 -61.5t-32.5 -57t-53 -42t-73.5 -16.5t-74 16.5t-53.5 42t-32.5 57t-11 61.5h88q2 -16 8.5 -31.5t17 -27.5t25 -19.5t32.5 -7.5z" />
    <glyph glyph-name="dotaccent" unicode="&#x2d9;" horiz-adv-x="580" 
d="M210 644q0 35 24 59t59 24t59 -24t24 -59t-24 -59t-59 -24t-59 24t-24 59z" />
    <glyph glyph-name="ring" unicode="&#x2da;" horiz-adv-x="580" 
d="M297 549q-25 0 -46.5 9t-37.5 24.5t-25 36.5t-9 45q0 23 9 44t25 36.5t37.5 25t46.5 9.5t46 -9t37 -25t25 -36.5t9 -44.5t-9.5 -45t-25 -36.5t-37 -24.5t-45.5 -9zM297 711q-20 0 -33.5 -13.5t-13.5 -33.5t13.5 -34.5t33.5 -14.5q19 0 32.5 14.5t13.5 34.5q0 19 -13.5 33
t-32.5 14z" />
    <glyph glyph-name="ogonek" unicode="&#x2db;" horiz-adv-x="578" 
d="M428 26v-132h110v-94h-125q-35 0 -60.5 21.5t-25.5 68.5v60l62 76h39z" />
    <glyph glyph-name="hungarumlaut" unicode="&#x2dd;" horiz-adv-x="580" 
d="M145 589l108 202l108 -67l-136 -178zM309 580l108 201l108 -67l-136 -179z" />
    <glyph glyph-name="tilde" unicode="&#x2dc;" horiz-adv-x="580" 
d="M364 565q-22 0 -40 5.5t-34.5 12.5t-32 12.5t-31.5 5.5q-20 0 -34.5 -13t-27.5 -27q-3 2 -12.5 8t-20 13t-20 13t-12.5 8q4 10 14 27t25 33t36 28t48 12q22 0 40 -6.5t34 -14t30.5 -14t29.5 -6.5q20 0 35 12t30 27l65 -46q-6 -12 -16 -27.5t-25.5 -29.5t-35.5 -23.5
t-45 -9.5z" />
    <glyph glyph-name="macron" unicode="&#xaf;" horiz-adv-x="580" 
d="M129 686h323v-104h-323v104z" />
    <glyph glyph-name="agrave" unicode="&#xe0;" horiz-adv-x="597" 
d="M149 0q-25 0 -45 8.5t-33.5 22.5t-21 31.5t-7.5 34.5v87q0 19 6.5 38.5t20 35.5t34 26t49.5 10h202v78h-152v-41h-130v45q0 18 7 40t22 40.5t39 31.5t58 13h162q47 0 75 -13t43 -33t20 -44t5 -45v-243h24v32h57v-56q0 -41 -22 -70.5t-68 -29.5h-48q-33 0 -57 16.5
t-33 48.5l-64 -64h-143zM354 211h-165v-88h165v88zM281 539l-136 178l108 67l108 -201z" />
    <glyph glyph-name="aacute" unicode="&#xe1;" horiz-adv-x="597" 
d="M149 0q-25 0 -45 8.5t-33.5 22.5t-21 31.5t-7.5 34.5v87q0 19 6.5 38.5t20 35.5t34 26t49.5 10h202v78h-152v-41h-130v45q0 18 7 40t22 40.5t39 31.5t58 13h162q47 0 75 -13t43 -33t20 -44t5 -45v-243h24v32h57v-56q0 -41 -22 -70.5t-68 -29.5h-48q-33 0 -57 16.5
t-33 48.5l-64 -64h-143zM354 211h-165v-88h165v88zM229 583l108 201l107 -67l-135 -178z" />
    <glyph glyph-name="acircumflex" unicode="&#xe2;" horiz-adv-x="597" 
d="M149 0q-25 0 -45 8.5t-33.5 22.5t-21 31.5t-7.5 34.5v87q0 19 6.5 38.5t20 35.5t34 26t49.5 10h202v78h-152v-41h-130v45q0 18 7 40t22 40.5t39 31.5t58 13h162q47 0 75 -13t43 -33t20 -44t5 -45v-243h24v32h57v-56q0 -41 -22 -70.5t-68 -29.5h-48q-33 0 -57 16.5
t-33 48.5l-64 -64h-143zM354 211h-165v-88h165v88zM287 644l-142 -99l-51 56l174 167h43l171 -166l-50 -57z" />
    <glyph glyph-name="atilde" unicode="&#xe3;" horiz-adv-x="597" 
d="M149 0q-25 0 -45 8.5t-33.5 22.5t-21 31.5t-7.5 34.5v87q0 19 6.5 38.5t20 35.5t34 26t49.5 10h202v78h-152v-41h-130v45q0 18 7 40t22 40.5t39 31.5t58 13h162q47 0 75 -13t43 -33t20 -44t5 -45v-243h24v32h57v-56q0 -41 -22 -70.5t-68 -29.5h-48q-33 0 -57 16.5
t-33 48.5l-64 -64h-143zM349 565q-22 0 -40 5.5t-34.5 12.5t-32 12.5t-31.5 5.5q-20 0 -34.5 -13t-27.5 -27q-3 2 -12.5 8t-20 13t-20 13t-12.5 8q4 10 14 27t25 33t36 28t48 12q22 0 40 -6.5t34 -14t30.5 -14t29.5 -6.5q20 0 35 12t30 27l65 -46q-6 -12 -16 -27.5
t-25.5 -29.5t-35.5 -23.5t-45 -9.5zM354 211h-165v-88h165v88z" />
    <glyph glyph-name="adieresis" unicode="&#xe4;" horiz-adv-x="597" 
d="M149 0q-25 0 -45 8.5t-33.5 22.5t-21 31.5t-7.5 34.5v87q0 19 6.5 38.5t20 35.5t34 26t49.5 10h202v78h-152v-41h-130v45q0 18 7 40t22 40.5t39 31.5t58 13h162q47 0 75 -13t43 -33t20 -44t5 -45v-243h24v32h57v-56q0 -41 -22 -70.5t-68 -29.5h-48q-33 0 -57 16.5
t-33 48.5l-64 -64h-143zM354 211h-165v-88h165v88zM100 636q0 32 22.5 54.5t54.5 22.5t54.5 -22.5t22.5 -54.5t-22.5 -54.5t-54.5 -22.5t-54.5 22.5t-22.5 54.5zM317 636q0 32 23 54.5t55 22.5t54 -22.5t22 -54.5t-22 -54.5t-54 -22.5t-55 22.5t-23 54.5z" />
    <glyph glyph-name="aring" unicode="&#xe5;" horiz-adv-x="597" 
d="M149 0q-25 0 -45 8.5t-33.5 22.5t-21 31.5t-7.5 34.5v87q0 19 6.5 38.5t20 35.5t34 26t49.5 10h202v78h-152v-41h-130v45q0 18 7 40t22 40.5t39 31.5t58 13h162q47 0 75 -13t43 -33t20 -44t5 -45v-243h24v32h57v-56q0 -41 -22 -70.5t-68 -29.5h-48q-33 0 -57 16.5
t-33 48.5l-64 -64h-143zM354 211h-165v-88h165v88zM297 549q-25 0 -46.5 9t-37.5 24.5t-25 36.5t-9 45q0 23 9 44t25 36.5t37.5 25t46.5 9.5t46 -9t37 -25t25 -36.5t9 -44.5t-9.5 -45t-25 -36.5t-37 -24.5t-45.5 -9zM297 711q-20 0 -33.5 -13.5t-13.5 -33.5t13.5 -34.5
t33.5 -14.5q19 0 32.5 14.5t13.5 34.5q0 19 -13.5 33t-32.5 14z" />
    <glyph glyph-name="florin" unicode="&#x192;" 
d="M222 440l14 157q2 19 10 39t23 35.5t36 25.5t48 10h168v-123h-138l-13 -144h93v-120h-103l-31 -347q-2 -20 -10 -39.5t-23 -35t-36 -25.5t-48 -10h-167v123h137l29 334h-71v120h82z" />
    <glyph glyph-name="ae" unicode="&#xe6;" horiz-adv-x="825" 
d="M475 0q-38 0 -66.5 22t-38.5 53l-78 -75h-143q-25 0 -44.5 8.5t-33.5 22.5t-21.5 31.5t-7.5 34.5v96q0 18 7 36.5t20 32.5t32.5 23t45.5 9h209v78h-150v-38h-130v55q0 19 9 39t25.5 36t39 26.5t49.5 10.5h112q38 0 60 -9t40 -35q17 22 34.5 32.5t40.5 10.5h164
q34 0 57.5 -11.5t38 -28.5t21 -38.5t6.5 -40.5v-91q0 -42 -19.5 -56.5t-51.5 -14.5h-205v-92h142v48h136v-72q0 -18 -9 -36.5t-24.5 -33.5t-37 -24t-46.5 -9h-183zM190 123h166v96h-166v-96zM497 294h128v78h-128v-78z" />
    <glyph glyph-name="fraction" unicode="&#x2044;" horiz-adv-x="174" 
d="M-105 -34l302 772h92l-303 -772h-91z" />
    <glyph glyph-name="fraction" unicode="&#x2215;" horiz-adv-x="174" 
d="M-105 -34l302 772h92l-303 -772h-91z" />
    <glyph glyph-name="uniE299" unicode="&#xe299;" horiz-adv-x="707" 
d="M350 690q-25 0 -46.5 9t-37.5 25t-25 37t-9 45q0 23 9 44t25 36.5t37.5 25t46.5 9.5t46 -9.5t37 -25t25 -36.5t9 -44q0 -25 -9.5 -46t-25 -36.5t-37 -24.5t-45.5 -9zM350 853q-20 0 -33.5 -13.5t-13.5 -33.5t13.5 -34.5t33.5 -14.5q19 0 32.5 14.5t13.5 34.5
q0 18 -13.5 32.5t-32.5 14.5z" />
    <glyph glyph-name="Circumflex" unicode="&#xf6c0;" horiz-adv-x="707" 
d="M345 812l-159 -79l-35 52l175 148h42l178 -147l-40 -53z" />
    <glyph glyph-name="commaaccent" unicode="&#xf6c3;" horiz-adv-x="707" 
d="M291 -266v232h66q22 0 34 -7t18 -16.5t7.5 -19.5t1.5 -16v-93l-79 -80h-48z" />
    <glyph glyph-name="Acute" unicode="&#xf6c9;" horiz-adv-x="707" 
d="M290 805l188 129l61 -111l-204 -92z" />
    <glyph glyph-name="Caron" unicode="&#xf6ca;" horiz-adv-x="707" 
d="M508 933l39 -53l-177 -147h-43l-175 148l35 52l160 -79z" />
    <glyph glyph-name="Dieresis" unicode="&#xf6cb;" horiz-adv-x="707" 
d="M160 813q0 32 23.5 55t55.5 23q16 0 30 -6t24.5 -16.5t17 -25t6.5 -30.5t-6.5 -30.5t-17 -25t-24.5 -16.5t-30 -6q-32 0 -55.5 23t-23.5 55zM381 813q0 32 23.5 55t55.5 23q16 0 30 -6t24.5 -16.5t16.5 -25t6 -30.5t-6 -30.5t-16.5 -25t-24.5 -16.5t-30 -6
q-32 0 -55.5 23t-23.5 55z" />
    <glyph glyph-name="DieresisAcute" unicode="&#xf6cc;" horiz-adv-x="707" 
d="M130 828q0 30 21 51.5t52 21.5t52.5 -21.5t21.5 -51.5t-21.5 -52t-52.5 -22t-52 22t-21 52zM434 828q0 30 22 51.5t52 21.5t51.5 -21.5t21.5 -51.5t-21.5 -52t-51.5 -22t-52 22t-22 52zM281 761l59 214l115 -40l-89 -198z" />
    <glyph glyph-name="DieresisGrave" unicode="&#xf6cd;" horiz-adv-x="707" 
d="M104 823q0 30 21 51.5t52 21.5t52 -21.5t21 -51.5t-21 -52t-52 -22t-52 22t-21 52zM408 823q0 30 22 51.5t52 21.5t51.5 -21.5t21.5 -51.5t-21.5 -52t-51.5 -22t-52 22t-22 52zM320 732l-89 198l116 40l59 -215z" />
    <glyph glyph-name="Grave" unicode="&#xf6ce;" horiz-adv-x="707" 
d="M372 738l-205 92l61 111l188 -129z" />
    <glyph glyph-name="Hungarumlaut" unicode="&#xf6cf;" horiz-adv-x="707" 
d="M164 812l188 129l61 -111l-205 -92zM411 812l187 129l61 -111l-204 -92z" />
    <glyph glyph-name="Macron" unicode="&#xf6d0;" horiz-adv-x="707" 
d="M190 859h322v-103h-322v103z" />
    <glyph glyph-name="cyrBreve" unicode="&#xf6d1;" horiz-adv-x="707" 
d="M342 827q17 0 31 7.5t25 19.5t18 27.5t9 31.5h87q0 -30 -11 -61.5t-32 -57.5t-53 -42.5t-74 -16.5t-74 16.5t-53.5 42.5t-32.5 57.5t-11 61.5h89q2 -16 8.5 -31.5t17 -27.5t25 -19.5t31.5 -7.5z" />
    <glyph glyph-name="cyrbreve" unicode="&#xf6d4;" horiz-adv-x="580" 
d="M290 643q17 0 31 7.5t25 19.5t17.5 27.5t8.5 31.5h88q0 -30 -11 -61.5t-32.5 -57t-53 -42t-73.5 -16.5t-74 16.5t-53.5 42t-32.5 57t-11 61.5h88q2 -16 8.5 -31.5t17 -27.5t25 -19.5t32.5 -7.5z" />
    <glyph glyph-name="aogonek" unicode="&#x105;" horiz-adv-x="597" 
d="M149 0q-25 0 -45 8.5t-33.5 22.5t-21 31.5t-7.5 34.5v87q0 19 6.5 38.5t20 35.5t34 26t49.5 10h202v78h-152v-41h-130v45q0 18 7 40t22 40.5t39 31.5t58 13h162q47 0 75 -13t43 -33t20 -44t5 -45v-243h24v32h57v-56q0 -38 -19 -67t-60 -32v-106h110v-94h-125
q-35 0 -60.5 21.5t-25.5 68.5v60l40 49q-32 1 -55.5 17t-32.5 48l-64 -64h-143zM354 211h-165v-88h165v88z" />
    <glyph glyph-name="eogonek" unicode="&#x119;" horiz-adv-x="545" 
d="M495 103q0 -29 -21 -56.5t-54 -39.5v-91h110v-94h-125q-35 0 -60.5 21.5t-25.5 68.5v60l23 28h-181q-23 0 -43 9t-35 23.5t-23.5 33t-8.5 37.5v281q0 19 8.5 39.5t24 37.5t38 28t50.5 11h198q34 0 57.5 -11.5t38 -28.5t21 -38.5t6.5 -40.5v-91q0 -42 -19 -57.5t-52 -15.5
h-225v-90h162v48h136v-72zM197 307h149v71h-149v-71z" />
    <glyph glyph-name="uogonek" unicode="&#x173;" horiz-adv-x="613" 
d="M267 379h-44v-252h161v252h-47v122h196v-379h50v-122h-51v-106h110v-94h-125q-35 0 -60.5 21.5t-25.5 68.5v60l41 50h-88v71l-70 -71h-134q-26 0 -45.5 9t-33 23t-20.5 32.5t-7 38.5v276h-48v122h241v-122z" />
    <glyph glyph-name="Ccedilla" unicode="&#xc7;" horiz-adv-x="596" 
d="M218 135h209v77h136v-103q0 -19 -11 -38.5t-28.5 -35t-39 -25.5t-42.5 -10h-92l-28 -36h56q27 0 40.5 -15t13.5 -32v-85q0 -17 -14.5 -33t-41.5 -16h-134q-25 0 -40 15.5t-15 33.5v39h86v-20h71v50h-70l-39 47l38 52h-96q-21 0 -41.5 9.5t-37 24.5t-27 34.5t-10.5 40.5
v490q0 21 10 40.5t26.5 34.5t37.5 24.5t42 9.5h180l69 -73v73h126v-203h-126v68h-208v-438z" />
    <glyph glyph-name="twosuperior" unicode="&#xb2;" horiz-adv-x="384" 
d="M136 490v-27h121v41h98v-134h-331v120q0 29 10.5 49.5t41.5 37.5q7 4 31 17.5t51 28.5t50.5 28.5t31.5 18.5v33h-96v-36h-104v47q0 12 3 26.5t12.5 26.5t26.5 20.5t46 8.5h147q35 0 56.5 -22t21.5 -50v-64q0 -32 -15 -48t-41 -31z" />
    <glyph glyph-name="threesuperior" unicode="&#xb3;" horiz-adv-x="384" 
d="M41 796h303v-88l-90 -72h28q37 0 55.5 -19.5t18.5 -45.5v-129q0 -12 -5.5 -25t-15.5 -23.5t-24.5 -17t-32.5 -6.5h-169q-41 0 -61.5 24t-20.5 51v43h106v-24h112v88h-118l-37 67l101 85h-150v92z" />
    <glyph glyph-name="onesuperior" unicode="&#xb9;" horiz-adv-x="384" 
d="M64 461h72v224h-78v60l89 51h35q40 0 54 -20.5t14 -47.5v-267h75v-91h-261v91z" />
    <glyph glyph-name="ordfeminine" unicode="&#xaa;" horiz-adv-x="400" 
d="M137 373h99v38h-99v-38zM236 476v46h-88v-24h-100v37q0 13 7 27.5t19 25.5t28.5 18.5t36.5 7.5h111q34 0 54.5 -9t31 -22.5t13.5 -30t3 -31.5v-148h31v-93h-147v39l-40 -39h-92q-36 0 -57.5 22t-21.5 48v52q0 27 20.5 50.5t58.5 23.5h132z" />
    <glyph glyph-name="ordmasculine" unicode="&#xba;" horiz-adv-x="392" 
d="M361 354q0 -13 -6.5 -26.5t-18 -24t-26.5 -17t-33 -6.5h-165q-36 0 -58 23t-22 51v187q0 13 6 26.5t16.5 23.5t25.5 16.5t32 6.5h169q38 0 59 -23t21 -50v-187zM147 377h98v141h-98v-141z" />
    <glyph glyph-name="onequarter" unicode="&#xbc;" horiz-adv-x="890" 
d="M64 371h72v224h-78v60l89 51h35q40 0 54 -20.5t14 -47.5v-267h75v-91h-261v91zM618 86h46v34h-193v65l208 241h98v-234h61v-72h-61v-34h54v-86h-213v86zM665 192v91l-77 -91h77zM249 -34l302 772h92l-303 -772h-91z" />
    <glyph glyph-name="threequarters" unicode="&#xbe;" horiz-adv-x="890" 
d="M618 86h46v34h-193v65l208 241h98v-234h61v-72h-61v-34h54v-86h-213v86zM665 192v91l-77 -91h77zM41 706h303v-88l-96 -72h34q37 0 55.5 -19.5t18.5 -45.5v-129q0 -12 -5.5 -25t-15.5 -23.5t-24.5 -17t-32.5 -6.5h-169q-41 0 -61.5 24t-20.5 51v43h106v-24h112v95h-118
l-32 63l103 82h-157v92zM251 -34l302 772h92l-303 -772h-91z" />
    <glyph glyph-name="questiondown" unicode="&#xbf;" horiz-adv-x="611" 
d="M434 306v-70q0 -24 -2 -42.5t-9 -33.5t-20 -27.5t-34 -24.5l-161 -86v-70h187v43h136v-46q0 -18 -4.5 -40.5t-17.5 -41.5t-37.5 -32t-64.5 -13h-237q-27 0 -47.5 9t-34.5 24t-21 34t-7 39v95q0 46 18 72t59 48l157 83v80h140zM444 429q0 -35 -24 -59t-58 -24
q-35 0 -59 24t-24 59q0 34 24 58t59 24q34 0 58 -24t24 -58z" />
    <glyph glyph-name="eth" unicode="&#xf0;" horiz-adv-x="565" 
d="M149 560l56 35l-98 144l39 30l110 -17l58 -83l68 44l43 -66l-65 -43l90 -124q13 -20 25 -36t20.5 -32t14 -33t5.5 -39v-236q0 -19 -9 -37.5t-25 -33.5t-36.5 -24t-44.5 -9h-242q-23 0 -43 9t-34.5 24t-22.5 33.5t-8 37.5v232q0 19 8 37.5t22 33t33.5 23.5t42.5 9h161
l-67 92l-58 -38zM198 127h172v195h-172v-195z" />
    <glyph glyph-name="Alphatonos" unicode="&#x386;" horiz-adv-x="711" 
d="M458 203h-237l-24 -71h73v-132h-256v132h46l210 582h173l203 -582h47v-132h-290v132h78zM339 562l-80 -245h160l-75 245h-5zM-52 553l108 201l107 -67l-136 -178z" />
    <glyph glyph-name="Epsilontonos" unicode="&#x388;" horiz-adv-x="636" 
d="M-218 553l108 201l107 -67l-136 -178zM41 134h53v441h-54v133h546v-229h-135v96h-200v-140h221v-125h-221v-175h215v131h136v-266h-561v134z" />
    <glyph glyph-name="Etatonos" unicode="&#x389;" horiz-adv-x="754" 
d="M312 132v-132h-270v132h57v444h-58v132h271v-132h-55v-150h237v150h-60v132h278v-132h-62v-444h62v-132h-278v132h60v171h-237v-171h55zM-211 553l108 201l107 -67l-136 -178z" />
    <glyph glyph-name="Iotatonos" unicode="&#x38a;" horiz-adv-x="431" 
d="M293 132h66v-132h-287v132h64v444h-65v132h288v-132h-66v-444zM-179 553l108 201l107 -67l-136 -178z" />
    <glyph glyph-name="Omicrontonos" unicode="&#x38c;" horiz-adv-x="658" 
d="M61 599q0 20 10 39.5t26 35t37 25t43 9.5h305q22 0 43 -9.5t37 -25t25.5 -35t9.5 -39.5v-490q0 -19 -9.5 -38.5t-25 -35t-36.5 -25.5t-44 -10h-305q-21 0 -42 9.5t-37.5 25t-26.5 35t-10 39.5v490zM218 573v-438h222v438h-222zM-171 553l108 201l107 -67l-136 -178z" />
    <glyph glyph-name="Upsilontonos" unicode="&#x38e;" horiz-adv-x="660" 
d="M21 576v133h272v-133h-68l126 -200l119 200h-74v133h253v-133h-42l-183 -301v-143h65v-132h-286v132h64v127l-206 317h-40zM-227 550l108 201l107 -67l-136 -178z" />
    <glyph glyph-name="Omegatonos" unicode="&#x38f;" horiz-adv-x="710" 
d="M415 252h70v321h-266v-321h74l33 -36v-216h-263v125h130v38h-65q-32 0 -49.5 19t-17.5 52v365q0 20 9.5 39.5t25.5 35t37 25t44 9.5h350q24 0 45 -9.5t36.5 -25t24.5 -35t9 -39.5v-364q0 -11 -4 -24t-12.5 -23.5t-22.5 -17.5t-33 -7h-58v-38h136v-125h-265v216zM-171 550
l108 201l107 -67l-136 -178z" />
    <glyph glyph-name="iotadieresistonos" unicode="&#x390;" horiz-adv-x="345" 
d="M244 122h51v-122h-247v122h47v257h-47v122h196v-379zM-67 634q0 30 21.5 51t51.5 21q31 0 52 -21t21 -51q0 -31 -21 -53t-52 -22q-30 0 -51.5 22t-21.5 53zM237 634q0 30 22 51t52 21t51.5 -21t21.5 -51q0 -31 -21.5 -53t-51.5 -22t-52 22t-22 53zM84 566l58 214l116 -39
l-89 -199z" />
    <glyph glyph-name="Alpha" unicode="&#x391;" horiz-adv-x="711" 
d="M458 203h-237l-24 -71h73v-132h-256v132h46l210 582h173l203 -582h47v-132h-290v132h78zM339 562l-80 -245h160l-75 245h-5z" />
    <glyph glyph-name="Beta" unicode="&#x392;" horiz-adv-x="669" 
d="M40 0v132h54v444h-54v132h442q27 0 48.5 -10t36.5 -25.5t22.5 -35t7.5 -38.5v-118q0 -33 -13.5 -56.5t-45.5 -34.5q40 -10 56 -39.5t16 -59.5v-182q0 -20 -8.5 -39t-23.5 -35t-36 -25.5t-46 -9.5h-456zM251 135h198v184h-198v-184zM251 442h187v131h-187v-131z" />
    <glyph glyph-name="Gamma" unicode="&#x393;" horiz-adv-x="604" 
d="M330 0h-288v132h52v443h-53v133h546v-237h-136v104h-200v-443h79v-132z" />
    <glyph glyph-name="Delta" unicode="&#x394;" horiz-adv-x="705" 
d="M24 0v127l250 585h171l234 -585v-127h-655zM347 561h-5q-44 -107 -87 -213t-86 -214h340z" />
    <glyph glyph-name="Epsilon" unicode="&#x395;" horiz-adv-x="636" 
d="M41 134h53v441h-54v133h546v-229h-135v96h-200v-140h221v-125h-221v-175h215v131h136v-266h-561v134z" />
    <glyph glyph-name="Zeta" unicode="&#x396;" horiz-adv-x="584" 
d="M206 133h230v83h126v-216h-541v133l338 442h-184v-66h-127v199h499v-129z" />
    <glyph glyph-name="Eta" unicode="&#x397;" horiz-adv-x="754" 
d="M312 132v-132h-270v132h57v444h-58v132h271v-132h-55v-150h237v150h-60v132h278v-132h-62v-444h62v-132h-278v132h60v171h-237v-171h55z" />
    <glyph glyph-name="Theta" unicode="&#x398;" horiz-adv-x="658" 
d="M61 599q0 20 10 39.5t26 35t37 25t43 9.5h305q22 0 43 -9.5t37 -25t25.5 -35t9.5 -39.5v-490q0 -19 -9.5 -38.5t-25 -35t-36.5 -25.5t-44 -10h-305q-21 0 -42 9.5t-37.5 25t-26.5 35t-10 39.5v490zM440 573h-222v-438h222v438zM409 301h-159v127h159v-127z" />
    <glyph glyph-name="Iota" unicode="&#x399;" horiz-adv-x="431" 
d="M293 132h66v-132h-287v132h64v444h-65v132h288v-132h-66v-444z" />
    <glyph glyph-name="Kappa" unicode="&#x39a;" horiz-adv-x="689" 
d="M384 708h271v-134h-66l-129 -130l161 -311h51v-133h-269v133h47l-102 200l-105 -105v-96h48v-132h-255v132h49v442h-50v134h255v-134h-47v-197l193 197h-52v134z" />
    <glyph glyph-name="Lambda" unicode="&#x39b;" horiz-adv-x="711" 
d="M344 560h-5l-142 -428h76v-132h-259v132h46l210 580h173l203 -580h47v-132h-287v132h75z" />
    <glyph glyph-name="Mu" unicode="&#x39c;" horiz-adv-x="944" 
d="M481 226l161 482h261v-132h-53v-444h53v-132h-257v132h53v337h-5l-157 -469h-135l-175 472h-4v-340h53v-132h-235v132h53v444h-53v132h259l177 -482h4z" />
    <glyph glyph-name="Nu" unicode="&#x39d;" horiz-adv-x="772" 
d="M539 263v313h-53v132h244v-132h-58v-579h-149l-295 467h-5v-332h53v-132h-234v132h53v444h-54v132h211l282 -445h5z" />
    <glyph glyph-name="Xi" unicode="&#x39e;" horiz-adv-x="677" 
d="M51 0v251h122v-118h89v181h-91v121h91v140h-79v-78h-123v211h558v-211h-123v78h-81v-140h92v-121h-92v-181h90v118h123v-251h-576z" />
    <glyph glyph-name="Omicron" unicode="&#x39f;" horiz-adv-x="658" 
d="M61 599q0 20 10 39.5t26 35t37 25t43 9.5h305q22 0 43 -9.5t37 -25t25.5 -35t9.5 -39.5v-490q0 -19 -9.5 -38.5t-25 -35t-36.5 -25.5t-44 -10h-305q-21 0 -42 9.5t-37.5 25t-26.5 35t-10 39.5v490zM218 573v-438h222v438h-222z" />
    <glyph glyph-name="Pi" unicode="&#x3a0;" horiz-adv-x="748" 
d="M312 132v-132h-270v132h57v443h-58v133h665v-133h-62v-443h61v-132h-278v132h60v441h-230v-441h55z" />
    <glyph glyph-name="Rho" unicode="&#x3a1;" horiz-adv-x="631" 
d="M95 576h-54v132h454q26 0 47 -9.5t36 -25t23.5 -35t8.5 -39.5v-216q0 -20 -8 -40.5t-23 -37t-36.5 -27.5t-47.5 -11h-242v-135h62v-132h-274v132h54v444zM253 573v-171h198v171h-198z" />
    <glyph glyph-name="Sigma" unicode="&#x3a3;" horiz-adv-x="587" 
d="M376 382l-169 -247h229v80h125v-215h-540v133l170 248l-161 197v129h508v-199h-126v65h-196z" />
    <glyph glyph-name="Tau" unicode="&#x3a4;" horiz-adv-x="665" 
d="M516 575h-105v-442h85v-133h-320v133h77v442h-105v-92h-137v225h642v-225h-137v92z" />
    <glyph glyph-name="Upsilon" unicode="&#x3a5;" horiz-adv-x="660" 
d="M21 576v133h272v-133h-68l126 -200l119 200h-74v133h253v-133h-42l-183 -301v-143h65v-132h-286v132h64v127l-206 317h-40z" />
    <glyph glyph-name="Phi" unicode="&#x3a6;" horiz-adv-x="895" 
d="M303 133h64v76h-194q-22 0 -42.5 10t-36.5 25.5t-25.5 35.5t-9.5 40v277q0 20 8.5 40t24 35.5t36 25.5t44.5 10h553q25 0 46 -10t35.5 -25.5t22.5 -35.5t8 -40v-276q0 -23 -9 -43t-24 -35.5t-35.5 -24.5t-43.5 -9h-200v-76h65v-133h-287v133zM525 573v-229h155v229h-155z
M215 344h152v229h-152v-229z" />
    <glyph glyph-name="Chi" unicode="&#x3a7;" horiz-adv-x="702" 
d="M389 444l90 132h-51v132h243v-132h-52l-157 -228l163 -216h55v-132h-300v132h48l-105 144l-97 -144h52v-132h-257v132h61l166 243l-148 201h-53v132h293v-132h-49z" />
    <glyph glyph-name="Psi" unicode="&#x3a8;" horiz-adv-x="925" 
d="M538 352h149v356h211v-133h-54v-240q0 -21 -8.5 -42t-24 -37.5t-38.5 -26.5t-51 -10h-184v-87h65v-132h-287v132h64v87h-182q-28 0 -50.5 10t-38 26t-24 37t-8.5 43l1 240h-51v133h206v-356h147v223h-64v133h287v-133h-65v-223z" />
    <glyph glyph-name="Omega" unicode="&#x3a9;" horiz-adv-x="710" 
d="M415 252h70v321h-266v-321h74l33 -36v-216h-263v125h130v38h-65q-32 0 -49.5 19t-17.5 52v365q0 20 9.5 39.5t25.5 35t37 25t44 9.5h350q24 0 45 -9.5t36.5 -25t24.5 -35t9 -39.5v-364q0 -11 -4 -24t-12.5 -23.5t-22.5 -17.5t-33 -7h-58v-38h136v-125h-265v216z" />
    <glyph glyph-name="Iotadieresis" unicode="&#x3aa;" horiz-adv-x="431" 
d="M293 132h66v-132h-287v132h64v444h-65v132h288v-132h-66v-444zM30 813q0 32 23.5 55t55.5 23q16 0 30 -6t24.5 -16.5t17 -25t6.5 -30.5t-6.5 -30.5t-17 -25t-24.5 -16.5t-30 -6q-32 0 -55.5 23t-23.5 55zM251 813q0 32 23.5 55t55.5 23q16 0 30 -6t24.5 -16.5t16.5 -25
t6 -30.5t-6 -30.5t-16.5 -25t-24.5 -16.5t-30 -6q-32 0 -55.5 23t-23.5 55z" />
    <glyph glyph-name="Upsilondieresis" unicode="&#x3ab;" horiz-adv-x="660" 
d="M21 576v133h272v-133h-68l126 -200l119 200h-74v133h253v-133h-42l-183 -301v-143h65v-132h-286v132h64v127l-206 317h-40zM161 813q0 32 23.5 55t55.5 23q16 0 30 -6t24.5 -16.5t17 -25t6.5 -30.5t-6.5 -30.5t-17 -25t-24.5 -16.5t-30 -6q-32 0 -55.5 23t-23.5 55z
M382 813q0 32 23.5 55t55.5 23q16 0 30 -6t24.5 -16.5t16.5 -25t6 -30.5t-6 -30.5t-16.5 -25t-24.5 -16.5t-30 -6q-32 0 -55.5 23t-23.5 55z" />
    <glyph glyph-name="alphatonos" unicode="&#x3ac;" horiz-adv-x="598" 
d="M361 72l-70 -72h-130q-26 0 -46 9t-34.5 23.5t-22 33t-7.5 37.5v294q0 18 8 36.5t22.5 33t35 24t44.5 9.5h130l70 -71v71h149v-378h43v-122h-192v72zM200 129h161v245h-161v-245zM231 583l108 201l107 -67l-136 -178z" />
    <glyph glyph-name="epsilontonos" unicode="&#x3ad;" horiz-adv-x="506" 
d="M161 0q-29 0 -49.5 10.5t-34 26t-20 33.5t-6.5 33v84q0 10 3 21.5t9.5 22t18.5 19t30 13.5q-33 11 -45 32.5t-12 39.5v68q0 18 8 35.5t22.5 31.5t33.5 22.5t42 8.5h91l68 -71v71h132v-167h-132v44q-30 0 -60 -0.5t-60 -0.5v-67h123v-97h-124v-88h130v56h138v-78
q0 -19 -7 -37.5t-21 -33t-34 -23.5t-46 -9h-198zM187 583l108 201l107 -67l-136 -178z" />
    <glyph glyph-name="etatonos" unicode="&#x3ae;" horiz-adv-x="621" 
d="M349 122h40v250h-161v-250h47v-122h-244v122h49v257h-49v121l197 1v-72l70 72h131q25 0 45.5 -9t34.5 -23.5t21.5 -33t7.5 -37.5v-276h51v-122h-240v122zM221 583l108 201l107 -67l-136 -178z" />
    <glyph glyph-name="iotatonos" unicode="&#x3af;" horiz-adv-x="345" 
d="M244 122h51v-122h-247v122h47v257h-47v122h196v-379zM100 583l108 201l107 -67l-136 -178z" />
    <glyph glyph-name="upsilondieresistonos" unicode="&#x3b0;" horiz-adv-x="614" 
d="M540 103q0 -19 -9 -37.5t-24.5 -33t-36 -23.5t-44.5 -9h-239q-24 0 -44 9t-34.5 23.5t-22.5 33t-8 37.5v275h-48v122h240v-122h-44v-251h165v251h-48v122h241v-122h-44v-275zM93 634q0 30 21.5 51t51.5 21q31 0 52 -21t21 -51q0 -31 -21 -53t-52 -22q-30 0 -51.5 22
t-21.5 53zM397 634q0 30 22 51t52 21t51.5 -21t21.5 -51q0 -31 -21.5 -53t-51.5 -22t-52 22t-22 53zM244 566l58 214l116 -39l-89 -199z" />
    <glyph glyph-name="alpha" unicode="&#x3b1;" horiz-adv-x="598" 
d="M361 72l-70 -72h-130q-26 0 -46 9t-34.5 23.5t-22 33t-7.5 37.5v294q0 18 8 36.5t22.5 33t35 24t44.5 9.5h130l70 -71v71h149v-378h43v-122h-192v72zM200 129h161v245h-161v-245z" />
    <glyph glyph-name="beta" unicode="&#x3b2;" horiz-adv-x="561" 
d="M51 620q0 21 7.5 40.5t22 34.5t34.5 24.5t46 9.5h192q37 0 62 -12.5t40 -31t21.5 -41t6.5 -42.5v-98q0 -25 -8.5 -52t-39.5 -41q25 -6 39.5 -19t22 -29.5t9.5 -35.5t2 -38v-185q0 -19 -7 -37.5t-20.5 -33.5t-34 -24t-46.5 -9h-131q-17 17 -34.5 35.5t-35.5 35.5v-126h49
v-122h-197v797zM243 462h92v138h-136v-472h162v216h-118v118z" />
    <glyph glyph-name="gamma" unicode="&#x3b3;" horiz-adv-x="582" 
d="M317 169l92 209h-56v123h216v-123h-34l-165 -351v-83h43v-122h-239v123h48v85l-177 348h-35v123h262v-123h-60l99 -209h6z" />
    <glyph glyph-name="delta" unicode="&#x3b4;" horiz-adv-x="568" 
d="M199 127h169v216h-169v-216zM516 103q0 -19 -9 -37.5t-25 -33t-36.5 -23.5t-44.5 -9h-241q-24 0 -44 9t-34.5 23.5t-22.5 33t-8 37.5v238q0 18 6.5 35.5t19.5 32.5t32.5 25.5t45.5 14.5l-33 18q-17 9 -27 19.5t-14.5 21t-5.5 21.5t-1 22v63q0 22 5.5 42.5t20 37
t38.5 26.5t61 10h262v-127h-243v-44l234 -101q30 -13 47.5 -38.5t17.5 -71.5z" />
    <glyph glyph-name="epsilon" unicode="&#x3b5;" horiz-adv-x="506" 
d="M161 0q-29 0 -49.5 10.5t-34 26t-20 33.5t-6.5 33v84q0 10 3 21.5t9.5 22t18.5 19t30 13.5q-33 11 -45 32.5t-12 39.5v68q0 18 8 35.5t22.5 31.5t33.5 22.5t42 8.5h91l68 -71v71h132v-167h-132v44q-30 0 -60 -0.5t-60 -0.5v-67h123v-97h-124v-88h130v56h138v-78
q0 -19 -7 -37.5t-21 -33t-34 -23.5t-46 -9h-198v0z" />
    <glyph glyph-name="zeta" unicode="&#x3b6;" horiz-adv-x="519" 
d="M207 127h142v61h132v-188h-450v127l262 248h-116v-46h-132v172h427v-122z" />
    <glyph glyph-name="eta" unicode="&#x3b7;" horiz-adv-x="621" 
d="M349 122h40v250h-161v-250h47v-122h-244v122h49v257h-49v121l197 1v-72l70 72h131q25 0 45.5 -9t34.5 -23.5t21.5 -33t7.5 -37.5v-276h51v-122h-240v122z" />
    <glyph glyph-name="theta" unicode="&#x3b8;" horiz-adv-x="568" 
d="M517 103q0 -18 -9 -36.5t-24.5 -33.5t-36.5 -24t-45 -9h-241q-24 0 -44 9t-35 23.5t-23 33t-8 37.5v524q0 19 8.5 37.5t23.5 33t35 23.5t43 9h247q25 0 45 -9t34 -23.5t22 -33t8 -37.5v-524zM368 127v196h-168v-196h168zM200 444h168v159h-168v-159z" />
    <glyph glyph-name="iota" unicode="&#x3b9;" horiz-adv-x="345" 
d="M244 122h51v-122h-247v122h47v257h-47v122h196v-379z" />
    <glyph glyph-name="kappa" unicode="&#x3ba;" horiz-adv-x="593" 
d="M303 501h246v-119h-59l-64 -56l104 -204h35v-122h-229v122h40l-59 109l-88 -77v-32h40v-122h-234v122h46v257h-51v122h199v-216l112 97h-38v119z" />
    <glyph glyph-name="lambda" unicode="&#x3bb;" horiz-adv-x="618" 
d="M393 399v179l-219 35l24 131l244 -37q31 -5 50.5 -15.5t30.5 -26t14.5 -35t3.5 -41.5v-466h48v-123h-243v123h47v218h-161v-218h40v-123h-241v123h52v244q0 19 7.5 38t21.5 33.5t34.5 23.5t46.5 9h130z" />
    <glyph glyph-name="nu" unicode="&#x3bd;" horiz-adv-x="590" 
d="M321 127l94 251h-59v123h221v-123h-35l-153 -384h-177l-164 384h-35v123h262v-123h-59l99 -251h6z" />
    <glyph glyph-name="xi" unicode="&#x3be;" horiz-adv-x="560" 
d="M186 317h246q23 0 41 -8t30 -21.5t18.5 -30.5t6.5 -36v-126q0 -17 -7.5 -34t-20.5 -30.5t-32 -22t-41 -8.5h-134l-62 65v-65h-133v156h133v-39h151v74h-234q-29 0 -49.5 10.5t-34 26t-20 34t-6.5 33.5v84q0 10 3 21.5t9.5 22t18 19t29.5 13.5q-32 11 -44 32.5t-12 39.5
v92q0 18 8 35.5t22 32t33.5 23t42.5 8.5h152l68 -72v72h132v-166h-132v38h-180v-85h188v-107h-190v-81z" />
    <glyph glyph-name="omicron" unicode="&#x3bf;" horiz-adv-x="568" 
d="M517 103q0 -18 -9 -36.5t-24.5 -33.5t-36.5 -24t-45 -9h-241q-24 0 -44 9t-35 23.5t-23 33t-8 37.5v295q0 19 8.5 37.5t23.5 33t35 23.5t43 9h247q25 0 45 -9t34 -23.5t22 -33t8 -37.5v-295zM200 127h168v247h-168v-247z" />
    <glyph glyph-name="pi" unicode="&#x3c0;" horiz-adv-x="621" 
d="M347 122h42v250h-161v-250h47v-122h-244v122h49v257h-49v122h553v-122h-47l1 -257h50v-122h-241v122z" />
    <glyph glyph-name="rho" unicode="&#x3c1;" horiz-adv-x="562" 
d="M246 -178h-195v564q0 19 5.5 39.5t19 37t36 27t55.5 10.5h235q24 0 44 -9.5t34.5 -24t22.5 -33t8 -36.5v-294q0 -19 -7.5 -37.5t-22 -33t-34.5 -23.5t-45 -9h-131l-70 72v-127h45v-123zM362 374h-161v-245h161v245z" />
    <glyph glyph-name="sigma1" unicode="&#x3c2;" horiz-adv-x="531" 
d="M464 501v-157h-132v41h-141v-70h192q24 0 43 -9t32.5 -23t20.5 -32t7 -37v-117q0 -18 -8.5 -35t-22.5 -31t-32.5 -22.5t-39.5 -8.5h-143l-63 64v-64h-133v156h133v-39h160v77h-187q-21 0 -41 9t-35 23.5t-24 33t-9 37.5v107q0 18 8.5 35.5t23.5 31t34.5 22t41.5 8.5h124
l59 -66v66h132z" />
    <glyph glyph-name="sigma" unicode="&#x3c3;" horiz-adv-x="589" 
d="M542 501v-125h-97l72 -71v-202q0 -19 -9 -37.5t-24.5 -33t-36.5 -23.5t-45 -9h-241q-24 0 -44 9t-35 23.5t-23 33t-8 37.5v295q0 19 8.5 37.5t23.5 33t35 23.5t43 9h381zM200 127h168v247h-168v-247z" />
    <glyph glyph-name="tau" unicode="&#x3c4;" horiz-adv-x="463" 
d="M225 0q-35 0 -58.5 11t-38 28.5t-21 40t-6.5 45.5v253h-95v121h388v-121h-144v-255h104v64h90v-90q0 -17 -8 -34t-22.5 -31t-34.5 -23t-44 -9h-110z" />
    <glyph glyph-name="upsilon" unicode="&#x3c5;" horiz-adv-x="614" 
d="M540 103q0 -19 -9 -37.5t-24.5 -33t-36 -23.5t-44.5 -9h-239q-24 0 -44 9t-34.5 23.5t-22.5 33t-8 37.5v275h-48v122h240v-122h-44v-251h165v251h-48v122h241v-122h-44v-275z" />
    <glyph glyph-name="phi" unicode="&#x3c6;" horiz-adv-x="760" 
d="M497 -178h-240v123h48v55h-145q-26 0 -46.5 9t-34.5 23.5t-21 33t-7 38.5v293q0 17 7.5 35t21.5 33t34 25t46 10h82v-124h-45v-249h108v260l89 113h206q26 0 46.5 -10t34 -25t20.5 -33.5t7 -35.5v-292q0 -19 -7.5 -37.5t-21.5 -33.5t-34.5 -24t-46.5 -9h-144v-55h43v-123
zM563 376h-109v-249h109v249z" />
    <glyph glyph-name="chi" unicode="&#x3c7;" horiz-adv-x="564" 
d="M272 0v120h38l-65 71l-58 -71h33v-120h-209v120h47l116 140l-114 123h-43v117h277v-117h-38l64 -72l60 72h-37v117h205v-117h-39l-118 -138l115 -125h46v-120h-280z" />
    <glyph glyph-name="psi" unicode="&#x3c8;" horiz-adv-x="807" 
d="M284 501h241v-123h-46v-251h109v374h189v-123h-44v-274q0 -19 -7.5 -37.5t-21.5 -33.5t-34.5 -24t-46.5 -9h-144v-55h44v-123h-240v123h48v55h-145q-26 0 -46.5 9t-34.5 23.5t-21 33t-7 38.5v274h-47v123h192v-374h109v251h-47v123z" />
    <glyph glyph-name="omega" unicode="&#x3c9;" horiz-adv-x="809" 
d="M463 0l-61 65l-58 -65h-185q-27 0 -47 9t-33.5 23t-20.5 32.5t-7 38.5v293q0 20 8.5 39t23 33.5t34 23.5t42.5 9h81v-127h-42v-245h138v228h137v-228h139v245h-43v127h82q24 0 43.5 -9t33.5 -23.5t21.5 -32.5t7.5 -37v-296q0 -19 -7.5 -37.5t-21.5 -33t-34.5 -23.5
t-45.5 -9h-185z" />
    <glyph glyph-name="iotadieresis" unicode="&#x3ca;" horiz-adv-x="345" 
d="M244 122h51v-122h-247v122h47v257h-47v122h196v-379zM-32 636q0 32 22.5 54.5t54.5 22.5t54.5 -22.5t22.5 -54.5t-22.5 -54.5t-54.5 -22.5t-54.5 22.5t-22.5 54.5zM185 636q0 32 23 54.5t55 22.5t54 -22.5t22 -54.5t-22 -54.5t-54 -22.5t-55 22.5t-23 54.5z" />
    <glyph glyph-name="upsilondieresis" unicode="&#x3cb;" horiz-adv-x="614" 
d="M540 103q0 -19 -9 -37.5t-24.5 -33t-36 -23.5t-44.5 -9h-239q-24 0 -44 9t-34.5 23.5t-22.5 33t-8 37.5v275h-48v122h240v-122h-44v-251h165v251h-48v122h241v-122h-44v-275zM122 636q0 32 22.5 54.5t54.5 22.5t54.5 -22.5t22.5 -54.5t-22.5 -54.5t-54.5 -22.5
t-54.5 22.5t-22.5 54.5zM339 636q0 32 23 54.5t55 22.5t54 -22.5t22 -54.5t-22 -54.5t-54 -22.5t-55 22.5t-23 54.5z" />
    <glyph glyph-name="omicrontonos" unicode="&#x3cc;" horiz-adv-x="568" 
d="M517 103q0 -18 -9 -36.5t-24.5 -33.5t-36.5 -24t-45 -9h-241q-24 0 -44 9t-35 23.5t-23 33t-8 37.5v295q0 19 8.5 37.5t23.5 33t35 23.5t43 9h247q25 0 45 -9t34 -23.5t22 -33t8 -37.5v-295zM200 127h168v247h-168v-247zM220 583l108 201l107 -67l-136 -178z" />
    <glyph glyph-name="upsilontonos" unicode="&#x3cd;" horiz-adv-x="614" 
d="M540 103q0 -19 -9 -37.5t-24.5 -33t-36 -23.5t-44.5 -9h-239q-24 0 -44 9t-34.5 23.5t-22.5 33t-8 37.5v275h-48v122h240v-122h-44v-251h165v251h-48v122h241v-122h-44v-275zM237 583l108 201l107 -67l-136 -178z" />
    <glyph glyph-name="omegatonos" unicode="&#x3ce;" horiz-adv-x="809" 
d="M463 0l-61 65l-58 -65h-185q-27 0 -47 9t-33.5 23t-20.5 32.5t-7 38.5v293q0 20 8.5 39t23 33.5t34 23.5t42.5 9h81v-127h-42v-245h138v228h137v-228h139v245h-43v127h82q24 0 43.5 -9t33.5 -23.5t21.5 -32.5t7.5 -37v-296q0 -19 -7.5 -37.5t-21.5 -33t-34.5 -23.5
t-45.5 -9h-185zM344 583l108 201l107 -67l-136 -178z" />
    <glyph glyph-name="afii10023" unicode="&#x401;" horiz-adv-x="636" 
d="M41 134h53v441h-54v133h546v-229h-135v96h-200v-140h221v-125h-221v-175h215v131h136v-266h-561v134zM135 813q0 32 23.5 55t55.5 23q16 0 30 -6t24.5 -16.5t17 -25t6.5 -30.5t-6.5 -30.5t-17 -25t-24.5 -16.5t-30 -6q-32 0 -55.5 23t-23.5 55zM356 813q0 32 23.5 55
t55.5 23q16 0 30 -6t24.5 -16.5t16.5 -25t6 -30.5t-6 -30.5t-16.5 -25t-24.5 -16.5t-30 -6q-32 0 -55.5 23t-23.5 55z" />
    <glyph glyph-name="afii10051" unicode="&#x402;" horiz-adv-x="848" 
d="M535 575h-133v-164h280q27 0 49 -9.5t37.5 -24.5t24 -34.5t8.5 -39.5v-298q0 -20 -8 -40.5t-24 -37t-39 -26.5t-54 -10h-96v136h65l-1 252h-242v-147h69v-132h-295v132h68v443h-84v-85h-135v218h647v-218h-137v85z" />
    <glyph glyph-name="afii10052" unicode="&#x403;" horiz-adv-x="604" 
d="M330 0h-288v132h52v443h-53v133h546v-237h-136v104h-200v-443h79v-132zM230 805l188 129l61 -111l-204 -92z" />
    <glyph glyph-name="afii10053" unicode="&#x404;" horiz-adv-x="596" 
d="M218 435h220v-124h-220v-176h209v77h136v-103q0 -20 -11 -39.5t-28.5 -35t-39 -25t-42.5 -9.5h-265q-22 0 -42.5 9.5t-37 24.5t-26.5 34.5t-10 40.5v490q0 21 10 40.5t26 34.5t37 24.5t43 9.5h179l69 -73v73h126v-203h-126v68h-207v-138z" />
    <glyph glyph-name="afii10054" unicode="&#x405;" horiz-adv-x="613" 
d="M168 298q-22 0 -43 8.5t-37.5 23.5t-26.5 35t-10 42v192q0 20 9.5 39.5t25 35t37 25t45.5 9.5h165l70 -74v74h127v-196h-127v61h-196v-140h238q25 0 46.5 -8.5t37 -23.5t24 -35t8.5 -42v-214q0 -23 -10 -43t-26.5 -35t-37.5 -23.5t-42 -8.5h-195l-71 73v-73h-126v196h126
v-61h225v163h-236v0z" />
    <glyph glyph-name="afii10055" unicode="&#x406;" horiz-adv-x="431" 
d="M293 132h66v-132h-287v132h64v444h-65v132h288v-132h-66v-444z" />
    <glyph glyph-name="afii10056" unicode="&#x407;" horiz-adv-x="431" 
d="M293 132h66v-132h-287v132h64v444h-65v132h288v-132h-66v-444zM33 815q0 32 22.5 54.5t54.5 22.5t54.5 -22.5t22.5 -54.5t-22.5 -54.5t-54.5 -22.5t-54.5 22.5t-22.5 54.5zM250 815q0 32 23 54.5t55 22.5t54 -22.5t22 -54.5t-22 -54.5t-54 -22.5t-55 22.5t-23 54.5z" />
    <glyph glyph-name="afii10057" unicode="&#x408;" horiz-adv-x="590" 
d="M150 226v-91h182v440h-71v133h287v-133h-58v-466q0 -19 -9.5 -38.5t-25 -35t-36.5 -25.5t-44 -10h-248q-23 0 -44 9.5t-37 25t-25.5 35t-9.5 39.5v117h139z" />
    <glyph glyph-name="afii10058" unicode="&#x409;" horiz-adv-x="996" 
d="M337 555h-5l-137 -423h60v-132h-243v132h46l201 579h177l94 -267h307q24 0 45.5 -9.5t37.5 -25t25.5 -36t9.5 -42.5v-218q0 -23 -8.5 -43.5t-24 -36t-37 -24.5t-48.5 -9h-420v132h55zM795 315h-220l63 -180h157v180z" />
    <glyph glyph-name="afii10059" unicode="&#x40a;" horiz-adv-x="984" 
d="M394 576v132h260v-133h-60v-136h234q22 0 43.5 -8.5t38 -24t27 -36t10.5 -44.5v-213q0 -21 -10 -41t-27 -36t-38.5 -26t-43.5 -10h-434v132h42v177h-187v-177h41v-132h-248v132h54v443h-55v133h250v-133h-42v-137h187v138h-42zM787 309h-193v-168h193v168z" />
    <glyph glyph-name="afii10060" unicode="&#x40b;" horiz-adv-x="898" 
d="M535 575h-133v-156h281q59 0 89 -32.5t30 -77.5v-177h59v-132h-274v132h57v155h-242v-155h63v-132h-283v132h62v443h-84v-81h-135v214h647v-214h-137v81z" />
    <glyph glyph-name="afii10061" unicode="&#x40c;" horiz-adv-x="689" 
d="M384 708h271v-134h-66l-129 -130l161 -311h51v-133h-269v133h47l-102 200l-105 -105v-96h48v-132h-255v132h49v442h-50v134h255v-134h-47v-197l193 197h-52v134zM262 805l188 129l61 -111l-204 -92z" />
    <glyph glyph-name="afii10062" unicode="&#x40e;" horiz-adv-x="669" 
d="M642 707v-131h-50l-196 -444h73v-132h-315v132h110q8 17 15 33.5t14 33.5h-27l-193 377h-49v131h262v-131h-47l114 -231l5 -1l101 232h-51v131h234zM336 827q17 0 31 7.5t25 19.5t18 27.5t9 31.5h87q0 -30 -11 -61.5t-32 -57.5t-53 -42.5t-74 -16.5t-74 16.5t-53.5 42.5
t-32.5 57.5t-11 61.5h89q2 -16 8.5 -31.5t17 -27.5t25 -19.5t31.5 -7.5z" />
    <glyph glyph-name="afii10145" unicode="&#x40f;" horiz-adv-x="728" 
d="M41 708h262v-132h-55v-441h230v441h-54v132h262v-132h-54v-444h55v-132h-250v-163h-139v163h-257v132h55v444h-55v132z" />
    <glyph glyph-name="afii10017" unicode="&#x410;" horiz-adv-x="711" 
d="M458 203h-237l-24 -71h73v-132h-256v132h46l210 582h173l203 -582h47v-132h-290v132h78zM339 562l-80 -245h160l-75 245h-5z" />
    <glyph glyph-name="afii10018" unicode="&#x411;" horiz-adv-x="662" 
d="M460 310h-205v-175h205v175zM431 575h-176v-136h245q26 0 48 -9.5t37.5 -25t24.5 -36.5t9 -43v-212q0 -21 -8 -41t-23 -36t-37.5 -26t-50.5 -10h-459v132h55v444h-55v132h525v-204h-135v71z" />
    <glyph glyph-name="afii10019" unicode="&#x412;" horiz-adv-x="669" 
d="M40 0v132h54v444h-54v132h442q27 0 48.5 -10t36.5 -25.5t22.5 -35t7.5 -38.5v-118q0 -33 -13.5 -56.5t-45.5 -34.5q40 -10 56 -39.5t16 -59.5v-182q0 -20 -8.5 -39t-23.5 -35t-36 -25.5t-46 -9.5h-456zM251 135h198v184h-198v-184zM251 442h187v131h-187v-131z" />
    <glyph glyph-name="afii10020" unicode="&#x413;" horiz-adv-x="604" 
d="M330 0h-288v132h52v443h-53v133h546v-237h-136v104h-200v-443h79v-132z" />
    <glyph glyph-name="afii10021" unicode="&#x414;" horiz-adv-x="747" 
d="M366 550l-144 -415h275l-126 415h-5zM78 131l163 445h-52v132h285l192 -578h57l1 -273h-138v143h-428v-143h-138v274h58z" />
    <glyph glyph-name="afii10022" unicode="&#x415;" horiz-adv-x="636" 
d="M41 134h53v441h-54v133h546v-229h-135v96h-200v-140h221v-125h-221v-175h215v131h136v-266h-561v134z" />
    <glyph glyph-name="afii10024" unicode="&#x416;" horiz-adv-x="996" 
d="M781 461l140 -328h51v-133h-264v133h47l-89 214l-93 -96v-119h48v-132h-255v132h49v119l-89 92l-88 -210h47v-133h-264v133h52l137 325l-113 116h-66v134h265v-134h-52l171 -178v178h-50v134h255v-134h-47v-180l175 180h-55v134h264v-134h-66z" />
    <glyph glyph-name="afii10025" unicode="&#x417;" horiz-adv-x="568" 
d="M403 708q28 0 50 -9.5t37 -24.5t22.5 -34.5t7.5 -39.5v-129q0 -20 -12 -43.5t-45 -37.5q25 -8 47 -31t22 -65v-186q0 -18 -10 -37t-27.5 -35t-40.5 -26t-48 -10h-247q-37 0 -61 11.5t-38.5 29t-20.5 39t-6 41.5v57h140v-43h200v178h-225v125h213v135h-186v-42h-140v56
q0 20 6 41.5t20.5 39t39 29t61.5 11.5h241z" />
    <glyph glyph-name="afii10026" unicode="&#x418;" horiz-adv-x="760" 
d="M252 293q8 8 26.5 30t43 50.5t52 60.5t52 61t43 50.5t26.5 30.5h-39v132h259v-132h-54v-444h54v-132h-262v132h55v283h-5q-8 -8 -26.5 -30t-43 -50.5t-52 -60.5t-52 -61t-43.5 -51t-27 -30h45v-132h-263v132h55v444h-54v132h260v-132h-54v-283h4z" />
    <glyph glyph-name="afii10027" unicode="&#x419;" horiz-adv-x="760" 
d="M252 293q8 8 26.5 30t43 50.5t52 60.5t52 61t43 50.5t26.5 30.5h-39v132h259v-132h-54v-444h54v-132h-262v132h55v283h-5q-8 -8 -26.5 -30t-43 -50.5t-52 -60.5t-52 -61t-43.5 -51t-27 -30h45v-132h-263v132h55v444h-54v132h260v-132h-54v-283h4zM377 827q17 0 31 7.5
t25 19.5t18 27.5t9 31.5h87q0 -30 -11 -61.5t-32 -57.5t-53 -42.5t-74 -16.5t-74 16.5t-53.5 42.5t-32.5 57.5t-11 61.5h89q2 -16 8.5 -31.5t17 -27.5t25 -19.5t31.5 -7.5z" />
    <glyph glyph-name="afii10028" unicode="&#x41a;" horiz-adv-x="689" 
d="M384 708h271v-134h-66l-129 -130l161 -311h51v-133h-269v133h47l-102 200l-105 -105v-96h48v-132h-255v132h49v442h-50v134h255v-134h-47v-197l193 197h-52v134z" />
    <glyph glyph-name="afii10029" unicode="&#x41b;" horiz-adv-x="707" 
d="M344 560h-5l-142 -428h76v-132h-259v132h46l210 580h173l203 -580h47v-132h-287v132h75z" />
    <glyph glyph-name="afii10030" unicode="&#x41c;" horiz-adv-x="944" 
d="M481 226l161 482h261v-132h-53v-444h53v-132h-257v132h53v337h-5l-157 -469h-135l-175 472h-4v-340h53v-132h-235v132h53v444h-53v132h259l177 -482h4z" />
    <glyph glyph-name="afii10031" unicode="&#x41d;" horiz-adv-x="754" 
d="M312 132v-132h-270v132h57v444h-58v132h271v-132h-55v-150h237v150h-60v132h278v-132h-62v-444h62v-132h-278v132h60v171h-237v-171h55z" />
    <glyph glyph-name="afii10032" unicode="&#x41e;" horiz-adv-x="658" 
d="M61 599q0 20 10 39.5t26 35t37 25t43 9.5h305q22 0 43 -9.5t37 -25t25.5 -35t9.5 -39.5v-490q0 -19 -9.5 -38.5t-25 -35t-36.5 -25.5t-44 -10h-305q-21 0 -42 9.5t-37.5 25t-26.5 35t-10 39.5v490zM218 573v-438h222v438h-222z" />
    <glyph glyph-name="afii10033" unicode="&#x41f;" horiz-adv-x="748" 
d="M312 132v-132h-270v132h57v443h-58v133h665v-133h-62v-443h61v-132h-278v132h60v441h-230v-441h55z" />
    <glyph glyph-name="afii10034" unicode="&#x420;" horiz-adv-x="631" 
d="M95 576h-54v132h454q26 0 47 -9.5t36 -25t23.5 -35t8.5 -39.5v-216q0 -20 -8 -40.5t-23 -37t-36.5 -27.5t-47.5 -11h-242v-135h62v-132h-274v132h54v444zM253 573v-171h198v171h-198z" />
    <glyph glyph-name="afii10035" unicode="&#x421;" horiz-adv-x="596" 
d="M218 135h209v77h136v-103q0 -19 -11 -38.5t-28.5 -35t-39 -25.5t-42.5 -10h-265q-21 0 -41.5 9.5t-37 24.5t-27 34.5t-10.5 40.5v490q0 21 10 40.5t26.5 34.5t37.5 24.5t42 9.5h180l69 -73v73h126v-203h-126v68h-208v-438z" />
    <glyph glyph-name="afii10036" unicode="&#x422;" horiz-adv-x="665" 
d="M516 575h-105v-442h85v-133h-320v133h77v442h-105v-92h-137v225h642v-225h-137v92z" />
    <glyph glyph-name="afii10037" unicode="&#x423;" horiz-adv-x="669" 
d="M642 707v-131h-50l-196 -444h73v-132h-315v132h110q8 17 15 33.5t14 33.5h-27l-193 377h-49v131h262v-131h-47l114 -231l5 -1l101 232h-51v131h234z" />
    <glyph glyph-name="afii10038" unicode="&#x424;" horiz-adv-x="895" 
d="M303 133h64v76h-194q-22 0 -42.5 10t-36.5 25.5t-25.5 35.5t-9.5 40v277q0 20 8.5 40t24 35.5t36 25.5t44.5 10h553q25 0 46 -10t35.5 -25.5t22.5 -35.5t8 -40v-276q0 -23 -9 -43t-24 -35.5t-35.5 -24.5t-43.5 -9h-200v-76h65v-133h-287v133zM525 573v-229h155v229h-155z
M215 344h152v229h-152v-229z" />
    <glyph glyph-name="afii10039" unicode="&#x425;" horiz-adv-x="702" 
d="M389 444l90 132h-51v132h243v-132h-52l-157 -228l163 -216h55v-132h-300v132h48l-105 144l-97 -144h52v-132h-257v132h61l166 243l-148 201h-53v132h293v-132h-49z" />
    <glyph glyph-name="afii10040" unicode="&#x426;" horiz-adv-x="728" 
d="M41 0v133h55v443h-54v132h261v-132h-50v-441h221v441h-49v132h261v-132h-54v-443h55v-275h-138v142h-508z" />
    <glyph glyph-name="afii10041" unicode="&#x427;" horiz-adv-x="723" 
d="M76 576h-55v132h265v-132h-52v-195h236v195h-56v132h267v-132h-53v-444h53v-132h-266v132h55v112h-269q-31 0 -54.5 10t-39.5 25.5t-24 35.5t-8 40z" />
    <glyph glyph-name="afii10042" unicode="&#x428;" horiz-adv-x="951" 
d="M50 708h204v-573h142v441h-54v132h262v-132h-57v-441h147v573h207v-132h-55v-444h56v-132h-854v132h54v444h-52v132z" />
    <glyph glyph-name="afii10043" unicode="&#x429;" horiz-adv-x="951" 
d="M49 0v132h54v444h-52v132h203v-573h143v441h-54v132h261v-132h-56v-441h146l1 573h206l1 -132h-55v-443h56v-275h-139v142h-715z" />
    <glyph glyph-name="afii10044" unicode="&#x42a;" horiz-adv-x="832" 
d="M484 576h-55v-132h244q27 0 49.5 -9t38 -25t24.5 -36.5t9 -42.5v-218q0 -21 -8 -41t-23.5 -36t-37.5 -26t-50 -10h-459v132h55v443h-119v-102h-136v235h468v-132zM635 315h-206v-180h206v180z" />
    <glyph glyph-name="afii10045" unicode="&#x42b;" horiz-adv-x="1014" 
d="M460 315h-205v-180h205v180zM41 576v132h273v-132h-59v-132h244q27 0 49 -9t37.5 -25t24.5 -36.5t9 -42.5v-218q0 -21 -8 -41t-23 -36t-37 -26t-50 -10h-460v132h55v444h-55zM906 132h66v-132h-287v132h64v444h-64v132h287v-132h-66v-444z" />
    <glyph glyph-name="afii10046" unicode="&#x42c;" horiz-adv-x="667" 
d="M460 315h-205v-180h205v180zM41 576v132h273v-132h-59v-132h244q27 0 49 -9t37.5 -25t24.5 -36.5t9 -42.5v-218q0 -21 -8 -41t-23 -36t-37 -26t-50 -10h-460v132h55v444h-55z" />
    <glyph glyph-name="afii10047" unicode="&#x42d;" horiz-adv-x="596" 
d="M387 573h-207v-68h-126v203h126v-73l69 73h179q26 0 47.5 -9.5t36.5 -24.5t23 -34.5t8 -40.5v-490q0 -21 -10 -40.5t-26 -34.5t-36.5 -24.5t-42.5 -9.5h-265q-27 0 -49.5 10t-38.5 25.5t-24.5 35t-8.5 38.5v103h136v-77h209v175h-220v124h220v139z" />
    <glyph glyph-name="afii10048" unicode="&#x42e;" horiz-adv-x="1009" 
d="M413 303h-152v-171h55v-132h-269v132h57v443h-57v133h270v-133h-56v-149h152v173q0 20 9.5 39.5t25.5 35t37 25t43 9.5h297q23 0 44 -9.5t36.5 -25t25 -35t9.5 -39.5v-490q0 -19 -9.5 -38.5t-25 -35t-36.5 -25.5t-44 -10h-297q-21 0 -42 9.5t-37 25t-26 35t-10 39.5v194z
M569 573v-438h215v438h-215z" />
    <glyph glyph-name="afii10049" unicode="&#x42f;" horiz-adv-x="656" 
d="M204 0h-180v129h84l87 165h-31q-29 0 -49.5 9t-34 24t-19.5 34t-6 40v198q0 20 7.5 39.5t22 35t36 25t49.5 9.5h446v-132h-53v-444h53v-132h-265v132h53v162h-45zM214 573v-147h190v147h-190z" />
    <glyph glyph-name="afii10065" unicode="&#x430;" horiz-adv-x="597" 
d="M149 0q-25 0 -45 8.5t-33.5 22.5t-21 31.5t-7.5 34.5v87q0 19 6.5 38.5t20 35.5t34 26t49.5 10h202v78h-152v-41h-130v45q0 18 7 40t22 40.5t39 31.5t58 13h162q47 0 75 -13t43 -33t20 -44t5 -45v-243h24v32h57v-56q0 -41 -22 -70.5t-68 -29.5h-48q-33 0 -57 16.5
t-33 48.5l-64 -64h-143zM354 211h-165v-88h165v88z" />
    <glyph glyph-name="afii10066" unicode="&#x431;" horiz-adv-x="572" 
d="M520 104q0 -19 -8 -37.5t-22.5 -33.5t-34 -24t-43.5 -9h-244q-24 0 -45.5 9t-37 24t-24.5 33.5t-9 37.5l-1 471q0 22 4 41t15.5 34t31 26t50.5 17l299 52l23 -124l-278 -46v-174l69 72h149q25 0 44.5 -9.5t33 -24.5t21 -33.5t7.5 -36.5v-265zM372 347h-176v-220h176v220z
" />
    <glyph glyph-name="afii10069" unicode="&#x434;" horiz-adv-x="629" 
d="M78 118l110 261h-43v122h270l131 -383h50v-236h-133v118h-302v-118h-134v236h51zM305 356l-92 -238h172l-73 238h-7z" />
    <glyph glyph-name="afii10070" unicode="&#x435;" horiz-adv-x="545" 
d="M161 0q-23 0 -43 9t-35 23.5t-23.5 33t-8.5 37.5v281q0 19 8.5 39.5t24 37.5t38 28t50.5 11h198q34 0 57.5 -11.5t38 -28.5t21 -38.5t6.5 -40.5v-91q0 -42 -19 -57.5t-52 -15.5h-225v-90h162v48h136v-72q0 -18 -9 -36.5t-24.5 -33.5t-36.5 -24t-46 -9h-218zM197 307h149
v71h-149v-71z" />
    <glyph glyph-name="afii10074" unicode="&#x438;" horiz-adv-x="638" 
d="M605 378h-49v-257h49v-121h-240v121h51v156l-167 -157v-1h37v-119h-255v121h48v257h-47v123h233v-123h-47v-151l165 151h-36v123h258v-123z" />
    <glyph glyph-name="afii10075" unicode="&#x439;" horiz-adv-x="638" 
d="M605 378h-49v-257h49v-121h-240v121h51v156l-167 -157v-1h37v-119h-255v121h48v257h-47v123h233v-123h-47v-151l165 151h-36v123h258v-123zM315 643q17 0 31 7.5t25 19.5t17.5 27.5t8.5 31.5h88q0 -30 -11 -61.5t-32.5 -57t-53 -42t-73.5 -16.5t-74 16.5t-53.5 42
t-32.5 57t-11 61.5h88q2 -16 8.5 -31.5t17 -27.5t25 -19.5t32.5 -7.5z" />
    <glyph glyph-name="afii10076" unicode="&#x43a;" horiz-adv-x="593" 
d="M303 501h246v-119h-59l-64 -56l104 -204h35v-122h-229v122h40l-59 109l-88 -77v-32h40v-122h-234v122h46v257h-51v122h199v-216l112 97h-38v119z" />
    <glyph glyph-name="afii10077" unicode="&#x43b;" horiz-adv-x="601" 
d="M385 503l152 -382h42v-121h-256v121h55l-91 240h-4l-93 -240h53v-121h-228v121h42q39 96 78.5 190.5t78.5 191.5h171z" />
    <glyph glyph-name="afii10080" unicode="&#x43e;" horiz-adv-x="568" 
d="M517 103q0 -18 -9 -36.5t-24.5 -33.5t-36.5 -24t-45 -9h-241q-24 0 -44 9t-35 23.5t-23 33t-8 37.5v295q0 19 8.5 37.5t23.5 33t35 23.5t43 9h247q25 0 45 -9t34 -23.5t22 -33t8 -37.5v-295zM197 127h174v247h-174v-247z" />
    <glyph glyph-name="afii10081" unicode="&#x43f;" horiz-adv-x="621" 
d="M347 122h42v250h-161v-250h47v-122h-244v122h49v257h-49v122h553v-122h-47l1 -257h50v-122h-241v122z" />
    <glyph glyph-name="afii10082" unicode="&#x440;" horiz-adv-x="589" 
d="M271 -178h-240v123h48v434h-47v121h196v-71l70 71h130q24 0 44.5 -9.5t34.5 -24t22 -33t8 -36.5v-294q0 -19 -7.5 -37.5t-21.5 -33t-34.5 -23.5t-45.5 -9h-130l-70 72v-127h43v-123zM389 374h-161v-245h161v245z" />
    <glyph glyph-name="afii10083" unicode="&#x441;" horiz-adv-x="519" 
d="M51 401q0 18 8.5 36t23.5 32t34.5 23t41.5 9h117l68 -71v71h132v-173h-132v44h-144v-246h148v56h139v-79q0 -18 -7 -36.5t-21 -33t-34.5 -24t-47.5 -9.5h-216q-25 0 -45 9t-34.5 23.5t-22.5 33t-8 37.5v298z" />
    <glyph glyph-name="afii10085" unicode="&#x443;" horiz-adv-x="557" 
d="M293 157l77 221h-40v123h216v-123h-41l-164 -436h52l-1 -120h-263v120h81l30 82h-44l-138 354h-41v123h223v-123h-33l80 -221h6z" />
    <glyph glyph-name="afii10086" unicode="&#x444;" horiz-adv-x="763" 
d="M564 378h-108v-258h108v258zM199 120h108v258h-108v-258zM307 63l-62 -63h-85q-26 0 -46.5 9t-34.5 23.5t-21 33t-7 38.5v293q0 17 7.5 35t21.5 33t34 25t46 10h86l61 -63v166h-42v123h191v-289l62 63h85q26 0 46.5 -10t34.5 -25t21 -33t7 -35v-293q0 -19 -7.5 -37.5
t-21.5 -33.5t-34.5 -24t-46.5 -9h-84l-62 63v-118h42v-123h-235v123h44v118z" />
    <glyph glyph-name="afii10087" unicode="&#x445;" horiz-adv-x="564" 
d="M273 0v120h37l-65 71l-58 -71h34v-120h-210v120h47l116 140l-114 123h-43v118h276v-118h-37l64 -72l60 72h-38v118h206v-118h-39l-118 -138l115 -125h46v-120h-279z" />
    <glyph glyph-name="afii10090" unicode="&#x448;" horiz-adv-x="868" 
d="M31 0v123h50v254h-48v124h196v-377h128v253h-33v124h219v-124h-38v-253h132v377h199v-124h-51v-254h51v-123h-805z" />
    <glyph glyph-name="afii10071" unicode="&#x451;" horiz-adv-x="545" 
d="M161 0q-23 0 -43 9t-35 23.5t-23.5 33t-8.5 37.5v281q0 19 8.5 39.5t24 37.5t38 28t50.5 11h198q34 0 57.5 -11.5t38 -28.5t21 -38.5t6.5 -40.5v-91q0 -42 -19 -57.5t-52 -15.5h-225v-90h162v48h136v-72q0 -18 -9 -36.5t-24.5 -33.5t-36.5 -24t-46 -9h-218zM197 307h149
v71h-149v-71zM86 643q0 32 22.5 54.5t54.5 22.5t54.5 -22.5t22.5 -54.5t-22.5 -54.5t-54.5 -22.5t-54.5 22.5t-22.5 54.5zM303 643q0 32 23 54.5t55 22.5t54 -22.5t22 -54.5t-22 -54.5t-54 -22.5t-55 22.5t-23 54.5z" />
    <glyph glyph-name="afii10099" unicode="&#x452;" horiz-adv-x="614" 
d="M353 -121v123h57v302h-173v-181h47v-123h-243v123h48v353h-48v81h48v48h-48v123l196 1v-172h169v-81h-169v-115l70 72h142q26 0 46 -9t34 -23.5t21.5 -33t7.5 -37.5v-348q0 -20 -7 -38.5t-20 -32.5t-32.5 -23t-44.5 -9h-101z" />
    <glyph glyph-name="afii10102" unicode="&#x455;" horiz-adv-x="531" 
d="M464 501v-157h-132v41h-141v-70h192q24 0 43 -9t32.5 -23t20.5 -32t7 -37v-117q0 -18 -8.5 -35t-22.5 -31t-32.5 -22.5t-39.5 -8.5h-143l-63 64v-64h-133v156h133v-39h160v77h-187q-21 0 -41 9t-35 23.5t-24 33t-9 37.5v107q0 18 8.5 35.5t23.5 31t34.5 22t41.5 8.5h124
l59 -66v66h132z" />
    <glyph glyph-name="afii10103" unicode="&#x456;" horiz-adv-x="345" 
d="M244 123h51v-123h-247v123h47v255h-47v123h196v-378zM70 635q0 38 26.5 64.5t64.5 26.5q37 0 63.5 -26.5t26.5 -64.5t-26.5 -64t-63.5 -26q-38 0 -64.5 26t-26.5 64z" />
    <glyph glyph-name="afii10104" unicode="&#x457;" horiz-adv-x="345" 
d="M244 123h51v-123h-247v123h47v254h-47v124h196v-378zM-33 636q0 32 22.5 54.5t54.5 22.5t54.5 -22.5t22.5 -54.5t-22.5 -54.5t-54.5 -22.5t-54.5 22.5t-22.5 54.5zM184 636q0 32 23 54.5t55 22.5t54 -22.5t22 -54.5t-22 -54.5t-54 -22.5t-55 22.5t-23 54.5z" />
    <glyph glyph-name="afii10105" unicode="&#x458;" horiz-adv-x="313" 
d="M67 635q0 38 26.5 64.5t64.5 26.5t64 -26.5t26 -64.5t-26 -64t-64 -26t-64.5 26t-26.5 64zM92 378h-47v123h196v-545q0 -66 -33 -100t-95 -34h-128v124h107v432z" />
    <glyph glyph-name="afii10106" unicode="&#x459;" horiz-adv-x="857" 
d="M282 359l-91 -238h46v-121h-222v121h42l158 382h167l86 -214l69 70h159q27 0 47 -9t34 -23.5t21 -33t7 -37.5v-153q0 -18 -7.5 -36.5t-22 -33t-34.5 -24t-45 -9.5h-209q-24 0 -41 9t-29 23t-20 32t-15 36l-94 259h-6zM657 231h-165l41 -105h124v105z" />
    <glyph glyph-name="afii10107" unicode="&#x45a;" horiz-adv-x="879" 
d="M322 0v122h44v93h-145v-92h34v-123h-222v123h42v255h-44v123h225v-123h-35v-60h145v60h-45v123h235v-123h-42v-60h207q28 0 49 -9t34.5 -23.5t20 -33t6.5 -37.5v-112q0 -18 -7.5 -36.5t-21.5 -33t-34.5 -24t-46.5 -9.5h-137l-70 73v-73h-192zM682 215h-168v-88h168v88z
" />
    <glyph glyph-name="afii10108" unicode="&#x45b;" horiz-adv-x="617" 
d="M32 557h48v48h-48v123l197 1v-172h162v-72h-162v-122l70 72h130q25 0 45.5 -9t34.5 -23.5t21.5 -33t7.5 -37.5v-210h52v-122h-240v122h40v184h-161v-184h47v-122h-244v122h48v363h-48v72z" />
    <glyph glyph-name="afii10109" unicode="&#x45c;" horiz-adv-x="593" 
d="M303 501h246v-119h-59l-64 -56l104 -204h35v-122h-229v122h40l-59 109l-88 -77v-32h40v-122h-234v122h46v257h-51v122h199v-216l112 97h-38v119zM217 583l108 201l107 -67l-135 -178z" />
    <glyph glyph-name="afii10110" unicode="&#x45e;" horiz-adv-x="557" 
d="M293 157l77 221h-40v123h216v-123h-41l-164 -436h52l-1 -120h-263v120h81l30 82h-44l-138 354h-41v123h223v-123h-33l80 -221h6zM289 643q17 0 31 7.5t25 19.5t17.5 27.5t8.5 31.5h88q0 -30 -11 -61.5t-32.5 -57t-53 -42t-73.5 -16.5t-74 16.5t-53.5 42t-32.5 57
t-11 61.5h88q2 -16 8.5 -31.5t17 -27.5t25 -19.5t32.5 -7.5z" />
    <glyph glyph-name="afii10193" unicode="&#x45f;" horiz-adv-x="624" 
d="M31 0v123h50v255h-48v123h237v-123h-40v-251h161v251h-41v123h241v-123h-50v-256h50v-122h-212v-144h-135v144h-213z" />
    <glyph glyph-name="afii10050" unicode="&#x490;" horiz-adv-x="604" 
d="M330 0h-288v133h52v442h-53v133h419v109h127v-242h-336v-442h79v-133z" />
    <glyph glyph-name="afii10098" unicode="&#x491;" horiz-adv-x="503" 
d="M292 0h-257v122h43v257h-43v122h331v95h124v-218h-262v-256h64v-122z" />
    <glyph glyph-name="schwacyrillic" unicode="&#x4d9;" horiz-adv-x="545" 
d="M104 428l120 72h160q23 0 43 -9t34.5 -23.5t23 -33t8.5 -37.5v-270q0 -20 -6.5 -42t-20.5 -41t-37 -31.5t-56 -12.5h-211q-33 0 -54 9.5t-33.5 24t-17.5 32t-5 33.5v111q0 42 19 57.5t52 15.5h222v89h-242zM345 193h-146v-69h146v69z" />
    <glyph glyph-name="Wgrave" unicode="&#x1e80;" horiz-adv-x="985" 
d="M497 272l-77 -278h-180l-178 582h-43v133h278v-133h-75l117 -409h6l91 319l-26 90h-56v133h286v-133h-73l119 -408h6l105 408h-72v133h243v-133h-42l-159 -582h-180l-85 278h-5zM510 775l-205 92l61 111l188 -129z" />
    <glyph glyph-name="wgrave" unicode="&#x1e81;" horiz-adv-x="835" 
d="M593 136l79 242h-49v123h200v-123h-34l-127 -383h-176l-60 166l-12 -23l-49 -143h-177q-36 96 -71 191t-71 192h-34q0 31 -0.5 61.5t-0.5 61.5h248v-123h-55l86 -247h6l64 189q-5 14 -10 29t-10 29h-27v123h238v-123h-49l84 -242h7zM408 536l-136 178l108 67l108 -201z
" />
    <glyph glyph-name="Wacute" unicode="&#x1e82;" horiz-adv-x="985" 
d="M497 272l-77 -278h-180l-178 582h-43v133h278v-133h-75l117 -409h6l91 319l-26 90h-56v133h286v-133h-73l119 -408h6l105 408h-72v133h243v-133h-42l-159 -582h-180l-85 278h-5zM446 857l188 129l61 -111l-204 -92z" />
    <glyph glyph-name="wacute" unicode="&#x1e83;" horiz-adv-x="835" 
d="M593 136l79 242h-49v123h200v-123h-34l-127 -383h-176l-60 166l-12 -23l-49 -143h-177q-36 96 -71 191t-71 192h-34q0 31 -0.5 61.5t-0.5 61.5h248v-123h-55l86 -247h6l64 189q-5 14 -10 29t-10 29h-27v123h238v-123h-49l84 -242h7zM377 583l108 201l107 -67l-135 -178z
" />
    <glyph glyph-name="Wdieresis" unicode="&#x1e84;" horiz-adv-x="985" 
d="M497 272l-77 -278h-180l-178 582h-43v133h278v-133h-75l117 -409h6l91 319l-26 90h-56v133h286v-133h-73l119 -408h6l105 408h-72v133h243v-133h-42l-159 -582h-180l-85 278h-5zM307 815q0 32 23.5 55t55.5 23q16 0 30 -6t24.5 -16.5t17 -25t6.5 -30.5t-6.5 -30.5
t-17 -25t-24.5 -16.5t-30 -6q-32 0 -55.5 23t-23.5 55zM528 815q0 32 23.5 55t55.5 23q16 0 30 -6t24.5 -16.5t16.5 -25t6 -30.5t-6 -30.5t-16.5 -25t-24.5 -16.5t-30 -6q-32 0 -55.5 23t-23.5 55z" />
    <glyph glyph-name="wdieresis" unicode="&#x1e85;" horiz-adv-x="835" 
d="M593 136l79 242h-49v123h200v-123h-34l-127 -383h-176l-60 166l-12 -23l-49 -143h-177q-36 96 -71 191t-71 192h-34q0 31 -0.5 61.5t-0.5 61.5h248v-123h-55l86 -247h6l64 189q-5 14 -10 29t-10 29h-27v123h238v-123h-49l84 -242h7zM242 636q0 32 22.5 54.5t54.5 22.5
t54.5 -22.5t22.5 -54.5t-22.5 -54.5t-54.5 -22.5t-54.5 22.5t-22.5 54.5zM459 636q0 32 23 54.5t55 22.5t54 -22.5t22 -54.5t-22 -54.5t-54 -22.5t-55 22.5t-23 54.5z" />
    <glyph glyph-name="Ygrave" unicode="&#x1ef2;" horiz-adv-x="660" 
d="M21 576v133h272v-133h-68l126 -200l119 200h-74v133h253v-133h-42l-183 -301v-143h65v-132h-286v132h64v127l-206 317h-40zM359 748l-205 92l61 111l188 -129z" />
    <glyph glyph-name="ygrave" unicode="&#x1ef3;" horiz-adv-x="557" 
d="M293 157l77 221h-40v123h216v-123h-41l-164 -436h52l-1 -120h-263v120h81l30 82h-44l-138 354h-41v123h223v-123h-33l80 -221h6zM263 539l-136 178l108 67l108 -201z" />
    <glyph glyph-name="afii00208" unicode="&#x2015;" horiz-adv-x="1000" 
d="M40 301h920v-88h-920v88z" />
    <glyph glyph-name="dong" unicode="&#x20ab;" horiz-adv-x="590" 
d="M292 717h186v-139h61v-67h-61v-277h39v-113h-182v49l-50 -49h-124q-21 0 -39 8.5t-30.5 21.5t-19.5 29.5t-7 32.5v172q0 17 6.5 33.5t19 29t30.5 20.5t40 8h124l50 -50v85h-130v67h130v35h-43v104zM71 84h446v-84h-446v84zM213 239h122v120h-122v-120z" />
    <glyph glyph-name="afii61352" unicode="&#x2116;" horiz-adv-x="1073" 
d="M716 309h309v-88h-309v88zM487 272v302h-50v132h220v-132h-53v-579h-134l-262 462h-4v-325h49v-132h-212v132h50v442h-50v132h190l251 -434h5zM1031 447q0 -13 -6.5 -26.5t-17.5 -24t-26.5 -17t-33.5 -6.5h-165q-36 0 -57.5 23t-21.5 51v187q0 27 22 50t57 23h170
q37 0 58 -23t21 -50v-187zM817 470h99v141h-99v-141z" />
    <glyph glyph-name="published" unicode="&#x2117;" horiz-adv-x="809" 
d="M284 467h-31v85h263q32 0 51 -21t19 -46v-131q0 -12 -5 -25t-14 -23.5t-22 -17t-29 -6.5h-133v-65h36v-85h-166v85h31v250zM383 465v-95h103v95h-103zM771 351q0 -82 -30 -148t-80.5 -112.5t-117 -72t-139.5 -25.5t-139 25.5t-116.5 72t-80.5 112.5t-30 148q0 81 30 147
t80.5 112.5t116.5 72t139 25.5t139.5 -25.5t117 -72t80.5 -112.5t30 -147zM690 351q0 63 -23 115.5t-62 90t-91 58.5t-110 21q-59 0 -111 -21t-91 -58.5t-61.5 -90t-22.5 -115.5t22.5 -116t61.5 -91t91 -59t111 -21q58 0 110 19.5t91 56.5t62 90.5t23 120.5z" />
    <glyph glyph-name="minus" unicode="&#x2212;" 
d="M59 348h473v-104h-473v104z" />
    <glyph glyph-name="approxequal" unicode="&#x2248;" 
d="M550 404q-12 -19 -29.5 -37.5t-38 -33t-43.5 -23.5t-45 -9q-29 0 -54.5 10t-49.5 21.5t-47.5 21.5t-48.5 10q-20 0 -42.5 -13.5t-43.5 -39.5l-67 62q10 17 26 35t35.5 32.5t42.5 23.5t47 9q28 0 53.5 -9.5t49.5 -20.5t47.5 -20.5t47.5 -9.5q29 0 47.5 13t41.5 40z
M550 202q-12 -19 -29.5 -37.5t-38 -33t-43.5 -23.5t-45 -9q-29 0 -54.5 10t-49.5 21.5t-47.5 21.5t-48.5 10q-20 0 -42.5 -13.5t-43.5 -39.5l-67 61q10 17 26 35t35.5 32.5t42.5 23.5t47 9q28 0 53.5 -9.5t49.5 -20.5t47.5 -20.5t47.5 -9.5q29 0 47.5 13t41.5 41z" />
    <glyph glyph-name="notequal" unicode="&#x2260;" 
d="M532 517l-70 -79h70v-99h-155l-88 -101h243v-98h-329l-105 -121l-40 36l74 85h-74v98h160l88 101h-248v99h334l100 114z" />
    <glyph glyph-name="lessequal" unicode="&#x2264;" 
d="M58 99h474v-99h-474v99zM534 453l-347 -121l347 -127l-34 -92l-443 172v92l442 169z" />
    <glyph glyph-name="greaterequal" unicode="&#x2265;" 
d="M533 0h-474v99h474v-99zM92 546l442 -169v-92l-443 -172l-34 92l346 127l-346 121z" />
    <glyph glyph-name="slashedzero" unicode="&#xe23f;" horiz-adv-x="589" 
d="M50 602q0 20 8.5 39t24 34t36.5 24t45 9h261q26 0 47 -9.5t35.5 -24.5t22.5 -34t8 -38v-495q0 -19 -8.5 -38t-23.5 -34.5t-36 -25t-47 -9.5h-259q-25 0 -46 9.5t-36 24.5t-23.5 34t-8.5 39v495zM199 193l166 388h-166v-388zM389 127v360l-155 -360h155z" />
    <glyph glyph-name="Scaron" unicode="&#x160;" horiz-adv-x="613" 
d="M168 298q-22 0 -43 8.5t-37.5 23.5t-26.5 35t-10 42v192q0 20 9.5 39.5t25 35t37 25t45.5 9.5h165l70 -74v74h127v-196h-127v61h-196v-140h238q25 0 46.5 -8.5t37 -23.5t24 -35t8.5 -42v-214q0 -23 -10 -43t-26.5 -35t-37.5 -23.5t-42 -8.5h-195l-71 73v-73h-126v196h126
v-61h225v163h-236zM453 933l39 -53l-177 -147h-43l-175 148l35 52l160 -79z" />
    <glyph glyph-name="Zcaron" unicode="&#x17d;" horiz-adv-x="584" 
d="M206 133h230v83h126v-216h-541v133l338 442h-184v-66h-127v199h499v-129zM480 933l39 -53l-177 -147h-43l-175 148l35 52l160 -79z" />
    <glyph glyph-name="scaron" unicode="&#x161;" horiz-adv-x="531" 
d="M464 501v-157h-132v41h-141v-70h192q24 0 43 -9t32.5 -23t20.5 -32t7 -37v-117q0 -18 -8.5 -35t-22.5 -31t-32.5 -22.5t-39.5 -8.5h-143l-63 64v-64h-133v156h133v-39h160v77h-187q-21 0 -41 9t-35 23.5t-24 33t-9 37.5v107q0 18 8.5 35.5t23.5 31t34.5 22t41.5 8.5h124
l59 -66v66h132zM406 774l50 -56l-171 -166h-43l-174 167l51 56l142 -99z" />
    <glyph glyph-name="zcaron" unicode="&#x17e;" horiz-adv-x="519" 
d="M207 127h142v61h132v-188h-450v127l262 248h-116v-46h-132v172h427v-122zM406 774l50 -56l-171 -166h-43l-174 167l51 56l142 -99z" />
    <glyph glyph-name="Ydieresis" unicode="&#x178;" horiz-adv-x="660" 
d="M21 576v133h272v-133h-68l126 -200l119 200h-74v133h253v-133h-42l-183 -301v-143h65v-132h-286v132h64v127l-206 317h-40zM158 813q0 32 23.5 55t55.5 23q16 0 30 -6t24.5 -16.5t17 -25t6.5 -30.5t-6.5 -30.5t-17 -25t-24.5 -16.5t-30 -6q-32 0 -55.5 23t-23.5 55z
M379 813q0 32 23.5 55t55.5 23q16 0 30 -6t24.5 -16.5t16.5 -25t6 -30.5t-6 -30.5t-16.5 -25t-24.5 -16.5t-30 -6q-32 0 -55.5 23t-23.5 55z" />
    <glyph glyph-name="Agrave" unicode="&#xc0;" horiz-adv-x="711" 
d="M458 203h-237l-24 -71h73v-132h-256v132h46l210 582h173l203 -582h47v-132h-290v132h78zM339 562l-80 -245h160l-75 245h-5zM369 742l-205 92l61 111l188 -129z" />
    <glyph glyph-name="Aacute" unicode="&#xc1;" horiz-adv-x="711" 
d="M458 203h-237l-24 -71h73v-132h-256v132h46l210 582h173l203 -582h47v-132h-290v132h78zM339 562l-80 -245h160l-75 245h-5zM304 809l188 129l61 -111l-204 -92z" />
    <glyph glyph-name="Acircumflex" unicode="&#xc2;" horiz-adv-x="711" 
d="M458 203h-237l-24 -71h73v-132h-256v132h46l210 582h173l203 -582h47v-132h-290v132h78zM339 562l-80 -245h160l-75 245h-5zM354 805l-159 -79l-35 52l175 148h42l178 -147l-40 -53z" />
    <glyph glyph-name="Atilde" unicode="&#xc3;" horiz-adv-x="711" 
d="M458 203h-237l-24 -71h73v-132h-256v132h46l210 582h173l203 -582h47v-132h-290v132h78zM423 748q-22 0 -40 5.5t-34.5 12.5t-32 12.5t-31.5 5.5q-20 0 -34.5 -13t-27.5 -27q-3 2 -12.5 8t-20 13t-20 13t-12.5 8q4 10 14 27t25 33t36 28t48 12q22 0 40 -6.5t34 -14
t30.5 -14t29.5 -6.5q20 0 35 12t30 27l65 -46q-6 -12 -16 -27.5t-25.5 -29.5t-35.5 -23.5t-45 -9.5zM339 562l-80 -245h160l-75 245h-5z" />
    <glyph glyph-name="Adieresis" unicode="&#xc4;" horiz-adv-x="711" 
d="M458 203h-237l-24 -71h73v-132h-256v132h46l210 582h173l203 -582h47v-132h-290v132h78zM339 562l-80 -245h160l-75 245h-5zM160 815q0 32 23.5 55t55.5 23q16 0 30 -6t24.5 -16.5t17 -25t6.5 -30.5t-6.5 -30.5t-17 -25t-24.5 -16.5t-30 -6q-32 0 -55.5 23t-23.5 55z
M381 815q0 32 23.5 55t55.5 23q16 0 30 -6t24.5 -16.5t16.5 -25t6 -30.5t-6 -30.5t-16.5 -25t-24.5 -16.5t-30 -6q-32 0 -55.5 23t-23.5 55z" />
    <glyph glyph-name="Aring" unicode="&#xc5;" horiz-adv-x="711" 
d="M458 203h-237l-24 -71h73v-132h-256v132h46l210 582h173l203 -582h47v-132h-290v132h78zM339 562l-80 -245h160l-75 245h-5zM354 747q-25 0 -46.5 9t-37.5 24.5t-25 36.5t-9 45q0 23 9 44t25 36.5t37.5 25t46.5 9.5t46 -9t37 -25t25 -36.5t9 -44.5t-9.5 -45t-25 -36.5
t-37 -24.5t-45.5 -9zM354 909q-20 0 -33.5 -13.5t-13.5 -33.5t13.5 -34.5t33.5 -14.5q19 0 32.5 14.5t13.5 34.5q0 19 -13.5 33t-32.5 14z" />
    <glyph glyph-name="Egrave" unicode="&#xc8;" horiz-adv-x="636" 
d="M41 134h53v441h-54v133h546v-229h-135v96h-200v-140h221v-125h-221v-175h215v131h136v-266h-561v134zM368 738l-205 92l61 111l188 -129z" />
    <glyph glyph-name="Eacute" unicode="&#xc9;" horiz-adv-x="636" 
d="M41 134h53v441h-54v133h546v-229h-135v96h-200v-140h221v-125h-221v-175h215v131h136v-266h-561v134zM231 805l188 129l61 -111l-204 -92z" />
    <glyph glyph-name="Ecircumflex" unicode="&#xca;" horiz-adv-x="636" 
d="M41 134h53v441h-54v133h546v-229h-135v96h-200v-140h221v-125h-221v-175h215v131h136v-266h-561v134zM326 812l-159 -79l-35 52l175 148h42l178 -147l-40 -53z" />
    <glyph glyph-name="Edieresis" unicode="&#xcb;" horiz-adv-x="636" 
d="M41 134h53v441h-54v133h546v-229h-135v96h-200v-140h221v-125h-221v-175h215v131h136v-266h-561v134zM149 806q0 32 22.5 54.5t54.5 22.5t54.5 -22.5t22.5 -54.5t-22.5 -54.5t-54.5 -22.5t-54.5 22.5t-22.5 54.5zM366 806q0 32 23 54.5t55 22.5t54 -22.5t22 -54.5
t-22 -54.5t-54 -22.5t-55 22.5t-23 54.5z" />
    <glyph glyph-name="Igrave" unicode="&#xcc;" horiz-adv-x="431" 
d="M293 132h66v-132h-287v132h64v444h-65v132h288v-132h-66v-444zM236 738l-205 92l61 111l188 -129z" />
    <glyph glyph-name="Iacute" unicode="&#xcd;" horiz-adv-x="431" 
d="M293 132h66v-132h-287v132h64v444h-65v132h288v-132h-66v-444zM166 805l188 129l61 -111l-204 -92z" />
    <glyph glyph-name="Icircumflex" unicode="&#xce;" horiz-adv-x="431" 
d="M293 132h66v-132h-287v132h64v444h-65v132h288v-132h-66v-444zM215 812l-159 -79l-35 52l175 148h42l178 -147l-40 -53z" />
    <glyph glyph-name="Idieresis" unicode="&#xcf;" horiz-adv-x="431" 
d="M293 132h66v-132h-287v132h64v444h-65v132h288v-132h-66v-444zM26 817q0 16 6.5 30t17 24.5t25 17t30.5 6.5q32 0 54.5 -23t22.5 -55q0 -16 -6 -30.5t-16.5 -25t-24.5 -17t-30 -6.5q-32 0 -55.5 23.5t-23.5 55.5zM247 817q0 32 23 55t55 23q16 0 30 -6.5t24.5 -17
t16.5 -24.5t6 -30q0 -32 -22.5 -55.5t-54.5 -23.5q-16 0 -30 6.5t-24.5 17t-17 25t-6.5 30.5z" />
    <glyph glyph-name="Eth" unicode="&#xd0;" horiz-adv-x="674" 
d="M15 400h79v176h-53v132h458q27 0 48.5 -10t36 -26t22.5 -36t8 -39v-486q0 -21 -9.5 -41t-25.5 -35.5t-37 -25t-43 -9.5h-457v133h52v178h-79v89zM251 400h104v-89h-104v-176h206v438h-206v-173z" />
    <glyph glyph-name="Ntilde" unicode="&#xd1;" horiz-adv-x="772" 
d="M539 263v313h-53v132h244v-132h-58v-579h-149l-295 467h-5v-332h53v-132h-234v132h53v444h-54v132h211l282 -445h5zM449 749q-22 0 -40 5.5t-34.5 12.5t-32 12.5t-31.5 5.5q-20 0 -34.5 -13t-27.5 -27q-3 2 -12.5 8t-20 13t-20 13t-12.5 8q4 10 14 27t25 33t36 28t48 12
q22 0 40 -6.5t34 -14t30.5 -14t29.5 -6.5q20 0 35 12t30 27l65 -46q-6 -12 -16 -27.5t-25.5 -29.5t-35.5 -23.5t-45 -9.5z" />
    <glyph glyph-name="Ograve" unicode="&#xd2;" horiz-adv-x="658" 
d="M61 599q0 20 10 39.5t26 35t37 25t43 9.5h305q22 0 43 -9.5t37 -25t25.5 -35t9.5 -39.5v-490q0 -19 -9.5 -38.5t-25 -35t-36.5 -25.5t-44 -10h-305q-21 0 -42 9.5t-37.5 25t-26.5 35t-10 39.5v490zM218 573v-438h222v438h-222zM358 738l-205 92l61 111l188 -129z" />
    <glyph glyph-name="Oacute" unicode="&#xd3;" horiz-adv-x="658" 
d="M61 599q0 20 10 39.5t26 35t37 25t43 9.5h305q22 0 43 -9.5t37 -25t25.5 -35t9.5 -39.5v-490q0 -19 -9.5 -38.5t-25 -35t-36.5 -25.5t-44 -10h-305q-21 0 -42 9.5t-37.5 25t-26.5 35t-10 39.5v490zM218 573v-438h222v438h-222zM261 805l188 129l61 -111l-204 -92z" />
    <glyph glyph-name="Ocircumflex" unicode="&#xd4;" horiz-adv-x="658" 
d="M61 599q0 20 10 39.5t26 35t37 25t43 9.5h305q22 0 43 -9.5t37 -25t25.5 -35t9.5 -39.5v-490q0 -19 -9.5 -38.5t-25 -35t-36.5 -25.5t-44 -10h-305q-21 0 -42 9.5t-37.5 25t-26.5 35t-10 39.5v490zM218 573v-438h222v438h-222zM329 812l-159 -79l-35 52l175 148h42
l178 -147l-40 -53z" />
    <glyph glyph-name="Otilde" unicode="&#xd5;" horiz-adv-x="658" 
d="M61 599q0 20 10 39.5t26 35t37 25t43 9.5h305q22 0 43 -9.5t37 -25t25.5 -35t9.5 -39.5v-490q0 -19 -9.5 -38.5t-25 -35t-36.5 -25.5t-44 -10h-305q-21 0 -42 9.5t-37.5 25t-26.5 35t-10 39.5v490zM218 573v-438h222v438h-222zM400 741q-22 0 -40 5.5t-34.5 12.5
t-32 12.5t-31.5 5.5q-20 0 -34.5 -13t-27.5 -27q-3 2 -12.5 8t-20 13t-20 13t-12.5 8q4 10 14 27t25 33t36 28t48 12q22 0 40 -6.5t34 -14t30.5 -14t29.5 -6.5q20 0 35 12t30 27l65 -46q-6 -12 -16 -27.5t-25.5 -29.5t-35.5 -23.5t-45 -9.5z" />
    <glyph glyph-name="Odieresis" unicode="&#xd6;" horiz-adv-x="658" 
d="M61 599q0 20 10 39.5t26 35t37 25t43 9.5h305q22 0 43 -9.5t37 -25t25.5 -35t9.5 -39.5v-490q0 -19 -9.5 -38.5t-25 -35t-36.5 -25.5t-44 -10h-305q-21 0 -42 9.5t-37.5 25t-26.5 35t-10 39.5v490zM218 573v-438h222v438h-222zM144 813q0 32 23.5 55t55.5 23q16 0 30 -6
t24.5 -16.5t17 -25t6.5 -30.5t-6.5 -30.5t-17 -25t-24.5 -16.5t-30 -6q-32 0 -55.5 23t-23.5 55zM365 813q0 32 23.5 55t55.5 23q16 0 30 -6t24.5 -16.5t16.5 -25t6 -30.5t-6 -30.5t-16.5 -25t-24.5 -16.5t-30 -6q-32 0 -55.5 23t-23.5 55z" />
    <glyph glyph-name="Oslash" unicode="&#xd8;" horiz-adv-x="658" 
d="M61 599q0 20 10 39.5t26 35t36.5 25t42.5 9.5h305q11 0 21.5 -3.5t21.5 -8.5q8 14 17.5 27.5t17.5 27.5l42 -29q-9 -14 -18.5 -28.5t-19.5 -28.5q15 -14 24 -31t9 -35v-474q0 -27 -11 -52q-11 -29 -40 -51t-64 -22h-305q-24 0 -46 11l-48 -71l-41 28q12 19 24.5 37.5
t25.5 37.5q-14 14 -22 31t-8 35v490zM440 135v342l-223 -332v-10h223zM217 573v-338l223 333v5h-223z" />
    <glyph glyph-name="Ugrave" unicode="&#xd9;" horiz-adv-x="723" 
d="M470 135v441h-67v132h278v-132h-54v-460q0 -21 -8.5 -42t-24 -37.5t-38.5 -26.5t-51 -10h-291q-29 0 -51.5 10t-38 26t-24 37t-8.5 43v460h-51v132h269v-132h-62v-441h222zM362 738l-205 92l61 111l188 -129z" />
    <glyph glyph-name="Uacute" unicode="&#xda;" horiz-adv-x="723" 
d="M470 135v441h-67v132h278v-132h-54v-460q0 -21 -8.5 -42t-24 -37.5t-38.5 -26.5t-51 -10h-291q-29 0 -51.5 10t-38 26t-24 37t-8.5 43v460h-51v132h269v-132h-62v-441h222zM277 805l188 129l61 -111l-204 -92z" />
    <glyph glyph-name="Ucircumflex" unicode="&#xdb;" horiz-adv-x="723" 
d="M470 135v441h-67v132h278v-132h-54v-460q0 -21 -8.5 -42t-24 -37.5t-38.5 -26.5t-51 -10h-291q-29 0 -51.5 10t-38 26t-24 37t-8.5 43v460h-51v132h269v-132h-62v-441h222zM351 812l-159 -79l-35 52l175 148h42l178 -147l-40 -53z" />
    <glyph glyph-name="Udieresis" unicode="&#xdc;" horiz-adv-x="723" 
d="M470 135v441h-67v132h278v-132h-54v-460q0 -21 -8.5 -42t-24 -37.5t-38.5 -26.5t-51 -10h-291q-29 0 -51.5 10t-38 26t-24 37t-8.5 43v460h-51v132h269v-132h-62v-441h222zM168 817q0 32 23.5 55t55.5 23q16 0 30 -6t24.5 -16.5t17 -25t6.5 -30.5t-6.5 -30.5t-17 -25
t-24.5 -16.5t-30 -6q-32 0 -55.5 23t-23.5 55zM389 817q0 32 23.5 55t55.5 23q16 0 30 -6t24.5 -16.5t16.5 -25t6 -30.5t-6 -30.5t-16.5 -25t-24.5 -16.5t-30 -6q-32 0 -55.5 23t-23.5 55z" />
    <glyph glyph-name="Yacute" unicode="&#xdd;" horiz-adv-x="660" 
d="M21 576v133h272v-133h-68l126 -200l119 200h-74v133h253v-133h-42l-183 -301v-143h65v-132h-286v132h64v127l-206 317h-40zM284 805l188 129l61 -111l-204 -92z" />
    <glyph glyph-name="Thorn" unicode="&#xde;" horiz-adv-x="631" 
d="M283 542h212q28 0 49.5 -9.5t36 -24.5t22 -34t7.5 -39v-148q0 -20 -7.5 -40t-21.5 -36t-36 -26.5t-50 -10.5h-212v-48h72v-126h-286v126h64v455h-64v127h286v-127h-72v-39zM283 424v-124h168v124h-168z" />
    <glyph glyph-name="ccedilla" unicode="&#xe7;" horiz-adv-x="519" 
d="M51 401q0 18 8.5 36t23.5 32t34.5 23t41.5 9h117l68 -71v71h132v-173h-132v44h-144v-246h148v56h139v-79q0 -18 -7 -36.5t-21 -33t-34.5 -24t-47.5 -9.5h-65l-28 -36h56q27 0 40.5 -15t13.5 -32v-85q0 -17 -14.5 -33t-41.5 -16h-134q-25 0 -40 15.5t-15 33.5v39h86v-20
h71v50h-70l-39 47l38 52h-74q-25 0 -45 9t-34.5 23.5t-22.5 33t-8 37.5v298z" />
    <glyph glyph-name="egrave" unicode="&#xe8;" horiz-adv-x="545" 
d="M161 0q-23 0 -43 9t-35 23.5t-23.5 33t-8.5 37.5v281q0 19 8.5 39.5t24 37.5t38 28t50.5 11h198q34 0 57.5 -11.5t38 -28.5t21 -38.5t6.5 -40.5v-91q0 -42 -19 -57.5t-52 -15.5h-225v-90h162v48h136v-72q0 -18 -9 -36.5t-24.5 -33.5t-36.5 -24t-46 -9h-218zM197 307h149
v71h-149v-71zM248 539l-136 178l108 67l108 -201z" />
    <glyph glyph-name="eacute" unicode="&#xe9;" horiz-adv-x="545" 
d="M161 0q-23 0 -43 9t-35 23.5t-23.5 33t-8.5 37.5v281q0 19 8.5 39.5t24 37.5t38 28t50.5 11h198q34 0 57.5 -11.5t38 -28.5t21 -38.5t6.5 -40.5v-91q0 -42 -19 -57.5t-52 -15.5h-225v-90h162v48h136v-72q0 -18 -9 -36.5t-24.5 -33.5t-36.5 -24t-46 -9h-218zM197 307h149
v71h-149v-71zM198 583l108 201l107 -67l-135 -178z" />
    <glyph glyph-name="ecircumflex" unicode="&#xea;" horiz-adv-x="545" 
d="M161 0q-23 0 -43 9t-35 23.5t-23.5 33t-8.5 37.5v281q0 19 8.5 39.5t24 37.5t38 28t50.5 11h198q34 0 57.5 -11.5t38 -28.5t21 -38.5t6.5 -40.5v-91q0 -42 -19 -57.5t-52 -15.5h-225v-90h162v48h136v-72q0 -18 -9 -36.5t-24.5 -33.5t-36.5 -24t-46 -9h-218zM197 307h149
v71h-149v-71zM272 644l-142 -99l-51 56l174 167h43l171 -166l-50 -57z" />
    <glyph glyph-name="edieresis" unicode="&#xeb;" horiz-adv-x="545" 
d="M161 0q-23 0 -43 9t-35 23.5t-23.5 33t-8.5 37.5v281q0 19 8.5 39.5t24 37.5t38 28t50.5 11h198q34 0 57.5 -11.5t38 -28.5t21 -38.5t6.5 -40.5v-91q0 -42 -19 -57.5t-52 -15.5h-225v-90h162v48h136v-72q0 -18 -9 -36.5t-24.5 -33.5t-36.5 -24t-46 -9h-218zM197 307h149
v71h-149v-71zM83 636q0 32 22.5 54.5t54.5 22.5t54.5 -22.5t22.5 -54.5t-22.5 -54.5t-54.5 -22.5t-54.5 22.5t-22.5 54.5zM300 636q0 32 23 54.5t55 22.5t54 -22.5t22 -54.5t-22 -54.5t-54 -22.5t-55 22.5t-23 54.5z" />
    <glyph glyph-name="igrave" unicode="&#xec;" horiz-adv-x="345" 
d="M244 123h51v-123h-247v123h47v254h-47v124h196v-378zM133 539l-136 178l108 67l108 -201z" />
    <glyph glyph-name="iacute" unicode="&#xed;" horiz-adv-x="345" 
d="M244 123h51v-123h-247v123h47v254h-47v124h196v-378zM101 583l108 201l107 -67l-135 -178z" />
    <glyph glyph-name="icircumflex" unicode="&#xee;" horiz-adv-x="345" 
d="M244 123h51v-123h-247v123h47v254h-47v124h196v-378zM159 644l-142 -99l-51 56l174 167h43l171 -166l-50 -57z" />
    <glyph glyph-name="idieresis" unicode="&#xef;" horiz-adv-x="345" 
d="M244 123h51v-123h-247v123h47v254h-47v124h196v-378zM-27 636q0 32 22.5 54.5t54.5 22.5t54.5 -22.5t22.5 -54.5t-22.5 -54.5t-54.5 -22.5t-54.5 22.5t-22.5 54.5zM190 636q0 32 23 54.5t55 22.5t54 -22.5t22 -54.5t-22 -54.5t-54 -22.5t-55 22.5t-23 54.5z" />
    <glyph glyph-name="ntilde" unicode="&#xf1;" horiz-adv-x="621" 
d="M349 122h40v250h-161v-250h47v-122h-244v122h49v257h-49v121l197 1v-72l70 72h131q25 0 45.5 -9t34.5 -23.5t21.5 -33t7.5 -37.5v-276h51v-122h-240v122zM358 565q-22 0 -40 5.5t-34.5 12.5t-32 12.5t-31.5 5.5q-20 0 -34.5 -13t-27.5 -27q-3 2 -12.5 8t-20 13t-20 13
t-12.5 8q4 10 14 27t25 33t36 28t48 12q22 0 40 -6.5t34 -14t30.5 -14t29.5 -6.5q20 0 35 12t30 27l65 -46q-6 -12 -16 -27.5t-25.5 -29.5t-35.5 -23.5t-45 -9.5z" />
    <glyph glyph-name="ograve" unicode="&#xf2;" horiz-adv-x="568" 
d="M517 103q0 -18 -9 -36.5t-24.5 -33.5t-36.5 -24t-45 -9h-241q-24 0 -44 9t-35 23.5t-23 33t-8 37.5v295q0 19 8.5 37.5t23.5 33t35 23.5t43 9h247q25 0 45 -9t34 -23.5t22 -33t8 -37.5v-295zM197 127h174v247h-174v-247zM270 539l-136 178l108 67l108 -201z" />
    <glyph glyph-name="oacute" unicode="&#xf3;" horiz-adv-x="568" 
d="M517 103q0 -18 -9 -36.5t-24.5 -33.5t-36.5 -24t-45 -9h-241q-24 0 -44 9t-35 23.5t-23 33t-8 37.5v295q0 19 8.5 37.5t23.5 33t35 23.5t43 9h247q25 0 45 -9t34 -23.5t22 -33t8 -37.5v-295zM197 127h174v247h-174v-247zM214 583l108 201l107 -67l-135 -178z" />
    <glyph glyph-name="ocircumflex" unicode="&#xf4;" horiz-adv-x="568" 
d="M517 103q0 -18 -9 -36.5t-24.5 -33.5t-36.5 -24t-45 -9h-241q-24 0 -44 9t-35 23.5t-23 33t-8 37.5v295q0 19 8.5 37.5t23.5 33t35 23.5t43 9h247q25 0 45 -9t34 -23.5t22 -33t8 -37.5v-295zM197 127h174v247h-174v-247zM286 644l-142 -99l-51 56l174 167h43l171 -166
l-50 -57z" />
    <glyph glyph-name="otilde" unicode="&#xf5;" horiz-adv-x="568" 
d="M517 103q0 -18 -9 -36.5t-24.5 -33.5t-36.5 -24t-45 -9h-241q-24 0 -44 9t-35 23.5t-23 33t-8 37.5v295q0 19 8.5 37.5t23.5 33t35 23.5t43 9h247q25 0 45 -9t34 -23.5t22 -33t8 -37.5v-295zM197 127h174v247h-174v-247zM349 565q-22 0 -40 5.5t-34.5 12.5t-32 12.5
t-31.5 5.5q-20 0 -34.5 -13t-27.5 -27q-3 2 -12.5 8t-20 13t-20 13t-12.5 8q4 10 14 27t25 33t36 28t48 12q22 0 40 -6.5t34 -14t30.5 -14t29.5 -6.5q20 0 35 12t30 27l65 -46q-6 -12 -16 -27.5t-25.5 -29.5t-35.5 -23.5t-45 -9.5z" />
    <glyph glyph-name="odieresis" unicode="&#xf6;" horiz-adv-x="568" 
d="M517 103q0 -18 -9 -36.5t-24.5 -33.5t-36.5 -24t-45 -9h-241q-24 0 -44 9t-35 23.5t-23 33t-8 37.5v295q0 19 8.5 37.5t23.5 33t35 23.5t43 9h247q25 0 45 -9t34 -23.5t22 -33t8 -37.5v-295zM197 127h174v247h-174v-247zM95 636q0 32 22.5 54.5t54.5 22.5t54.5 -22.5
t22.5 -54.5t-22.5 -54.5t-54.5 -22.5t-54.5 22.5t-22.5 54.5zM312 636q0 32 23 54.5t55 22.5t54 -22.5t22 -54.5t-22 -54.5t-54 -22.5t-55 22.5t-23 54.5z" />
    <glyph glyph-name="oslash" unicode="&#xf8;" horiz-adv-x="568" 
d="M87 29q-17 15 -26.5 34.5t-9.5 39.5v295q0 19 8.5 37.5t23.5 33t35 23.5t43 9h247q25 0 41 -8l41 55l38 -31l-39 -52q13 -14 20.5 -32t7.5 -35v-295q0 -18 -9 -36.5t-24.5 -33.5t-36.5 -24t-45 -9h-241q-9 0 -17 1t-16 4l-50 -65l-37 31zM200 176l156 198h-156v-198z
M368 127v182l-146 -182h146z" />
    <glyph glyph-name="ugrave" unicode="&#xf9;" horiz-adv-x="613" 
d="M267 379h-44v-252h161v252h-47v122h196v-379h50v-122h-199v71l-70 -71h-134q-26 0 -45.5 9t-33 23t-20.5 32.5t-7 38.5v276h-48v122h241v-122zM272 539l-136 178l108 67l108 -201z" />
    <glyph glyph-name="uacute" unicode="&#xfa;" horiz-adv-x="613" 
d="M267 379h-44v-252h161v252h-47v122h196v-379h50v-122h-199v71l-70 -71h-134q-26 0 -45.5 9t-33 23t-20.5 32.5t-7 38.5v276h-48v122h241v-122zM234 583l108 201l107 -67l-135 -178z" />
    <glyph glyph-name="ucircumflex" unicode="&#xfb;" horiz-adv-x="613" 
d="M267 379h-44v-252h161v252h-47v122h196v-379h50v-122h-199v71l-70 -71h-134q-26 0 -45.5 9t-33 23t-20.5 32.5t-7 38.5v276h-48v122h241v-122zM301 644l-142 -99l-51 56l174 167h43l171 -166l-50 -57z" />
    <glyph glyph-name="udieresis" unicode="&#xfc;" horiz-adv-x="613" 
d="M267 379h-44v-252h161v252h-47v122h196v-379h50v-122h-199v71l-70 -71h-134q-26 0 -45.5 9t-33 23t-20.5 32.5t-7 38.5v276h-48v122h241v-122zM113 636q0 32 22.5 54.5t54.5 22.5t54.5 -22.5t22.5 -54.5t-22.5 -54.5t-54.5 -22.5t-54.5 22.5t-22.5 54.5zM330 636
q0 32 23 54.5t55 22.5t54 -22.5t22 -54.5t-22 -54.5t-54 -22.5t-55 22.5t-23 54.5z" />
    <glyph glyph-name="yacute" unicode="&#xfd;" horiz-adv-x="557" 
d="M293 157l77 221h-40v123h216v-123h-41l-164 -436h52l-1 -120h-263v120h81l30 82h-44l-138 354h-41v123h223v-123h-33l80 -221h6zM213 583l108 201l107 -67l-135 -178z" />
    <glyph glyph-name="thorn" unicode="&#xfe;" horiz-adv-x="589" 
d="M228 711v-282l70 71h130q24 0 44.5 -9.5t34.5 -24t22 -33t8 -36.5v-294q0 -19 -7.5 -37.5t-21.5 -33t-34.5 -23.5t-45.5 -9h-130l-70 72v-154h43v-122h-240v123h48v670h-47v122h196zM389 374h-161v-245h161v245z" />
    <glyph glyph-name="ydieresis" unicode="&#xff;" horiz-adv-x="557" 
d="M293 157l77 221h-40v123h216v-123h-41l-164 -436h52l-1 -120h-263v120h81l30 82h-44l-138 354h-41v123h223v-123h-33l80 -221h6zM95 636q0 32 22.5 54.5t54.5 22.5t54.5 -22.5t22.5 -54.5t-22.5 -54.5t-54.5 -22.5t-54.5 22.5t-22.5 54.5zM312 636q0 32 23 54.5t55 22.5
t54 -22.5t22 -54.5t-22 -54.5t-54 -22.5t-55 22.5t-23 54.5z" />
    <glyph glyph-name="Amacron" unicode="&#x100;" horiz-adv-x="711" 
d="M458 203h-237l-24 -71h73v-132h-256v132h46l210 582h173l203 -582h47v-132h-290v132h78zM339 562l-80 -245h160l-75 245h-5zM194 859h322v-103h-322v103z" />
    <glyph glyph-name="amacron" unicode="&#x101;" horiz-adv-x="597" 
d="M149 0q-25 0 -45 8.5t-33.5 22.5t-21 31.5t-7.5 34.5v87q0 19 6.5 38.5t20 35.5t34 26t49.5 10h202v78h-152v-41h-130v45q0 18 7 40t22 40.5t39 31.5t58 13h162q47 0 75 -13t43 -33t20 -44t5 -45v-243h24v32h57v-56q0 -41 -22 -70.5t-68 -29.5h-48q-33 0 -57 16.5
t-33 48.5l-64 -64h-143zM354 211h-165v-88h165v88zM134 686h323v-104h-323v104z" />
    <glyph glyph-name="Abreve" unicode="&#x102;" horiz-adv-x="711" 
d="M458 203h-237l-24 -71h73v-132h-256v132h46l210 582h173l203 -582h47v-132h-290v132h78zM339 562l-80 -245h160l-75 245h-5zM342 827q17 0 31 7.5t25 19.5t18 27.5t9 31.5h87q0 -30 -11 -61.5t-32 -57.5t-53 -42.5t-74 -16.5t-74 16.5t-53.5 42.5t-32.5 57.5t-11 61.5h89
q2 -16 8.5 -31.5t17 -27.5t25 -19.5t31.5 -7.5z" />
    <glyph glyph-name="abreve" unicode="&#x103;" horiz-adv-x="597" 
d="M149 0q-25 0 -45 8.5t-33.5 22.5t-21 31.5t-7.5 34.5v87q0 19 6.5 38.5t20 35.5t34 26t49.5 10h202v78h-152v-41h-130v45q0 18 7 40t22 40.5t39 31.5t58 13h162q47 0 75 -13t43 -33t20 -44t5 -45v-243h24v32h57v-56q0 -41 -22 -70.5t-68 -29.5h-48q-33 0 -57 16.5
t-33 48.5l-64 -64h-143zM354 211h-165v-88h165v88zM285 643q17 0 31 7.5t25 19.5t17.5 27.5t8.5 31.5h88q0 -30 -11 -61.5t-32.5 -57t-53 -42t-73.5 -16.5t-74 16.5t-53.5 42t-32.5 57t-11 61.5h88q2 -16 8.5 -31.5t17 -27.5t25 -19.5t32.5 -7.5z" />
    <glyph glyph-name="Aogonek" unicode="&#x104;" horiz-adv-x="711" 
d="M458 203h-237l-24 -71h73v-132h-256v132h46l210 582h173l203 -582h47v-132h-38v-106h110v-94h-125q-35 0 -60.5 21.5t-25.5 68.5v60l41 50h-192v132h78zM339 562l-80 -245h160l-75 245h-5z" />
    <glyph glyph-name="Cacute" unicode="&#x106;" horiz-adv-x="596" 
d="M218 135h209v77h136v-103q0 -19 -11 -38.5t-28.5 -35t-39 -25.5t-42.5 -10h-265q-21 0 -41.5 9.5t-37 24.5t-27 34.5t-10.5 40.5v490q0 21 10 40.5t26.5 34.5t37.5 24.5t42 9.5h180l69 -73v73h126v-203h-126v68h-208v-438zM229 805l188 129l61 -111l-204 -92z" />
    <glyph glyph-name="cacute" unicode="&#x107;" horiz-adv-x="519" 
d="M51 401q0 18 8.5 36t23.5 32t34.5 23t41.5 9h117l68 -71v71h132v-173h-132v44h-144v-246h148v56h139v-79q0 -18 -7 -36.5t-21 -33t-34.5 -24t-47.5 -9.5h-216q-25 0 -45 9t-34.5 23.5t-22.5 33t-8 37.5v298zM197 583l108 201l107 -67l-135 -178z" />
    <glyph glyph-name="Ccircumflex" unicode="&#x108;" horiz-adv-x="596" 
d="M218 135h209v77h136v-103q0 -19 -11 -38.5t-28.5 -35t-39 -25.5t-42.5 -10h-265q-21 0 -41.5 9.5t-37 24.5t-27 34.5t-10.5 40.5v490q0 21 10 40.5t26.5 34.5t37.5 24.5t42 9.5h180l69 -73v73h126v-203h-126v68h-208v-438zM330 812l-159 -79l-35 52l175 148h42l178 -147
l-40 -53z" />
    <glyph glyph-name="ccircumflex" unicode="&#x109;" horiz-adv-x="519" 
d="M51 401q0 18 8.5 36t23.5 32t34.5 23t41.5 9h117l68 -71v71h132v-173h-132v44h-144v-246h148v56h139v-79q0 -18 -7 -36.5t-21 -33t-34.5 -24t-47.5 -9.5h-216q-25 0 -45 9t-34.5 23.5t-22.5 33t-8 37.5v298zM268 644l-142 -99l-51 56l174 167h43l171 -166l-50 -57z" />
    <glyph glyph-name="Cdotaccent" unicode="&#x10a;" horiz-adv-x="596" 
d="M218 135h209v77h136v-103q0 -19 -11 -38.5t-28.5 -35t-39 -25.5t-42.5 -10h-265q-21 0 -41.5 9.5t-37 24.5t-27 34.5t-10.5 40.5v490q0 21 10 40.5t26.5 34.5t37.5 24.5t42 9.5h180l69 -73v73h126v-203h-126v68h-208v-438zM218 819q0 35 24 59t59 24t59 -24t24 -59
t-24 -59t-59 -24t-59 24t-24 59z" />
    <glyph glyph-name="cdotaccent" unicode="&#x10b;" horiz-adv-x="519" 
d="M51 401q0 18 8.5 36t23.5 32t34.5 23t41.5 9h117l68 -71v71h132v-173h-132v44h-144v-246h148v56h139v-79q0 -18 -7 -36.5t-21 -33t-34.5 -24t-47.5 -9.5h-216q-25 0 -45 9t-34.5 23.5t-22.5 33t-8 37.5v298zM182 644q0 35 24 59t59 24t59 -24t24 -59t-24 -59t-59 -24
t-59 24t-24 59z" />
    <glyph glyph-name="Ccaron" unicode="&#x10c;" horiz-adv-x="596" 
d="M218 135h209v77h136v-103q0 -19 -11 -38.5t-28.5 -35t-39 -25.5t-42.5 -10h-265q-21 0 -41.5 9.5t-37 24.5t-27 34.5t-10.5 40.5v490q0 21 10 40.5t26.5 34.5t37.5 24.5t42 9.5h180l69 -73v73h126v-203h-126v68h-208v-438zM473 933l39 -53l-177 -147h-43l-175 148l35 52
l160 -79z" />
    <glyph glyph-name="ccaron" unicode="&#x10d;" horiz-adv-x="519" 
d="M51 401q0 18 8.5 36t23.5 32t34.5 23t41.5 9h117l68 -71v71h132v-173h-132v44h-144v-246h148v56h139v-79q0 -18 -7 -36.5t-21 -33t-34.5 -24t-47.5 -9.5h-216q-25 0 -45 9t-34.5 23.5t-22.5 33t-8 37.5v298zM401 774l50 -56l-171 -166h-43l-174 167l51 56l142 -99z" />
    <glyph glyph-name="Dcaron" unicode="&#x10e;" horiz-adv-x="674" 
d="M42 133h52v443h-53v132h458q27 0 48.5 -10t36 -26t22.5 -36t8 -39v-486q0 -21 -9.5 -41t-25.5 -35.5t-37 -25t-43 -9.5h-457v133zM251 135h206v438h-206v-438zM482 933l39 -53l-177 -147h-43l-175 148l35 52l160 -79z" />
    <glyph glyph-name="dcaron" unicode="&#x10f;" horiz-adv-x="715" 
d="M579 516v232h66q22 0 34 -7t18 -16.5t7.5 -19.5t1.5 -16v-93l-79 -80h-48zM312 729l198 -1v-606h47v-122h-193v72l-70 -72h-133q-24 0 -44.5 9.5t-35 24t-22.5 33t-8 36.5v295q0 19 7.5 37.5t22 33t34.5 23.5t46 9h133l70 -72v176h-52v124zM203 129h161v243h-161v-243z
" />
    <glyph glyph-name="Dcroat" unicode="&#x110;" horiz-adv-x="674" 
d="M41 400h53v176h-53v132h458q27 0 48.5 -10t36 -26t22.5 -36t8 -39v-486q0 -21 -9.5 -41t-25.5 -35.5t-37 -25t-43 -9.5h-457v133h52v180h-53v87zM251 400h104v-87h-104v-178h206v438h-206v-173z" />
    <glyph glyph-name="dcroat" unicode="&#x111;" horiz-adv-x="590" 
d="M510 564h48v-76h-48v-365h47v-123h-193v72l-70 -72h-133q-24 0 -44.5 9.5t-35 24t-22.5 33t-8 36.5v235q0 19 7.5 38t22 33t34.5 23t46 9h133l70 -71v118h-167v76h167v54h-56v111l203 -1zM203 129h161v183h-161v-183z" />
    <glyph glyph-name="Emacron" unicode="&#x112;" horiz-adv-x="636" 
d="M41 134h53v441h-54v133h546v-229h-135v96h-200v-140h221v-125h-221v-175h215v131h136v-266h-561v134zM177 859h322v-103h-322v103z" />
    <glyph glyph-name="emacron" unicode="&#x113;" horiz-adv-x="545" 
d="M161 0q-23 0 -43 9t-35 23.5t-23.5 33t-8.5 37.5v281q0 19 8.5 39.5t24 37.5t38 28t50.5 11h198q34 0 57.5 -11.5t38 -28.5t21 -38.5t6.5 -40.5v-91q0 -42 -19 -57.5t-52 -15.5h-225v-90h162v48h136v-72q0 -18 -9 -36.5t-24.5 -33.5t-36.5 -24t-46 -9h-218zM197 307h149
v71h-149v-71zM114 676h323v-104h-323v104z" />
    <glyph glyph-name="Ebreve" unicode="&#x114;" horiz-adv-x="636" 
d="M41 134h53v441h-54v133h546v-229h-135v96h-200v-140h221v-125h-221v-175h215v131h136v-266h-561v134zM337 827q17 0 31 7.5t25 19.5t18 27.5t9 31.5h87q0 -30 -11 -61.5t-32 -57.5t-53 -42.5t-74 -16.5t-74 16.5t-53.5 42.5t-32.5 57.5t-11 61.5h89q2 -16 8.5 -31.5
t17 -27.5t25 -19.5t31.5 -7.5z" />
    <glyph glyph-name="ebreve" unicode="&#x115;" horiz-adv-x="545" 
d="M161 0q-23 0 -43 9t-35 23.5t-23.5 33t-8.5 37.5v281q0 19 8.5 39.5t24 37.5t38 28t50.5 11h198q34 0 57.5 -11.5t38 -28.5t21 -38.5t6.5 -40.5v-91q0 -42 -19 -57.5t-52 -15.5h-225v-90h162v48h136v-72q0 -18 -9 -36.5t-24.5 -33.5t-36.5 -24t-46 -9h-218zM197 307h149
v71h-149v-71zM280 643q17 0 31 7.5t25 19.5t17.5 27.5t8.5 31.5h88q0 -30 -11 -61.5t-32.5 -57t-53 -42t-73.5 -16.5t-74 16.5t-53.5 42t-32.5 57t-11 61.5h88q2 -16 8.5 -31.5t17 -27.5t25 -19.5t32.5 -7.5z" />
    <glyph glyph-name="Edotaccent" unicode="&#x116;" horiz-adv-x="636" 
d="M41 134h53v441h-54v133h546v-229h-135v96h-200v-140h221v-125h-221v-175h215v131h136v-266h-561v134zM235 819q0 35 24 59t59 24t59 -24t24 -59t-24 -59t-59 -24t-59 24t-24 59z" />
    <glyph glyph-name="edotaccent" unicode="&#x117;" horiz-adv-x="545" 
d="M161 0q-23 0 -43 9t-35 23.5t-23.5 33t-8.5 37.5v281q0 19 8.5 39.5t24 37.5t38 28t50.5 11h198q34 0 57.5 -11.5t38 -28.5t21 -38.5t6.5 -40.5v-91q0 -42 -19 -57.5t-52 -15.5h-225v-90h162v48h136v-72q0 -18 -9 -36.5t-24.5 -33.5t-36.5 -24t-46 -9h-218zM197 307h149
v71h-149v-71zM180 644q0 35 24 59t59 24t59 -24t24 -59t-24 -59t-59 -24t-59 24t-24 59z" />
    <glyph glyph-name="Eogonek" unicode="&#x118;" horiz-adv-x="636" 
d="M41 134h53v441h-54v133h546v-229h-135v96h-200v-140h221v-125h-221v-175h215v131h136v-266h-60v-106h110v-94h-125q-35 0 -60.5 21.5t-25.5 68.5v60l41 50h-441v134z" />
    <glyph glyph-name="Ecaron" unicode="&#x11a;" horiz-adv-x="636" 
d="M41 134h53v441h-54v133h546v-229h-135v96h-200v-140h221v-125h-221v-175h215v131h136v-266h-561v134zM497 933l39 -53l-177 -147h-43l-175 148l35 52l160 -79z" />
    <glyph glyph-name="ecaron" unicode="&#x11b;" horiz-adv-x="545" 
d="M161 0q-23 0 -43 9t-35 23.5t-23.5 33t-8.5 37.5v281q0 19 8.5 39.5t24 37.5t38 28t50.5 11h198q34 0 57.5 -11.5t38 -28.5t21 -38.5t6.5 -40.5v-91q0 -42 -19 -57.5t-52 -15.5h-225v-90h162v48h136v-72q0 -18 -9 -36.5t-24.5 -33.5t-36.5 -24t-46 -9h-218zM197 307h149
v71h-149v-71zM422 774l50 -56l-171 -166h-43l-174 167l51 56l142 -99z" />
    <glyph glyph-name="Gcircumflex" unicode="&#x11c;" horiz-adv-x="663" 
d="M353 402h272v-113h-43v-289h-90l-53 73l-70 -73h-192q-21 0 -41.5 9.5t-37 24.5t-27 34.5t-10.5 40.5v490q0 21 9.5 40.5t25.5 34.5t37 24.5t44 9.5h201l70 -73v73h125v-203h-125v68h-230v-438h219v154h-84v113zM350 812l-159 -79l-35 52l175 148h42l178 -147l-40 -53z
" />
    <glyph glyph-name="gcircumflex" unicode="&#x11d;" horiz-adv-x="580" 
d="M145 -46h231v69h-231v-69zM198 279h123v103h-123v-103zM459 402q1 -5 1 -21v-117q0 -17 -7.5 -35t-22.5 -33t-36.5 -25t-48.5 -10h-176v-33h248q25 0 45 -9t34 -23.5t22 -33t8 -37.5v-99q0 -20 -7 -38.5t-20 -33t-32.5 -23.5t-44.5 -9h-306q-51 0 -77.5 32t-26.5 74v37
l79 73q-22 11 -30 32t-6 46l60 61q-24 14 -39.5 37.5t-15.5 49.5v134q0 17 7.5 35t22 33t34.5 25t45 10h183q33 0 57.5 -15t36.5 -41q6 7 16 18t24.5 21.5t33.5 17.5t42 7q10 -27 9.5 -58t-6.5 -58zM270 644l-142 -99l-51 56l174 167h43l171 -166l-50 -57z" />
    <glyph glyph-name="Gbreve" unicode="&#x11e;" horiz-adv-x="663" 
d="M353 402h272v-113h-43v-289h-90l-53 73l-70 -73h-192q-21 0 -41.5 9.5t-37 24.5t-27 34.5t-10.5 40.5v490q0 21 9.5 40.5t25.5 34.5t37 24.5t44 9.5h201l70 -73v73h125v-203h-125v68h-230v-438h219v154h-84v113zM334 827q17 0 31 7.5t25 19.5t18 27.5t9 31.5h87
q0 -30 -11 -61.5t-32 -57.5t-53 -42.5t-74 -16.5t-74 16.5t-53.5 42.5t-32.5 57.5t-11 61.5h89q2 -16 8.5 -31.5t17 -27.5t25 -19.5t31.5 -7.5z" />
    <glyph glyph-name="gbreve" unicode="&#x11f;" horiz-adv-x="580" 
d="M145 -46h231v69h-231v-69zM198 279h123v103h-123v-103zM459 402q1 -5 1 -21v-117q0 -17 -7.5 -35t-22.5 -33t-36.5 -25t-48.5 -10h-176v-33h248q25 0 45 -9t34 -23.5t22 -33t8 -37.5v-99q0 -20 -7 -38.5t-20 -33t-32.5 -23.5t-44.5 -9h-306q-51 0 -77.5 32t-26.5 74v37
l79 73q-22 11 -30 32t-6 46l60 61q-24 14 -39.5 37.5t-15.5 49.5v134q0 17 7.5 35t22 33t34.5 25t45 10h183q33 0 57.5 -15t36.5 -41q6 7 16 18t24.5 21.5t33.5 17.5t42 7q10 -27 9.5 -58t-6.5 -58zM265 643q17 0 31 7.5t25 19.5t17.5 27.5t8.5 31.5h88q0 -30 -11 -61.5
t-32.5 -57t-53 -42t-73.5 -16.5t-74 16.5t-53.5 42t-32.5 57t-11 61.5h88q2 -16 8.5 -31.5t17 -27.5t25 -19.5t32.5 -7.5z" />
    <glyph glyph-name="Gdotaccent" unicode="&#x120;" horiz-adv-x="663" 
d="M353 402h272v-113h-43v-289h-90l-53 73l-70 -73h-192q-21 0 -41.5 9.5t-37 24.5t-27 34.5t-10.5 40.5v490q0 21 9.5 40.5t25.5 34.5t37 24.5t44 9.5h201l70 -73v73h125v-203h-125v68h-230v-438h219v154h-84v113zM230 819q0 35 24 59t59 24t59 -24t24 -59t-24 -59t-59 -24
t-59 24t-24 59z" />
    <glyph glyph-name="gdotaccent" unicode="&#x121;" horiz-adv-x="580" 
d="M145 -46h231v69h-231v-69zM198 279h123v103h-123v-103zM459 402q1 -5 1 -21v-117q0 -17 -7.5 -35t-22.5 -33t-36.5 -25t-48.5 -10h-176v-33h248q25 0 45 -9t34 -23.5t22 -33t8 -37.5v-99q0 -20 -7 -38.5t-20 -33t-32.5 -23.5t-44.5 -9h-306q-51 0 -77.5 32t-26.5 74v37
l79 73q-22 11 -30 32t-6 46l60 61q-24 14 -39.5 37.5t-15.5 49.5v134q0 17 7.5 35t22 33t34.5 25t45 10h183q33 0 57.5 -15t36.5 -41q6 7 16 18t24.5 21.5t33.5 17.5t42 7q10 -27 9.5 -58t-6.5 -58zM184 644q0 35 24 59t59 24t59 -24t24 -59t-24 -59t-59 -24t-59 24t-24 59z
" />
    <glyph glyph-name="Gcommaaccent" unicode="&#x122;" horiz-adv-x="663" 
d="M353 402h272v-113h-43v-289h-90l-53 73l-70 -73h-192q-21 0 -41.5 9.5t-37 24.5t-27 34.5t-10.5 40.5v490q0 21 9.5 40.5t25.5 34.5t37 24.5t44 9.5h201l70 -73v73h125v-203h-125v68h-230v-438h219v154h-84v113zM291 -266v232h66q22 0 34 -7t18 -16.5t7.5 -19.5t1.5 -16
v-93l-79 -80h-48z" />
    <glyph glyph-name="gcommaaccent" unicode="&#x123;" horiz-adv-x="580" 
d="M314 805v-233h-65q-22 0 -34.5 7t-18.5 16.5t-7.5 19.5t-1.5 16v93l80 81h47zM145 -46h231v69h-231v-69zM198 279h123v103h-123v-103zM459 402q1 -5 1 -21v-117q0 -17 -7.5 -35t-22.5 -33t-36.5 -25t-48.5 -10h-176v-33h248q25 0 45 -9t34 -23.5t22 -33t8 -37.5v-99
q0 -20 -7 -38.5t-20 -33t-32.5 -23.5t-44.5 -9h-306q-51 0 -77.5 32t-26.5 74v37l79 73q-22 11 -30 32t-6 46l60 61q-24 14 -39.5 37.5t-15.5 49.5v134q0 17 7.5 35t22 33t34.5 25t45 10h183q33 0 57.5 -15t36.5 -41q6 7 16 18t24.5 21.5t33.5 17.5t42 7q10 -27 9.5 -58
t-6.5 -58z" />
    <glyph glyph-name="Hcircumflex" unicode="&#x124;" horiz-adv-x="754" 
d="M312 132v-132h-270v132h57v444h-58v132h271v-132h-55v-150h237v150h-60v132h278v-132h-62v-444h62v-132h-278v132h60v171h-237v-171h55zM370 832l-159 -79l-35 52l175 148h42l178 -147l-40 -53z" />
    <glyph glyph-name="hcircumflex" unicode="&#x125;" horiz-adv-x="617" 
d="M350 122h40v250h-161v-250h47v-122h-244v122h48v483h-48v123l197 1v-300l70 72h130q25 0 45.5 -9t34.5 -23.5t21.5 -33t7.5 -37.5v-276h52v-122h-240v122zM149 836l-159 -79l-35 52l175 148h42l178 -147l-40 -53z" />
    <glyph glyph-name="Hbar" unicode="&#x126;" horiz-adv-x="754" 
d="M312 133v-133h-270v133h57v318h-58v57h58v67h-58v133h271v-133h-55v-67h237v67h-60v133h278v-133h-62v-67h62v-57h-62v-318h62v-133h-278v133h60v147h-237v-147h55zM494 403v48h-237v-48h237z" />
    <glyph glyph-name="hbar" unicode="&#x127;" horiz-adv-x="617" 
d="M32 557h48v48h-48v123l197 1v-172h162v-72h-162v-122l70 72h130q25 0 45.5 -9t34.5 -23.5t21.5 -33t7.5 -37.5v-210h52v-122h-240v122h40v184h-161v-184h47v-122h-244v122h48v363h-48v72z" />
    <glyph glyph-name="Itilde" unicode="&#x128;" horiz-adv-x="431" 
d="M293 132h66v-132h-287v132h64v444h-65v132h288v-132h-66v-444zM286 748q-22 0 -40 5.5t-34.5 12.5t-32 12.5t-31.5 5.5q-20 0 -34.5 -13t-27.5 -27q-3 2 -12.5 8t-20 13t-20 13t-12.5 8q4 10 14 27t25 33t36 28t48 12q22 0 40 -6.5t34 -14t30.5 -14t29.5 -6.5q20 0 35 12
t30 27l65 -46q-6 -12 -16 -27.5t-25.5 -29.5t-35.5 -23.5t-45 -9.5z" />
    <glyph glyph-name="itilde" unicode="&#x129;" horiz-adv-x="345" 
d="M244 123h51v-123h-247v123h47v254h-47v124h196v-378zM227 565q-22 0 -40 5.5t-34.5 12.5t-32 12.5t-31.5 5.5q-20 0 -34.5 -13t-27.5 -27q-3 2 -12.5 8t-20 13t-20 13t-12.5 8q4 10 14 27t25 33t36 28t48 12q22 0 40 -6.5t34 -14t30.5 -14t29.5 -6.5q20 0 35 12t30 27
l65 -46q-6 -12 -16 -27.5t-25.5 -29.5t-35.5 -23.5t-45 -9.5z" />
    <glyph glyph-name="Imacron" unicode="&#x12a;" horiz-adv-x="431" 
d="M293 132h66v-132h-287v132h64v444h-65v132h288v-132h-66v-444zM54 859h322v-103h-322v103z" />
    <glyph glyph-name="imacron" unicode="&#x12b;" horiz-adv-x="345" 
d="M244 123h51v-123h-247v123h47v254h-47v124h196v-378zM-9 666h323v-104h-323v104z" />
    <glyph glyph-name="Ibreve" unicode="&#x12c;" horiz-adv-x="431" 
d="M215 827q17 0 31 7.5t25 19.5t18 27.5t9 31.5h87q0 -30 -11 -61.5t-32 -57.5t-53 -42.5t-74 -16.5t-74 16.5t-53.5 42.5t-32.5 57.5t-11 61.5h89q2 -16 8.5 -31.5t17 -27.5t25 -19.5t31.5 -7.5zM293 132h66v-132h-287v132h64v444h-65v132h288v-132h-66v-444z" />
    <glyph glyph-name="ibreve" unicode="&#x12d;" horiz-adv-x="345" 
d="M244 123h51v-123h-247v123h47v254h-47v124h196v-378zM160 649q17 0 31 7.5t25 19.5t17.5 27.5t8.5 31.5h88q0 -30 -11 -61.5t-32.5 -57t-53 -42t-73.5 -16.5t-74 16.5t-53.5 42t-32.5 57t-11 61.5h88q2 -16 8.5 -31.5t17 -27.5t25 -19.5t32.5 -7.5z" />
    <glyph glyph-name="Iogonek" unicode="&#x12e;" horiz-adv-x="431" 
d="M293 132h66v-132h-96v-106h110v-94h-125q-35 0 -60.5 21.5t-25.5 68.5v60l41 50h-131v132h64v444h-65v132h288v-132h-66v-444z" />
    <glyph glyph-name="iogonek" unicode="&#x12f;" horiz-adv-x="345" 
d="M244 123h51v-123h-85v-105h110v-94h-125q-35 0 -60.5 21.5t-25.5 68.5v60l40 49h-101v123h47v255h-47v123h196v-378zM70 635q0 38 26.5 64.5t64.5 26.5q37 0 63.5 -26.5t26.5 -64.5t-26.5 -64t-63.5 -26q-38 0 -64.5 26t-26.5 64z" />
    <glyph glyph-name="Idotaccent" unicode="&#x130;" horiz-adv-x="431" 
d="M293 132h66v-132h-287v132h64v444h-65v132h288v-132h-66v-444zM133 819q0 35 24 59t59 24t59 -24t24 -59t-24 -59t-59 -24t-59 24t-24 59z" />
    <glyph glyph-name="dotlessi" unicode="&#x131;" horiz-adv-x="345" 
d="M244 123h51v-123h-247v123h47v254h-47v124h196v-378z" />
    <glyph glyph-name="IJ" unicode="&#x132;" horiz-adv-x="974" 
d="M293 132h66v-132h-287v132h64v444h-65v132h288v-132h-66v-444zM534 226v-91h182v440h-71v133h287v-133h-58v-466q0 -19 -9.5 -38.5t-25 -35t-36.5 -25.5t-44 -10h-248q-23 0 -44 9.5t-37 25t-25.5 35t-9.5 39.5v117h139z" />
    <glyph glyph-name="ij" unicode="&#x133;" horiz-adv-x="641" 
d="M244 123h51v-123h-247v123h47v255h-47v123h196v-378zM70 635q0 38 26.5 64.5t64.5 26.5q37 0 63.5 -26.5t26.5 -64.5t-26.5 -64t-63.5 -26q-38 0 -64.5 26t-26.5 64zM395 635q0 38 26.5 64.5t64.5 26.5t64 -26.5t26 -64.5t-26 -64t-64 -26t-64.5 26t-26.5 64zM420 378
h-47v123h196v-545q0 -66 -33 -100t-95 -34h-128v124h107v432z" />
    <glyph glyph-name="Jcircumflex" unicode="&#x134;" horiz-adv-x="590" 
d="M150 227v-91h182v440h-71v133h287v-133h-58v-466q0 -19 -9.5 -38.5t-25 -35t-36.5 -25.5t-44 -10h-248q-23 0 -44 9.5t-37 25t-25.5 35t-9.5 39.5v117h139zM398 814l-159 -79l-35 52l175 148h42l178 -147l-40 -53z" />
    <glyph glyph-name="jcircumflex" unicode="&#x135;" horiz-adv-x="313" 
d="M92 377h-47v124h196v-545q0 -66 -33 -100t-95 -34h-128v124h107v431zM142 644l-143 -99l-50 56l174 167h42l171 -166l-50 -57z" />
    <glyph glyph-name="Kcommaaccent" unicode="&#x136;" horiz-adv-x="689" 
d="M384 708h271v-134h-66l-129 -130l161 -311h51v-133h-269v133h47l-102 200l-105 -105v-96h48v-132h-255v132h49v442h-50v134h255v-134h-47v-197l193 197h-52v134zM294 -276v232h66q22 0 34 -7t18 -16.5t7.5 -19.5t1.5 -16v-93l-79 -80h-48z" />
    <glyph glyph-name="kcommaaccent" unicode="&#x137;" horiz-adv-x="593" 
d="M303 501h246v-119h-59l-64 -56l104 -204h35v-122h-229v122h40l-59 109l-88 -77v-32h40v-122h-234v122h46v484h-51v122h199v-443l112 97h-38v119zM253 -268v232h66q22 0 34 -7t18 -16.5t7.5 -19.5t1.5 -16v-93l-79 -80h-48z" />
    <glyph glyph-name="kgreenlandic" unicode="&#x138;" horiz-adv-x="593" 
d="M303 501h246v-119h-59l-64 -56l104 -204h35v-122h-229v122h40l-59 109l-88 -77v-32h40v-122h-234v122h46v257h-51v122h199v-216l112 97h-38v119z" />
    <glyph glyph-name="Lacute" unicode="&#x139;" horiz-adv-x="594" 
d="M309 576h-58v-441h207v83h125v-218h-542v132h54v444h-52v132h266v-132zM138 805l188 129l61 -111l-204 -92z" />
    <glyph glyph-name="lacute" unicode="&#x13a;" horiz-adv-x="330" 
d="M239 122h51v-122h-247v122h47v484h-47v123l196 1v-608zM80 841l188 129l61 -111l-204 -92z" />
    <glyph glyph-name="Lcommaaccent" unicode="&#x13b;" horiz-adv-x="594" 
d="M309 576h-58v-441h207v83h125v-218h-542v132h54v444h-52v132h266v-132zM283 -266v232h66q22 0 34 -7t18 -16.5t7.5 -19.5t1.5 -16v-93l-79 -80h-48z" />
    <glyph glyph-name="lcommaaccent" unicode="&#x13c;" horiz-adv-x="330" 
d="M239 122h51v-122h-247v122h47v484h-47v123l196 1v-608zM104 -264v232h66q22 0 34 -7t18 -16.5t7.5 -19.5t1.5 -16v-93l-79 -80h-48z" />
    <glyph glyph-name="Lcaron" unicode="&#x13d;" horiz-adv-x="594" 
d="M309 576h-58v-441h207v83h125v-218h-542v132h54v444h-52v132h266v-132zM408 486v232h66q22 0 34 -7t18 -16.5t7.5 -19.5t1.5 -16v-93l-79 -80h-48z" />
    <glyph glyph-name="lcaron" unicode="&#x13e;" horiz-adv-x="439" 
d="M302 515v232h66q22 0 34 -7t18 -16.5t7.5 -19.5t1.5 -16v-93l-79 -80h-48zM239 122h51v-122h-247v122h47v484h-47v123l196 1v-608z" />
    <glyph glyph-name="Ldot" unicode="&#x13f;" horiz-adv-x="594" 
d="M309 576h-58v-441h207v83h125v-218h-542v132h54v444h-52v132h266v-132zM337 378q0 35 24 59t59 24t59 -24t24 -59t-24 -59t-59 -24t-59 24t-24 59z" />
    <glyph glyph-name="ldot" unicode="&#x140;" horiz-adv-x="491" 
d="M307 378q0 35 24 59t59 24t59 -24t24 -59t-24 -59t-59 -24t-59 24t-24 59zM239 122h51v-122h-247v122h47v484h-47v123l196 1v-608z" />
    <glyph glyph-name="Lslash" unicode="&#x141;" horiz-adv-x="594" 
d="M309 576h-58v-153l107 62l44 -74l-151 -88v-188h207v83h125v-218h-542v132h54v100l-52 -29l-43 74l95 55v244h-52v132h266v-132z" />
    <glyph glyph-name="lslash" unicode="&#x142;" horiz-adv-x="342" 
d="M244 438l59 34l44 -75l-103 -59v-216h51v-122h-247v122h47v131l-63 -36l-43 74l106 61v254h-47v123l196 1v-292z" />
    <glyph glyph-name="Nacute" unicode="&#x143;" horiz-adv-x="772" 
d="M539 263v313h-53v132h244v-132h-58v-579h-149l-295 467h-5v-332h53v-132h-234v132h53v444h-54v132h211l282 -445h5zM312 805l188 129l61 -111l-204 -92z" />
    <glyph glyph-name="nacute" unicode="&#x144;" horiz-adv-x="621" 
d="M349 122h40v250h-161v-250h47v-122h-244v122h49v257h-49v121l197 1v-72l70 72h131q25 0 45.5 -9t34.5 -23.5t21.5 -33t7.5 -37.5v-276h51v-122h-240v122zM228 583l108 201l107 -67l-135 -178z" />
    <glyph glyph-name="Ncommaaccent" unicode="&#x145;" horiz-adv-x="772" 
d="M539 263v313h-53v132h244v-132h-58v-579h-149l-295 467h-5v-332h53v-132h-234v132h53v444h-54v132h211l282 -445h5zM338 -246v232h66q22 0 34 -7t18 -16.5t7.5 -19.5t1.5 -16v-93l-79 -80h-48z" />
    <glyph glyph-name="ncommaaccent" unicode="&#x146;" horiz-adv-x="621" 
d="M349 122h40v250h-161v-250h47v-122h-244v122h49v257h-49v121l197 1v-72l70 72h131q25 0 45.5 -9t34.5 -23.5t21.5 -33t7.5 -37.5v-276h51v-122h-240v122zM273 -266v232h66q22 0 34 -7t18 -16.5t7.5 -19.5t1.5 -16v-93l-79 -80h-48z" />
    <glyph glyph-name="Ncaron" unicode="&#x147;" horiz-adv-x="772" 
d="M539 263v313h-53v132h244v-132h-58v-579h-149l-295 467h-5v-332h53v-132h-234v132h53v444h-54v132h211l282 -445h5zM541 933l39 -53l-177 -147h-43l-175 148l35 52l160 -79z" />
    <glyph glyph-name="ncaron" unicode="&#x148;" horiz-adv-x="621" 
d="M349 122h40v250h-161v-250h47v-122h-244v122h49v257h-49v121l197 1v-72l70 72h131q25 0 45.5 -9t34.5 -23.5t21.5 -33t7.5 -37.5v-276h51v-122h-240v122zM440 774l50 -56l-171 -166h-43l-174 167l51 56l142 -99z" />
    <glyph glyph-name="napostrophe" unicode="&#x149;" horiz-adv-x="759" 
d="M487 122h40v250h-161v-250h47v-122h-244v122h49v257h-49v121l197 1v-72l70 72h131q25 0 45.5 -9t34.5 -23.5t21.5 -33t7.5 -37.5v-276h51v-122h-240v122zM21 461v232h66q22 0 34 -7t18 -16.5t7.5 -19.5t1.5 -16v-93l-79 -80h-48z" />
    <glyph glyph-name="Eng" unicode="&#x14a;" horiz-adv-x="760" 
d="M534 272v302h-53v134h236v-134h-57v-683q0 -45 -25 -68t-60 -23h-136v102h98v85l-316 471h-5v-326h53v-132h-227v132h52v442h-53v134h206l282 -436h5z" />
    <glyph glyph-name="eng" unicode="&#x14b;" horiz-adv-x="607" 
d="M389 372h-161v-250h47v-122h-244v122h49v256h-49v122h38.5t60 0.5t59.5 0.5h39v-72l14 14t21.5 22t21 22t13.5 14h131q25 0 45.5 -9t34.5 -23.5t21.5 -33t7.5 -37.5v-493q0 -47 -26 -69t-60 -22h-157v94h94v464z" />
    <glyph glyph-name="Omacron" unicode="&#x14c;" horiz-adv-x="658" 
d="M61 599q0 20 10 39.5t26 35t37 25t43 9.5h305q22 0 43 -9.5t37 -25t25.5 -35t9.5 -39.5v-490q0 -19 -9.5 -38.5t-25 -35t-36.5 -25.5t-44 -10h-305q-21 0 -42 9.5t-37.5 25t-26.5 35t-10 39.5v490zM218 573v-438h222v438h-222zM175 859h322v-103h-322v103z" />
    <glyph glyph-name="omacron" unicode="&#x14d;" horiz-adv-x="568" 
d="M517 103q0 -18 -9 -36.5t-24.5 -33.5t-36.5 -24t-45 -9h-241q-24 0 -44 9t-35 23.5t-23 33t-8 37.5v295q0 19 8.5 37.5t23.5 33t35 23.5t43 9h247q25 0 45 -9t34 -23.5t22 -33t8 -37.5v-295zM197 127h174v247h-174v-247zM128 686h323v-104h-323v104z" />
    <glyph glyph-name="Obreve" unicode="&#x14e;" horiz-adv-x="658" 
d="M61 599q0 20 10 39.5t26 35t37 25t43 9.5h305q22 0 43 -9.5t37 -25t25.5 -35t9.5 -39.5v-490q0 -19 -9.5 -38.5t-25 -35t-36.5 -25.5t-44 -10h-305q-21 0 -42 9.5t-37.5 25t-26.5 35t-10 39.5v490zM218 573v-438h222v438h-222zM328 827q17 0 31 7.5t25 19.5t18 27.5
t9 31.5h87q0 -30 -11 -61.5t-32 -57.5t-53 -42.5t-74 -16.5t-74 16.5t-53.5 42.5t-32.5 57.5t-11 61.5h89q2 -16 8.5 -31.5t17 -27.5t25 -19.5t31.5 -7.5z" />
    <glyph glyph-name="obreve" unicode="&#x14f;" horiz-adv-x="568" 
d="M517 103q0 -18 -9 -36.5t-24.5 -33.5t-36.5 -24t-45 -9h-241q-24 0 -44 9t-35 23.5t-23 33t-8 37.5v295q0 19 8.5 37.5t23.5 33t35 23.5t43 9h247q25 0 45 -9t34 -23.5t22 -33t8 -37.5v-295zM197 127h174v247h-174v-247zM281 643q17 0 31 7.5t25 19.5t17.5 27.5t8.5 31.5
h88q0 -30 -11 -61.5t-32.5 -57t-53 -42t-73.5 -16.5t-74 16.5t-53.5 42t-32.5 57t-11 61.5h88q2 -16 8.5 -31.5t17 -27.5t25 -19.5t32.5 -7.5z" />
    <glyph glyph-name="Ohungarumlaut" unicode="&#x150;" horiz-adv-x="658" 
d="M61 599q0 20 10 39.5t26 35t37 25t43 9.5h305q22 0 43 -9.5t37 -25t25.5 -35t9.5 -39.5v-490q0 -19 -9.5 -38.5t-25 -35t-36.5 -25.5t-44 -10h-305q-21 0 -42 9.5t-37.5 25t-26.5 35t-10 39.5v490zM218 573v-438h222v438h-222zM144 822l188 129l61 -111l-205 -92z
M391 822l187 129l61 -111l-204 -92z" />
    <glyph glyph-name="ohungarumlaut" unicode="&#x151;" horiz-adv-x="568" 
d="M517 103q0 -18 -9 -36.5t-24.5 -33.5t-36.5 -24t-45 -9h-241q-24 0 -44 9t-35 23.5t-23 33t-8 37.5v295q0 19 8.5 37.5t23.5 33t35 23.5t43 9h247q25 0 45 -9t34 -23.5t22 -33t8 -37.5v-295zM197 127h174v247h-174v-247zM128 589l108 202l108 -67l-136 -178zM292 580
l108 201l108 -67l-136 -179z" />
    <glyph glyph-name="Racute" unicode="&#x154;" horiz-adv-x="656" 
d="M312 294h-59v-162h54v-132h-266v132h54v444h-54v132h447q28 0 49.5 -9.5t36 -25t22 -35t7.5 -39.5v-198q0 -20 -7 -39t-20.5 -34t-33.5 -24.5t-47 -9.5h-24l71 -164h78v-130h-182zM253 573v-147h191v147h-191zM259 805l188 129l61 -111l-204 -92z" />
    <glyph glyph-name="racute" unicode="&#x155;" horiz-adv-x="466" 
d="M234 358v-235h47v-123h-244v123h48v255h-48v122l197 1v-86q10 12 29 28t45 30.5t59 24.5t71 9q14 -17 19.5 -39t5 -45.5t-6 -45.5t-13.5 -40zM172 583l108 201l107 -67l-135 -178z" />
    <glyph glyph-name="Rcommaaccent" unicode="&#x156;" horiz-adv-x="656" 
d="M312 294h-59v-162h54v-132h-266v132h54v444h-54v132h447q28 0 49.5 -9.5t36 -25t22 -35t7.5 -39.5v-198q0 -20 -7 -39t-20.5 -34t-33.5 -24.5t-47 -9.5h-24l71 -164h78v-130h-182zM253 573v-147h191v147h-191zM327 -246v232h66q22 0 34 -7t18 -16.5t7.5 -19.5t1.5 -16
v-93l-79 -80h-48z" />
    <glyph glyph-name="rcommaaccent" unicode="&#x157;" horiz-adv-x="466" 
d="M234 358v-235h47v-123h-244v123h48v255h-48v122l197 1v-86q10 12 29 28t45 30.5t59 24.5t71 9q14 -17 19.5 -39t5 -45.5t-6 -45.5t-13.5 -40zM96 -266v232h66q22 0 34 -7t18 -16.5t7.5 -19.5t1.5 -16v-93l-79 -80h-48z" />
    <glyph glyph-name="Rcaron" unicode="&#x158;" horiz-adv-x="656" 
d="M312 294h-59v-162h54v-132h-266v132h54v444h-54v132h447q28 0 49.5 -9.5t36 -25t22 -35t7.5 -39.5v-198q0 -20 -7 -39t-20.5 -34t-33.5 -24.5t-47 -9.5h-24l71 -164h78v-130h-182zM253 573v-147h191v147h-191zM474 933l39 -53l-177 -147h-43l-175 148l35 52l160 -79z" />
    <glyph glyph-name="rcaron" unicode="&#x159;" horiz-adv-x="466" 
d="M234 358v-235h47v-123h-244v123h48v255h-48v122l197 1v-86q10 12 29 28t45 30.5t59 24.5t71 9q14 -17 19.5 -39t5 -45.5t-6 -45.5t-13.5 -40zM373 774l50 -56l-171 -166h-43l-174 167l51 56l142 -99z" />
    <glyph glyph-name="Sacute" unicode="&#x15a;" horiz-adv-x="613" 
d="M168 298q-22 0 -43 8.5t-37.5 23.5t-26.5 35t-10 42v192q0 20 9.5 39.5t25 35t37 25t45.5 9.5h165l70 -74v74h127v-196h-127v61h-196v-140h238q25 0 46.5 -8.5t37 -23.5t24 -35t8.5 -42v-214q0 -23 -10 -43t-26.5 -35t-37.5 -23.5t-42 -8.5h-195l-71 73v-73h-126v196h126
v-61h225v163h-236zM211 805l188 129l61 -111l-204 -92z" />
    <glyph glyph-name="sacute" unicode="&#x15b;" horiz-adv-x="531" 
d="M464 501v-157h-132v41h-141v-70h192q24 0 43 -9t32.5 -23t20.5 -32t7 -37v-117q0 -18 -8.5 -35t-22.5 -31t-32.5 -22.5t-39.5 -8.5h-143l-63 64v-64h-133v156h133v-39h160v77h-187q-21 0 -41 9t-35 23.5t-24 33t-9 37.5v107q0 18 8.5 35.5t23.5 31t34.5 22t41.5 8.5h124
l59 -66v66h132zM181 583l108 201l107 -67l-135 -178z" />
    <glyph glyph-name="Scircumflex" unicode="&#x15c;" horiz-adv-x="613" 
d="M168 298q-22 0 -43 8.5t-37.5 23.5t-26.5 35t-10 42v192q0 20 9.5 39.5t25 35t37 25t45.5 9.5h165l70 -74v74h127v-196h-127v61h-196v-140h238q25 0 46.5 -8.5t37 -23.5t24 -35t8.5 -42v-214q0 -23 -10 -43t-26.5 -35t-37.5 -23.5t-42 -8.5h-195l-71 73v-73h-126v196h126
v-61h225v163h-236zM309 812l-159 -79l-35 52l175 148h42l178 -147l-40 -53z" />
    <glyph glyph-name="scircumflex" unicode="&#x15d;" horiz-adv-x="531" 
d="M464 501v-157h-132v41h-141v-70h192q24 0 43 -9t32.5 -23t20.5 -32t7 -37v-117q0 -18 -8.5 -35t-22.5 -31t-32.5 -22.5t-39.5 -8.5h-143l-63 64v-64h-133v156h133v-39h160v77h-187q-21 0 -41 9t-35 23.5t-24 33t-9 37.5v107q0 18 8.5 35.5t23.5 31t34.5 22t41.5 8.5h124
l59 -66v66h132zM258 644l-142 -99l-51 56l174 167h43l171 -166l-50 -57z" />
    <glyph glyph-name="Scedilla" unicode="&#x15e;" horiz-adv-x="613" 
d="M168 298q-22 0 -43 8.5t-37.5 23.5t-26.5 35t-10 42v192q0 20 9.5 39.5t25 35t37 25t45.5 9.5h165l70 -74v74h127v-196h-127v61h-196v-140h238q25 0 46.5 -8.5t37 -23.5t24 -35t8.5 -42v-214q0 -23 -10 -43t-26.5 -35t-37.5 -23.5t-42 -8.5h-104l-28 -36h56
q27 0 40.5 -15t13.5 -32v-85q0 -17 -14.5 -33t-41.5 -16h-134q-25 0 -40 15.5t-15 33.5v39h86v-20h71v50h-70l-39 47l38 52h-14l-71 73v-73h-126v196h126v-61h225v163h-236v0z" />
    <glyph glyph-name="scedilla" unicode="&#x15f;" horiz-adv-x="531" 
d="M464 501v-157h-132v41h-141v-70h192q24 0 43 -9t32.5 -23t20.5 -32t7 -37v-117q0 -18 -8.5 -35t-22.5 -31t-32.5 -22.5t-39.5 -8.5h-61l-28 -36h56q27 0 40.5 -15t13.5 -32v-85q0 -17 -14.5 -33t-41.5 -16h-134q-25 0 -40 15.5t-15 33.5v39h86v-20h71v50h-70l-39 47
l38 52h-5l-63 64v-64h-133v156h133v-39h160v77h-187q-21 0 -41 9t-35 23.5t-24 33t-9 37.5v107q0 18 8.5 35.5t23.5 31t34.5 22t41.5 8.5h124l59 -66v66h132z" />
    <glyph glyph-name="Tcommaaccent" unicode="&#x162;" horiz-adv-x="665" 
d="M516 575h-105v-442h85v-133h-320v133h77v442h-105v-92h-137v225h642v-225h-137v92zM273 -266v232h66q22 0 34 -7t18 -16.5t7.5 -19.5t1.5 -16v-93l-79 -80h-48z" />
    <glyph glyph-name="tcommaaccent" unicode="&#x163;" horiz-adv-x="435" 
d="M206 0q-35 0 -58.5 11t-38 28.5t-21 40t-6.5 45.5v254h-61v120h61v85l57 64h92v-149h138v-120h-138v-256h105v64h89v-90q0 -17 -8 -34t-22.5 -31t-34.5 -23t-43 -9h-111zM192 -266v232h66q22 0 34 -7t18 -16.5t7.5 -19.5t1.5 -16v-93l-79 -80h-48z" />
    <glyph glyph-name="Tcaron" unicode="&#x164;" horiz-adv-x="665" 
d="M516 575h-105v-442h85v-133h-320v133h77v442h-105v-92h-137v225h642v-225h-137v92zM492 933l39 -53l-177 -147h-43l-175 148l35 52l160 -79z" />
    <glyph glyph-name="tcaron" unicode="&#x165;" horiz-adv-x="520" 
d="M379 522v232h66q22 0 34 -7t18 -16.5t7.5 -19.5t1.5 -16v-93l-79 -80h-48zM206 0q-35 0 -58.5 11t-38 28.5t-21 40t-6.5 45.5v254h-61v120h61v85l57 64h92v-149h138v-120h-138v-256h105v64h89v-90q0 -17 -8 -34t-22.5 -31t-34.5 -23t-43 -9h-111z" />
    <glyph glyph-name="Tbar" unicode="&#x166;" horiz-adv-x="665" 
d="M516 575h-105v-183h154v-81h-154v-178h85v-133h-320v133h77v178h-151v81h151v183h-105v-92h-137v225h642v-225h-137v92z" />
    <glyph glyph-name="tbar" unicode="&#x167;" horiz-adv-x="435" 
d="M23 307h59v72h-61v120h61v85l57 64h92v-149h138v-120h-138v-72h104v-68h-104v-116h105v64h89v-90q0 -17 -8 -34t-22.5 -31t-34.5 -23t-43 -9h-111q-35 0 -58.5 11t-38 28.5t-21 40t-6.5 45.5v114h-59v68z" />
    <glyph glyph-name="Utilde" unicode="&#x168;" horiz-adv-x="723" 
d="M470 135v441h-67v132h278v-132h-54v-460q0 -21 -8.5 -42t-24 -37.5t-38.5 -26.5t-51 -10h-291q-29 0 -51.5 10t-38 26t-24 37t-8.5 43v460h-51v132h269v-132h-62v-441h222zM431 748q-22 0 -40 5.5t-34.5 12.5t-32 12.5t-31.5 5.5q-20 0 -34.5 -13t-27.5 -27q-3 2 -12.5 8
t-20 13t-20 13t-12.5 8q4 10 14 27t25 33t36 28t48 12q22 0 40 -6.5t34 -14t30.5 -14t29.5 -6.5q20 0 35 12t30 27l65 -46q-6 -12 -16 -27.5t-25.5 -29.5t-35.5 -23.5t-45 -9.5z" />
    <glyph glyph-name="utilde" unicode="&#x169;" horiz-adv-x="613" 
d="M267 379h-44v-252h161v252h-47v122h196v-379h50v-122h-199v71l-70 -71h-134q-26 0 -45.5 9t-33 23t-20.5 32.5t-7 38.5v276h-48v122h241v-122zM375 565q-22 0 -40 5.5t-34.5 12.5t-32 12.5t-31.5 5.5q-20 0 -34.5 -13t-27.5 -27q-3 2 -12.5 8t-20 13t-20 13t-12.5 8
q4 10 14 27t25 33t36 28t48 12q22 0 40 -6.5t34 -14t30.5 -14t29.5 -6.5q20 0 35 12t30 27l65 -46q-6 -12 -16 -27.5t-25.5 -29.5t-35.5 -23.5t-45 -9.5z" />
    <glyph glyph-name="Umacron" unicode="&#x16a;" horiz-adv-x="723" 
d="M470 135v441h-67v132h278v-132h-54v-460q0 -21 -8.5 -42t-24 -37.5t-38.5 -26.5t-51 -10h-291q-29 0 -51.5 10t-38 26t-24 37t-8.5 43v460h-51v132h269v-132h-62v-441h222zM193 859h322v-103h-322v103z" />
    <glyph glyph-name="umacron" unicode="&#x16b;" horiz-adv-x="613" 
d="M267 379h-44v-252h161v252h-47v122h196v-379h50v-122h-199v71l-70 -71h-134q-26 0 -45.5 9t-33 23t-20.5 32.5t-7 38.5v276h-48v122h241v-122zM139 686h323v-104h-323v104z" />
    <glyph glyph-name="Ubreve" unicode="&#x16c;" horiz-adv-x="723" 
d="M470 135v441h-67v132h278v-132h-54v-460q0 -21 -8.5 -42t-24 -37.5t-38.5 -26.5t-51 -10h-291q-29 0 -51.5 10t-38 26t-24 37t-8.5 43v460h-51v132h269v-132h-62v-441h222zM356 823q17 0 31 7.5t25 19.5t17.5 27.5t8.5 31.5h88q0 -30 -11 -61.5t-32.5 -57t-53 -42
t-73.5 -16.5t-74 16.5t-53.5 42t-32.5 57t-11 61.5h88q2 -16 8.5 -31.5t17 -27.5t25 -19.5t32.5 -7.5z" />
    <glyph glyph-name="ubreve" unicode="&#x16d;" horiz-adv-x="613" 
d="M267 379h-44v-252h161v252h-47v122h196v-379h50v-122h-199v71l-70 -71h-134q-26 0 -45.5 9t-33 23t-20.5 32.5t-7 38.5v276h-48v122h241v-122zM302 643q17 0 31 7.5t25 19.5t17.5 27.5t8.5 31.5h88q0 -30 -11 -61.5t-32.5 -57t-53 -42t-73.5 -16.5t-74 16.5t-53.5 42
t-32.5 57t-11 61.5h88q2 -16 8.5 -31.5t17 -27.5t25 -19.5t32.5 -7.5z" />
    <glyph glyph-name="Uring" unicode="&#x16e;" horiz-adv-x="723" 
d="M470 135v441h-67v132h278v-132h-54v-460q0 -21 -8.5 -42t-24 -37.5t-38.5 -26.5t-51 -10h-291q-29 0 -51.5 10t-38 26t-24 37t-8.5 43v460h-51v132h269v-132h-62v-441h222zM356 755q-25 0 -46.5 9t-37.5 24.5t-25 36.5t-9 45q0 23 9 44t25 36.5t37.5 25t46.5 9.5t46 -9
t37 -25t25 -36.5t9 -44.5t-9.5 -45t-25 -36.5t-37 -24.5t-45.5 -9zM356 917q-20 0 -33.5 -13.5t-13.5 -33.5t13.5 -34.5t33.5 -14.5q19 0 32.5 14.5t13.5 34.5q0 19 -13.5 33t-32.5 14z" />
    <glyph glyph-name="uring" unicode="&#x16f;" horiz-adv-x="613" 
d="M267 379h-44v-252h161v252h-47v122h196v-379h50v-122h-199v71l-70 -71h-134q-26 0 -45.5 9t-33 23t-20.5 32.5t-7 38.5v276h-48v122h241v-122zM304 552q-25 0 -46.5 9t-37.5 24.5t-25 36.5t-9 45q0 23 9 44t25 36.5t37.5 25t46.5 9.5t46 -9t37 -25t25 -36.5t9 -44.5
t-9.5 -45t-25 -36.5t-37 -24.5t-45.5 -9zM304 714q-20 0 -33.5 -13.5t-13.5 -33.5t13.5 -34.5t33.5 -14.5q19 0 32.5 14.5t13.5 34.5q0 19 -13.5 33t-32.5 14z" />
    <glyph glyph-name="Uhungarumlaut" unicode="&#x170;" horiz-adv-x="723" 
d="M470 135v441h-67v132h278v-132h-54v-460q0 -21 -8.5 -42t-24 -37.5t-38.5 -26.5t-51 -10h-291q-29 0 -51.5 10t-38 26t-24 37t-8.5 43v460h-51v132h269v-132h-62v-441h222zM155 819l188 129l61 -111l-205 -92zM402 819l187 129l61 -111l-204 -92z" />
    <glyph glyph-name="uhungarumlaut" unicode="&#x171;" horiz-adv-x="613" 
d="M267 379h-44v-252h161v252h-47v122h196v-379h50v-122h-199v71l-70 -71h-134q-26 0 -45.5 9t-33 23t-20.5 32.5t-7 38.5v276h-48v122h241v-122zM150 589l108 202l108 -67l-136 -178zM314 580l108 201l108 -67l-136 -179z" />
    <glyph glyph-name="Uogonek" unicode="&#x172;" horiz-adv-x="723" 
d="M470 135v441h-67v132h278v-132h-54v-460q0 -21 -8.5 -42t-24 -37.5t-38.5 -26.5t-51 -10h-26v-104h110v-94h-125q-35 0 -60.5 21.5t-25.5 68.5v60l39 48h-203q-29 0 -51.5 10t-38 26t-24 37t-8.5 43v460h-51v132h269v-132h-62v-441h222z" />
    <glyph glyph-name="Wcircumflex" unicode="&#x174;" horiz-adv-x="985" 
d="M497 272l-77 -278h-180l-178 582h-43v133h278v-133h-75l117 -409h6l91 319l-26 90h-56v133h286v-133h-73l119 -408h6l105 408h-72v133h243v-133h-42l-159 -582h-180l-85 278h-5zM497 812l-159 -79l-35 52l175 148h42l178 -147l-40 -53z" />
    <glyph glyph-name="wcircumflex" unicode="&#x175;" horiz-adv-x="835" 
d="M593 136l79 242h-49v123h200v-123h-34l-127 -383h-176l-60 166l-12 -23l-49 -143h-177q-36 96 -71 191t-71 192h-34q0 31 -0.5 61.5t-0.5 61.5h248v-123h-55l86 -247h6l64 189q-5 14 -10 29t-10 29h-27v123h238v-123h-49l84 -242h7zM441 644l-142 -99l-51 56l174 167h43
l171 -166l-50 -57z" />
    <glyph glyph-name="Ycircumflex" unicode="&#x176;" horiz-adv-x="660" 
d="M21 576v133h272v-133h-68l126 -200l119 200h-74v133h253v-133h-42l-183 -301v-143h65v-132h-286v132h64v127l-206 317h-40zM348 812l-159 -79l-35 52l175 148h42l178 -147l-40 -53z" />
    <glyph glyph-name="ycircumflex" unicode="&#x177;" horiz-adv-x="557" 
d="M293 157l77 221h-40v123h216v-123h-41l-164 -436h52l-1 -120h-263v120h81l30 82h-44l-138 354h-41v123h223v-123h-33l80 -221h6zM280 644l-142 -99l-51 56l174 167h43l171 -166l-50 -57z" />
    <glyph glyph-name="Zacute" unicode="&#x179;" horiz-adv-x="584" 
d="M206 133h230v83h126v-216h-541v133l338 442h-184v-66h-127v199h499v-129zM243 805l188 129l61 -111l-204 -92z" />
    <glyph glyph-name="zacute" unicode="&#x17a;" horiz-adv-x="519" 
d="M207 127h142v61h132v-188h-450v127l262 248h-116v-46h-132v172h427v-122zM221 583l108 201l107 -67l-135 -178z" />
    <glyph glyph-name="Zdotaccent" unicode="&#x17b;" horiz-adv-x="584" 
d="M206 133h230v83h126v-216h-541v133l338 442h-184v-66h-127v199h499v-129zM237 819q0 35 24 59t59 24t59 -24t24 -59t-24 -59t-59 -24t-59 24t-24 59z" />
    <glyph glyph-name="zdotaccent" unicode="&#x17c;" horiz-adv-x="519" 
d="M207 127h142v61h132v-188h-450v127l262 248h-116v-46h-132v172h427v-122zM194 644q0 35 24 59t59 24t59 -24t24 -59t-24 -59t-59 -24t-59 24t-24 59z" />
    <glyph glyph-name="Ohorn" unicode="&#x1a0;" horiz-adv-x="719" 
d="M61 599q0 20 10 39.5t26 35t37 25t43 9.5h305q22 0 43 -9.5t37 -25t25.5 -35t9.5 -39.5v-42h38v171h84v-177q0 -15 -6 -30t-17 -27t-28 -19.5t-38 -7.5h-33v-358q0 -19 -9.5 -38.5t-25 -35t-36.5 -25.5t-44 -10h-305q-21 0 -42 9.5t-37.5 25t-26.5 35t-10 39.5v490z
M218 573v-438h222v438h-222z" />
    <glyph glyph-name="ohorn" unicode="&#x1a1;" horiz-adv-x="630" 
d="M517 320v-217q0 -18 -9 -36.5t-24.5 -33.5t-36.5 -24t-45 -9h-241q-24 0 -44 9t-35 23.5t-23 33t-8 37.5v295q0 19 8.5 37.5t23.5 33t35 23.5t43 9h247q22 0 41 -7.5t33 -20.5t22.5 -29t11.5 -34h30v127h84v-132q0 -15 -6 -30.5t-17 -27.5t-28 -19.5t-38 -7.5h-24z
M197 127h174v247h-174v-247z" />
    <glyph glyph-name="Uhorn" unicode="&#x1af;" horiz-adv-x="794" 
d="M470 135v440h-67v133h265v-133h-41v-42h83v202h84v-208q0 -15 -6 -30t-17 -27t-28 -19.5t-38 -7.5h-78v-327q0 -21 -8.5 -42t-24 -37.5t-38.5 -26.5t-51 -10h-291q-29 0 -51.5 10t-38 26t-24 37t-8.5 43v459h-51v133h269v-133h-62v-440h222z" />
    <glyph glyph-name="uhorn" unicode="&#x1b0;" horiz-adv-x="673" 
d="M267 379h-44v-252h161v252h-47v122h196v-105h54v144h86v-149q0 -15 -6 -30.5t-17.5 -27.5t-28.5 -19.5t-38 -7.5h-50v-184h50v-122h-199v71l-70 -71h-134q-26 0 -45.5 9t-33 23t-20.5 32.5t-7 38.5v276h-48v122h241v-122z" />
    <glyph glyph-name="AEacute" unicode="&#x1fc;" horiz-adv-x="1030" 
d="M245 204q-12 -17 -25 -35.5t-25 -36.5h81v-132h-268v132h55l318 442h-58v134h659v-229h-126v95h-209v-140h226v-124h-226v-175h225v130h126v-265h-561v133h53v71h-245zM594 805l188 129l61 -111l-204 -92zM327 318h163v235z" />
    <glyph glyph-name="aeacute" unicode="&#x1fd;" horiz-adv-x="825" 
d="M475 0q-38 0 -66.5 22t-38.5 53l-78 -75h-143q-25 0 -44.5 8.5t-33.5 22.5t-21.5 31.5t-7.5 34.5v96q0 18 7 36.5t20 32.5t32.5 23t45.5 9h209v78h-150v-38h-130v55q0 19 9 39t25.5 36t39 26.5t49.5 10.5h112q38 0 60 -9t40 -35q17 22 34.5 32.5t40.5 10.5h164
q34 0 57.5 -11.5t38 -28.5t21 -38.5t6.5 -40.5v-91q0 -42 -19.5 -56.5t-51.5 -14.5h-205v-92h142v48h136v-72q0 -18 -9 -36.5t-24.5 -33.5t-37 -24t-46.5 -9h-183zM190 123h166v96h-166v-96zM497 294h128v78h-128v-78zM376 583l108 201l107 -67l-135 -178z" />
    <glyph glyph-name="Oslashacute" unicode="&#x1fe;" horiz-adv-x="658" 
d="M61 599q0 20 10 39.5t26 35t36.5 25t42.5 9.5h305q11 0 21.5 -3.5t21.5 -8.5q8 14 17.5 27.5t17.5 27.5l42 -29q-9 -14 -18.5 -28.5t-19.5 -28.5q15 -14 24 -31t9 -35v-474q0 -27 -11 -52q-11 -29 -40 -51t-64 -22h-305q-24 0 -46 11l-48 -71l-41 28q12 19 24.5 37.5
t25.5 37.5q-14 14 -22 31t-8 35v490zM440 135v342l-223 -332v-10h223zM217 573v-338l223 333v5h-223zM270 830l188 129l61 -111l-204 -92z" />
    <glyph glyph-name="oslashacute" unicode="&#x1ff;" horiz-adv-x="568" 
d="M221 589l108 201l107 -67l-135 -178zM87 29q-17 15 -26.5 34.5t-9.5 39.5v295q0 19 8.5 37.5t23.5 33t35 23.5t43 9h247q25 0 41 -8l41 55l38 -31l-39 -52q13 -14 20.5 -32t7.5 -35v-295q0 -18 -9 -36.5t-24.5 -33.5t-36.5 -24t-45 -9h-241q-9 0 -17 1t-16 4l-50 -65
l-37 31zM200 176l156 198h-156v-198zM368 127v182l-146 -182h146z" />
    <glyph glyph-name="Scommaaccent" unicode="&#x218;" horiz-adv-x="613" 
d="M168 298q-22 0 -43 8.5t-37.5 23.5t-26.5 35t-10 42v192q0 20 9.5 39.5t25 35t37 25t45.5 9.5h165l70 -74v74h127v-196h-127v61h-196v-140h238q25 0 46.5 -8.5t37 -23.5t24 -35t8.5 -42v-214q0 -23 -10 -43t-26.5 -35t-37.5 -23.5t-42 -8.5h-195l-71 73v-73h-126v196h126
v-61h225v163h-236zM280 -266v232h66q22 0 34 -7t18 -16.5t7.5 -19.5t1.5 -16v-93l-79 -80h-48z" />
    <glyph glyph-name="scommaaccent" unicode="&#x219;" horiz-adv-x="531" 
d="M464 501v-157h-132v41h-141v-70h192q24 0 43 -9t32.5 -23t20.5 -32t7 -37v-117q0 -18 -8.5 -35t-22.5 -31t-32.5 -22.5t-39.5 -8.5h-143l-63 64v-64h-133v156h133v-39h160v77h-187q-21 0 -41 9t-35 23.5t-24 33t-9 37.5v107q0 18 8.5 35.5t23.5 31t34.5 22t41.5 8.5h124
l59 -66v66h132zM223 -266v232h66q22 0 34 -7t18 -16.5t7.5 -19.5t1.5 -16v-93l-79 -80h-48z" />
    <glyph glyph-name="schwa" unicode="&#x259;" horiz-adv-x="545" 
d="M104 428l120 72h160q23 0 43 -9t34.5 -23.5t23 -33t8.5 -37.5v-270q0 -20 -6.5 -42t-20.5 -41t-37 -31.5t-56 -12.5h-211q-33 0 -54 9.5t-33.5 24t-17.5 32t-5 33.5v111q0 42 19 57.5t52 15.5h222v89h-242zM345 193h-146v-69h146v69z" />
    <glyph glyph-name="trianglebullet" unicode="&#x2023;" horiz-adv-x="399" 
d="M371 222l-328 -181v366z" />
    <glyph glyph-name="afii10100" unicode="&#x453;" horiz-adv-x="507" 
d="M292 0h-257v122h43v257h-43v122h459v-189h-125v66h-141v-256h64v-122zM182 583l108 201l107 -67l-135 -178z" />
    <glyph glyph-name="afii10067" unicode="&#x432;" horiz-adv-x="589" 
d="M32 0v122h43v255h-43v124h392q25 0 44 -8t32.5 -21t20.5 -30t7 -35v-54q0 -29 -10.5 -47.5t-37.5 -29.5q35 -11 47 -33.5t12 -45.5v-103q0 -18 -7.5 -34.5t-21 -30t-33 -21.5t-43.5 -8h-402zM219 124h174v88h-174v-88zM219 303h165v74h-165v-74z" />
    <glyph glyph-name="afii10068" unicode="&#x433;" horiz-adv-x="507" 
d="M292 0h-257v122h43v257h-43v122h459v-189h-125v66h-141v-256h64v-122z" />
    <glyph glyph-name="afii10073" unicode="&#x437;" horiz-adv-x="510" 
d="M144 0q-35 0 -57 9.5t-35 24.5t-18 34t-5 37v62h139v-41h147v91h-148v94h140v66h-137v-30h-132v50q0 18 4.5 36.5t17.5 33.5t34.5 24.5t56.5 9.5h197q28 0 48 -9t33 -23t18.5 -30.5t5.5 -32.5v-54q0 -23 -9 -43t-37 -34q30 -11 42.5 -30.5t12.5 -45.5v-96q0 -20 -8 -38.5
t-22.5 -33t-33.5 -23t-41 -8.5h-213v0z" />
    <glyph glyph-name="afii10078" unicode="&#x43c;" horiz-adv-x="791" 
d="M561 290l-116 -292h-108l-64 148t-64 149h-5v-173h40v-122h-212v122h50v257h-50v122h237q34 -78 67 -155.5t69 -155.5l123 311h230v-122h-49v-257h49v-122h-228v122h36v168h-5z" />
    <glyph glyph-name="afii10079" unicode="&#x43d;" horiz-adv-x="630" 
d="M274 122v-122h-238v122h46v256h-46v123h238v-123h-46v-69h172v69h-50v123h245v-123h-50v-256h50v-122h-245v122h50v88h-172v-88h46z" />
    <glyph glyph-name="afii10084" unicode="&#x442;" horiz-adv-x="546" 
d="M404 378h-60v-255h54v-123h-251v123h50v255h-60v-54h-125v177h518v-177h-126v54z" />
    <glyph glyph-name="afii10088" unicode="&#x446;" horiz-adv-x="624" 
d="M31 0v123h50v254h-48v124h237v-124h-41v-250h161v250h-40v124h241v-124h-51v-255h51v-240h-134v118h-426z" />
    <glyph glyph-name="afii10089" unicode="&#x447;" horiz-adv-x="609" 
d="M250 379h-40v-101h161v101h-47v122h244v-122h-49v-255h49v-122l-197 -1v219l-70 -72h-130q-26 0 -46 9t-34 23.5t-21.5 33t-7.5 38.5v127h-52v122h240v-122z" />
    <glyph glyph-name="afii10091" unicode="&#x449;" horiz-adv-x="868" 
d="M702 0h-671v123h50v254h-48v124h196v-377h129v253h-33v124h220v-124h-39v-253h131v377h199v-124h-51v-254h51v-241h-134v118z" />
    <glyph glyph-name="afii10092" unicode="&#x44a;" horiz-adv-x="732" 
d="M538 230h-177v-104h177v104zM361 479v-192l70 72h147q25 0 45 -9t34.5 -23.5t22 -33t7.5 -37.5v-153q0 -18 -8 -36.5t-22 -33t-34.5 -24t-44.5 -9.5h-256q-24 0 -44 9t-34.5 23.5t-22.5 33t-8 37.5v275h-73v-62h-126v185h325z" />
    <glyph glyph-name="afii10093" unicode="&#x44b;" horiz-adv-x="896" 
d="M814 123h51v-123h-246v123h47v255h-47v123h195v-378zM189 0q-24 0 -44 9t-35 23.5t-23 33t-8 37.5l-1 275h-47v123l196 1v-215l70 72h147q25 0 45.5 -9t34.5 -23.5t21.5 -33t7.5 -37.5v-153q0 -18 -8 -36.5t-22 -33t-34.5 -24t-44.5 -9.5h-255zM405 230h-178v-104h178
v104z" />
    <glyph glyph-name="afii10094" unicode="&#x44c;" horiz-adv-x="605" 
d="M189 0q-24 0 -44 9t-35 23.5t-23 33t-8 37.5l-1 275h-47v123l196 1v-215l70 72h147q25 0 45.5 -9t34.5 -23.5t21.5 -33t7.5 -37.5v-153q0 -18 -8 -36.5t-22 -33t-34.5 -24t-44.5 -9.5h-255zM405 230h-178v-104h178v104z" />
    <glyph glyph-name="afii10095" unicode="&#x44d;" horiz-adv-x="507" 
d="M315 378h-149v-38h-132v161h132v-62q16 15 31 31t30 31h134q25 0 44.5 -8.5t32.5 -22t19.5 -30.5t6.5 -33v-294q0 -20 -7 -40t-20 -36t-32.5 -26.5t-44.5 -10.5h-222q-27 0 -48 9t-34.5 22.5t-20.5 30.5t-7 33v84h137v-54h150v90h-149v97h149v66z" />
    <glyph glyph-name="afii10096" unicode="&#x44e;" horiz-adv-x="831" 
d="M336 200h-108v-78h44v-122h-240v122h47v256h-48v124h197v-185h108v83q0 16 8 34t22.5 33t33.5 25t40 10h233q23 0 42.5 -9t33.5 -23t22 -31.5t8 -33.5v-303q0 -16 -8 -34t-22 -33t-33.5 -25t-42.5 -10h-233q-21 0 -40 8.5t-33.5 22.5t-22.5 32t-8 38v99zM480 374v-247
h154v247h-154z" />
    <glyph glyph-name="afii10097" unicode="&#x44f;" horiz-adv-x="578" 
d="M544 501v-124h-43v-255h43v-122h-226v122h36v73h-50q-32 -48 -64.5 -97.5t-64.5 -97.5h-147v113h69l54 81q-57 5 -80.5 30.5t-23.5 67.5v97q0 19 6 38.5t18.5 36t33 27t49.5 10.5h390zM192 300h161v81h-161v-81z" />
    <glyph glyph-name="afii10101" unicode="&#x454;" horiz-adv-x="528" 
d="M201 312h149v-97h-149v-90h150v54h137v-84q0 -18 -7 -35t-21 -30.5t-34.5 -21.5t-47.5 -8h-222q-21 0 -40 9t-33 23t-22.5 31.5t-8.5 34.5v309q0 17 8.5 33.5t22.5 30t32.5 22t39.5 8.5h127q16 -15 31 -31t30 -31v62h132v-161h-132v38h-142v-66z" />
    <glyph glyph-name="afii10072" unicode="&#x436;" horiz-adv-x="829" 
d="M309 500q52 0 103.5 0.5t103.5 0.5v-118h-32v-99l108 96q0 1 -1 2h-30v119h225v-119h-59l-65 -58l99 -205h35v-119h-216v119h38l-56 117l-78 -68v-49h37v-119h-215v119h37v50l-78 68l-57 -118h38v-119h-215v119h35l99 205l-66 58h-58v119h223q0 -30 0.5 -59.5t0.5 -59.5
h-29l-1 -2q27 -23 54 -46.5t54 -47.5v97h-34v117z" />
    <glyph glyph-name="upwards.wideheaded.arrow" unicode="&#xe378;" horiz-adv-x="644" 
d="M617 218l-222 220v-436h-138v436l-219 -221v195l288 287q73 -72 145 -144.5t144 -144.5z" />
    <glyph glyph-name="downwards.wideheaded.arrow" unicode="&#xe379;" horiz-adv-x="644" 
d="M615 291q-144 -145 -289 -289l-288 287v195l219 -221v436h138v-436l222 220z" />
    <glyph glyph-name="leftwards.wideheaded.arrow" unicode="&#xe37a;" horiz-adv-x="755" 
d="M328 56l-289 291l288 289h194l-221 -220h437v-139h-437l221 -221h-193z" />
    <glyph glyph-name="forwardright.wideheaded.arrow" unicode="&#xe37b;" horiz-adv-x="639" 
d="M457 63v322l-316 -317l-99 100l316 315h-320l141 140h416v-419z" />
    <glyph glyph-name="forwardleft.wideheadedarrow" unicode="&#xe37c;" horiz-adv-x="639" 
d="M28 204v419h417l141 -140h-321l317 -315l-100 -100l-315 317v-322z" />
    </font>
</defs>
</svg>
